<?xml version="1.0" encoding="utf-8" standalone="no"?>
<!DOCTYPE svg PUBLIC "-//W3C//DTD SVG 1.1//EN"
  "http://www.w3.org/Graphics/SVG/1.1/DTD/svg11.dtd">
<!-- Created with matplotlib (http://matplotlib.org/) -->
<svg height="288pt" version="1.1" viewBox="0 0 576 288" width="576pt" xmlns="http://www.w3.org/2000/svg" xmlns:xlink="http://www.w3.org/1999/xlink">
 <defs>
  <style type="text/css">
*{stroke-linecap:butt;stroke-linejoin:round;stroke-miterlimit:100000;}
  </style>
 </defs>
 <g id="figure_1">
  <g id="patch_1">
   <path d="M 0 288 
L 576 288 
L 576 0 
L 0 0 
z
" style="fill:#ffffff;"/>
  </g>
  <g id="axes_1">
   <g id="patch_2">
    <path d="M 72 109.963636 
L 518.4 109.963636 
L 518.4 28.8 
L 72 28.8 
z
" style="fill:#ffffff;"/>
   </g>
   <g id="matplotlib.axis_1">
    <g id="xtick_1">
     <g id="line2d_1">
      <defs>
       <path d="M 0 0 
L 0 6 
" id="md1665caddc" style="stroke:#262626;"/>
      </defs>
      <g>
       <use style="fill:#262626;stroke:#262626;" x="72.0" xlink:href="#md1665caddc" y="109.963636364"/>
      </g>
     </g>
     <g id="text_1">
      <!-- 0 -->
      <defs>
       <path d="M 4.15625 35.296875 
Q 4.15625 48 6.765625 55.734375 
Q 9.375 63.484375 14.515625 67.671875 
Q 19.671875 71.875 27.484375 71.875 
Q 33.25 71.875 37.59375 69.546875 
Q 41.9375 67.234375 44.765625 62.859375 
Q 47.609375 58.5 49.21875 52.21875 
Q 50.828125 45.953125 50.828125 35.296875 
Q 50.828125 22.703125 48.234375 14.96875 
Q 45.65625 7.234375 40.5 3 
Q 35.359375 -1.21875 27.484375 -1.21875 
Q 17.140625 -1.21875 11.234375 6.203125 
Q 4.15625 15.140625 4.15625 35.296875 
M 13.1875 35.296875 
Q 13.1875 17.671875 17.3125 11.828125 
Q 21.4375 6 27.484375 6 
Q 33.546875 6 37.671875 11.859375 
Q 41.796875 17.71875 41.796875 35.296875 
Q 41.796875 52.984375 37.671875 58.78125 
Q 33.546875 64.59375 27.390625 64.59375 
Q 21.34375 64.59375 17.71875 59.46875 
Q 13.1875 52.9375 13.1875 35.296875 
" id="ArialMT-30"/>
      </defs>
      <g style="fill:#262626;" transform="translate(69.21953125 130.121448864)scale(0.1 -0.1)">
       <use xlink:href="#ArialMT-30"/>
      </g>
     </g>
    </g>
    <g id="xtick_2">
     <g id="line2d_2">
      <g>
       <use style="fill:#262626;stroke:#262626;" x="217.644371941" xlink:href="#md1665caddc" y="109.963636364"/>
      </g>
     </g>
     <g id="text_2">
      <!-- 5 -->
      <defs>
       <path d="M 4.15625 18.75 
L 13.375 19.53125 
Q 14.40625 12.796875 18.140625 9.390625 
Q 21.875 6 27.15625 6 
Q 33.5 6 37.890625 10.78125 
Q 42.28125 15.578125 42.28125 23.484375 
Q 42.28125 31 38.0625 35.34375 
Q 33.84375 39.703125 27 39.703125 
Q 22.75 39.703125 19.328125 37.765625 
Q 15.921875 35.84375 13.96875 32.765625 
L 5.71875 33.84375 
L 12.640625 70.609375 
L 48.25 70.609375 
L 48.25 62.203125 
L 19.671875 62.203125 
L 15.828125 42.96875 
Q 22.265625 47.46875 29.34375 47.46875 
Q 38.71875 47.46875 45.15625 40.96875 
Q 51.609375 34.46875 51.609375 24.265625 
Q 51.609375 14.546875 45.953125 7.46875 
Q 39.0625 -1.21875 27.15625 -1.21875 
Q 17.390625 -1.21875 11.203125 4.25 
Q 5.03125 9.71875 4.15625 18.75 
" id="ArialMT-35"/>
      </defs>
      <g style="fill:#262626;" transform="translate(214.863903191 130.121448864)scale(0.1 -0.1)">
       <use xlink:href="#ArialMT-35"/>
      </g>
     </g>
    </g>
    <g id="xtick_3">
     <g id="line2d_3">
      <g>
       <use style="fill:#262626;stroke:#262626;" x="363.288743883" xlink:href="#md1665caddc" y="109.963636364"/>
      </g>
     </g>
     <g id="text_3">
      <!-- 10 -->
      <defs>
       <path d="M 37.25 0 
L 28.46875 0 
L 28.46875 56 
Q 25.296875 52.984375 20.140625 49.953125 
Q 14.984375 46.921875 10.890625 45.40625 
L 10.890625 53.90625 
Q 18.265625 57.375 23.78125 62.296875 
Q 29.296875 67.234375 31.59375 71.875 
L 37.25 71.875 
z
" id="ArialMT-31"/>
      </defs>
      <g style="fill:#262626;" transform="translate(357.727806383 130.121448864)scale(0.1 -0.1)">
       <use xlink:href="#ArialMT-31"/>
       <use x="55.615234375" xlink:href="#ArialMT-30"/>
      </g>
     </g>
    </g>
    <g id="xtick_4">
     <g id="line2d_4">
      <g>
       <use style="fill:#262626;stroke:#262626;" x="508.933115824" xlink:href="#md1665caddc" y="109.963636364"/>
      </g>
     </g>
     <g id="text_4">
      <!-- 15 -->
      <g style="fill:#262626;" transform="translate(503.372178324 130.121448864)scale(0.1 -0.1)">
       <use xlink:href="#ArialMT-31"/>
       <use x="55.615234375" xlink:href="#ArialMT-35"/>
      </g>
     </g>
    </g>
    <g id="text_5">
     <!-- Time (hr) -->
     <defs>
      <path d="M 25.921875 0 
L 25.921875 63.140625 
L 2.34375 63.140625 
L 2.34375 71.578125 
L 59.078125 71.578125 
L 59.078125 63.140625 
L 35.40625 63.140625 
L 35.40625 0 
z
" id="ArialMT-54"/>
      <path d="M 42.09375 16.703125 
L 51.171875 15.578125 
Q 49.03125 7.625 43.21875 3.21875 
Q 37.40625 -1.171875 28.375 -1.171875 
Q 17 -1.171875 10.328125 5.828125 
Q 3.65625 12.84375 3.65625 25.484375 
Q 3.65625 38.578125 10.390625 45.796875 
Q 17.140625 53.03125 27.875 53.03125 
Q 38.28125 53.03125 44.875 45.953125 
Q 51.46875 38.875 51.46875 26.03125 
Q 51.46875 25.25 51.421875 23.6875 
L 12.75 23.6875 
Q 13.234375 15.140625 17.578125 10.59375 
Q 21.921875 6.0625 28.421875 6.0625 
Q 33.25 6.0625 36.671875 8.59375 
Q 40.09375 11.140625 42.09375 16.703125 
M 13.234375 30.90625 
L 42.1875 30.90625 
Q 41.609375 37.453125 38.875 40.71875 
Q 34.671875 45.796875 27.984375 45.796875 
Q 21.921875 45.796875 17.796875 41.75 
Q 13.671875 37.703125 13.234375 30.90625 
" id="ArialMT-65"/>
      <path id="ArialMT-20"/>
      <path d="M 6.59375 0 
L 6.59375 51.859375 
L 14.453125 51.859375 
L 14.453125 44.578125 
Q 16.890625 48.390625 20.9375 50.703125 
Q 25 53.03125 30.171875 53.03125 
Q 35.9375 53.03125 39.625 50.640625 
Q 43.3125 48.25 44.828125 43.953125 
Q 50.984375 53.03125 60.84375 53.03125 
Q 68.5625 53.03125 72.703125 48.75 
Q 76.859375 44.484375 76.859375 35.59375 
L 76.859375 0 
L 68.109375 0 
L 68.109375 32.671875 
Q 68.109375 37.9375 67.25 40.25 
Q 66.40625 42.578125 64.15625 43.984375 
Q 61.921875 45.40625 58.890625 45.40625 
Q 53.421875 45.40625 49.796875 41.765625 
Q 46.1875 38.140625 46.1875 30.125 
L 46.1875 0 
L 37.40625 0 
L 37.40625 33.6875 
Q 37.40625 39.546875 35.25 42.46875 
Q 33.109375 45.40625 28.21875 45.40625 
Q 24.515625 45.40625 21.359375 43.453125 
Q 18.21875 41.5 16.796875 37.734375 
Q 15.375 33.984375 15.375 26.90625 
L 15.375 0 
z
" id="ArialMT-6d"/>
      <path d="M 6.640625 61.46875 
L 6.640625 71.578125 
L 15.4375 71.578125 
L 15.4375 61.46875 
z
M 6.640625 0 
L 6.640625 51.859375 
L 15.4375 51.859375 
L 15.4375 0 
z
" id="ArialMT-69"/>
      <path d="M 23.390625 -21.046875 
Q 16.109375 -11.859375 11.078125 0.4375 
Q 6.0625 12.75 6.0625 25.921875 
Q 6.0625 37.546875 9.8125 48.1875 
Q 14.203125 60.546875 23.390625 72.796875 
L 29.6875 72.796875 
Q 23.78125 62.640625 21.875 58.296875 
Q 18.890625 51.5625 17.1875 44.234375 
Q 15.09375 35.109375 15.09375 25.875 
Q 15.09375 2.390625 29.6875 -21.046875 
z
" id="ArialMT-28"/>
      <path d="M 6.5 0 
L 6.5 51.859375 
L 14.40625 51.859375 
L 14.40625 44 
Q 17.4375 49.515625 20 51.265625 
Q 22.5625 53.03125 25.640625 53.03125 
Q 30.078125 53.03125 34.671875 50.203125 
L 31.640625 42.046875 
Q 28.421875 43.953125 25.203125 43.953125 
Q 22.3125 43.953125 20.015625 42.21875 
Q 17.71875 40.484375 16.75 37.40625 
Q 15.28125 32.71875 15.28125 27.15625 
L 15.28125 0 
z
" id="ArialMT-72"/>
      <path d="M 6.59375 0 
L 6.59375 71.578125 
L 15.375 71.578125 
L 15.375 45.90625 
Q 21.53125 53.03125 30.90625 53.03125 
Q 36.671875 53.03125 40.921875 50.75 
Q 45.171875 48.484375 47 44.484375 
Q 48.828125 40.484375 48.828125 32.859375 
L 48.828125 0 
L 40.046875 0 
L 40.046875 32.859375 
Q 40.046875 39.453125 37.1875 42.453125 
Q 34.328125 45.453125 29.109375 45.453125 
Q 25.203125 45.453125 21.75 43.421875 
Q 18.3125 41.40625 16.84375 37.9375 
Q 15.375 34.46875 15.375 28.375 
L 15.375 0 
z
" id="ArialMT-68"/>
      <path d="M 12.359375 -21.046875 
L 6.0625 -21.046875 
Q 20.65625 2.390625 20.65625 25.875 
Q 20.65625 35.0625 18.5625 44.09375 
Q 16.890625 51.421875 13.921875 58.15625 
Q 12.015625 62.546875 6.0625 72.796875 
L 12.359375 72.796875 
Q 21.53125 60.546875 25.921875 48.1875 
Q 29.6875 37.546875 29.6875 25.921875 
Q 29.6875 12.75 24.625 0.4375 
Q 19.578125 -11.859375 12.359375 -21.046875 
" id="ArialMT-29"/>
     </defs>
     <g style="fill:#262626;" transform="translate(272.9009375 145.116605114)scale(0.11 -0.11)">
      <use xlink:href="#ArialMT-54"/>
      <use x="61.037109375" xlink:href="#ArialMT-69"/>
      <use x="83.25390625" xlink:href="#ArialMT-6d"/>
      <use x="166.5546875" xlink:href="#ArialMT-65"/>
      <use x="222.169921875" xlink:href="#ArialMT-20"/>
      <use x="249.953125" xlink:href="#ArialMT-28"/>
      <use x="283.25390625" xlink:href="#ArialMT-68"/>
      <use x="338.869140625" xlink:href="#ArialMT-72"/>
      <use x="372.169921875" xlink:href="#ArialMT-29"/>
     </g>
    </g>
   </g>
   <g id="matplotlib.axis_2">
    <g id="ytick_1">
     <g id="line2d_5">
      <defs>
       <path d="M 0 0 
L -6 0 
" id="m82dc44170e" style="stroke:#262626;"/>
      </defs>
      <g>
       <use style="fill:#262626;stroke:#262626;" x="72.0" xlink:href="#m82dc44170e" y="109.963636364"/>
      </g>
     </g>
     <g id="text_6">
      <!-- 0 -->
      <g style="fill:#262626;" transform="translate(53.4390625 112.548792614)scale(0.1 -0.1)">
       <use xlink:href="#ArialMT-30"/>
      </g>
     </g>
    </g>
    <g id="ytick_2">
     <g id="line2d_6">
      <g>
       <use style="fill:#262626;stroke:#262626;" x="72.0" xlink:href="#m82dc44170e" y="91.9272727273"/>
      </g>
     </g>
     <g id="text_7">
      <!-- 100 -->
      <g style="fill:#262626;" transform="translate(42.3171875 94.5124289773)scale(0.1 -0.1)">
       <use xlink:href="#ArialMT-31"/>
       <use x="55.615234375" xlink:href="#ArialMT-30"/>
       <use x="111.23046875" xlink:href="#ArialMT-30"/>
      </g>
     </g>
    </g>
    <g id="ytick_3">
     <g id="line2d_7">
      <g>
       <use style="fill:#262626;stroke:#262626;" x="72.0" xlink:href="#m82dc44170e" y="73.8909090909"/>
      </g>
     </g>
     <g id="text_8">
      <!-- 200 -->
      <defs>
       <path d="M 50.34375 8.453125 
L 50.34375 0 
L 3.03125 0 
Q 2.9375 3.171875 4.046875 6.109375 
Q 5.859375 10.9375 9.828125 15.625 
Q 13.8125 20.3125 21.34375 26.46875 
Q 33.015625 36.03125 37.109375 41.625 
Q 41.21875 47.21875 41.21875 52.203125 
Q 41.21875 57.421875 37.46875 61 
Q 33.734375 64.59375 27.734375 64.59375 
Q 21.390625 64.59375 17.578125 60.78125 
Q 13.765625 56.984375 13.71875 50.25 
L 4.6875 51.171875 
Q 5.609375 61.28125 11.65625 66.578125 
Q 17.71875 71.875 27.9375 71.875 
Q 38.234375 71.875 44.234375 66.15625 
Q 50.25 60.453125 50.25 52 
Q 50.25 47.703125 48.484375 43.546875 
Q 46.734375 39.40625 42.65625 34.8125 
Q 38.578125 30.21875 29.109375 22.21875 
Q 21.1875 15.578125 18.9375 13.203125 
Q 16.703125 10.84375 15.234375 8.453125 
z
" id="ArialMT-32"/>
      </defs>
      <g style="fill:#262626;" transform="translate(42.3171875 76.4760653409)scale(0.1 -0.1)">
       <use xlink:href="#ArialMT-32"/>
       <use x="55.615234375" xlink:href="#ArialMT-30"/>
       <use x="111.23046875" xlink:href="#ArialMT-30"/>
      </g>
     </g>
    </g>
    <g id="ytick_4">
     <g id="line2d_8">
      <g>
       <use style="fill:#262626;stroke:#262626;" x="72.0" xlink:href="#m82dc44170e" y="55.8545454545"/>
      </g>
     </g>
     <g id="text_9">
      <!-- 300 -->
      <defs>
       <path d="M 4.203125 18.890625 
L 12.984375 20.0625 
Q 14.5 12.59375 18.140625 9.296875 
Q 21.78125 6 27 6 
Q 33.203125 6 37.46875 10.296875 
Q 41.75 14.59375 41.75 20.953125 
Q 41.75 27 37.796875 30.921875 
Q 33.84375 34.859375 27.734375 34.859375 
Q 25.25 34.859375 21.53125 33.890625 
L 22.515625 41.609375 
Q 23.390625 41.5 23.921875 41.5 
Q 29.546875 41.5 34.03125 44.421875 
Q 38.53125 47.359375 38.53125 53.46875 
Q 38.53125 58.296875 35.25 61.46875 
Q 31.984375 64.65625 26.8125 64.65625 
Q 21.6875 64.65625 18.265625 61.421875 
Q 14.84375 58.203125 13.875 51.765625 
L 5.078125 53.328125 
Q 6.6875 62.15625 12.390625 67.015625 
Q 18.109375 71.875 26.609375 71.875 
Q 32.46875 71.875 37.390625 69.359375 
Q 42.328125 66.84375 44.9375 62.5 
Q 47.5625 58.15625 47.5625 53.265625 
Q 47.5625 48.640625 45.0625 44.828125 
Q 42.578125 41.015625 37.703125 38.765625 
Q 44.046875 37.3125 47.5625 32.6875 
Q 51.078125 28.078125 51.078125 21.140625 
Q 51.078125 11.765625 44.234375 5.25 
Q 37.40625 -1.265625 26.953125 -1.265625 
Q 17.53125 -1.265625 11.296875 4.34375 
Q 5.078125 9.96875 4.203125 18.890625 
" id="ArialMT-33"/>
      </defs>
      <g style="fill:#262626;" transform="translate(42.3171875 58.4397017045)scale(0.1 -0.1)">
       <use xlink:href="#ArialMT-33"/>
       <use x="55.615234375" xlink:href="#ArialMT-30"/>
       <use x="111.23046875" xlink:href="#ArialMT-30"/>
      </g>
     </g>
    </g>
    <g id="ytick_5">
     <g id="line2d_9">
      <g>
       <use style="fill:#262626;stroke:#262626;" x="72.0" xlink:href="#m82dc44170e" y="37.8181818182"/>
      </g>
     </g>
     <g id="text_10">
      <!-- 400 -->
      <defs>
       <path d="M 32.328125 0 
L 32.328125 17.140625 
L 1.265625 17.140625 
L 1.265625 25.203125 
L 33.9375 71.578125 
L 41.109375 71.578125 
L 41.109375 25.203125 
L 50.78125 25.203125 
L 50.78125 17.140625 
L 41.109375 17.140625 
L 41.109375 0 
z
M 32.328125 25.203125 
L 32.328125 57.46875 
L 9.90625 25.203125 
z
" id="ArialMT-34"/>
      </defs>
      <g style="fill:#262626;" transform="translate(42.3171875 40.4033380682)scale(0.1 -0.1)">
       <use xlink:href="#ArialMT-34"/>
       <use x="55.615234375" xlink:href="#ArialMT-30"/>
       <use x="111.23046875" xlink:href="#ArialMT-30"/>
      </g>
     </g>
    </g>
    <g id="text_11">
     <!-- Concentration (mM) -->
     <defs>
      <path d="M 40.4375 6.390625 
Q 35.546875 2.25 31.03125 0.53125 
Q 26.515625 -1.171875 21.34375 -1.171875 
Q 12.796875 -1.171875 8.203125 3 
Q 3.609375 7.171875 3.609375 13.671875 
Q 3.609375 17.484375 5.34375 20.625 
Q 7.078125 23.78125 9.890625 25.6875 
Q 12.703125 27.59375 16.21875 28.5625 
Q 18.796875 29.25 24.03125 29.890625 
Q 34.671875 31.15625 39.703125 32.90625 
Q 39.75 34.71875 39.75 35.203125 
Q 39.75 40.578125 37.25 42.78125 
Q 33.890625 45.75 27.25 45.75 
Q 21.046875 45.75 18.09375 43.578125 
Q 15.140625 41.40625 13.71875 35.890625 
L 5.125 37.0625 
Q 6.296875 42.578125 8.984375 45.96875 
Q 11.671875 49.359375 16.75 51.1875 
Q 21.828125 53.03125 28.515625 53.03125 
Q 35.15625 53.03125 39.296875 51.46875 
Q 43.453125 49.90625 45.40625 47.53125 
Q 47.359375 45.171875 48.140625 41.546875 
Q 48.578125 39.3125 48.578125 33.453125 
L 48.578125 21.734375 
Q 48.578125 9.46875 49.140625 6.21875 
Q 49.703125 2.984375 51.375 0 
L 42.1875 0 
Q 40.828125 2.734375 40.4375 6.390625 
M 39.703125 26.03125 
Q 34.90625 24.078125 25.34375 22.703125 
Q 19.921875 21.921875 17.671875 20.9375 
Q 15.4375 19.96875 14.203125 18.09375 
Q 12.984375 16.21875 12.984375 13.921875 
Q 12.984375 10.40625 15.640625 8.0625 
Q 18.3125 5.71875 23.4375 5.71875 
Q 28.515625 5.71875 32.46875 7.9375 
Q 36.421875 10.15625 38.28125 14.015625 
Q 39.703125 17 39.703125 22.796875 
z
" id="ArialMT-61"/>
      <path d="M 40.4375 19 
L 49.078125 17.875 
Q 47.65625 8.9375 41.8125 3.875 
Q 35.984375 -1.171875 27.484375 -1.171875 
Q 16.84375 -1.171875 10.375 5.78125 
Q 3.90625 12.75 3.90625 25.734375 
Q 3.90625 34.125 6.6875 40.421875 
Q 9.46875 46.734375 15.15625 49.875 
Q 20.84375 53.03125 27.546875 53.03125 
Q 35.984375 53.03125 41.359375 48.75 
Q 46.734375 44.484375 48.25 36.625 
L 39.703125 35.296875 
Q 38.484375 40.53125 35.375 43.15625 
Q 32.28125 45.796875 27.875 45.796875 
Q 21.234375 45.796875 17.078125 41.03125 
Q 12.9375 36.28125 12.9375 25.984375 
Q 12.9375 15.53125 16.9375 10.796875 
Q 20.953125 6.0625 27.390625 6.0625 
Q 32.5625 6.0625 36.03125 9.234375 
Q 39.5 12.40625 40.4375 19 
" id="ArialMT-63"/>
      <path d="M 3.328125 25.921875 
Q 3.328125 40.328125 11.328125 47.265625 
Q 18.015625 53.03125 27.640625 53.03125 
Q 38.328125 53.03125 45.109375 46.015625 
Q 51.90625 39.015625 51.90625 26.65625 
Q 51.90625 16.65625 48.90625 10.90625 
Q 45.90625 5.171875 40.15625 2 
Q 34.421875 -1.171875 27.640625 -1.171875 
Q 16.75 -1.171875 10.03125 5.8125 
Q 3.328125 12.796875 3.328125 25.921875 
M 12.359375 25.921875 
Q 12.359375 15.96875 16.703125 11.015625 
Q 21.046875 6.0625 27.640625 6.0625 
Q 34.1875 6.0625 38.53125 11.03125 
Q 42.875 16.015625 42.875 26.21875 
Q 42.875 35.84375 38.5 40.796875 
Q 34.125 45.75 27.640625 45.75 
Q 21.046875 45.75 16.703125 40.8125 
Q 12.359375 35.890625 12.359375 25.921875 
" id="ArialMT-6f"/>
      <path d="M 7.421875 0 
L 7.421875 71.578125 
L 21.6875 71.578125 
L 38.625 20.90625 
Q 40.96875 13.8125 42.046875 10.296875 
Q 43.265625 14.203125 45.84375 21.78125 
L 62.984375 71.578125 
L 75.734375 71.578125 
L 75.734375 0 
L 66.609375 0 
L 66.609375 59.90625 
L 45.796875 0 
L 37.25 0 
L 16.546875 60.9375 
L 16.546875 0 
z
" id="ArialMT-4d"/>
      <path d="M 6.59375 0 
L 6.59375 51.859375 
L 14.5 51.859375 
L 14.5 44.484375 
Q 20.21875 53.03125 31 53.03125 
Q 35.6875 53.03125 39.625 51.34375 
Q 43.5625 49.65625 45.515625 46.921875 
Q 47.46875 44.1875 48.25 40.4375 
Q 48.734375 37.984375 48.734375 31.890625 
L 48.734375 0 
L 39.9375 0 
L 39.9375 31.546875 
Q 39.9375 36.921875 38.90625 39.578125 
Q 37.890625 42.234375 35.28125 43.8125 
Q 32.671875 45.40625 29.15625 45.40625 
Q 23.53125 45.40625 19.453125 41.84375 
Q 15.375 38.28125 15.375 28.328125 
L 15.375 0 
z
" id="ArialMT-6e"/>
      <path d="M 58.796875 25.09375 
L 68.265625 22.703125 
Q 65.28125 11.03125 57.546875 4.90625 
Q 49.8125 -1.21875 38.625 -1.21875 
Q 27.046875 -1.21875 19.796875 3.484375 
Q 12.546875 8.203125 8.765625 17.140625 
Q 4.984375 26.078125 4.984375 36.328125 
Q 4.984375 47.515625 9.25 55.828125 
Q 13.53125 64.15625 21.40625 68.46875 
Q 29.296875 72.796875 38.765625 72.796875 
Q 49.515625 72.796875 56.828125 67.328125 
Q 64.15625 61.859375 67.046875 51.953125 
L 57.71875 49.75 
Q 55.21875 57.5625 50.484375 61.125 
Q 45.75 64.703125 38.578125 64.703125 
Q 30.328125 64.703125 24.78125 60.734375 
Q 19.234375 56.78125 16.984375 50.109375 
Q 14.75 43.453125 14.75 36.375 
Q 14.75 27.25 17.40625 20.4375 
Q 20.0625 13.625 25.671875 10.25 
Q 31.296875 6.890625 37.84375 6.890625 
Q 45.796875 6.890625 51.3125 11.46875 
Q 56.84375 16.0625 58.796875 25.09375 
" id="ArialMT-43"/>
      <path d="M 25.78125 7.859375 
L 27.046875 0.09375 
Q 23.34375 -0.6875 20.40625 -0.6875 
Q 15.625 -0.6875 12.984375 0.828125 
Q 10.359375 2.34375 9.28125 4.8125 
Q 8.203125 7.28125 8.203125 15.1875 
L 8.203125 45.015625 
L 1.765625 45.015625 
L 1.765625 51.859375 
L 8.203125 51.859375 
L 8.203125 64.703125 
L 16.9375 69.96875 
L 16.9375 51.859375 
L 25.78125 51.859375 
L 25.78125 45.015625 
L 16.9375 45.015625 
L 16.9375 14.703125 
Q 16.9375 10.9375 17.40625 9.859375 
Q 17.875 8.796875 18.921875 8.15625 
Q 19.96875 7.515625 21.921875 7.515625 
Q 23.390625 7.515625 25.78125 7.859375 
" id="ArialMT-74"/>
     </defs>
     <g style="fill:#262626;" transform="translate(35.00203125 117.976036932)rotate(-90.0)scale(0.11 -0.11)">
      <use xlink:href="#ArialMT-43"/>
      <use x="72.216796875" xlink:href="#ArialMT-6f"/>
      <use x="127.83203125" xlink:href="#ArialMT-6e"/>
      <use x="183.447265625" xlink:href="#ArialMT-63"/>
      <use x="233.447265625" xlink:href="#ArialMT-65"/>
      <use x="289.0625" xlink:href="#ArialMT-6e"/>
      <use x="344.677734375" xlink:href="#ArialMT-74"/>
      <use x="372.4609375" xlink:href="#ArialMT-72"/>
      <use x="405.76171875" xlink:href="#ArialMT-61"/>
      <use x="461.376953125" xlink:href="#ArialMT-74"/>
      <use x="489.16015625" xlink:href="#ArialMT-69"/>
      <use x="511.376953125" xlink:href="#ArialMT-6f"/>
      <use x="566.9921875" xlink:href="#ArialMT-6e"/>
      <use x="622.607421875" xlink:href="#ArialMT-20"/>
      <use x="650.390625" xlink:href="#ArialMT-28"/>
      <use x="683.69140625" xlink:href="#ArialMT-6d"/>
      <use x="766.9921875" xlink:href="#ArialMT-4d"/>
      <use x="850.29296875" xlink:href="#ArialMT-29"/>
     </g>
    </g>
   </g>
   <g id="patch_3">
    <path clip-path="url(#p78136f9eb6)" d="M 72 109.963636 
L 72 28.8 
L 288.159071 28.8 
L 288.159071 109.963636 
z
" style="fill:#e8f6f2;"/>
   </g>
   <g id="patch_4">
    <path clip-path="url(#p78136f9eb6)" d="M 288.159071 109.963636 
L 288.159071 28.8 
L 322.933761 28.8 
L 322.933761 109.963636 
z
" style="fill:#feeee8;"/>
   </g>
   <g id="patch_5">
    <path clip-path="url(#p78136f9eb6)" d="M 322.933761 109.963636 
L 322.933761 28.8 
L 349.32072 28.8 
L 349.32072 109.963636 
z
" style="fill:#eef1f7;"/>
   </g>
   <g id="patch_6">
    <path clip-path="url(#p78136f9eb6)" d="M 349.32072 109.963636 
L 349.32072 28.8 
L 370.936699 28.8 
L 370.936699 109.963636 
z
" style="fill:#fbedf6;"/>
   </g>
   <g id="line2d_10">
    <path clip-path="url(#p78136f9eb6)" d="M 72 37.703231 
L 75.019563 37.718334 
L 78.039125 37.734302 
L 81.058688 37.751259 
L 84.07825 37.76933 
L 87.097813 37.788639 
L 90.117376 37.809311 
L 93.136938 37.83147 
L 96.156501 37.855242 
L 99.176064 37.88075 
L 102.195626 37.90812 
L 105.215189 37.937475 
L 108.234751 37.968941 
L 111.254314 38.002643 
L 114.273877 38.038704 
L 117.293439 38.077939 
L 120.313002 38.119763 
L 123.332564 38.164112 
L 126.352127 38.211328 
L 129.37169 38.261753 
L 132.391252 38.31573 
L 135.410815 38.373601 
L 138.430378 38.435709 
L 141.44994 38.502396 
L 144.469503 38.574005 
L 147.489065 38.650878 
L 150.508628 38.733357 
L 153.528191 38.821786 
L 156.547753 38.916506 
L 159.567316 39.019093 
L 162.586878 39.129826 
L 165.606441 39.246977 
L 168.626004 39.37154 
L 171.645566 39.504514 
L 174.665129 39.646895 
L 177.684692 39.799678 
L 180.704254 39.96386 
L 183.723817 40.140439 
L 186.743379 40.330409 
L 189.762942 40.534769 
L 192.782505 40.754514 
L 195.802067 40.990641 
L 198.82163 41.244146 
L 201.841193 41.516558 
L 204.860755 41.816375 
L 207.880318 42.133295 
L 210.89988 42.470408 
L 213.919443 42.830805 
L 216.939006 43.217575 
L 219.958568 43.633809 
L 222.978131 44.082596 
L 225.997693 44.567028 
L 229.017256 45.090195 
L 232.036819 45.655186 
L 235.056381 46.265092 
L 238.075944 46.923003 
L 241.095507 47.632009 
L 244.115069 48.395201 
L 247.134632 49.233029 
L 250.154194 50.127646 
L 253.173757 51.078835 
L 256.19332 52.094775 
L 259.212882 53.183643 
L 262.232445 54.353614 
L 265.252007 55.612867 
L 268.27157 56.969579 
L 271.291133 58.431925 
L 274.310695 60.008085 
L 277.330258 61.706233 
L 280.349821 63.534548 
L 283.369383 65.501207 
L 286.388946 67.614386 
L 289.408508 69.967994 
L 292.428071 72.406118 
L 295.447634 74.727566 
L 298.467196 76.934406 
L 301.486759 79.029258 
L 304.506321 81.015045 
L 307.525884 82.894991 
L 310.545447 84.672575 
L 313.565009 86.351412 
L 316.584572 87.935279 
L 319.604135 89.428008 
L 322.623697 90.833481 
L 325.64326 92.157797 
L 328.662822 93.407669 
L 331.682385 94.586303 
L 334.701948 95.696828 
L 337.72151 96.742328 
L 340.741073 97.725812 
L 343.760635 98.650214 
L 346.780198 99.518381 
L 349.799761 100.333121 
L 352.819323 101.100006 
L 355.838886 101.822697 
L 358.858449 102.502986 
L 361.878011 103.142589 
L 364.897574 103.743142 
L 367.917136 104.306201 
L 370.936699 104.833245 
" style="fill:none;stroke:#4c72b0;stroke-linecap:round;stroke-width:1.75;"/>
   </g>
   <g id="line2d_11">
    <path clip-path="url(#p78136f9eb6)" d="M 72 109.963636 
L 75.019563 109.963636 
L 78.039125 109.963636 
L 81.058688 109.963636 
L 84.07825 109.963636 
L 87.097813 109.963636 
L 90.117376 109.963636 
L 93.136938 109.963636 
L 96.156501 109.963636 
L 99.176064 109.963636 
L 102.195626 109.963636 
L 105.215189 109.963636 
L 108.234751 109.963636 
L 111.254314 109.963636 
L 114.273877 109.963636 
L 117.293439 109.963636 
L 120.313002 109.963636 
L 123.332564 109.963636 
L 126.352127 109.963636 
L 129.37169 109.963636 
L 132.391252 109.963636 
L 135.410815 109.963636 
L 138.430378 109.963636 
L 141.44994 109.963636 
L 144.469503 109.963636 
L 147.489065 109.963636 
L 150.508628 109.963636 
L 153.528191 109.963636 
L 156.547753 109.963636 
L 159.567316 109.963636 
L 162.586878 109.963636 
L 165.606441 109.963636 
L 168.626004 109.963636 
L 171.645566 109.963636 
L 174.665129 109.963636 
L 177.684692 109.963636 
L 180.704254 109.963636 
L 183.723817 109.963636 
L 186.743379 109.963636 
L 189.762942 109.963636 
L 192.782505 109.963636 
L 195.802067 109.963636 
L 198.82163 109.963636 
L 201.841193 109.963636 
L 204.860755 109.963636 
L 207.880318 109.963636 
L 210.89988 109.963636 
L 213.919443 109.963636 
L 216.939006 109.963636 
L 219.958568 109.963636 
L 222.978131 109.963636 
L 225.997693 109.963636 
L 229.017256 109.963636 
L 232.036819 109.963636 
L 235.056381 109.963636 
L 238.075944 109.963636 
L 241.095507 109.963636 
L 244.115069 109.963636 
L 247.134632 109.963636 
L 250.154194 109.963636 
L 253.173757 109.963636 
L 256.19332 109.963636 
L 259.212882 109.963636 
L 262.232445 109.963636 
L 265.252007 109.963636 
L 268.27157 109.963636 
L 271.291133 109.963636 
L 274.310695 109.963636 
L 277.330258 109.963636 
L 280.349821 109.963636 
L 283.369383 109.963636 
L 286.388946 109.963636 
L 289.408508 108.332162 
L 292.428071 104.519959 
L 295.447634 100.890188 
L 298.467196 97.439616 
L 301.486759 94.164146 
L 304.506321 91.059207 
L 307.525884 88.119761 
L 310.545447 85.340365 
L 313.565009 82.715368 
L 316.584572 80.238864 
L 319.604135 77.904863 
L 322.623697 75.707292 
L 325.64326 73.765568 
L 328.662822 71.947326 
L 331.682385 70.232719 
L 334.701948 68.617192 
L 337.72151 67.096259 
L 340.741073 65.665545 
L 343.760635 64.320779 
L 346.780198 63.057821 
L 349.799761 61.893544 
L 352.819323 60.905656 
L 355.838886 59.974698 
L 358.858449 59.098361 
L 361.878011 58.274434 
L 364.897574 57.500811 
L 367.917136 56.775488 
L 370.936699 56.096558 
" style="fill:none;stroke:#55a868;stroke-linecap:round;stroke-width:1.75;"/>
   </g>
   <g id="line2d_12">
    <path clip-path="url(#p78136f9eb6)" d="M 72 109.963635 
L 75.019563 109.963635 
L 78.039125 109.963635 
L 81.058688 109.963635 
L 84.07825 109.963635 
L 87.097813 109.963635 
L 90.117376 109.963635 
L 93.136938 109.963635 
L 96.156501 109.963635 
L 99.176064 109.963635 
L 102.195626 109.963635 
L 105.215189 109.963635 
L 108.234751 109.963635 
L 111.254314 109.963635 
L 114.273877 109.963635 
L 117.293439 109.963635 
L 120.313002 109.963635 
L 123.332564 109.963635 
L 126.352127 109.963635 
L 129.37169 109.963635 
L 132.391252 109.963635 
L 135.410815 109.963635 
L 138.430378 109.963635 
L 141.44994 109.963635 
L 144.469503 109.963635 
L 147.489065 109.963635 
L 150.508628 109.963635 
L 153.528191 109.963635 
L 156.547753 109.963635 
L 159.567316 109.963635 
L 162.586878 109.963635 
L 165.606441 109.963635 
L 168.626004 109.963635 
L 171.645566 109.963635 
L 174.665129 109.963635 
L 177.684692 109.963635 
L 180.704254 109.963635 
L 183.723817 109.963635 
L 186.743379 109.963635 
L 189.762942 109.963635 
L 192.782505 109.963635 
L 195.802067 109.963635 
L 198.82163 109.963635 
L 201.841193 109.963635 
L 204.860755 109.963635 
L 207.880318 109.963635 
L 210.89988 109.963635 
L 213.919443 109.963635 
L 216.939006 109.963635 
L 219.958568 109.963635 
L 222.978131 109.963635 
L 225.997693 109.963635 
L 229.017256 109.963636 
L 232.036819 109.963636 
L 235.056381 109.963636 
L 238.075944 109.963636 
L 241.095507 109.963636 
L 244.115069 109.963636 
L 247.134632 109.963636 
L 250.154194 109.963636 
L 253.173757 109.963636 
L 256.19332 109.963636 
L 259.212882 109.963636 
L 262.232445 109.963636 
L 265.252007 109.963636 
L 268.27157 109.963636 
L 271.291133 109.963636 
L 274.310695 109.963636 
L 277.330258 109.963636 
L 280.349821 109.963636 
L 283.369383 109.963636 
L 286.388946 109.963636 
L 289.408508 109.963636 
L 292.428071 109.963635 
L 295.447634 109.963635 
L 298.467196 109.963634 
L 301.486759 109.963634 
L 304.506321 109.963634 
L 307.525884 109.963633 
L 310.545447 109.963633 
L 313.565009 109.963632 
L 316.584572 109.963632 
L 319.604135 109.963632 
L 322.623697 109.963631 
L 325.64326 109.963632 
L 328.662822 109.963632 
L 331.682385 109.963632 
L 334.701948 109.963633 
L 337.72151 109.963633 
L 340.741073 109.963633 
L 343.760635 109.963634 
L 346.780198 109.963634 
L 349.799761 109.963634 
L 352.819323 109.963635 
L 355.838886 109.963635 
L 358.858449 109.963635 
L 361.878011 109.963636 
L 364.897574 109.963636 
L 367.917136 109.963636 
L 370.936699 109.963636 
" style="fill:none;stroke:#c44e52;stroke-linecap:round;stroke-width:1.75;"/>
   </g>
   <g id="patch_7">
    <path d="M 72 109.963636 
L 518.4 109.963636 
" style="fill:none;stroke:#262626;stroke-linecap:square;stroke-linejoin:miter;stroke-width:1.25;"/>
   </g>
   <g id="patch_8">
    <path d="M 518.4 109.963636 
L 518.4 28.8 
" style="fill:none;stroke:#262626;stroke-linecap:square;stroke-linejoin:miter;stroke-width:1.25;"/>
   </g>
   <g id="patch_9">
    <path d="M 72 109.963636 
L 72 28.8 
" style="fill:none;stroke:#262626;stroke-linecap:square;stroke-linejoin:miter;stroke-width:1.25;"/>
   </g>
   <g id="text_12">
    <!-- E. coli maximum succinate producitivity -->
    <defs>
     <path d="M 6.59375 -19.875 
L 6.59375 51.859375 
L 14.59375 51.859375 
L 14.59375 45.125 
Q 17.4375 49.078125 21 51.046875 
Q 24.5625 53.03125 29.640625 53.03125 
Q 36.28125 53.03125 41.359375 49.609375 
Q 46.4375 46.1875 49.015625 39.953125 
Q 51.609375 33.734375 51.609375 26.3125 
Q 51.609375 18.359375 48.75 11.984375 
Q 45.90625 5.609375 40.453125 2.21875 
Q 35.015625 -1.171875 29 -1.171875 
Q 24.609375 -1.171875 21.109375 0.6875 
Q 17.625 2.546875 15.375 5.375 
L 15.375 -19.875 
z
M 14.546875 25.640625 
Q 14.546875 15.625 18.59375 10.84375 
Q 22.65625 6.0625 28.421875 6.0625 
Q 34.28125 6.0625 38.453125 11.015625 
Q 42.625 15.96875 42.625 26.375 
Q 42.625 36.28125 38.546875 41.203125 
Q 34.46875 46.140625 28.8125 46.140625 
Q 23.1875 46.140625 18.859375 40.890625 
Q 14.546875 35.640625 14.546875 25.640625 
" id="ArialMT-70"/>
     <path d="M 3.078125 15.484375 
L 11.765625 16.84375 
Q 12.5 11.625 15.84375 8.84375 
Q 19.1875 6.0625 25.203125 6.0625 
Q 31.25 6.0625 34.171875 8.515625 
Q 37.109375 10.984375 37.109375 14.3125 
Q 37.109375 17.28125 34.515625 19 
Q 32.71875 20.171875 25.53125 21.96875 
Q 15.875 24.421875 12.140625 26.203125 
Q 8.40625 27.984375 6.46875 31.125 
Q 4.546875 34.28125 4.546875 38.09375 
Q 4.546875 41.546875 6.125 44.5 
Q 7.71875 47.46875 10.453125 49.421875 
Q 12.5 50.921875 16.03125 51.96875 
Q 19.578125 53.03125 23.640625 53.03125 
Q 29.734375 53.03125 34.34375 51.265625 
Q 38.96875 49.515625 41.15625 46.5 
Q 43.359375 43.5 44.1875 38.484375 
L 35.59375 37.3125 
Q 35.015625 41.3125 32.203125 43.546875 
Q 29.390625 45.796875 24.265625 45.796875 
Q 18.21875 45.796875 15.625 43.796875 
Q 13.03125 41.796875 13.03125 39.109375 
Q 13.03125 37.40625 14.109375 36.03125 
Q 15.1875 34.625 17.484375 33.6875 
Q 18.796875 33.203125 25.25 31.453125 
Q 34.578125 28.953125 38.25 27.359375 
Q 41.9375 25.78125 44.03125 22.75 
Q 46.140625 19.734375 46.140625 15.234375 
Q 46.140625 10.84375 43.578125 6.953125 
Q 41.015625 3.078125 36.171875 0.953125 
Q 31.34375 -1.171875 25.25 -1.171875 
Q 15.140625 -1.171875 9.84375 3.03125 
Q 4.546875 7.234375 3.078125 15.484375 
" id="ArialMT-73"/>
     <path d="M 0.734375 0 
L 19.671875 26.953125 
L 2.15625 51.859375 
L 13.140625 51.859375 
L 21.09375 39.703125 
Q 23.34375 36.234375 24.703125 33.890625 
Q 26.859375 37.109375 28.65625 39.59375 
L 37.40625 51.859375 
L 47.90625 51.859375 
L 29.984375 27.4375 
L 49.265625 0 
L 38.484375 0 
L 27.828125 16.109375 
L 25 20.453125 
L 11.375 0 
z
" id="ArialMT-78"/>
     <path d="M 9.078125 0 
L 9.078125 10.015625 
L 19.09375 10.015625 
L 19.09375 0 
z
" id="ArialMT-2e"/>
     <path d="M 6.390625 0 
L 6.390625 71.578125 
L 15.1875 71.578125 
L 15.1875 0 
z
" id="ArialMT-6c"/>
     <path d="M 6.203125 -19.96875 
L 5.21875 -11.71875 
Q 8.109375 -12.5 10.25 -12.5 
Q 13.1875 -12.5 14.9375 -11.515625 
Q 16.703125 -10.546875 17.828125 -8.796875 
Q 18.65625 -7.46875 20.515625 -2.25 
Q 20.75 -1.515625 21.296875 -0.09375 
L 1.609375 51.859375 
L 11.078125 51.859375 
L 21.875 21.828125 
Q 23.96875 16.109375 25.640625 9.8125 
Q 27.15625 15.875 29.25 21.625 
L 40.328125 51.859375 
L 49.125 51.859375 
L 29.390625 -0.875 
Q 26.21875 -9.421875 24.46875 -12.640625 
Q 22.125 -17 19.09375 -19.015625 
Q 16.0625 -21.046875 11.859375 -21.046875 
Q 9.328125 -21.046875 6.203125 -19.96875 
" id="ArialMT-79"/>
     <path d="M 40.578125 0 
L 40.578125 7.625 
Q 34.515625 -1.171875 24.125 -1.171875 
Q 19.53125 -1.171875 15.546875 0.578125 
Q 11.578125 2.34375 9.640625 5 
Q 7.71875 7.671875 6.9375 11.53125 
Q 6.390625 14.109375 6.390625 19.734375 
L 6.390625 51.859375 
L 15.1875 51.859375 
L 15.1875 23.09375 
Q 15.1875 16.21875 15.71875 13.8125 
Q 16.546875 10.359375 19.234375 8.375 
Q 21.921875 6.390625 25.875 6.390625 
Q 29.828125 6.390625 33.296875 8.421875 
Q 36.765625 10.453125 38.203125 13.9375 
Q 39.65625 17.4375 39.65625 24.078125 
L 39.65625 51.859375 
L 48.4375 51.859375 
L 48.4375 0 
z
" id="ArialMT-75"/>
     <path d="M 7.90625 0 
L 7.90625 71.578125 
L 59.671875 71.578125 
L 59.671875 63.140625 
L 17.390625 63.140625 
L 17.390625 41.21875 
L 56.984375 41.21875 
L 56.984375 32.8125 
L 17.390625 32.8125 
L 17.390625 8.453125 
L 61.328125 8.453125 
L 61.328125 0 
z
" id="ArialMT-45"/>
     <path d="M 21 0 
L 1.265625 51.859375 
L 10.546875 51.859375 
L 21.6875 20.796875 
Q 23.484375 15.765625 25 10.359375 
Q 26.171875 14.453125 28.265625 20.21875 
L 39.796875 51.859375 
L 48.828125 51.859375 
L 29.203125 0 
z
" id="ArialMT-76"/>
     <path d="M 40.234375 0 
L 40.234375 6.546875 
Q 35.296875 -1.171875 25.734375 -1.171875 
Q 19.53125 -1.171875 14.328125 2.25 
Q 9.125 5.671875 6.265625 11.796875 
Q 3.421875 17.921875 3.421875 25.875 
Q 3.421875 33.640625 6 39.96875 
Q 8.59375 46.296875 13.765625 49.65625 
Q 18.953125 53.03125 25.34375 53.03125 
Q 30.03125 53.03125 33.6875 51.046875 
Q 37.359375 49.078125 39.65625 45.90625 
L 39.65625 71.578125 
L 48.390625 71.578125 
L 48.390625 0 
z
M 12.453125 25.875 
Q 12.453125 15.921875 16.640625 10.984375 
Q 20.84375 6.0625 26.5625 6.0625 
Q 32.328125 6.0625 36.34375 10.765625 
Q 40.375 15.484375 40.375 25.140625 
Q 40.375 35.796875 36.265625 40.765625 
Q 32.171875 45.75 26.171875 45.75 
Q 20.3125 45.75 16.375 40.96875 
Q 12.453125 36.1875 12.453125 25.875 
" id="ArialMT-64"/>
    </defs>
    <g style="fill:#262626;" transform="translate(190.8375 23.8)scale(0.12 -0.12)">
     <use xlink:href="#ArialMT-45"/>
     <use x="66.69921875" xlink:href="#ArialMT-2e"/>
     <use x="94.482421875" xlink:href="#ArialMT-20"/>
     <use x="122.265625" xlink:href="#ArialMT-63"/>
     <use x="172.265625" xlink:href="#ArialMT-6f"/>
     <use x="227.880859375" xlink:href="#ArialMT-6c"/>
     <use x="250.09765625" xlink:href="#ArialMT-69"/>
     <use x="272.314453125" xlink:href="#ArialMT-20"/>
     <use x="300.09765625" xlink:href="#ArialMT-6d"/>
     <use x="383.3984375" xlink:href="#ArialMT-61"/>
     <use x="439.013671875" xlink:href="#ArialMT-78"/>
     <use x="489.013671875" xlink:href="#ArialMT-69"/>
     <use x="511.23046875" xlink:href="#ArialMT-6d"/>
     <use x="594.53125" xlink:href="#ArialMT-75"/>
     <use x="650.146484375" xlink:href="#ArialMT-6d"/>
     <use x="733.447265625" xlink:href="#ArialMT-20"/>
     <use x="761.23046875" xlink:href="#ArialMT-73"/>
     <use x="811.23046875" xlink:href="#ArialMT-75"/>
     <use x="866.845703125" xlink:href="#ArialMT-63"/>
     <use x="916.845703125" xlink:href="#ArialMT-63"/>
     <use x="966.845703125" xlink:href="#ArialMT-69"/>
     <use x="989.0625" xlink:href="#ArialMT-6e"/>
     <use x="1044.677734375" xlink:href="#ArialMT-61"/>
     <use x="1100.29296875" xlink:href="#ArialMT-74"/>
     <use x="1128.076171875" xlink:href="#ArialMT-65"/>
     <use x="1183.69140625" xlink:href="#ArialMT-20"/>
     <use x="1211.474609375" xlink:href="#ArialMT-70"/>
     <use x="1267.08984375" xlink:href="#ArialMT-72"/>
     <use x="1300.390625" xlink:href="#ArialMT-6f"/>
     <use x="1356.005859375" xlink:href="#ArialMT-64"/>
     <use x="1411.62109375" xlink:href="#ArialMT-75"/>
     <use x="1467.236328125" xlink:href="#ArialMT-63"/>
     <use x="1517.236328125" xlink:href="#ArialMT-69"/>
     <use x="1539.453125" xlink:href="#ArialMT-74"/>
     <use x="1567.236328125" xlink:href="#ArialMT-69"/>
     <use x="1589.453125" xlink:href="#ArialMT-76"/>
     <use x="1639.453125" xlink:href="#ArialMT-69"/>
     <use x="1661.669921875" xlink:href="#ArialMT-74"/>
     <use x="1689.453125" xlink:href="#ArialMT-79"/>
    </g>
   </g>
   <g id="legend_1">
    <g id="line2d_13">
     <path d="M 81 47.249006 
L 101 47.249006 
" style="fill:none;stroke:#4c72b0;stroke-linecap:round;stroke-width:1.75;"/>
    </g>
    <g id="line2d_14"/>
    <g id="text_13">
     <!-- Glucose -->
     <defs>
      <path d="M 41.21875 28.078125 
L 41.21875 36.46875 
L 71.53125 36.53125 
L 71.53125 9.96875 
Q 64.546875 4.390625 57.125 1.578125 
Q 49.703125 -1.21875 41.890625 -1.21875 
Q 31.34375 -1.21875 22.71875 3.296875 
Q 14.109375 7.8125 9.71875 16.359375 
Q 5.328125 24.90625 5.328125 35.453125 
Q 5.328125 45.90625 9.6875 54.953125 
Q 14.0625 64.015625 22.265625 68.40625 
Q 30.46875 72.796875 41.15625 72.796875 
Q 48.921875 72.796875 55.1875 70.28125 
Q 61.46875 67.78125 65.03125 63.28125 
Q 68.609375 58.796875 70.453125 51.5625 
L 61.921875 49.21875 
Q 60.296875 54.6875 57.90625 57.8125 
Q 55.515625 60.9375 51.0625 62.8125 
Q 46.625 64.703125 41.21875 64.703125 
Q 34.71875 64.703125 29.984375 62.71875 
Q 25.25 60.75 22.34375 57.515625 
Q 19.4375 54.296875 17.828125 50.4375 
Q 15.09375 43.796875 15.09375 36.03125 
Q 15.09375 26.46875 18.390625 20.015625 
Q 21.6875 13.578125 27.984375 10.453125 
Q 34.28125 7.328125 41.359375 7.328125 
Q 47.515625 7.328125 53.375 9.6875 
Q 59.234375 12.0625 62.25 14.75 
L 62.25 28.078125 
z
" id="ArialMT-47"/>
     </defs>
     <g style="fill:#262626;" transform="translate(109.0 50.7490056818)scale(0.1 -0.1)">
      <use xlink:href="#ArialMT-47"/>
      <use x="77.783203125" xlink:href="#ArialMT-6c"/>
      <use x="100.0" xlink:href="#ArialMT-75"/>
      <use x="155.615234375" xlink:href="#ArialMT-63"/>
      <use x="205.615234375" xlink:href="#ArialMT-6f"/>
      <use x="261.23046875" xlink:href="#ArialMT-73"/>
      <use x="311.23046875" xlink:href="#ArialMT-65"/>
     </g>
    </g>
    <g id="line2d_15">
     <path d="M 81 61.394318 
L 101 61.394318 
" style="fill:none;stroke:#55a868;stroke-linecap:round;stroke-width:1.75;"/>
    </g>
    <g id="line2d_16"/>
    <g id="text_14">
     <!-- Succinate -->
     <defs>
      <path d="M 4.5 23 
L 13.421875 23.78125 
Q 14.0625 18.40625 16.375 14.96875 
Q 18.703125 11.53125 23.578125 9.40625 
Q 28.46875 7.28125 34.578125 7.28125 
Q 39.984375 7.28125 44.140625 8.890625 
Q 48.296875 10.5 50.3125 13.296875 
Q 52.34375 16.109375 52.34375 19.4375 
Q 52.34375 22.796875 50.390625 25.3125 
Q 48.4375 27.828125 43.953125 29.546875 
Q 41.0625 30.671875 31.203125 33.03125 
Q 21.34375 35.40625 17.390625 37.5 
Q 12.25 40.1875 9.734375 44.15625 
Q 7.234375 48.140625 7.234375 53.078125 
Q 7.234375 58.5 10.296875 63.203125 
Q 13.375 67.921875 19.28125 70.359375 
Q 25.203125 72.796875 32.421875 72.796875 
Q 40.375 72.796875 46.453125 70.234375 
Q 52.546875 67.671875 55.8125 62.6875 
Q 59.078125 57.71875 59.328125 51.421875 
L 50.25 50.734375 
Q 49.515625 57.515625 45.28125 60.984375 
Q 41.0625 64.453125 32.8125 64.453125 
Q 24.21875 64.453125 20.28125 61.296875 
Q 16.359375 58.15625 16.359375 53.71875 
Q 16.359375 49.859375 19.140625 47.359375 
Q 21.875 44.875 33.421875 42.265625 
Q 44.96875 39.65625 49.265625 37.703125 
Q 55.515625 34.8125 58.484375 30.390625 
Q 61.46875 25.984375 61.46875 20.21875 
Q 61.46875 14.5 58.203125 9.4375 
Q 54.9375 4.390625 48.796875 1.578125 
Q 42.671875 -1.21875 35.015625 -1.21875 
Q 25.296875 -1.21875 18.71875 1.609375 
Q 12.15625 4.4375 8.421875 10.125 
Q 4.6875 15.828125 4.5 23 
" id="ArialMT-53"/>
     </defs>
     <g style="fill:#262626;" transform="translate(109.0 64.8943181818)scale(0.1 -0.1)">
      <use xlink:href="#ArialMT-53"/>
      <use x="66.69921875" xlink:href="#ArialMT-75"/>
      <use x="122.314453125" xlink:href="#ArialMT-63"/>
      <use x="172.314453125" xlink:href="#ArialMT-63"/>
      <use x="222.314453125" xlink:href="#ArialMT-69"/>
      <use x="244.53125" xlink:href="#ArialMT-6e"/>
      <use x="300.146484375" xlink:href="#ArialMT-61"/>
      <use x="355.76171875" xlink:href="#ArialMT-74"/>
      <use x="383.544921875" xlink:href="#ArialMT-65"/>
     </g>
    </g>
    <g id="line2d_17">
     <path d="M 81 75.539631 
L 101 75.539631 
" style="fill:none;stroke:#c44e52;stroke-linecap:round;stroke-width:1.75;"/>
    </g>
    <g id="line2d_18"/>
    <g id="text_15">
     <!-- Acetate -->
     <defs>
      <path d="M -0.140625 0 
L 27.34375 71.578125 
L 37.546875 71.578125 
L 66.84375 0 
L 56.0625 0 
L 47.703125 21.6875 
L 17.78125 21.6875 
L 9.90625 0 
z
M 20.515625 29.390625 
L 44.78125 29.390625 
L 37.3125 49.21875 
Q 33.890625 58.25 32.234375 64.0625 
Q 30.859375 57.171875 28.375 50.390625 
z
" id="ArialMT-41"/>
     </defs>
     <g style="fill:#262626;" transform="translate(109.0 79.0396306818)scale(0.1 -0.1)">
      <use xlink:href="#ArialMT-41"/>
      <use x="66.69921875" xlink:href="#ArialMT-63"/>
      <use x="116.69921875" xlink:href="#ArialMT-65"/>
      <use x="172.314453125" xlink:href="#ArialMT-74"/>
      <use x="200.09765625" xlink:href="#ArialMT-61"/>
      <use x="255.712890625" xlink:href="#ArialMT-74"/>
      <use x="283.49609375" xlink:href="#ArialMT-65"/>
     </g>
    </g>
    <g id="line2d_19">
     <path d="M 81 89.684943 
L 101 89.684943 
" style="fill:none;stroke:#ccb974;stroke-linecap:round;stroke-width:1.75;"/>
    </g>
    <g id="line2d_20"/>
    <g id="text_16">
     <!-- Biomass -->
     <defs>
      <path d="M 7.328125 0 
L 7.328125 71.578125 
L 34.1875 71.578125 
Q 42.390625 71.578125 47.34375 69.40625 
Q 52.296875 67.234375 55.09375 62.71875 
Q 57.90625 58.203125 57.90625 53.265625 
Q 57.90625 48.6875 55.421875 44.625 
Q 52.9375 40.578125 47.90625 38.09375 
Q 54.390625 36.1875 57.875 31.59375 
Q 61.375 27 61.375 20.75 
Q 61.375 15.71875 59.25 11.390625 
Q 57.125 7.078125 54 4.734375 
Q 50.875 2.390625 46.15625 1.1875 
Q 41.453125 0 34.625 0 
z
M 16.796875 41.5 
L 32.28125 41.5 
Q 38.578125 41.5 41.3125 42.328125 
Q 44.921875 43.40625 46.75 45.890625 
Q 48.578125 48.390625 48.578125 52.15625 
Q 48.578125 55.71875 46.875 58.421875 
Q 45.171875 61.140625 41.984375 62.140625 
Q 38.8125 63.140625 31.109375 63.140625 
L 16.796875 63.140625 
z
M 16.796875 8.453125 
L 34.625 8.453125 
Q 39.203125 8.453125 41.0625 8.796875 
Q 44.34375 9.375 46.53125 10.734375 
Q 48.734375 12.109375 50.140625 14.71875 
Q 51.5625 17.328125 51.5625 20.75 
Q 51.5625 24.75 49.515625 27.703125 
Q 47.46875 30.671875 43.828125 31.859375 
Q 40.1875 33.0625 33.34375 33.0625 
L 16.796875 33.0625 
z
" id="ArialMT-42"/>
     </defs>
     <g style="fill:#262626;" transform="translate(109.0 93.1849431818)scale(0.1 -0.1)">
      <use xlink:href="#ArialMT-42"/>
      <use x="66.69921875" xlink:href="#ArialMT-69"/>
      <use x="88.916015625" xlink:href="#ArialMT-6f"/>
      <use x="144.53125" xlink:href="#ArialMT-6d"/>
      <use x="227.83203125" xlink:href="#ArialMT-61"/>
      <use x="283.447265625" xlink:href="#ArialMT-73"/>
      <use x="333.447265625" xlink:href="#ArialMT-73"/>
     </g>
    </g>
   </g>
  </g>
  <g id="axes_2">
   <g id="matplotlib.axis_3">
    <g id="ytick_6">
     <g id="line2d_21">
      <defs>
       <path d="M 0 0 
L 6 0 
" id="m2e004c238a" style="stroke:#262626;"/>
      </defs>
      <g>
       <use style="fill:#262626;stroke:#262626;" x="518.4" xlink:href="#m2e004c238a" y="109.963636364"/>
      </g>
     </g>
     <g id="text_17">
      <!-- 0 -->
      <g style="fill:#262626;" transform="translate(531.4 112.548792614)scale(0.1 -0.1)">
       <use xlink:href="#ArialMT-30"/>
      </g>
     </g>
    </g>
    <g id="ytick_7">
     <g id="line2d_22">
      <g>
       <use style="fill:#262626;stroke:#262626;" x="518.4" xlink:href="#m2e004c238a" y="84.6"/>
      </g>
     </g>
     <g id="text_18">
      <!-- 5 -->
      <g style="fill:#262626;" transform="translate(531.4 87.18515625)scale(0.1 -0.1)">
       <use xlink:href="#ArialMT-35"/>
      </g>
     </g>
    </g>
    <g id="ytick_8">
     <g id="line2d_23">
      <g>
       <use style="fill:#262626;stroke:#262626;" x="518.4" xlink:href="#m2e004c238a" y="59.2363636364"/>
      </g>
     </g>
     <g id="text_19">
      <!-- 10 -->
      <g style="fill:#262626;" transform="translate(531.4 61.8215198864)scale(0.1 -0.1)">
       <use xlink:href="#ArialMT-31"/>
       <use x="55.615234375" xlink:href="#ArialMT-30"/>
      </g>
     </g>
    </g>
    <g id="ytick_9">
     <g id="line2d_24">
      <g>
       <use style="fill:#262626;stroke:#262626;" x="518.4" xlink:href="#m2e004c238a" y="33.8727272727"/>
      </g>
     </g>
     <g id="text_20">
      <!-- 15 -->
      <g style="fill:#262626;" transform="translate(531.4 36.4578835227)scale(0.1 -0.1)">
       <use xlink:href="#ArialMT-31"/>
       <use x="55.615234375" xlink:href="#ArialMT-35"/>
      </g>
     </g>
    </g>
    <g id="text_21">
     <!-- Biomass (g DCW/L) -->
     <defs>
      <path d="M 7.71875 0 
L 7.71875 71.578125 
L 32.375 71.578125 
Q 40.71875 71.578125 45.125 70.5625 
Q 51.265625 69.140625 55.609375 65.4375 
Q 61.28125 60.640625 64.078125 53.1875 
Q 66.890625 45.75 66.890625 36.1875 
Q 66.890625 28.03125 64.984375 21.734375 
Q 63.09375 15.4375 60.109375 11.296875 
Q 57.125 7.171875 53.578125 4.796875 
Q 50.046875 2.4375 45.046875 1.21875 
Q 40.046875 0 33.546875 0 
z
M 17.1875 8.453125 
L 32.46875 8.453125 
Q 39.546875 8.453125 43.578125 9.765625 
Q 47.609375 11.078125 50 13.484375 
Q 53.375 16.84375 55.25 22.53125 
Q 57.125 28.21875 57.125 36.328125 
Q 57.125 47.5625 53.4375 53.59375 
Q 49.75 59.625 44.484375 61.671875 
Q 40.671875 63.140625 32.234375 63.140625 
L 17.1875 63.140625 
z
" id="ArialMT-44"/>
      <path d="M 20.21875 0 
L 1.21875 71.578125 
L 10.9375 71.578125 
L 21.828125 24.65625 
Q 23.578125 17.28125 24.859375 10.015625 
Q 27.59375 21.484375 28.078125 23.25 
L 41.703125 71.578125 
L 53.125 71.578125 
L 63.375 35.359375 
Q 67.234375 21.875 68.953125 10.015625 
Q 70.3125 16.796875 72.515625 25.59375 
L 83.734375 71.578125 
L 93.265625 71.578125 
L 73.640625 0 
L 64.5 0 
L 49.421875 54.546875 
Q 47.515625 61.375 47.171875 62.9375 
Q 46.046875 58.015625 45.0625 54.546875 
L 29.890625 0 
z
" id="ArialMT-57"/>
      <path d="M 0 -1.21875 
L 20.75 72.796875 
L 27.78125 72.796875 
L 7.078125 -1.21875 
z
" id="ArialMT-2f"/>
      <path d="M 4.984375 -4.296875 
L 13.53125 -5.5625 
Q 14.0625 -9.515625 16.5 -11.328125 
Q 19.78125 -13.765625 25.4375 -13.765625 
Q 31.546875 -13.765625 34.859375 -11.328125 
Q 38.1875 -8.890625 39.359375 -4.5 
Q 40.046875 -1.8125 39.984375 6.78125 
Q 34.234375 0 25.640625 0 
Q 14.9375 0 9.078125 7.71875 
Q 3.21875 15.4375 3.21875 26.21875 
Q 3.21875 33.640625 5.90625 39.90625 
Q 8.59375 46.1875 13.6875 49.609375 
Q 18.796875 53.03125 25.6875 53.03125 
Q 34.859375 53.03125 40.828125 45.609375 
L 40.828125 51.859375 
L 48.921875 51.859375 
L 48.921875 7.03125 
Q 48.921875 -5.078125 46.453125 -10.125 
Q 44 -15.1875 38.640625 -18.109375 
Q 33.296875 -21.046875 25.484375 -21.046875 
Q 16.21875 -21.046875 10.5 -16.875 
Q 4.78125 -12.703125 4.984375 -4.296875 
M 12.25 26.859375 
Q 12.25 16.65625 16.296875 11.96875 
Q 20.359375 7.28125 26.46875 7.28125 
Q 32.515625 7.28125 36.609375 11.9375 
Q 40.71875 16.609375 40.71875 26.5625 
Q 40.71875 36.078125 36.5 40.90625 
Q 32.28125 45.75 26.3125 45.75 
Q 20.453125 45.75 16.34375 40.984375 
Q 12.25 36.234375 12.25 26.859375 
" id="ArialMT-67"/>
      <path d="M 7.328125 0 
L 7.328125 71.578125 
L 16.796875 71.578125 
L 16.796875 8.453125 
L 52.046875 8.453125 
L 52.046875 0 
z
" id="ArialMT-4c"/>
     </defs>
     <g style="fill:#262626;" transform="translate(555.52953125 117.970021307)rotate(-90.0)scale(0.11 -0.11)">
      <use xlink:href="#ArialMT-42"/>
      <use x="66.69921875" xlink:href="#ArialMT-69"/>
      <use x="88.916015625" xlink:href="#ArialMT-6f"/>
      <use x="144.53125" xlink:href="#ArialMT-6d"/>
      <use x="227.83203125" xlink:href="#ArialMT-61"/>
      <use x="283.447265625" xlink:href="#ArialMT-73"/>
      <use x="333.447265625" xlink:href="#ArialMT-73"/>
      <use x="383.447265625" xlink:href="#ArialMT-20"/>
      <use x="411.23046875" xlink:href="#ArialMT-28"/>
      <use x="444.53125" xlink:href="#ArialMT-67"/>
      <use x="500.146484375" xlink:href="#ArialMT-20"/>
      <use x="527.9296875" xlink:href="#ArialMT-44"/>
      <use x="600.146484375" xlink:href="#ArialMT-43"/>
      <use x="672.36328125" xlink:href="#ArialMT-57"/>
      <use x="766.748046875" xlink:href="#ArialMT-2f"/>
      <use x="794.53125" xlink:href="#ArialMT-4c"/>
      <use x="850.146484375" xlink:href="#ArialMT-29"/>
     </g>
    </g>
   </g>
   <g id="line2d_25">
    <path clip-path="url(#p78136f9eb6)" d="M 72 109.456364 
L 75.019563 109.4198 
L 78.039125 109.381143 
L 81.058688 109.340091 
L 84.07825 109.296344 
L 87.097813 109.249599 
L 90.117376 109.199554 
L 93.136938 109.145909 
L 96.156501 109.088361 
L 99.176064 109.026608 
L 102.195626 108.960349 
L 105.215189 108.889282 
L 108.234751 108.813106 
L 111.254314 108.731519 
L 114.273877 108.64422 
L 117.293439 108.549236 
L 120.313002 108.447983 
L 123.332564 108.340619 
L 126.352127 108.226314 
L 129.37169 108.10424 
L 132.391252 107.973568 
L 135.410815 107.833468 
L 138.430378 107.683111 
L 141.44994 107.521669 
L 144.469503 107.348312 
L 147.489065 107.16221 
L 150.508628 106.962536 
L 153.528191 106.74846 
L 156.547753 106.519152 
L 159.567316 106.270802 
L 162.586878 106.002728 
L 165.606441 105.719119 
L 168.626004 105.417563 
L 171.645566 105.095647 
L 174.665129 104.75096 
L 177.684692 104.381088 
L 180.704254 103.983619 
L 183.723817 103.556142 
L 186.743379 103.096243 
L 189.762942 102.60151 
L 192.782505 102.06953 
L 195.802067 101.497892 
L 198.82163 100.884183 
L 201.841193 100.224702 
L 204.860755 99.498877 
L 207.880318 98.731647 
L 210.89988 97.915532 
L 213.919443 97.04305 
L 216.939006 96.106721 
L 219.958568 95.099063 
L 222.978131 94.012595 
L 225.997693 92.839837 
L 229.017256 91.573306 
L 232.036819 90.205523 
L 235.056381 88.729005 
L 238.075944 87.136272 
L 241.095507 85.419843 
L 244.115069 83.572237 
L 247.134632 81.543944 
L 250.154194 79.378172 
L 253.173757 77.075442 
L 256.19332 74.615959 
L 259.212882 71.979927 
L 262.232445 69.147549 
L 265.252007 66.099031 
L 268.27157 62.814577 
L 271.291133 59.27439 
L 274.310695 55.458676 
L 277.330258 51.347638 
L 280.349821 46.921481 
L 283.369383 42.160408 
L 286.388946 37.044625 
L 289.408508 33.872805 
L 292.428071 33.872807 
L 295.447634 33.872809 
L 298.467196 33.872811 
L 301.486759 33.872813 
L 304.506321 33.872815 
L 307.525884 33.872816 
L 310.545447 33.872818 
L 313.565009 33.872819 
L 316.584572 33.872821 
L 319.604135 33.872822 
L 322.623697 33.872823 
L 325.64326 33.872825 
L 328.662822 33.872826 
L 331.682385 33.872827 
L 334.701948 33.872828 
L 337.72151 33.87283 
L 340.741073 33.872831 
L 343.760635 33.872831 
L 346.780198 33.872832 
L 349.799761 33.872833 
L 352.819323 33.872834 
L 355.838886 33.872835 
L 358.858449 33.872835 
L 361.878011 33.872836 
L 364.897574 33.872837 
L 367.917136 33.872837 
L 370.936699 33.872838 
" style="fill:none;stroke:#ccb974;stroke-linecap:round;stroke-width:1.75;"/>
   </g>
   <g id="patch_10">
    <path d="M 72 109.963636 
L 518.4 109.963636 
" style="fill:none;stroke:#262626;stroke-linecap:square;stroke-linejoin:miter;stroke-width:1.25;"/>
   </g>
   <g id="patch_11">
    <path d="M 518.4 109.963636 
L 518.4 28.8 
" style="fill:none;stroke:#262626;stroke-linecap:square;stroke-linejoin:miter;stroke-width:1.25;"/>
   </g>
   <g id="patch_12">
    <path d="M 72 109.963636 
L 72 28.8 
" style="fill:none;stroke:#262626;stroke-linecap:square;stroke-linejoin:miter;stroke-width:1.25;"/>
   </g>
  </g>
  <g id="axes_3">
   <g id="patch_13">
    <path d="M 72 252 
L 196 252 
L 196 170.836364 
L 72 170.836364 
z
" style="fill:#ffffff;"/>
   </g>
   <g id="matplotlib.axis_4">
    <g id="xtick_5">
     <g id="line2d_26">
      <g>
       <use style="fill:#262626;stroke:#262626;" x="72.0" xlink:href="#md1665caddc" y="252.0"/>
      </g>
     </g>
     <g id="text_22">
      <!-- 0 -->
      <g style="fill:#262626;" transform="translate(69.21953125 272.1578125)scale(0.1 -0.1)">
       <use xlink:href="#ArialMT-30"/>
      </g>
     </g>
    </g>
    <g id="xtick_6">
     <g id="line2d_27">
      <g>
       <use style="fill:#262626;stroke:#262626;" x="112.456769984" xlink:href="#md1665caddc" y="252.0"/>
      </g>
     </g>
     <g id="text_23">
      <!-- 5 -->
      <g style="fill:#262626;" transform="translate(109.676301234 272.1578125)scale(0.1 -0.1)">
       <use xlink:href="#ArialMT-35"/>
      </g>
     </g>
    </g>
    <g id="xtick_7">
     <g id="line2d_28">
      <g>
       <use style="fill:#262626;stroke:#262626;" x="152.913539967" xlink:href="#md1665caddc" y="252.0"/>
      </g>
     </g>
     <g id="text_24">
      <!-- 10 -->
      <g style="fill:#262626;" transform="translate(147.352602467 272.1578125)scale(0.1 -0.1)">
       <use xlink:href="#ArialMT-31"/>
       <use x="55.615234375" xlink:href="#ArialMT-30"/>
      </g>
     </g>
    </g>
    <g id="xtick_8">
     <g id="line2d_29">
      <g>
       <use style="fill:#262626;stroke:#262626;" x="193.370309951" xlink:href="#md1665caddc" y="252.0"/>
      </g>
     </g>
     <g id="text_25">
      <!-- 15 -->
      <g style="fill:#262626;" transform="translate(187.809372451 272.1578125)scale(0.1 -0.1)">
       <use xlink:href="#ArialMT-31"/>
       <use x="55.615234375" xlink:href="#ArialMT-35"/>
      </g>
     </g>
    </g>
   </g>
   <g id="matplotlib.axis_5">
    <g id="ytick_10">
     <g id="line2d_30">
      <g>
       <use style="fill:#262626;stroke:#262626;" x="72.0" xlink:href="#m82dc44170e" y="244.621487603"/>
      </g>
     </g>
     <g id="text_26">
      <!-- 10 -->
      <g style="fill:#262626;" transform="translate(47.878125 247.206643853)scale(0.1 -0.1)">
       <use xlink:href="#ArialMT-31"/>
       <use x="55.615234375" xlink:href="#ArialMT-30"/>
      </g>
     </g>
    </g>
    <g id="ytick_11">
     <g id="line2d_31">
      <g>
       <use style="fill:#262626;stroke:#262626;" x="72.0" xlink:href="#m82dc44170e" y="226.175206612"/>
      </g>
     </g>
     <g id="text_27">
      <!-- 15 -->
      <g style="fill:#262626;" transform="translate(47.878125 228.760362862)scale(0.1 -0.1)">
       <use xlink:href="#ArialMT-31"/>
       <use x="55.615234375" xlink:href="#ArialMT-35"/>
      </g>
     </g>
    </g>
    <g id="ytick_12">
     <g id="line2d_32">
      <g>
       <use style="fill:#262626;stroke:#262626;" x="72.0" xlink:href="#m82dc44170e" y="207.72892562"/>
      </g>
     </g>
     <g id="text_28">
      <!-- 20 -->
      <g style="fill:#262626;" transform="translate(47.878125 210.31408187)scale(0.1 -0.1)">
       <use xlink:href="#ArialMT-32"/>
       <use x="55.615234375" xlink:href="#ArialMT-30"/>
      </g>
     </g>
    </g>
    <g id="ytick_13">
     <g id="line2d_33">
      <g>
       <use style="fill:#262626;stroke:#262626;" x="72.0" xlink:href="#m82dc44170e" y="189.282644628"/>
      </g>
     </g>
     <g id="text_29">
      <!-- 25 -->
      <g style="fill:#262626;" transform="translate(47.878125 191.867800878)scale(0.1 -0.1)">
       <use xlink:href="#ArialMT-32"/>
       <use x="55.615234375" xlink:href="#ArialMT-35"/>
      </g>
     </g>
    </g>
    <g id="ytick_14">
     <g id="line2d_34">
      <g>
       <use style="fill:#262626;stroke:#262626;" x="72.0" xlink:href="#m82dc44170e" y="170.836363636"/>
      </g>
     </g>
     <g id="text_30">
      <!-- 30 -->
      <g style="fill:#262626;" transform="translate(47.878125 173.421519886)scale(0.1 -0.1)">
       <use xlink:href="#ArialMT-33"/>
       <use x="55.615234375" xlink:href="#ArialMT-30"/>
      </g>
     </g>
    </g>
    <g id="text_31">
     <!-- mM / g DCW * hr -->
     <defs>
      <path d="M 3.125 58.453125 
L 5.375 65.375 
Q 13.140625 62.640625 16.65625 60.640625 
Q 15.71875 69.484375 15.671875 72.796875 
L 22.75 72.796875 
Q 22.609375 67.96875 21.625 60.6875 
Q 26.65625 63.234375 33.15625 65.375 
L 35.40625 58.453125 
Q 29.203125 56.390625 23.25 55.71875 
Q 26.21875 53.125 31.640625 46.484375 
L 25.78125 42.328125 
Q 22.953125 46.1875 19.09375 52.828125 
Q 15.484375 45.953125 12.75 42.328125 
L 6.984375 46.484375 
Q 12.640625 53.46875 15.09375 55.71875 
Q 8.796875 56.9375 3.125 58.453125 
" id="ArialMT-2a"/>
     </defs>
     <g style="fill:#262626;" transform="translate(40.56296875 252.973259943)rotate(-90.0)scale(0.11 -0.11)">
      <use xlink:href="#ArialMT-6d"/>
      <use x="83.30078125" xlink:href="#ArialMT-4d"/>
      <use x="166.6015625" xlink:href="#ArialMT-20"/>
      <use x="194.384765625" xlink:href="#ArialMT-2f"/>
      <use x="222.16796875" xlink:href="#ArialMT-20"/>
      <use x="249.951171875" xlink:href="#ArialMT-67"/>
      <use x="305.56640625" xlink:href="#ArialMT-20"/>
      <use x="333.349609375" xlink:href="#ArialMT-44"/>
      <use x="405.56640625" xlink:href="#ArialMT-43"/>
      <use x="477.783203125" xlink:href="#ArialMT-57"/>
      <use x="572.16796875" xlink:href="#ArialMT-20"/>
      <use x="599.951171875" xlink:href="#ArialMT-2a"/>
      <use x="638.8671875" xlink:href="#ArialMT-20"/>
      <use x="666.650390625" xlink:href="#ArialMT-68"/>
      <use x="722.265625" xlink:href="#ArialMT-72"/>
     </g>
    </g>
   </g>
   <g id="patch_14">
    <path clip-path="url(#p22807a501b)" d="M 72 252 
L 72 170.836364 
L 132.044186 170.836364 
L 132.044186 252 
z
" style="fill:#e8f6f2;"/>
   </g>
   <g id="patch_15">
    <path clip-path="url(#p22807a501b)" d="M 132.044186 252 
L 132.044186 170.836364 
L 141.703822 170.836364 
L 141.703822 252 
z
" style="fill:#feeee8;"/>
   </g>
   <g id="patch_16">
    <path clip-path="url(#p22807a501b)" d="M 141.703822 252 
L 141.703822 170.836364 
L 149.033533 170.836364 
L 149.033533 252 
z
" style="fill:#eef1f7;"/>
   </g>
   <g id="patch_17">
    <path clip-path="url(#p22807a501b)" d="M 149.033533 252 
L 149.033533 170.836364 
L 155.037972 170.836364 
L 155.037972 252 
z
" style="fill:#fbedf6;"/>
   </g>
   <g id="line2d_35">
    <path clip-path="url(#p22807a501b)" d="M 72 249.654969 
L 72.838767 250.176773 
L 73.677535 250.508798 
L 74.516302 250.697929 
L 75.35507 250.782412 
L 76.193837 250.793517 
L 77.032604 250.756734 
L 77.871372 250.692678 
L 78.710139 250.617808 
L 79.548907 250.545027 
L 80.387674 250.484197 
L 81.226441 250.442598 
L 82.065209 250.425342 
L 82.903976 250.435737 
L 83.742744 250.475623 
L 84.581511 249.924024 
L 85.420278 250.328996 
L 86.259046 250.567554 
L 87.097813 250.682768 
L 87.93658 250.709846 
L 88.775348 250.677548 
L 89.614115 250.609231 
L 90.452883 250.523654 
L 91.29165 250.435639 
L 92.130417 250.356639 
L 92.969185 250.295229 
L 93.807952 250.257557 
L 94.64672 250.24774 
L 95.485487 250.268229 
L 96.324254 249.431602 
L 97.163022 249.961558 
L 98.001789 250.280232 
L 98.840557 250.440415 
L 99.679324 250.48519 
L 100.518091 250.449804 
L 101.356859 250.363014 
L 102.195626 250.248076 
L 103.034394 250.123539 
L 103.873161 250.003902 
L 104.711928 249.90019 
L 105.550696 249.82047 
L 106.389463 249.770319 
L 107.228231 249.753247 
L 108.066998 248.546312 
L 108.905765 249.199881 
L 109.744533 249.58348 
L 110.5833 249.764486 
L 111.422067 249.79763 
L 112.260835 249.727622 
L 113.099602 249.590942 
L 113.93837 249.417127 
L 114.777137 249.229759 
L 115.615904 249.047283 
L 116.454672 248.883718 
L 117.293439 248.749294 
L 118.132207 248.651052 
L 118.970974 248.593378 
L 119.809741 248.578504 
L 120.648509 247.924337 
L 121.487276 248.417908 
L 122.326044 248.709134 
L 123.164811 248.852497 
L 124.003578 248.89197 
L 124.842346 248.863022 
L 125.681113 248.794074 
L 126.519881 248.707618 
L 127.358648 248.621115 
L 128.197415 248.547772 
L 129.036183 248.497205 
L 129.87495 248.476046 
L 130.713718 248.488474 
L 131.552485 248.536691 
L 132.391252 224.455153 
L 133.23002 227.14289 
L 134.068787 229.786199 
L 134.907555 232.377849 
L 135.746322 234.904076 
L 136.585089 237.360915 
L 137.423857 239.739924 
L 138.262624 242.038445 
L 139.101391 244.251913 
L 139.940159 246.378479 
L 140.778926 248.416714 
L 141.617694 250.366055 
L 142.456461 231.544133 
L 143.295228 234.372612 
L 144.133996 237.078385 
L 144.972763 239.663392 
L 145.811531 242.130211 
L 146.650298 244.481226 
L 147.489065 246.720287 
L 148.327833 248.85034 
L 149.1666 233.5458 
L 150.005368 236.286494 
L 150.844135 238.915951 
L 151.682902 241.438981 
L 152.52167 243.86028 
L 153.360437 246.184435 
L 154.199205 248.416427 
L 155.037972 250.56119 
" style="fill:none;stroke:#4c72b0;stroke-linecap:round;stroke-width:1.75;"/>
   </g>
   <g id="line2d_36">
    <path clip-path="url(#p22807a501b)" d="M 72 250.56119 
L 72.838767 250.56119 
L 73.677535 250.56119 
L 74.516302 250.56119 
L 75.35507 250.56119 
L 76.193837 250.56119 
L 77.032604 250.56119 
L 77.871372 250.56119 
L 78.710139 250.56119 
L 79.548907 250.56119 
L 80.387674 250.56119 
L 81.226441 250.56119 
L 82.065209 250.56119 
L 82.903976 250.56119 
L 83.742744 250.56119 
L 84.581511 250.56119 
L 85.420278 250.56119 
L 86.259046 250.56119 
L 87.097813 250.56119 
L 87.93658 250.56119 
L 88.775348 250.56119 
L 89.614115 250.56119 
L 90.452883 250.56119 
L 91.29165 250.56119 
L 92.130417 250.56119 
L 92.969185 250.56119 
L 93.807952 250.56119 
L 94.64672 250.56119 
L 95.485487 250.56119 
L 96.324254 250.56119 
L 97.163022 250.56119 
L 98.001789 250.56119 
L 98.840557 250.56119 
L 99.679324 250.56119 
L 100.518091 250.56119 
L 101.356859 250.56119 
L 102.195626 250.56119 
L 103.034394 250.56119 
L 103.873161 250.56119 
L 104.711928 250.56119 
L 105.550696 250.56119 
L 106.389463 250.56119 
L 107.228231 250.56119 
L 108.066998 250.56119 
L 108.905765 250.56119 
L 109.744533 250.56119 
L 110.5833 250.56119 
L 111.422067 250.56119 
L 112.260835 250.56119 
L 113.099602 250.56119 
L 113.93837 250.56119 
L 114.777137 250.56119 
L 115.615904 250.56119 
L 116.454672 250.56119 
L 117.293439 250.56119 
L 118.132207 250.56119 
L 118.970974 250.56119 
L 119.809741 250.56119 
L 120.648509 250.56119 
L 121.487276 250.56119 
L 122.326044 250.56119 
L 123.164811 250.56119 
L 124.003578 250.56119 
L 124.842346 250.56119 
L 125.681113 250.56119 
L 126.519881 250.56119 
L 127.358648 250.56119 
L 128.197415 250.56119 
L 129.036183 250.56119 
L 129.87495 250.56119 
L 130.713718 250.56119 
L 131.552485 250.56119 
L 132.391252 250.56119 
L 133.23002 250.56119 
L 134.068787 250.56119 
L 134.907555 250.56119 
L 135.746322 250.56119 
L 136.585089 250.56119 
L 137.423857 250.56119 
L 138.262624 250.56119 
L 139.101391 250.56119 
L 139.940159 250.56119 
L 140.778926 250.56119 
L 141.617694 250.56119 
L 142.456461 250.56119 
L 143.295228 250.56119 
L 144.133996 250.56119 
L 144.972763 250.56119 
L 145.811531 250.56119 
L 146.650298 250.56119 
L 147.489065 250.56119 
L 148.327833 250.56119 
L 149.1666 250.56119 
L 150.005368 250.56119 
L 150.844135 250.56119 
L 151.682902 250.56119 
L 152.52167 250.56119 
L 153.360437 250.56119 
L 154.199205 250.56119 
L 155.037972 250.56119 
" style="fill:none;stroke:#c44e52;stroke-dasharray:6.000000,6.000000;stroke-dashoffset:0.0;stroke-width:1.75;"/>
   </g>
   <g id="patch_18">
    <path d="M 72 252 
L 196 252 
" style="fill:none;stroke:#262626;stroke-linecap:square;stroke-linejoin:miter;stroke-width:1.25;"/>
   </g>
   <g id="patch_19">
    <path d="M 72 252 
L 72 170.836364 
" style="fill:none;stroke:#262626;stroke-linecap:square;stroke-linejoin:miter;stroke-width:1.25;"/>
   </g>
   <g id="text_32">
    <!-- ATP Maintenance -->
    <defs>
     <path d="M 7.71875 0 
L 7.71875 71.578125 
L 34.71875 71.578125 
Q 41.84375 71.578125 45.609375 70.90625 
Q 50.875 70.015625 54.4375 67.546875 
Q 58.015625 65.09375 60.1875 60.640625 
Q 62.359375 56.203125 62.359375 50.875 
Q 62.359375 41.75 56.546875 35.421875 
Q 50.734375 29.109375 35.546875 29.109375 
L 17.1875 29.109375 
L 17.1875 0 
z
M 17.1875 37.546875 
L 35.6875 37.546875 
Q 44.875 37.546875 48.734375 40.96875 
Q 52.59375 44.390625 52.59375 50.59375 
Q 52.59375 55.078125 50.3125 58.265625 
Q 48.046875 61.46875 44.34375 62.5 
Q 41.9375 63.140625 35.5 63.140625 
L 17.1875 63.140625 
z
" id="ArialMT-50"/>
    </defs>
    <g style="fill:#262626;" transform="translate(86.3178125 165.836363636)scale(0.12 -0.12)">
     <use xlink:href="#ArialMT-41"/>
     <use x="66.58984375" xlink:href="#ArialMT-54"/>
     <use x="127.673828125" xlink:href="#ArialMT-50"/>
     <use x="194.357421875" xlink:href="#ArialMT-20"/>
     <use x="222.140625" xlink:href="#ArialMT-4d"/>
     <use x="305.44140625" xlink:href="#ArialMT-61"/>
     <use x="361.056640625" xlink:href="#ArialMT-69"/>
     <use x="383.2734375" xlink:href="#ArialMT-6e"/>
     <use x="438.888671875" xlink:href="#ArialMT-74"/>
     <use x="466.671875" xlink:href="#ArialMT-65"/>
     <use x="522.287109375" xlink:href="#ArialMT-6e"/>
     <use x="577.90234375" xlink:href="#ArialMT-61"/>
     <use x="633.517578125" xlink:href="#ArialMT-6e"/>
     <use x="689.1328125" xlink:href="#ArialMT-63"/>
     <use x="739.1328125" xlink:href="#ArialMT-65"/>
    </g>
   </g>
  </g>
  <g id="axes_4">
   <g id="patch_20">
    <path d="M 233.2 252 
L 357.2 252 
L 357.2 170.836364 
L 233.2 170.836364 
z
" style="fill:#ffffff;"/>
   </g>
   <g id="matplotlib.axis_6">
    <g id="xtick_9">
     <g id="line2d_37">
      <g>
       <use style="fill:#262626;stroke:#262626;" x="233.2" xlink:href="#md1665caddc" y="252.0"/>
      </g>
     </g>
     <g id="text_33">
      <!-- 0 -->
      <g style="fill:#262626;" transform="translate(230.41953125 272.1578125)scale(0.1 -0.1)">
       <use xlink:href="#ArialMT-30"/>
      </g>
     </g>
    </g>
    <g id="xtick_10">
     <g id="line2d_38">
      <g>
       <use style="fill:#262626;stroke:#262626;" x="273.656769984" xlink:href="#md1665caddc" y="252.0"/>
      </g>
     </g>
     <g id="text_34">
      <!-- 5 -->
      <g style="fill:#262626;" transform="translate(270.876301234 272.1578125)scale(0.1 -0.1)">
       <use xlink:href="#ArialMT-35"/>
      </g>
     </g>
    </g>
    <g id="xtick_11">
     <g id="line2d_39">
      <g>
       <use style="fill:#262626;stroke:#262626;" x="314.113539967" xlink:href="#md1665caddc" y="252.0"/>
      </g>
     </g>
     <g id="text_35">
      <!-- 10 -->
      <g style="fill:#262626;" transform="translate(308.552602467 272.1578125)scale(0.1 -0.1)">
       <use xlink:href="#ArialMT-31"/>
       <use x="55.615234375" xlink:href="#ArialMT-30"/>
      </g>
     </g>
    </g>
    <g id="xtick_12">
     <g id="line2d_40">
      <g>
       <use style="fill:#262626;stroke:#262626;" x="354.570309951" xlink:href="#md1665caddc" y="252.0"/>
      </g>
     </g>
     <g id="text_36">
      <!-- 15 -->
      <g style="fill:#262626;" transform="translate(349.009372451 272.1578125)scale(0.1 -0.1)">
       <use xlink:href="#ArialMT-31"/>
       <use x="55.615234375" xlink:href="#ArialMT-35"/>
      </g>
     </g>
    </g>
    <g id="text_37">
     <!-- Time (hr) -->
     <g style="fill:#262626;" transform="translate(272.9009375 287.15296875)scale(0.11 -0.11)">
      <use xlink:href="#ArialMT-54"/>
      <use x="61.037109375" xlink:href="#ArialMT-69"/>
      <use x="83.25390625" xlink:href="#ArialMT-6d"/>
      <use x="166.5546875" xlink:href="#ArialMT-65"/>
      <use x="222.169921875" xlink:href="#ArialMT-20"/>
      <use x="249.953125" xlink:href="#ArialMT-28"/>
      <use x="283.25390625" xlink:href="#ArialMT-68"/>
      <use x="338.869140625" xlink:href="#ArialMT-72"/>
      <use x="372.169921875" xlink:href="#ArialMT-29"/>
     </g>
    </g>
   </g>
   <g id="matplotlib.axis_7">
    <g id="ytick_15">
     <g id="line2d_41">
      <g>
       <use style="fill:#262626;stroke:#262626;" x="233.2" xlink:href="#m82dc44170e" y="252.0"/>
      </g>
     </g>
     <g id="text_38">
      <!-- 0 -->
      <g style="fill:#262626;" transform="translate(214.6390625 254.58515625)scale(0.1 -0.1)">
       <use xlink:href="#ArialMT-30"/>
      </g>
     </g>
    </g>
    <g id="ytick_16">
     <g id="line2d_42">
      <g>
       <use style="fill:#262626;stroke:#262626;" x="233.2" xlink:href="#m82dc44170e" y="235.767272727"/>
      </g>
     </g>
     <g id="text_39">
      <!-- 2 -->
      <g style="fill:#262626;" transform="translate(214.6390625 238.352428977)scale(0.1 -0.1)">
       <use xlink:href="#ArialMT-32"/>
      </g>
     </g>
    </g>
    <g id="ytick_17">
     <g id="line2d_43">
      <g>
       <use style="fill:#262626;stroke:#262626;" x="233.2" xlink:href="#m82dc44170e" y="219.534545455"/>
      </g>
     </g>
     <g id="text_40">
      <!-- 4 -->
      <g style="fill:#262626;" transform="translate(214.6390625 222.119701705)scale(0.1 -0.1)">
       <use xlink:href="#ArialMT-34"/>
      </g>
     </g>
    </g>
    <g id="ytick_18">
     <g id="line2d_44">
      <g>
       <use style="fill:#262626;stroke:#262626;" x="233.2" xlink:href="#m82dc44170e" y="203.301818182"/>
      </g>
     </g>
     <g id="text_41">
      <!-- 6 -->
      <defs>
       <path d="M 49.75 54.046875 
L 41.015625 53.375 
Q 39.84375 58.546875 37.703125 60.890625 
Q 34.125 64.65625 28.90625 64.65625 
Q 24.703125 64.65625 21.53125 62.3125 
Q 17.390625 59.28125 14.984375 53.46875 
Q 12.59375 47.65625 12.5 36.921875 
Q 15.671875 41.75 20.265625 44.09375 
Q 24.859375 46.4375 29.890625 46.4375 
Q 38.671875 46.4375 44.84375 39.96875 
Q 51.03125 33.5 51.03125 23.25 
Q 51.03125 16.5 48.125 10.71875 
Q 45.21875 4.9375 40.140625 1.859375 
Q 35.0625 -1.21875 28.609375 -1.21875 
Q 17.625 -1.21875 10.6875 6.859375 
Q 3.765625 14.9375 3.765625 33.5 
Q 3.765625 54.25 11.421875 63.671875 
Q 18.109375 71.875 29.4375 71.875 
Q 37.890625 71.875 43.28125 67.140625 
Q 48.6875 62.40625 49.75 54.046875 
M 13.875 23.1875 
Q 13.875 18.65625 15.796875 14.5 
Q 17.71875 10.359375 21.1875 8.171875 
Q 24.65625 6 28.46875 6 
Q 34.03125 6 38.03125 10.484375 
Q 42.046875 14.984375 42.046875 22.703125 
Q 42.046875 30.125 38.078125 34.390625 
Q 34.125 38.671875 28.125 38.671875 
Q 22.171875 38.671875 18.015625 34.390625 
Q 13.875 30.125 13.875 23.1875 
" id="ArialMT-36"/>
      </defs>
      <g style="fill:#262626;" transform="translate(214.6390625 205.886974432)scale(0.1 -0.1)">
       <use xlink:href="#ArialMT-36"/>
      </g>
     </g>
    </g>
    <g id="ytick_19">
     <g id="line2d_45">
      <g>
       <use style="fill:#262626;stroke:#262626;" x="233.2" xlink:href="#m82dc44170e" y="187.069090909"/>
      </g>
     </g>
     <g id="text_42">
      <!-- 8 -->
      <defs>
       <path d="M 17.671875 38.8125 
Q 12.203125 40.828125 9.5625 44.53125 
Q 6.9375 48.25 6.9375 53.421875 
Q 6.9375 61.234375 12.546875 66.546875 
Q 18.171875 71.875 27.484375 71.875 
Q 36.859375 71.875 42.578125 66.421875 
Q 48.296875 60.984375 48.296875 53.171875 
Q 48.296875 48.1875 45.671875 44.5 
Q 43.0625 40.828125 37.75 38.8125 
Q 44.34375 36.671875 47.78125 31.875 
Q 51.21875 27.09375 51.21875 20.453125 
Q 51.21875 11.28125 44.71875 5.03125 
Q 38.234375 -1.21875 27.640625 -1.21875 
Q 17.046875 -1.21875 10.546875 5.046875 
Q 4.046875 11.328125 4.046875 20.703125 
Q 4.046875 27.6875 7.59375 32.390625 
Q 11.140625 37.109375 17.671875 38.8125 
M 15.921875 53.71875 
Q 15.921875 48.640625 19.1875 45.40625 
Q 22.46875 42.1875 27.6875 42.1875 
Q 32.765625 42.1875 36.015625 45.375 
Q 39.265625 48.578125 39.265625 53.21875 
Q 39.265625 58.0625 35.90625 61.359375 
Q 32.5625 64.65625 27.59375 64.65625 
Q 22.5625 64.65625 19.234375 61.421875 
Q 15.921875 58.203125 15.921875 53.71875 
M 13.09375 20.65625 
Q 13.09375 16.890625 14.875 13.375 
Q 16.65625 9.859375 20.171875 7.921875 
Q 23.6875 6 27.734375 6 
Q 34.03125 6 38.125 10.046875 
Q 42.234375 14.109375 42.234375 20.359375 
Q 42.234375 26.703125 38.015625 30.859375 
Q 33.796875 35.015625 27.4375 35.015625 
Q 21.234375 35.015625 17.15625 30.90625 
Q 13.09375 26.8125 13.09375 20.65625 
" id="ArialMT-38"/>
      </defs>
      <g style="fill:#262626;" transform="translate(214.6390625 189.654247159)scale(0.1 -0.1)">
       <use xlink:href="#ArialMT-38"/>
      </g>
     </g>
    </g>
    <g id="ytick_20">
     <g id="line2d_46">
      <g>
       <use style="fill:#262626;stroke:#262626;" x="233.2" xlink:href="#m82dc44170e" y="170.836363636"/>
      </g>
     </g>
     <g id="text_43">
      <!-- 10 -->
      <g style="fill:#262626;" transform="translate(209.078125 173.421519886)scale(0.1 -0.1)">
       <use xlink:href="#ArialMT-31"/>
       <use x="55.615234375" xlink:href="#ArialMT-30"/>
      </g>
     </g>
    </g>
   </g>
   <g id="patch_21">
    <path clip-path="url(#pa1017aa257)" d="M 233.2 252 
L 233.2 170.836364 
L 293.244186 170.836364 
L 293.244186 252 
z
" style="fill:#e8f6f2;"/>
   </g>
   <g id="patch_22">
    <path clip-path="url(#pa1017aa257)" d="M 293.244186 252 
L 293.244186 170.836364 
L 302.903822 170.836364 
L 302.903822 252 
z
" style="fill:#feeee8;"/>
   </g>
   <g id="patch_23">
    <path clip-path="url(#pa1017aa257)" d="M 302.903822 252 
L 302.903822 170.836364 
L 310.233533 170.836364 
L 310.233533 252 
z
" style="fill:#eef1f7;"/>
   </g>
   <g id="patch_24">
    <path clip-path="url(#pa1017aa257)" d="M 310.233533 252 
L 310.233533 170.836364 
L 316.237972 170.836364 
L 316.237972 252 
z
" style="fill:#fbedf6;"/>
   </g>
   <g id="line2d_47">
    <path clip-path="url(#pa1017aa257)" d="M 233.2 188.131191 
L 234.038767 189.177266 
L 234.877535 189.842886 
L 235.716302 190.222042 
L 236.55507 190.391408 
L 237.393837 190.41367 
L 238.232604 190.33993 
L 239.071372 190.211515 
L 239.910139 190.061422 
L 240.748907 189.915516 
L 241.587674 189.793568 
L 242.426441 189.710174 
L 243.265209 189.675579 
L 244.103976 189.696418 
L 244.942744 189.776379 
L 245.781511 188.670573 
L 246.620278 189.482431 
L 247.459046 189.960676 
L 248.297813 190.191648 
L 249.13658 190.245932 
L 249.975348 190.181184 
L 250.814115 190.044227 
L 251.652883 189.872668 
L 252.49165 189.696223 
L 253.330417 189.537848 
L 254.169185 189.414739 
L 255.007952 189.339216 
L 255.84672 189.319535 
L 256.685487 189.36061 
L 257.524254 187.6834 
L 258.363022 188.745819 
L 259.201789 189.384673 
L 260.040557 189.705798 
L 260.879324 189.795558 
L 261.718091 189.724619 
L 262.556859 189.550628 
L 263.395626 189.320208 
L 264.234394 189.070545 
L 265.073161 188.830706 
L 265.911928 188.622792 
L 266.750696 188.462975 
L 267.589463 188.362435 
L 268.428231 188.328212 
L 269.266998 185.908635 
L 270.105765 187.218863 
L 270.944533 187.987874 
L 271.7833 188.350742 
L 272.622067 188.417187 
L 273.460835 188.276841 
L 274.299602 188.002835 
L 275.13837 187.654382 
L 275.977137 187.278759 
L 276.815904 186.912945 
L 277.654672 186.585041 
L 278.493439 186.315559 
L 279.332207 186.118609 
L 280.170974 186.002988 
L 281.009741 185.973171 
L 281.848509 184.661743 
L 282.687276 185.651218 
L 283.526044 186.235048 
L 284.364811 186.522452 
L 285.203578 186.601585 
L 286.042346 186.543551 
L 286.881113 186.40533 
L 287.719881 186.232008 
L 288.558648 186.058594 
L 289.397415 185.91156 
L 290.236183 185.810187 
L 291.07495 185.767769 
L 291.913718 185.792684 
L 292.752485 185.889348 
L 293.591252 179.733652 
L 294.43002 183.137729 
L 295.268787 186.485539 
L 296.107555 189.767921 
L 296.946322 192.967443 
L 297.785089 196.079083 
L 298.623857 199.09215 
L 299.462624 202.003279 
L 300.301391 204.806684 
L 301.140159 207.500026 
L 301.978926 210.081496 
L 302.817694 212.550379 
L 303.656461 214.767031 
L 304.495228 216.874552 
L 305.333996 218.890645 
L 306.172763 220.816754 
L 307.011531 222.654799 
L 307.850298 224.406558 
L 308.689065 226.0749 
L 309.527833 227.662019 
L 310.3666 229.148943 
L 311.205368 230.454551 
L 312.044135 231.707169 
L 312.882902 232.909087 
L 313.72167 234.062542 
L 314.560437 235.16972 
L 315.399205 236.232994 
L 316.237972 237.254714 
" style="fill:none;stroke:#4c72b0;stroke-linecap:round;stroke-width:1.75;"/>
   </g>
   <g id="line2d_48">
    <path clip-path="url(#pa1017aa257)" d="M 233.2 189.962761 
L 234.038767 189.956302 
L 234.877535 189.949474 
L 235.716302 189.942224 
L 236.55507 189.934498 
L 237.393837 189.926245 
L 238.232604 189.91741 
L 239.071372 189.907942 
L 239.910139 189.897787 
L 240.748907 189.886892 
L 241.587674 189.875204 
L 242.426441 189.862671 
L 243.265209 189.849239 
L 244.103976 189.834856 
L 244.942744 189.819469 
L 245.781511 189.802734 
L 246.620278 189.784899 
L 247.459046 189.76599 
L 248.297813 189.745866 
L 249.13658 189.724382 
L 249.975348 189.701395 
L 250.814115 189.676762 
L 251.652883 189.65034 
L 252.49165 189.621985 
L 253.330417 189.591554 
L 254.169185 189.558904 
L 255.007952 189.523891 
L 255.84672 189.486372 
L 256.685487 189.446204 
L 257.524254 189.40274 
L 258.363022 189.355864 
L 259.201789 189.30629 
L 260.040557 189.253618 
L 260.879324 189.197445 
L 261.718091 189.137372 
L 262.556859 189.072996 
L 263.395626 189.003917 
L 264.234394 188.929733 
L 265.073161 188.850044 
L 265.911928 188.764448 
L 266.750696 188.672545 
L 267.589463 188.573932 
L 268.428231 188.468209 
L 269.266998 188.354776 
L 270.105765 188.230425 
L 270.944533 188.099033 
L 271.7833 187.959499 
L 272.622067 187.810717 
L 273.460835 187.651585 
L 274.299602 187.481 
L 275.13837 187.297858 
L 275.977137 187.101056 
L 276.815904 186.88949 
L 277.654672 186.662057 
L 278.493439 186.417654 
L 279.332207 186.155177 
L 280.170974 185.873523 
L 281.009741 185.571589 
L 281.848509 185.244567 
L 282.687276 184.895872 
L 283.526044 184.526039 
L 284.364811 184.133893 
L 285.203578 183.718263 
L 286.042346 183.277974 
L 286.881113 182.811853 
L 287.719881 182.318726 
L 288.558648 181.79742 
L 289.397415 181.246761 
L 290.236183 180.665577 
L 291.07495 180.052693 
L 291.913718 179.406936 
L 292.752485 178.727133 
L 293.591252 179.733356 
L 294.43002 183.137555 
L 295.268787 186.486826 
L 296.107555 189.767337 
L 296.946322 192.967808 
L 297.785089 196.078614 
L 298.623857 199.092388 
L 299.462624 202.003156 
L 300.301391 204.806691 
L 301.140159 207.500049 
L 301.978926 210.081481 
L 302.817694 212.550387 
L 303.656461 214.767041 
L 304.495228 216.874507 
L 305.333996 218.890642 
L 306.172763 220.816797 
L 307.011531 222.654762 
L 307.850298 224.406642 
L 308.689065 226.07487 
L 309.527833 227.662075 
L 310.3666 229.148921 
L 311.205368 230.45453 
L 312.044135 231.707194 
L 312.882902 232.909106 
L 313.72167 234.062521 
L 314.560437 235.169729 
L 315.399205 236.233032 
L 316.237972 237.254714 
" style="fill:none;stroke:#c44e52;stroke-dasharray:6.000000,6.000000;stroke-dashoffset:0.0;stroke-width:1.75;"/>
   </g>
   <g id="patch_25">
    <path d="M 233.2 252 
L 357.2 252 
" style="fill:none;stroke:#262626;stroke-linecap:square;stroke-linejoin:miter;stroke-width:1.25;"/>
   </g>
   <g id="patch_26">
    <path d="M 233.2 252 
L 233.2 170.836364 
" style="fill:none;stroke:#262626;stroke-linecap:square;stroke-linejoin:miter;stroke-width:1.25;"/>
   </g>
   <g id="text_44">
    <!-- Glucose Uptake -->
    <defs>
     <path d="M 54.6875 71.578125 
L 64.15625 71.578125 
L 64.15625 30.21875 
Q 64.15625 19.4375 61.71875 13.078125 
Q 59.28125 6.734375 52.90625 2.75 
Q 46.53125 -1.21875 36.1875 -1.21875 
Q 26.125 -1.21875 19.71875 2.25 
Q 13.328125 5.71875 10.59375 12.28125 
Q 7.859375 18.84375 7.859375 30.21875 
L 7.859375 71.578125 
L 17.328125 71.578125 
L 17.328125 30.28125 
Q 17.328125 20.953125 19.0625 16.53125 
Q 20.796875 12.109375 25.015625 9.71875 
Q 29.25 7.328125 35.359375 7.328125 
Q 45.796875 7.328125 50.234375 12.0625 
Q 54.6875 16.796875 54.6875 30.28125 
z
" id="ArialMT-55"/>
     <path d="M 6.640625 0 
L 6.640625 71.578125 
L 15.4375 71.578125 
L 15.4375 30.765625 
L 36.234375 51.859375 
L 47.609375 51.859375 
L 27.78125 32.625 
L 49.609375 0 
L 38.765625 0 
L 21.625 26.515625 
L 15.4375 20.5625 
L 15.4375 0 
z
" id="ArialMT-6b"/>
    </defs>
    <g style="fill:#262626;" transform="translate(252.51375 165.836363636)scale(0.12 -0.12)">
     <use xlink:href="#ArialMT-47"/>
     <use x="77.783203125" xlink:href="#ArialMT-6c"/>
     <use x="100.0" xlink:href="#ArialMT-75"/>
     <use x="155.615234375" xlink:href="#ArialMT-63"/>
     <use x="205.615234375" xlink:href="#ArialMT-6f"/>
     <use x="261.23046875" xlink:href="#ArialMT-73"/>
     <use x="311.23046875" xlink:href="#ArialMT-65"/>
     <use x="366.845703125" xlink:href="#ArialMT-20"/>
     <use x="394.62890625" xlink:href="#ArialMT-55"/>
     <use x="466.845703125" xlink:href="#ArialMT-70"/>
     <use x="522.4609375" xlink:href="#ArialMT-74"/>
     <use x="550.244140625" xlink:href="#ArialMT-61"/>
     <use x="605.859375" xlink:href="#ArialMT-6b"/>
     <use x="655.859375" xlink:href="#ArialMT-65"/>
    </g>
   </g>
   <g id="legend_2">
    <g id="line2d_49">
     <path d="M 242.2 223.367187 
L 262.2 223.367187 
" style="fill:none;stroke:#4c72b0;stroke-linecap:round;stroke-width:1.75;"/>
    </g>
    <g id="line2d_50"/>
    <g id="text_45">
     <!-- Optimal flux -->
     <defs>
      <path d="M 8.6875 0 
L 8.6875 45.015625 
L 0.921875 45.015625 
L 0.921875 51.859375 
L 8.6875 51.859375 
L 8.6875 57.375 
Q 8.6875 62.59375 9.625 65.140625 
Q 10.890625 68.5625 14.078125 70.671875 
Q 17.28125 72.796875 23.046875 72.796875 
Q 26.765625 72.796875 31.25 71.921875 
L 29.9375 64.265625 
Q 27.203125 64.75 24.75 64.75 
Q 20.75 64.75 19.09375 63.03125 
Q 17.4375 61.328125 17.4375 56.640625 
L 17.4375 51.859375 
L 27.546875 51.859375 
L 27.546875 45.015625 
L 17.4375 45.015625 
L 17.4375 0 
z
" id="ArialMT-66"/>
      <path d="M 4.828125 34.859375 
Q 4.828125 52.6875 14.390625 62.765625 
Q 23.96875 72.859375 39.109375 72.859375 
Q 49.03125 72.859375 56.984375 68.109375 
Q 64.9375 63.375 69.109375 54.90625 
Q 73.296875 46.4375 73.296875 35.6875 
Q 73.296875 24.8125 68.890625 16.21875 
Q 64.5 7.625 56.4375 3.203125 
Q 48.390625 -1.21875 39.0625 -1.21875 
Q 28.953125 -1.21875 20.984375 3.65625 
Q 13.03125 8.546875 8.921875 16.984375 
Q 4.828125 25.4375 4.828125 34.859375 
M 14.59375 34.71875 
Q 14.59375 21.78125 21.546875 14.328125 
Q 28.515625 6.890625 39.015625 6.890625 
Q 49.703125 6.890625 56.609375 14.40625 
Q 63.53125 21.921875 63.53125 35.75 
Q 63.53125 44.484375 60.578125 51 
Q 57.625 57.515625 51.921875 61.109375 
Q 46.234375 64.703125 39.15625 64.703125 
Q 29.109375 64.703125 21.84375 57.78125 
Q 14.59375 50.875 14.59375 34.71875 
" id="ArialMT-4f"/>
     </defs>
     <g style="fill:#262626;" transform="translate(270.2 226.8671875)scale(0.1 -0.1)">
      <use xlink:href="#ArialMT-4f"/>
      <use x="77.783203125" xlink:href="#ArialMT-70"/>
      <use x="133.3984375" xlink:href="#ArialMT-74"/>
      <use x="161.181640625" xlink:href="#ArialMT-69"/>
      <use x="183.3984375" xlink:href="#ArialMT-6d"/>
      <use x="266.69921875" xlink:href="#ArialMT-61"/>
      <use x="322.314453125" xlink:href="#ArialMT-6c"/>
      <use x="344.53125" xlink:href="#ArialMT-20"/>
      <use x="372.314453125" xlink:href="#ArialMT-66"/>
      <use x="400.09765625" xlink:href="#ArialMT-6c"/>
      <use x="422.314453125" xlink:href="#ArialMT-75"/>
      <use x="477.9296875" xlink:href="#ArialMT-78"/>
     </g>
    </g>
    <g id="line2d_51">
     <path d="M 242.2 237.5125 
L 262.2 237.5125 
" style="fill:none;stroke:#c44e52;stroke-dasharray:6.000000,6.000000;stroke-dashoffset:0.0;stroke-width:1.75;"/>
    </g>
    <g id="line2d_52"/>
    <g id="text_46">
     <!-- Constraint -->
     <g style="fill:#262626;" transform="translate(270.2 241.0125)scale(0.1 -0.1)">
      <use xlink:href="#ArialMT-43"/>
      <use x="72.216796875" xlink:href="#ArialMT-6f"/>
      <use x="127.83203125" xlink:href="#ArialMT-6e"/>
      <use x="183.447265625" xlink:href="#ArialMT-73"/>
      <use x="233.447265625" xlink:href="#ArialMT-74"/>
      <use x="261.23046875" xlink:href="#ArialMT-72"/>
      <use x="294.53125" xlink:href="#ArialMT-61"/>
      <use x="350.146484375" xlink:href="#ArialMT-69"/>
      <use x="372.36328125" xlink:href="#ArialMT-6e"/>
      <use x="427.978515625" xlink:href="#ArialMT-74"/>
     </g>
    </g>
   </g>
  </g>
  <g id="axes_5">
   <g id="patch_27">
    <path d="M 394.4 252 
L 518.4 252 
L 518.4 170.836364 
L 394.4 170.836364 
z
" style="fill:#ffffff;"/>
   </g>
   <g id="matplotlib.axis_8">
    <g id="xtick_13">
     <g id="line2d_53">
      <g>
       <use style="fill:#262626;stroke:#262626;" x="394.4" xlink:href="#md1665caddc" y="252.0"/>
      </g>
     </g>
     <g id="text_47">
      <!-- 0 -->
      <g style="fill:#262626;" transform="translate(391.61953125 272.1578125)scale(0.1 -0.1)">
       <use xlink:href="#ArialMT-30"/>
      </g>
     </g>
    </g>
    <g id="xtick_14">
     <g id="line2d_54">
      <g>
       <use style="fill:#262626;stroke:#262626;" x="434.856769984" xlink:href="#md1665caddc" y="252.0"/>
      </g>
     </g>
     <g id="text_48">
      <!-- 5 -->
      <g style="fill:#262626;" transform="translate(432.076301234 272.1578125)scale(0.1 -0.1)">
       <use xlink:href="#ArialMT-35"/>
      </g>
     </g>
    </g>
    <g id="xtick_15">
     <g id="line2d_55">
      <g>
       <use style="fill:#262626;stroke:#262626;" x="475.313539967" xlink:href="#md1665caddc" y="252.0"/>
      </g>
     </g>
     <g id="text_49">
      <!-- 10 -->
      <g style="fill:#262626;" transform="translate(469.752602467 272.1578125)scale(0.1 -0.1)">
       <use xlink:href="#ArialMT-31"/>
       <use x="55.615234375" xlink:href="#ArialMT-30"/>
      </g>
     </g>
    </g>
    <g id="xtick_16">
     <g id="line2d_56">
      <g>
       <use style="fill:#262626;stroke:#262626;" x="515.770309951" xlink:href="#md1665caddc" y="252.0"/>
      </g>
     </g>
     <g id="text_50">
      <!-- 15 -->
      <g style="fill:#262626;" transform="translate(510.209372451 272.1578125)scale(0.1 -0.1)">
       <use xlink:href="#ArialMT-31"/>
       <use x="55.615234375" xlink:href="#ArialMT-35"/>
      </g>
     </g>
    </g>
   </g>
   <g id="matplotlib.axis_9">
    <g id="ytick_21">
     <g id="line2d_57">
      <g>
       <use style="fill:#262626;stroke:#262626;" x="394.4" xlink:href="#m82dc44170e" y="252.0"/>
      </g>
     </g>
     <g id="text_51">
      <!-- 0 -->
      <g style="fill:#262626;" transform="translate(375.8390625 254.58515625)scale(0.1 -0.1)">
       <use xlink:href="#ArialMT-30"/>
      </g>
     </g>
    </g>
    <g id="ytick_22">
     <g id="line2d_58">
      <g>
       <use style="fill:#262626;stroke:#262626;" x="394.4" xlink:href="#m82dc44170e" y="231.709090909"/>
      </g>
     </g>
     <g id="text_52">
      <!-- 5 -->
      <g style="fill:#262626;" transform="translate(375.8390625 234.294247159)scale(0.1 -0.1)">
       <use xlink:href="#ArialMT-35"/>
      </g>
     </g>
    </g>
    <g id="ytick_23">
     <g id="line2d_59">
      <g>
       <use style="fill:#262626;stroke:#262626;" x="394.4" xlink:href="#m82dc44170e" y="211.418181818"/>
      </g>
     </g>
     <g id="text_53">
      <!-- 10 -->
      <g style="fill:#262626;" transform="translate(370.278125 214.003338068)scale(0.1 -0.1)">
       <use xlink:href="#ArialMT-31"/>
       <use x="55.615234375" xlink:href="#ArialMT-30"/>
      </g>
     </g>
    </g>
    <g id="ytick_24">
     <g id="line2d_60">
      <g>
       <use style="fill:#262626;stroke:#262626;" x="394.4" xlink:href="#m82dc44170e" y="191.127272727"/>
      </g>
     </g>
     <g id="text_54">
      <!-- 15 -->
      <g style="fill:#262626;" transform="translate(370.278125 193.712428977)scale(0.1 -0.1)">
       <use xlink:href="#ArialMT-31"/>
       <use x="55.615234375" xlink:href="#ArialMT-35"/>
      </g>
     </g>
    </g>
    <g id="ytick_25">
     <g id="line2d_61">
      <g>
       <use style="fill:#262626;stroke:#262626;" x="394.4" xlink:href="#m82dc44170e" y="170.836363636"/>
      </g>
     </g>
     <g id="text_55">
      <!-- 20 -->
      <g style="fill:#262626;" transform="translate(370.278125 173.421519886)scale(0.1 -0.1)">
       <use xlink:href="#ArialMT-32"/>
       <use x="55.615234375" xlink:href="#ArialMT-30"/>
      </g>
     </g>
    </g>
   </g>
   <g id="patch_28">
    <path clip-path="url(#pd638e10a20)" d="M 394.4 252 
L 394.4 170.836364 
L 454.444186 170.836364 
L 454.444186 252 
z
" style="fill:#e8f6f2;"/>
   </g>
   <g id="patch_29">
    <path clip-path="url(#pd638e10a20)" d="M 454.444186 252 
L 454.444186 170.836364 
L 464.103822 170.836364 
L 464.103822 252 
z
" style="fill:#feeee8;"/>
   </g>
   <g id="patch_30">
    <path clip-path="url(#pd638e10a20)" d="M 464.103822 252 
L 464.103822 170.836364 
L 471.433533 170.836364 
L 471.433533 252 
z
" style="fill:#eef1f7;"/>
   </g>
   <g id="patch_31">
    <path clip-path="url(#pd638e10a20)" d="M 471.433533 252 
L 471.433533 170.836364 
L 477.437972 170.836364 
L 477.437972 252 
z
" style="fill:#fbedf6;"/>
   </g>
   <g id="line2d_62">
    <path clip-path="url(#pd638e10a20)" d="M 394.4 180.547708 
L 395.238767 181.717988 
L 396.077535 182.462641 
L 396.916302 182.886816 
L 397.75507 183.076292 
L 398.593837 183.101198 
L 399.432604 183.018702 
L 400.271372 182.875039 
L 401.110139 182.707125 
L 401.948907 182.543894 
L 402.787674 182.407467 
L 403.626441 182.314171 
L 404.465209 182.275469 
L 405.303976 182.298782 
L 406.142744 182.388238 
L 406.981511 181.151133 
L 407.820278 182.059387 
L 408.659046 182.594416 
L 409.497813 182.852814 
L 410.33658 182.913543 
L 411.175348 182.841107 
L 412.014115 182.687889 
L 412.852883 182.495959 
L 413.69165 182.298564 
L 414.530417 182.121385 
L 415.369185 181.983657 
L 416.207952 181.899167 
L 417.04672 181.87715 
L 417.885487 181.923102 
L 418.724254 180.046747 
L 419.563022 181.235313 
L 420.401789 181.950022 
L 421.240557 182.309275 
L 422.079324 182.409693 
L 422.918091 182.330332 
L 423.756859 182.135681 
L 424.595626 181.877903 
L 425.434394 181.598596 
L 426.273161 181.330279 
L 427.111928 181.097679 
L 427.950696 180.918886 
L 428.789463 180.806408 
L 429.628231 180.768122 
L 430.466998 178.061255 
L 431.305765 179.527053 
L 432.144533 180.387374 
L 432.9833 180.793327 
L 433.822067 180.867661 
L 434.660835 180.710651 
L 435.499602 180.404111 
L 436.33837 180.014284 
L 437.177137 179.594062 
L 438.015904 179.184813 
L 438.854672 178.817974 
L 439.693439 178.516496 
L 440.532207 178.296161 
L 441.370974 178.166812 
L 442.209741 178.133454 
L 443.048509 176.666313 
L 443.887276 177.773274 
L 444.726044 178.426425 
L 445.564811 178.747955 
L 446.403578 178.836483 
L 447.242346 178.771559 
L 448.081113 178.616926 
L 448.919881 178.423024 
L 449.758648 178.22902 
L 450.597415 178.064528 
L 451.436183 177.951119 
L 452.27495 177.903664 
L 453.113718 177.931537 
L 453.952485 178.039678 
L 454.791252 232.94086 
L 455.63002 233.838633 
L 456.468787 234.721567 
L 457.307555 235.587245 
L 458.146322 236.431069 
L 458.985089 237.251717 
L 459.823857 238.046367 
L 460.662624 238.814132 
L 461.501391 239.553487 
L 462.340159 240.263815 
L 463.178926 240.944638 
L 464.017694 241.595768 
L 464.856461 235.088655 
L 465.695228 236.045898 
L 466.533996 236.961615 
L 467.372763 237.83646 
L 468.211531 238.671307 
L 469.050298 239.466962 
L 469.889065 240.224729 
L 470.727833 240.945604 
L 471.5666 234.960422 
L 472.405368 235.933988 
L 473.244135 236.86804 
L 474.082902 237.764286 
L 474.92167 238.624395 
L 475.760437 239.449996 
L 476.599205 240.242858 
L 477.437972 241.004734 
" style="fill:none;stroke:#4c72b0;stroke-linecap:round;stroke-width:1.75;"/>
   </g>
   <g id="line2d_63">
    <path clip-path="url(#pd638e10a20)" d="M 394.4 178.141091 
L 395.238767 178.141091 
L 396.077535 178.141091 
L 396.916302 178.141091 
L 397.75507 178.141091 
L 398.593837 178.141091 
L 399.432604 178.141091 
L 400.271372 178.141091 
L 401.110139 178.141091 
L 401.948907 178.141091 
L 402.787674 178.141091 
L 403.626441 178.141091 
L 404.465209 178.141091 
L 405.303976 178.141091 
L 406.142744 178.141091 
L 406.981511 178.141091 
L 407.820278 178.141091 
L 408.659046 178.141091 
L 409.497813 178.141091 
L 410.33658 178.141091 
L 411.175348 178.141091 
L 412.014115 178.141091 
L 412.852883 178.141091 
L 413.69165 178.141091 
L 414.530417 178.141091 
L 415.369185 178.141091 
L 416.207952 178.141091 
L 417.04672 178.141091 
L 417.885487 178.141091 
L 418.724254 178.141091 
L 419.563022 178.141091 
L 420.401789 178.141091 
L 421.240557 178.141091 
L 422.079324 178.141091 
L 422.918091 178.141091 
L 423.756859 178.141091 
L 424.595626 178.141091 
L 425.434394 178.141091 
L 426.273161 178.141091 
L 427.111928 178.141091 
L 427.950696 178.141091 
L 428.789463 178.141091 
L 429.628231 178.141091 
L 430.466998 178.141091 
L 431.305765 178.141091 
L 432.144533 178.141091 
L 432.9833 178.141091 
L 433.822067 178.141091 
L 434.660835 178.141091 
L 435.499602 178.141091 
L 436.33837 178.141091 
L 437.177137 178.141091 
L 438.015904 178.141091 
L 438.854672 178.141091 
L 439.693439 178.141091 
L 440.532207 178.141091 
L 441.370974 178.141091 
L 442.209741 178.141091 
L 443.048509 178.141091 
L 443.887276 178.141091 
L 444.726044 178.141091 
L 445.564811 178.141091 
L 446.403578 178.141091 
L 447.242346 178.141091 
L 448.081113 178.141091 
L 448.919881 178.141091 
L 449.758648 178.141091 
L 450.597415 178.141091 
L 451.436183 178.141091 
L 452.27495 178.141091 
L 453.113718 178.141091 
L 453.952485 178.141091 
L 454.791252 178.141091 
L 455.63002 178.141091 
L 456.468787 178.141091 
L 457.307555 178.141091 
L 458.146322 178.141091 
L 458.985089 178.141091 
L 459.823857 178.141091 
L 460.662624 178.141091 
L 461.501391 178.141091 
L 462.340159 178.141091 
L 463.178926 178.141091 
L 464.017694 178.141091 
L 464.856461 178.141091 
L 465.695228 178.141091 
L 466.533996 178.141091 
L 467.372763 178.141091 
L 468.211531 178.141091 
L 469.050298 178.141091 
L 469.889065 178.141091 
L 470.727833 178.141091 
L 471.5666 178.141091 
L 472.405368 178.141091 
L 473.244135 178.141091 
L 474.082902 178.141091 
L 474.92167 178.141091 
L 475.760437 178.141091 
L 476.599205 178.141091 
L 477.437972 178.141091 
" style="fill:none;stroke:#c44e52;stroke-dasharray:6.000000,6.000000;stroke-dashoffset:0.0;stroke-width:1.75;"/>
   </g>
   <g id="patch_32">
    <path d="M 394.4 252 
L 518.4 252 
" style="fill:none;stroke:#262626;stroke-linecap:square;stroke-linejoin:miter;stroke-width:1.25;"/>
   </g>
   <g id="patch_33">
    <path d="M 394.4 252 
L 394.4 170.836364 
" style="fill:none;stroke:#262626;stroke-linecap:square;stroke-linejoin:miter;stroke-width:1.25;"/>
   </g>
   <g id="text_56">
    <!-- Oxygen Uptake -->
    <g style="fill:#262626;" transform="translate(415.046875 165.836363636)scale(0.12 -0.12)">
     <use xlink:href="#ArialMT-4f"/>
     <use x="77.783203125" xlink:href="#ArialMT-78"/>
     <use x="127.783203125" xlink:href="#ArialMT-79"/>
     <use x="177.783203125" xlink:href="#ArialMT-67"/>
     <use x="233.3984375" xlink:href="#ArialMT-65"/>
     <use x="289.013671875" xlink:href="#ArialMT-6e"/>
     <use x="344.62890625" xlink:href="#ArialMT-20"/>
     <use x="372.412109375" xlink:href="#ArialMT-55"/>
     <use x="444.62890625" xlink:href="#ArialMT-70"/>
     <use x="500.244140625" xlink:href="#ArialMT-74"/>
     <use x="528.02734375" xlink:href="#ArialMT-61"/>
     <use x="583.642578125" xlink:href="#ArialMT-6b"/>
     <use x="633.642578125" xlink:href="#ArialMT-65"/>
    </g>
   </g>
  </g>
 </g>
 <defs>
  <clipPath id="p78136f9eb6">
   <rect height="81.1636363636" width="446.4" x="72.0" y="28.8"/>
  </clipPath>
  <clipPath id="pd638e10a20">
   <rect height="81.1636363636" width="124.0" x="394.4" y="170.836363636"/>
  </clipPath>
  <clipPath id="pa1017aa257">
   <rect height="81.1636363636" width="124.0" x="233.2" y="170.836363636"/>
  </clipPath>
  <clipPath id="p22807a501b">
   <rect height="81.1636363636" width="124.0" x="72.0" y="170.836363636"/>
  </clipPath>
 </defs>
</svg>
