<?xml version="1.0" encoding="utf-8" standalone="no"?>
<!DOCTYPE svg PUBLIC "-//W3C//DTD SVG 1.1//EN"
  "http://www.w3.org/Graphics/SVG/1.1/DTD/svg11.dtd">
<!-- Created with matplotlib (http://matplotlib.org/) -->
<svg height="288pt" version="1.1" viewBox="0 0 576 288" width="576pt" xmlns="http://www.w3.org/2000/svg" xmlns:xlink="http://www.w3.org/1999/xlink">
 <defs>
  <style type="text/css">
*{stroke-linecap:butt;stroke-linejoin:round;stroke-miterlimit:100000;}
  </style>
 </defs>
 <g id="figure_1">
  <g id="patch_1">
   <path d="M 0 288 
L 576 288 
L 576 0 
L 0 0 
z
" style="fill:#ffffff;"/>
  </g>
  <g id="axes_1">
   <g id="patch_2">
    <path d="M 72 109.963636 
L 518.4 109.963636 
L 518.4 28.8 
L 72 28.8 
z
" style="fill:#ffffff;"/>
   </g>
   <g id="matplotlib.axis_1">
    <g id="xtick_1">
     <g id="line2d_1">
      <defs>
       <path d="M 0 0 
L 0 6 
" id="m14c9a50a1d" style="stroke:#262626;"/>
      </defs>
      <g>
       <use style="fill:#262626;stroke:#262626;" x="72.0" xlink:href="#m14c9a50a1d" y="109.963636364"/>
      </g>
     </g>
     <g id="text_1">
      <!-- 0 -->
      <defs>
       <path d="M 4.15625 35.296875 
Q 4.15625 48 6.765625 55.734375 
Q 9.375 63.484375 14.515625 67.671875 
Q 19.671875 71.875 27.484375 71.875 
Q 33.25 71.875 37.59375 69.546875 
Q 41.9375 67.234375 44.765625 62.859375 
Q 47.609375 58.5 49.21875 52.21875 
Q 50.828125 45.953125 50.828125 35.296875 
Q 50.828125 22.703125 48.234375 14.96875 
Q 45.65625 7.234375 40.5 3 
Q 35.359375 -1.21875 27.484375 -1.21875 
Q 17.140625 -1.21875 11.234375 6.203125 
Q 4.15625 15.140625 4.15625 35.296875 
M 13.1875 35.296875 
Q 13.1875 17.671875 17.3125 11.828125 
Q 21.4375 6 27.484375 6 
Q 33.546875 6 37.671875 11.859375 
Q 41.796875 17.71875 41.796875 35.296875 
Q 41.796875 52.984375 37.671875 58.78125 
Q 33.546875 64.59375 27.390625 64.59375 
Q 21.34375 64.59375 17.71875 59.46875 
Q 13.1875 52.9375 13.1875 35.296875 
" id="ArialMT-30"/>
      </defs>
      <g style="fill:#262626;" transform="translate(69.21953125 130.121448864)scale(0.1 -0.1)">
       <use xlink:href="#ArialMT-30"/>
      </g>
     </g>
    </g>
    <g id="xtick_2">
     <g id="line2d_2">
      <g>
       <use style="fill:#262626;stroke:#262626;" x="217.644371941" xlink:href="#m14c9a50a1d" y="109.963636364"/>
      </g>
     </g>
     <g id="text_2">
      <!-- 5 -->
      <defs>
       <path d="M 4.15625 18.75 
L 13.375 19.53125 
Q 14.40625 12.796875 18.140625 9.390625 
Q 21.875 6 27.15625 6 
Q 33.5 6 37.890625 10.78125 
Q 42.28125 15.578125 42.28125 23.484375 
Q 42.28125 31 38.0625 35.34375 
Q 33.84375 39.703125 27 39.703125 
Q 22.75 39.703125 19.328125 37.765625 
Q 15.921875 35.84375 13.96875 32.765625 
L 5.71875 33.84375 
L 12.640625 70.609375 
L 48.25 70.609375 
L 48.25 62.203125 
L 19.671875 62.203125 
L 15.828125 42.96875 
Q 22.265625 47.46875 29.34375 47.46875 
Q 38.71875 47.46875 45.15625 40.96875 
Q 51.609375 34.46875 51.609375 24.265625 
Q 51.609375 14.546875 45.953125 7.46875 
Q 39.0625 -1.21875 27.15625 -1.21875 
Q 17.390625 -1.21875 11.203125 4.25 
Q 5.03125 9.71875 4.15625 18.75 
" id="ArialMT-35"/>
      </defs>
      <g style="fill:#262626;" transform="translate(214.863903191 130.121448864)scale(0.1 -0.1)">
       <use xlink:href="#ArialMT-35"/>
      </g>
     </g>
    </g>
    <g id="xtick_3">
     <g id="line2d_3">
      <g>
       <use style="fill:#262626;stroke:#262626;" x="363.288743883" xlink:href="#m14c9a50a1d" y="109.963636364"/>
      </g>
     </g>
     <g id="text_3">
      <!-- 10 -->
      <defs>
       <path d="M 37.25 0 
L 28.46875 0 
L 28.46875 56 
Q 25.296875 52.984375 20.140625 49.953125 
Q 14.984375 46.921875 10.890625 45.40625 
L 10.890625 53.90625 
Q 18.265625 57.375 23.78125 62.296875 
Q 29.296875 67.234375 31.59375 71.875 
L 37.25 71.875 
z
" id="ArialMT-31"/>
      </defs>
      <g style="fill:#262626;" transform="translate(357.727806383 130.121448864)scale(0.1 -0.1)">
       <use xlink:href="#ArialMT-31"/>
       <use x="55.615234375" xlink:href="#ArialMT-30"/>
      </g>
     </g>
    </g>
    <g id="xtick_4">
     <g id="line2d_4">
      <g>
       <use style="fill:#262626;stroke:#262626;" x="508.933115824" xlink:href="#m14c9a50a1d" y="109.963636364"/>
      </g>
     </g>
     <g id="text_4">
      <!-- 15 -->
      <g style="fill:#262626;" transform="translate(503.372178324 130.121448864)scale(0.1 -0.1)">
       <use xlink:href="#ArialMT-31"/>
       <use x="55.615234375" xlink:href="#ArialMT-35"/>
      </g>
     </g>
    </g>
    <g id="text_5">
     <!-- Time (hr) -->
     <defs>
      <path d="M 6.640625 61.46875 
L 6.640625 71.578125 
L 15.4375 71.578125 
L 15.4375 61.46875 
z
M 6.640625 0 
L 6.640625 51.859375 
L 15.4375 51.859375 
L 15.4375 0 
z
" id="ArialMT-69"/>
      <path d="M 23.390625 -21.046875 
Q 16.109375 -11.859375 11.078125 0.4375 
Q 6.0625 12.75 6.0625 25.921875 
Q 6.0625 37.546875 9.8125 48.1875 
Q 14.203125 60.546875 23.390625 72.796875 
L 29.6875 72.796875 
Q 23.78125 62.640625 21.875 58.296875 
Q 18.890625 51.5625 17.1875 44.234375 
Q 15.09375 35.109375 15.09375 25.875 
Q 15.09375 2.390625 29.6875 -21.046875 
z
" id="ArialMT-28"/>
      <path d="M 42.09375 16.703125 
L 51.171875 15.578125 
Q 49.03125 7.625 43.21875 3.21875 
Q 37.40625 -1.171875 28.375 -1.171875 
Q 17 -1.171875 10.328125 5.828125 
Q 3.65625 12.84375 3.65625 25.484375 
Q 3.65625 38.578125 10.390625 45.796875 
Q 17.140625 53.03125 27.875 53.03125 
Q 38.28125 53.03125 44.875 45.953125 
Q 51.46875 38.875 51.46875 26.03125 
Q 51.46875 25.25 51.421875 23.6875 
L 12.75 23.6875 
Q 13.234375 15.140625 17.578125 10.59375 
Q 21.921875 6.0625 28.421875 6.0625 
Q 33.25 6.0625 36.671875 8.59375 
Q 40.09375 11.140625 42.09375 16.703125 
M 13.234375 30.90625 
L 42.1875 30.90625 
Q 41.609375 37.453125 38.875 40.71875 
Q 34.671875 45.796875 27.984375 45.796875 
Q 21.921875 45.796875 17.796875 41.75 
Q 13.671875 37.703125 13.234375 30.90625 
" id="ArialMT-65"/>
      <path d="M 6.59375 0 
L 6.59375 71.578125 
L 15.375 71.578125 
L 15.375 45.90625 
Q 21.53125 53.03125 30.90625 53.03125 
Q 36.671875 53.03125 40.921875 50.75 
Q 45.171875 48.484375 47 44.484375 
Q 48.828125 40.484375 48.828125 32.859375 
L 48.828125 0 
L 40.046875 0 
L 40.046875 32.859375 
Q 40.046875 39.453125 37.1875 42.453125 
Q 34.328125 45.453125 29.109375 45.453125 
Q 25.203125 45.453125 21.75 43.421875 
Q 18.3125 41.40625 16.84375 37.9375 
Q 15.375 34.46875 15.375 28.375 
L 15.375 0 
z
" id="ArialMT-68"/>
      <path d="M 6.59375 0 
L 6.59375 51.859375 
L 14.453125 51.859375 
L 14.453125 44.578125 
Q 16.890625 48.390625 20.9375 50.703125 
Q 25 53.03125 30.171875 53.03125 
Q 35.9375 53.03125 39.625 50.640625 
Q 43.3125 48.25 44.828125 43.953125 
Q 50.984375 53.03125 60.84375 53.03125 
Q 68.5625 53.03125 72.703125 48.75 
Q 76.859375 44.484375 76.859375 35.59375 
L 76.859375 0 
L 68.109375 0 
L 68.109375 32.671875 
Q 68.109375 37.9375 67.25 40.25 
Q 66.40625 42.578125 64.15625 43.984375 
Q 61.921875 45.40625 58.890625 45.40625 
Q 53.421875 45.40625 49.796875 41.765625 
Q 46.1875 38.140625 46.1875 30.125 
L 46.1875 0 
L 37.40625 0 
L 37.40625 33.6875 
Q 37.40625 39.546875 35.25 42.46875 
Q 33.109375 45.40625 28.21875 45.40625 
Q 24.515625 45.40625 21.359375 43.453125 
Q 18.21875 41.5 16.796875 37.734375 
Q 15.375 33.984375 15.375 26.90625 
L 15.375 0 
z
" id="ArialMT-6d"/>
      <path d="M 12.359375 -21.046875 
L 6.0625 -21.046875 
Q 20.65625 2.390625 20.65625 25.875 
Q 20.65625 35.0625 18.5625 44.09375 
Q 16.890625 51.421875 13.921875 58.15625 
Q 12.015625 62.546875 6.0625 72.796875 
L 12.359375 72.796875 
Q 21.53125 60.546875 25.921875 48.1875 
Q 29.6875 37.546875 29.6875 25.921875 
Q 29.6875 12.75 24.625 0.4375 
Q 19.578125 -11.859375 12.359375 -21.046875 
" id="ArialMT-29"/>
      <path id="ArialMT-20"/>
      <path d="M 6.5 0 
L 6.5 51.859375 
L 14.40625 51.859375 
L 14.40625 44 
Q 17.4375 49.515625 20 51.265625 
Q 22.5625 53.03125 25.640625 53.03125 
Q 30.078125 53.03125 34.671875 50.203125 
L 31.640625 42.046875 
Q 28.421875 43.953125 25.203125 43.953125 
Q 22.3125 43.953125 20.015625 42.21875 
Q 17.71875 40.484375 16.75 37.40625 
Q 15.28125 32.71875 15.28125 27.15625 
L 15.28125 0 
z
" id="ArialMT-72"/>
      <path d="M 25.921875 0 
L 25.921875 63.140625 
L 2.34375 63.140625 
L 2.34375 71.578125 
L 59.078125 71.578125 
L 59.078125 63.140625 
L 35.40625 63.140625 
L 35.40625 0 
z
" id="ArialMT-54"/>
     </defs>
     <g style="fill:#262626;" transform="translate(272.9009375 145.116605114)scale(0.11 -0.11)">
      <use xlink:href="#ArialMT-54"/>
      <use x="61.037109375" xlink:href="#ArialMT-69"/>
      <use x="83.25390625" xlink:href="#ArialMT-6d"/>
      <use x="166.5546875" xlink:href="#ArialMT-65"/>
      <use x="222.169921875" xlink:href="#ArialMT-20"/>
      <use x="249.953125" xlink:href="#ArialMT-28"/>
      <use x="283.25390625" xlink:href="#ArialMT-68"/>
      <use x="338.869140625" xlink:href="#ArialMT-72"/>
      <use x="372.169921875" xlink:href="#ArialMT-29"/>
     </g>
    </g>
   </g>
   <g id="matplotlib.axis_2">
    <g id="ytick_1">
     <g id="line2d_5">
      <defs>
       <path d="M 0 0 
L -6 0 
" id="mba26ad8f06" style="stroke:#262626;"/>
      </defs>
      <g>
       <use style="fill:#262626;stroke:#262626;" x="72.0" xlink:href="#mba26ad8f06" y="109.963636364"/>
      </g>
     </g>
     <g id="text_6">
      <!-- 0 -->
      <g style="fill:#262626;" transform="translate(53.4390625 112.548792614)scale(0.1 -0.1)">
       <use xlink:href="#ArialMT-30"/>
      </g>
     </g>
    </g>
    <g id="ytick_2">
     <g id="line2d_6">
      <g>
       <use style="fill:#262626;stroke:#262626;" x="72.0" xlink:href="#mba26ad8f06" y="91.9272727273"/>
      </g>
     </g>
     <g id="text_7">
      <!-- 100 -->
      <g style="fill:#262626;" transform="translate(42.3171875 94.5124289773)scale(0.1 -0.1)">
       <use xlink:href="#ArialMT-31"/>
       <use x="55.615234375" xlink:href="#ArialMT-30"/>
       <use x="111.23046875" xlink:href="#ArialMT-30"/>
      </g>
     </g>
    </g>
    <g id="ytick_3">
     <g id="line2d_7">
      <g>
       <use style="fill:#262626;stroke:#262626;" x="72.0" xlink:href="#mba26ad8f06" y="73.8909090909"/>
      </g>
     </g>
     <g id="text_8">
      <!-- 200 -->
      <defs>
       <path d="M 50.34375 8.453125 
L 50.34375 0 
L 3.03125 0 
Q 2.9375 3.171875 4.046875 6.109375 
Q 5.859375 10.9375 9.828125 15.625 
Q 13.8125 20.3125 21.34375 26.46875 
Q 33.015625 36.03125 37.109375 41.625 
Q 41.21875 47.21875 41.21875 52.203125 
Q 41.21875 57.421875 37.46875 61 
Q 33.734375 64.59375 27.734375 64.59375 
Q 21.390625 64.59375 17.578125 60.78125 
Q 13.765625 56.984375 13.71875 50.25 
L 4.6875 51.171875 
Q 5.609375 61.28125 11.65625 66.578125 
Q 17.71875 71.875 27.9375 71.875 
Q 38.234375 71.875 44.234375 66.15625 
Q 50.25 60.453125 50.25 52 
Q 50.25 47.703125 48.484375 43.546875 
Q 46.734375 39.40625 42.65625 34.8125 
Q 38.578125 30.21875 29.109375 22.21875 
Q 21.1875 15.578125 18.9375 13.203125 
Q 16.703125 10.84375 15.234375 8.453125 
z
" id="ArialMT-32"/>
      </defs>
      <g style="fill:#262626;" transform="translate(42.3171875 76.4760653409)scale(0.1 -0.1)">
       <use xlink:href="#ArialMT-32"/>
       <use x="55.615234375" xlink:href="#ArialMT-30"/>
       <use x="111.23046875" xlink:href="#ArialMT-30"/>
      </g>
     </g>
    </g>
    <g id="ytick_4">
     <g id="line2d_8">
      <g>
       <use style="fill:#262626;stroke:#262626;" x="72.0" xlink:href="#mba26ad8f06" y="55.8545454545"/>
      </g>
     </g>
     <g id="text_9">
      <!-- 300 -->
      <defs>
       <path d="M 4.203125 18.890625 
L 12.984375 20.0625 
Q 14.5 12.59375 18.140625 9.296875 
Q 21.78125 6 27 6 
Q 33.203125 6 37.46875 10.296875 
Q 41.75 14.59375 41.75 20.953125 
Q 41.75 27 37.796875 30.921875 
Q 33.84375 34.859375 27.734375 34.859375 
Q 25.25 34.859375 21.53125 33.890625 
L 22.515625 41.609375 
Q 23.390625 41.5 23.921875 41.5 
Q 29.546875 41.5 34.03125 44.421875 
Q 38.53125 47.359375 38.53125 53.46875 
Q 38.53125 58.296875 35.25 61.46875 
Q 31.984375 64.65625 26.8125 64.65625 
Q 21.6875 64.65625 18.265625 61.421875 
Q 14.84375 58.203125 13.875 51.765625 
L 5.078125 53.328125 
Q 6.6875 62.15625 12.390625 67.015625 
Q 18.109375 71.875 26.609375 71.875 
Q 32.46875 71.875 37.390625 69.359375 
Q 42.328125 66.84375 44.9375 62.5 
Q 47.5625 58.15625 47.5625 53.265625 
Q 47.5625 48.640625 45.0625 44.828125 
Q 42.578125 41.015625 37.703125 38.765625 
Q 44.046875 37.3125 47.5625 32.6875 
Q 51.078125 28.078125 51.078125 21.140625 
Q 51.078125 11.765625 44.234375 5.25 
Q 37.40625 -1.265625 26.953125 -1.265625 
Q 17.53125 -1.265625 11.296875 4.34375 
Q 5.078125 9.96875 4.203125 18.890625 
" id="ArialMT-33"/>
      </defs>
      <g style="fill:#262626;" transform="translate(42.3171875 58.4397017045)scale(0.1 -0.1)">
       <use xlink:href="#ArialMT-33"/>
       <use x="55.615234375" xlink:href="#ArialMT-30"/>
       <use x="111.23046875" xlink:href="#ArialMT-30"/>
      </g>
     </g>
    </g>
    <g id="ytick_5">
     <g id="line2d_9">
      <g>
       <use style="fill:#262626;stroke:#262626;" x="72.0" xlink:href="#mba26ad8f06" y="37.8181818182"/>
      </g>
     </g>
     <g id="text_10">
      <!-- 400 -->
      <defs>
       <path d="M 32.328125 0 
L 32.328125 17.140625 
L 1.265625 17.140625 
L 1.265625 25.203125 
L 33.9375 71.578125 
L 41.109375 71.578125 
L 41.109375 25.203125 
L 50.78125 25.203125 
L 50.78125 17.140625 
L 41.109375 17.140625 
L 41.109375 0 
z
M 32.328125 25.203125 
L 32.328125 57.46875 
L 9.90625 25.203125 
z
" id="ArialMT-34"/>
      </defs>
      <g style="fill:#262626;" transform="translate(42.3171875 40.4033380682)scale(0.1 -0.1)">
       <use xlink:href="#ArialMT-34"/>
       <use x="55.615234375" xlink:href="#ArialMT-30"/>
       <use x="111.23046875" xlink:href="#ArialMT-30"/>
      </g>
     </g>
    </g>
    <g id="text_11">
     <!-- Concentration (mM) -->
     <defs>
      <path d="M 40.4375 6.390625 
Q 35.546875 2.25 31.03125 0.53125 
Q 26.515625 -1.171875 21.34375 -1.171875 
Q 12.796875 -1.171875 8.203125 3 
Q 3.609375 7.171875 3.609375 13.671875 
Q 3.609375 17.484375 5.34375 20.625 
Q 7.078125 23.78125 9.890625 25.6875 
Q 12.703125 27.59375 16.21875 28.5625 
Q 18.796875 29.25 24.03125 29.890625 
Q 34.671875 31.15625 39.703125 32.90625 
Q 39.75 34.71875 39.75 35.203125 
Q 39.75 40.578125 37.25 42.78125 
Q 33.890625 45.75 27.25 45.75 
Q 21.046875 45.75 18.09375 43.578125 
Q 15.140625 41.40625 13.71875 35.890625 
L 5.125 37.0625 
Q 6.296875 42.578125 8.984375 45.96875 
Q 11.671875 49.359375 16.75 51.1875 
Q 21.828125 53.03125 28.515625 53.03125 
Q 35.15625 53.03125 39.296875 51.46875 
Q 43.453125 49.90625 45.40625 47.53125 
Q 47.359375 45.171875 48.140625 41.546875 
Q 48.578125 39.3125 48.578125 33.453125 
L 48.578125 21.734375 
Q 48.578125 9.46875 49.140625 6.21875 
Q 49.703125 2.984375 51.375 0 
L 42.1875 0 
Q 40.828125 2.734375 40.4375 6.390625 
M 39.703125 26.03125 
Q 34.90625 24.078125 25.34375 22.703125 
Q 19.921875 21.921875 17.671875 20.9375 
Q 15.4375 19.96875 14.203125 18.09375 
Q 12.984375 16.21875 12.984375 13.921875 
Q 12.984375 10.40625 15.640625 8.0625 
Q 18.3125 5.71875 23.4375 5.71875 
Q 28.515625 5.71875 32.46875 7.9375 
Q 36.421875 10.15625 38.28125 14.015625 
Q 39.703125 17 39.703125 22.796875 
z
" id="ArialMT-61"/>
      <path d="M 3.328125 25.921875 
Q 3.328125 40.328125 11.328125 47.265625 
Q 18.015625 53.03125 27.640625 53.03125 
Q 38.328125 53.03125 45.109375 46.015625 
Q 51.90625 39.015625 51.90625 26.65625 
Q 51.90625 16.65625 48.90625 10.90625 
Q 45.90625 5.171875 40.15625 2 
Q 34.421875 -1.171875 27.640625 -1.171875 
Q 16.75 -1.171875 10.03125 5.8125 
Q 3.328125 12.796875 3.328125 25.921875 
M 12.359375 25.921875 
Q 12.359375 15.96875 16.703125 11.015625 
Q 21.046875 6.0625 27.640625 6.0625 
Q 34.1875 6.0625 38.53125 11.03125 
Q 42.875 16.015625 42.875 26.21875 
Q 42.875 35.84375 38.5 40.796875 
Q 34.125 45.75 27.640625 45.75 
Q 21.046875 45.75 16.703125 40.8125 
Q 12.359375 35.890625 12.359375 25.921875 
" id="ArialMT-6f"/>
      <path d="M 7.421875 0 
L 7.421875 71.578125 
L 21.6875 71.578125 
L 38.625 20.90625 
Q 40.96875 13.8125 42.046875 10.296875 
Q 43.265625 14.203125 45.84375 21.78125 
L 62.984375 71.578125 
L 75.734375 71.578125 
L 75.734375 0 
L 66.609375 0 
L 66.609375 59.90625 
L 45.796875 0 
L 37.25 0 
L 16.546875 60.9375 
L 16.546875 0 
z
" id="ArialMT-4d"/>
      <path d="M 58.796875 25.09375 
L 68.265625 22.703125 
Q 65.28125 11.03125 57.546875 4.90625 
Q 49.8125 -1.21875 38.625 -1.21875 
Q 27.046875 -1.21875 19.796875 3.484375 
Q 12.546875 8.203125 8.765625 17.140625 
Q 4.984375 26.078125 4.984375 36.328125 
Q 4.984375 47.515625 9.25 55.828125 
Q 13.53125 64.15625 21.40625 68.46875 
Q 29.296875 72.796875 38.765625 72.796875 
Q 49.515625 72.796875 56.828125 67.328125 
Q 64.15625 61.859375 67.046875 51.953125 
L 57.71875 49.75 
Q 55.21875 57.5625 50.484375 61.125 
Q 45.75 64.703125 38.578125 64.703125 
Q 30.328125 64.703125 24.78125 60.734375 
Q 19.234375 56.78125 16.984375 50.109375 
Q 14.75 43.453125 14.75 36.375 
Q 14.75 27.25 17.40625 20.4375 
Q 20.0625 13.625 25.671875 10.25 
Q 31.296875 6.890625 37.84375 6.890625 
Q 45.796875 6.890625 51.3125 11.46875 
Q 56.84375 16.0625 58.796875 25.09375 
" id="ArialMT-43"/>
      <path d="M 6.59375 0 
L 6.59375 51.859375 
L 14.5 51.859375 
L 14.5 44.484375 
Q 20.21875 53.03125 31 53.03125 
Q 35.6875 53.03125 39.625 51.34375 
Q 43.5625 49.65625 45.515625 46.921875 
Q 47.46875 44.1875 48.25 40.4375 
Q 48.734375 37.984375 48.734375 31.890625 
L 48.734375 0 
L 39.9375 0 
L 39.9375 31.546875 
Q 39.9375 36.921875 38.90625 39.578125 
Q 37.890625 42.234375 35.28125 43.8125 
Q 32.671875 45.40625 29.15625 45.40625 
Q 23.53125 45.40625 19.453125 41.84375 
Q 15.375 38.28125 15.375 28.328125 
L 15.375 0 
z
" id="ArialMT-6e"/>
      <path d="M 25.78125 7.859375 
L 27.046875 0.09375 
Q 23.34375 -0.6875 20.40625 -0.6875 
Q 15.625 -0.6875 12.984375 0.828125 
Q 10.359375 2.34375 9.28125 4.8125 
Q 8.203125 7.28125 8.203125 15.1875 
L 8.203125 45.015625 
L 1.765625 45.015625 
L 1.765625 51.859375 
L 8.203125 51.859375 
L 8.203125 64.703125 
L 16.9375 69.96875 
L 16.9375 51.859375 
L 25.78125 51.859375 
L 25.78125 45.015625 
L 16.9375 45.015625 
L 16.9375 14.703125 
Q 16.9375 10.9375 17.40625 9.859375 
Q 17.875 8.796875 18.921875 8.15625 
Q 19.96875 7.515625 21.921875 7.515625 
Q 23.390625 7.515625 25.78125 7.859375 
" id="ArialMT-74"/>
      <path d="M 40.4375 19 
L 49.078125 17.875 
Q 47.65625 8.9375 41.8125 3.875 
Q 35.984375 -1.171875 27.484375 -1.171875 
Q 16.84375 -1.171875 10.375 5.78125 
Q 3.90625 12.75 3.90625 25.734375 
Q 3.90625 34.125 6.6875 40.421875 
Q 9.46875 46.734375 15.15625 49.875 
Q 20.84375 53.03125 27.546875 53.03125 
Q 35.984375 53.03125 41.359375 48.75 
Q 46.734375 44.484375 48.25 36.625 
L 39.703125 35.296875 
Q 38.484375 40.53125 35.375 43.15625 
Q 32.28125 45.796875 27.875 45.796875 
Q 21.234375 45.796875 17.078125 41.03125 
Q 12.9375 36.28125 12.9375 25.984375 
Q 12.9375 15.53125 16.9375 10.796875 
Q 20.953125 6.0625 27.390625 6.0625 
Q 32.5625 6.0625 36.03125 9.234375 
Q 39.5 12.40625 40.4375 19 
" id="ArialMT-63"/>
     </defs>
     <g style="fill:#262626;" transform="translate(35.00203125 117.976036932)rotate(-90.0)scale(0.11 -0.11)">
      <use xlink:href="#ArialMT-43"/>
      <use x="72.216796875" xlink:href="#ArialMT-6f"/>
      <use x="127.83203125" xlink:href="#ArialMT-6e"/>
      <use x="183.447265625" xlink:href="#ArialMT-63"/>
      <use x="233.447265625" xlink:href="#ArialMT-65"/>
      <use x="289.0625" xlink:href="#ArialMT-6e"/>
      <use x="344.677734375" xlink:href="#ArialMT-74"/>
      <use x="372.4609375" xlink:href="#ArialMT-72"/>
      <use x="405.76171875" xlink:href="#ArialMT-61"/>
      <use x="461.376953125" xlink:href="#ArialMT-74"/>
      <use x="489.16015625" xlink:href="#ArialMT-69"/>
      <use x="511.376953125" xlink:href="#ArialMT-6f"/>
      <use x="566.9921875" xlink:href="#ArialMT-6e"/>
      <use x="622.607421875" xlink:href="#ArialMT-20"/>
      <use x="650.390625" xlink:href="#ArialMT-28"/>
      <use x="683.69140625" xlink:href="#ArialMT-6d"/>
      <use x="766.9921875" xlink:href="#ArialMT-4d"/>
      <use x="850.29296875" xlink:href="#ArialMT-29"/>
     </g>
    </g>
   </g>
   <g id="patch_3">
    <path clip-path="url(#p7ea9d86e55)" d="M 72 109.963636 
L 72 28.8 
L 285.391116 28.8 
L 285.391116 109.963636 
z
" style="fill:#e8f6f2;"/>
   </g>
   <g id="patch_4">
    <path clip-path="url(#p7ea9d86e55)" d="M 285.391116 109.963636 
L 285.391116 28.8 
L 364.320957 28.8 
L 364.320957 109.963636 
z
" style="fill:#feeee8;"/>
   </g>
   <g id="line2d_10">
    <path clip-path="url(#p7ea9d86e55)" d="M 72 37.815423 
L 74.952737 37.829905 
L 77.905474 37.845364 
L 80.858211 37.861884 
L 83.810948 37.879551 
L 86.763685 37.898448 
L 89.716422 37.918661 
L 92.669159 37.940274 
L 95.621896 37.963405 
L 98.574632 37.988106 
L 101.527369 38.014502 
L 104.480106 38.04273 
L 107.432843 38.072928 
L 110.38558 38.105236 
L 113.338317 38.13979 
L 116.291054 38.176772 
L 119.243791 38.216291 
L 122.196528 38.258517 
L 125.149265 38.303679 
L 128.102002 38.352003 
L 131.054739 38.403716 
L 134.007476 38.459047 
L 136.960213 38.518269 
L 139.91295 38.581612 
L 142.865687 38.649297 
L 145.818424 38.7217 
L 148.77116 38.799198 
L 151.723897 38.88217 
L 154.676634 38.970992 
L 157.629371 39.066066 
L 160.582108 39.167905 
L 163.534845 39.276737 
L 166.487582 39.393196 
L 169.440319 39.517919 
L 172.393056 39.651541 
L 175.345793 39.794696 
L 178.29853 39.948021 
L 181.251267 40.112469 
L 184.204004 40.288339 
L 187.156741 40.47665 
L 190.109478 40.678497 
L 193.062215 40.894977 
L 196.014952 41.127185 
L 198.967688 41.376217 
L 201.920425 41.643652 
L 204.873162 41.930135 
L 207.825899 42.237193 
L 210.778636 42.566785 
L 213.731373 42.920869 
L 216.68411 43.301403 
L 219.636847 43.710348 
L 222.589584 44.149896 
L 225.542321 44.622309 
L 228.495058 45.130276 
L 231.447795 45.676981 
L 234.400532 46.265607 
L 237.353269 46.899335 
L 240.306006 47.58135 
L 243.258743 48.315203 
L 246.21148 49.103788 
L 249.164217 49.949048 
L 252.116953 50.856165 
L 255.06969 51.830322 
L 258.022427 52.8767 
L 260.975164 54.000482 
L 263.927901 55.206849 
L 266.880638 56.503554 
L 269.833375 57.893123 
L 272.786112 59.384046 
L 275.738849 60.984978 
L 278.691586 62.704576 
L 281.644323 64.551493 
L 284.59706 66.534387 
L 287.549797 68.763888 
L 290.502534 70.977624 
L 293.455271 73.107249 
L 296.408008 75.153409 
L 299.360745 77.11711 
L 302.313481 78.99961 
L 305.266218 80.802297 
L 308.218955 82.526839 
L 311.171692 84.174998 
L 314.124429 85.748661 
L 317.077166 87.249854 
L 320.029903 88.680644 
L 322.98264 90.043175 
L 325.935377 91.339631 
L 328.888114 92.572214 
L 331.840851 93.743133 
L 334.793588 94.854593 
L 337.746325 95.908787 
L 340.699062 96.907862 
L 343.651799 97.853946 
L 346.604536 98.749111 
L 349.557273 99.595366 
L 352.510009 100.394692 
L 355.462746 101.148964 
L 358.415483 101.860013 
L 361.36822 102.529606 
L 364.320957 103.159405 
" style="fill:none;stroke:#4c72b0;stroke-linecap:round;stroke-width:1.75;"/>
   </g>
   <g id="line2d_11">
    <path clip-path="url(#p7ea9d86e55)" d="M 72 109.963636 
L 74.952737 109.963636 
L 77.905474 109.963636 
L 80.858211 109.963636 
L 83.810948 109.963636 
L 86.763685 109.963636 
L 89.716422 109.963636 
L 92.669159 109.963636 
L 95.621896 109.963636 
L 98.574632 109.963636 
L 101.527369 109.963636 
L 104.480106 109.963636 
L 107.432843 109.963636 
L 110.38558 109.963636 
L 113.338317 109.963636 
L 116.291054 109.963636 
L 119.243791 109.963636 
L 122.196528 109.963636 
L 125.149265 109.963636 
L 128.102002 109.963636 
L 131.054739 109.963636 
L 134.007476 109.963636 
L 136.960213 109.963636 
L 139.91295 109.963636 
L 142.865687 109.963636 
L 145.818424 109.963636 
L 148.77116 109.963636 
L 151.723897 109.963636 
L 154.676634 109.963636 
L 157.629371 109.963636 
L 160.582108 109.963636 
L 163.534845 109.963636 
L 166.487582 109.963636 
L 169.440319 109.963636 
L 172.393056 109.963636 
L 175.345793 109.963636 
L 178.29853 109.963636 
L 181.251267 109.963636 
L 184.204004 109.963636 
L 187.156741 109.963636 
L 190.109478 109.963636 
L 193.062215 109.963636 
L 196.014952 109.963636 
L 198.967688 109.963636 
L 201.920425 109.963636 
L 204.873162 109.963636 
L 207.825899 109.963636 
L 210.778636 109.963636 
L 213.731373 109.963636 
L 216.68411 109.963636 
L 219.636847 109.963636 
L 222.589584 109.963636 
L 225.542321 109.963636 
L 228.495058 109.963636 
L 231.447795 109.963636 
L 234.400532 109.963636 
L 237.353269 109.963636 
L 240.306006 109.963636 
L 243.258743 109.963636 
L 246.21148 109.963636 
L 249.164217 109.963636 
L 252.116953 109.963636 
L 255.06969 109.963636 
L 258.022427 109.963636 
L 260.975164 109.963636 
L 263.927901 109.963636 
L 266.880638 109.963636 
L 269.833375 109.963636 
L 272.786112 109.963636 
L 275.738849 109.963636 
L 278.691586 109.963636 
L 281.644323 109.963636 
L 284.59706 109.963636 
L 287.549797 107.628964 
L 290.502534 104.537734 
L 293.455271 101.563956 
L 296.408008 98.706727 
L 299.360745 95.964642 
L 302.313481 93.335947 
L 305.266218 90.8187 
L 308.218955 88.410574 
L 311.171692 86.109108 
L 314.124429 83.911667 
L 317.077166 81.815423 
L 320.029903 79.817488 
L 322.98264 77.914869 
L 325.935377 76.104516 
L 328.888114 74.383355 
L 331.840851 72.7483 
L 334.793588 71.196273 
L 337.746325 69.724212 
L 340.699062 68.329117 
L 343.651799 67.008019 
L 346.604536 65.758023 
L 349.557273 64.576324 
L 352.510009 63.460157 
L 355.462746 62.406903 
L 358.415483 61.414004 
L 361.36822 60.478993 
L 364.320957 59.599552 
" style="fill:none;stroke:#55a868;stroke-linecap:round;stroke-width:1.75;"/>
   </g>
   <g id="line2d_12">
    <path clip-path="url(#p7ea9d86e55)" d="M 72 109.963634 
L 74.952737 109.963634 
L 77.905474 109.963634 
L 80.858211 109.963634 
L 83.810948 109.963634 
L 86.763685 109.963634 
L 89.716422 109.963634 
L 92.669159 109.963634 
L 95.621896 109.963634 
L 98.574632 109.963634 
L 101.527369 109.963634 
L 104.480106 109.963634 
L 107.432843 109.963634 
L 110.38558 109.963634 
L 113.338317 109.963634 
L 116.291054 109.963634 
L 119.243791 109.963634 
L 122.196528 109.963634 
L 125.149265 109.963634 
L 128.102002 109.963634 
L 131.054739 109.963634 
L 134.007476 109.963634 
L 136.960213 109.963634 
L 139.91295 109.963634 
L 142.865687 109.963634 
L 145.818424 109.963634 
L 148.77116 109.963634 
L 151.723897 109.963634 
L 154.676634 109.963634 
L 157.629371 109.963634 
L 160.582108 109.963634 
L 163.534845 109.963634 
L 166.487582 109.963634 
L 169.440319 109.963634 
L 172.393056 109.963634 
L 175.345793 109.963634 
L 178.29853 109.963634 
L 181.251267 109.963634 
L 184.204004 109.963634 
L 187.156741 109.963634 
L 190.109478 109.963634 
L 193.062215 109.963634 
L 196.014952 109.963634 
L 198.967688 109.963634 
L 201.920425 109.963634 
L 204.873162 109.963634 
L 207.825899 109.963634 
L 210.778636 109.963634 
L 213.731373 109.963634 
L 216.68411 109.963634 
L 219.636847 109.963634 
L 222.589584 109.963634 
L 225.542321 109.963634 
L 228.495058 109.963634 
L 231.447795 109.963634 
L 234.400532 109.963634 
L 237.353269 109.963634 
L 240.306006 109.963634 
L 243.258743 109.963634 
L 246.21148 109.963635 
L 249.164217 109.963635 
L 252.116953 109.963635 
L 255.06969 109.963635 
L 258.022427 109.963635 
L 260.975164 109.963635 
L 263.927901 109.963635 
L 266.880638 109.963635 
L 269.833375 109.963635 
L 272.786112 109.963635 
L 275.738849 109.963635 
L 278.691586 109.963635 
L 281.644323 109.963635 
L 284.59706 109.963635 
L 287.549797 109.963636 
L 290.502534 109.963636 
L 293.455271 109.963636 
L 296.408008 109.963636 
L 299.360745 109.963636 
L 302.313481 109.963636 
L 305.266218 109.963636 
L 308.218955 109.963636 
L 311.171692 109.963636 
L 314.124429 109.963636 
L 317.077166 109.963636 
L 320.029903 109.963636 
L 322.98264 109.963636 
L 325.935377 109.963636 
L 328.888114 109.963636 
L 331.840851 109.963636 
L 334.793588 109.963636 
L 337.746325 109.963636 
L 340.699062 109.963636 
L 343.651799 109.963636 
L 346.604536 109.963636 
L 349.557273 109.963636 
L 352.510009 109.963636 
L 355.462746 109.963636 
L 358.415483 109.963636 
L 361.36822 109.963636 
L 364.320957 109.963636 
" style="fill:none;stroke:#c44e52;stroke-linecap:round;stroke-width:1.75;"/>
   </g>
   <g id="patch_5">
    <path d="M 518.4 109.963636 
L 518.4 28.8 
" style="fill:none;stroke:#262626;stroke-linecap:square;stroke-linejoin:miter;stroke-width:1.25;"/>
   </g>
   <g id="patch_6">
    <path d="M 72 109.963636 
L 72 28.8 
" style="fill:none;stroke:#262626;stroke-linecap:square;stroke-linejoin:miter;stroke-width:1.25;"/>
   </g>
   <g id="patch_7">
    <path d="M 72 109.963636 
L 518.4 109.963636 
" style="fill:none;stroke:#262626;stroke-linecap:square;stroke-linejoin:miter;stroke-width:1.25;"/>
   </g>
   <g id="text_12">
    <!-- E. coli maximum succinate producitivity -->
    <defs>
     <path d="M 6.59375 -19.875 
L 6.59375 51.859375 
L 14.59375 51.859375 
L 14.59375 45.125 
Q 17.4375 49.078125 21 51.046875 
Q 24.5625 53.03125 29.640625 53.03125 
Q 36.28125 53.03125 41.359375 49.609375 
Q 46.4375 46.1875 49.015625 39.953125 
Q 51.609375 33.734375 51.609375 26.3125 
Q 51.609375 18.359375 48.75 11.984375 
Q 45.90625 5.609375 40.453125 2.21875 
Q 35.015625 -1.171875 29 -1.171875 
Q 24.609375 -1.171875 21.109375 0.6875 
Q 17.625 2.546875 15.375 5.375 
L 15.375 -19.875 
z
M 14.546875 25.640625 
Q 14.546875 15.625 18.59375 10.84375 
Q 22.65625 6.0625 28.421875 6.0625 
Q 34.28125 6.0625 38.453125 11.015625 
Q 42.625 15.96875 42.625 26.375 
Q 42.625 36.28125 38.546875 41.203125 
Q 34.46875 46.140625 28.8125 46.140625 
Q 23.1875 46.140625 18.859375 40.890625 
Q 14.546875 35.640625 14.546875 25.640625 
" id="ArialMT-70"/>
     <path d="M 0.734375 0 
L 19.671875 26.953125 
L 2.15625 51.859375 
L 13.140625 51.859375 
L 21.09375 39.703125 
Q 23.34375 36.234375 24.703125 33.890625 
Q 26.859375 37.109375 28.65625 39.59375 
L 37.40625 51.859375 
L 47.90625 51.859375 
L 29.984375 27.4375 
L 49.265625 0 
L 38.484375 0 
L 27.828125 16.109375 
L 25 20.453125 
L 11.375 0 
z
" id="ArialMT-78"/>
     <path d="M 9.078125 0 
L 9.078125 10.015625 
L 19.09375 10.015625 
L 19.09375 0 
z
" id="ArialMT-2e"/>
     <path d="M 3.078125 15.484375 
L 11.765625 16.84375 
Q 12.5 11.625 15.84375 8.84375 
Q 19.1875 6.0625 25.203125 6.0625 
Q 31.25 6.0625 34.171875 8.515625 
Q 37.109375 10.984375 37.109375 14.3125 
Q 37.109375 17.28125 34.515625 19 
Q 32.71875 20.171875 25.53125 21.96875 
Q 15.875 24.421875 12.140625 26.203125 
Q 8.40625 27.984375 6.46875 31.125 
Q 4.546875 34.28125 4.546875 38.09375 
Q 4.546875 41.546875 6.125 44.5 
Q 7.71875 47.46875 10.453125 49.421875 
Q 12.5 50.921875 16.03125 51.96875 
Q 19.578125 53.03125 23.640625 53.03125 
Q 29.734375 53.03125 34.34375 51.265625 
Q 38.96875 49.515625 41.15625 46.5 
Q 43.359375 43.5 44.1875 38.484375 
L 35.59375 37.3125 
Q 35.015625 41.3125 32.203125 43.546875 
Q 29.390625 45.796875 24.265625 45.796875 
Q 18.21875 45.796875 15.625 43.796875 
Q 13.03125 41.796875 13.03125 39.109375 
Q 13.03125 37.40625 14.109375 36.03125 
Q 15.1875 34.625 17.484375 33.6875 
Q 18.796875 33.203125 25.25 31.453125 
Q 34.578125 28.953125 38.25 27.359375 
Q 41.9375 25.78125 44.03125 22.75 
Q 46.140625 19.734375 46.140625 15.234375 
Q 46.140625 10.84375 43.578125 6.953125 
Q 41.015625 3.078125 36.171875 0.953125 
Q 31.34375 -1.171875 25.25 -1.171875 
Q 15.140625 -1.171875 9.84375 3.03125 
Q 4.546875 7.234375 3.078125 15.484375 
" id="ArialMT-73"/>
     <path d="M 21 0 
L 1.265625 51.859375 
L 10.546875 51.859375 
L 21.6875 20.796875 
Q 23.484375 15.765625 25 10.359375 
Q 26.171875 14.453125 28.265625 20.21875 
L 39.796875 51.859375 
L 48.828125 51.859375 
L 29.203125 0 
z
" id="ArialMT-76"/>
     <path d="M 40.578125 0 
L 40.578125 7.625 
Q 34.515625 -1.171875 24.125 -1.171875 
Q 19.53125 -1.171875 15.546875 0.578125 
Q 11.578125 2.34375 9.640625 5 
Q 7.71875 7.671875 6.9375 11.53125 
Q 6.390625 14.109375 6.390625 19.734375 
L 6.390625 51.859375 
L 15.1875 51.859375 
L 15.1875 23.09375 
Q 15.1875 16.21875 15.71875 13.8125 
Q 16.546875 10.359375 19.234375 8.375 
Q 21.921875 6.390625 25.875 6.390625 
Q 29.828125 6.390625 33.296875 8.421875 
Q 36.765625 10.453125 38.203125 13.9375 
Q 39.65625 17.4375 39.65625 24.078125 
L 39.65625 51.859375 
L 48.4375 51.859375 
L 48.4375 0 
z
" id="ArialMT-75"/>
     <path d="M 6.203125 -19.96875 
L 5.21875 -11.71875 
Q 8.109375 -12.5 10.25 -12.5 
Q 13.1875 -12.5 14.9375 -11.515625 
Q 16.703125 -10.546875 17.828125 -8.796875 
Q 18.65625 -7.46875 20.515625 -2.25 
Q 20.75 -1.515625 21.296875 -0.09375 
L 1.609375 51.859375 
L 11.078125 51.859375 
L 21.875 21.828125 
Q 23.96875 16.109375 25.640625 9.8125 
Q 27.15625 15.875 29.25 21.625 
L 40.328125 51.859375 
L 49.125 51.859375 
L 29.390625 -0.875 
Q 26.21875 -9.421875 24.46875 -12.640625 
Q 22.125 -17 19.09375 -19.015625 
Q 16.0625 -21.046875 11.859375 -21.046875 
Q 9.328125 -21.046875 6.203125 -19.96875 
" id="ArialMT-79"/>
     <path d="M 40.234375 0 
L 40.234375 6.546875 
Q 35.296875 -1.171875 25.734375 -1.171875 
Q 19.53125 -1.171875 14.328125 2.25 
Q 9.125 5.671875 6.265625 11.796875 
Q 3.421875 17.921875 3.421875 25.875 
Q 3.421875 33.640625 6 39.96875 
Q 8.59375 46.296875 13.765625 49.65625 
Q 18.953125 53.03125 25.34375 53.03125 
Q 30.03125 53.03125 33.6875 51.046875 
Q 37.359375 49.078125 39.65625 45.90625 
L 39.65625 71.578125 
L 48.390625 71.578125 
L 48.390625 0 
z
M 12.453125 25.875 
Q 12.453125 15.921875 16.640625 10.984375 
Q 20.84375 6.0625 26.5625 6.0625 
Q 32.328125 6.0625 36.34375 10.765625 
Q 40.375 15.484375 40.375 25.140625 
Q 40.375 35.796875 36.265625 40.765625 
Q 32.171875 45.75 26.171875 45.75 
Q 20.3125 45.75 16.375 40.96875 
Q 12.453125 36.1875 12.453125 25.875 
" id="ArialMT-64"/>
     <path d="M 6.390625 0 
L 6.390625 71.578125 
L 15.1875 71.578125 
L 15.1875 0 
z
" id="ArialMT-6c"/>
     <path d="M 7.90625 0 
L 7.90625 71.578125 
L 59.671875 71.578125 
L 59.671875 63.140625 
L 17.390625 63.140625 
L 17.390625 41.21875 
L 56.984375 41.21875 
L 56.984375 32.8125 
L 17.390625 32.8125 
L 17.390625 8.453125 
L 61.328125 8.453125 
L 61.328125 0 
z
" id="ArialMT-45"/>
    </defs>
    <g style="fill:#262626;" transform="translate(190.8375 23.8)scale(0.12 -0.12)">
     <use xlink:href="#ArialMT-45"/>
     <use x="66.69921875" xlink:href="#ArialMT-2e"/>
     <use x="94.482421875" xlink:href="#ArialMT-20"/>
     <use x="122.265625" xlink:href="#ArialMT-63"/>
     <use x="172.265625" xlink:href="#ArialMT-6f"/>
     <use x="227.880859375" xlink:href="#ArialMT-6c"/>
     <use x="250.09765625" xlink:href="#ArialMT-69"/>
     <use x="272.314453125" xlink:href="#ArialMT-20"/>
     <use x="300.09765625" xlink:href="#ArialMT-6d"/>
     <use x="383.3984375" xlink:href="#ArialMT-61"/>
     <use x="439.013671875" xlink:href="#ArialMT-78"/>
     <use x="489.013671875" xlink:href="#ArialMT-69"/>
     <use x="511.23046875" xlink:href="#ArialMT-6d"/>
     <use x="594.53125" xlink:href="#ArialMT-75"/>
     <use x="650.146484375" xlink:href="#ArialMT-6d"/>
     <use x="733.447265625" xlink:href="#ArialMT-20"/>
     <use x="761.23046875" xlink:href="#ArialMT-73"/>
     <use x="811.23046875" xlink:href="#ArialMT-75"/>
     <use x="866.845703125" xlink:href="#ArialMT-63"/>
     <use x="916.845703125" xlink:href="#ArialMT-63"/>
     <use x="966.845703125" xlink:href="#ArialMT-69"/>
     <use x="989.0625" xlink:href="#ArialMT-6e"/>
     <use x="1044.677734375" xlink:href="#ArialMT-61"/>
     <use x="1100.29296875" xlink:href="#ArialMT-74"/>
     <use x="1128.076171875" xlink:href="#ArialMT-65"/>
     <use x="1183.69140625" xlink:href="#ArialMT-20"/>
     <use x="1211.474609375" xlink:href="#ArialMT-70"/>
     <use x="1267.08984375" xlink:href="#ArialMT-72"/>
     <use x="1300.390625" xlink:href="#ArialMT-6f"/>
     <use x="1356.005859375" xlink:href="#ArialMT-64"/>
     <use x="1411.62109375" xlink:href="#ArialMT-75"/>
     <use x="1467.236328125" xlink:href="#ArialMT-63"/>
     <use x="1517.236328125" xlink:href="#ArialMT-69"/>
     <use x="1539.453125" xlink:href="#ArialMT-74"/>
     <use x="1567.236328125" xlink:href="#ArialMT-69"/>
     <use x="1589.453125" xlink:href="#ArialMT-76"/>
     <use x="1639.453125" xlink:href="#ArialMT-69"/>
     <use x="1661.669921875" xlink:href="#ArialMT-74"/>
     <use x="1689.453125" xlink:href="#ArialMT-79"/>
    </g>
   </g>
   <g id="legend_1">
    <g id="line2d_13">
     <path d="M 81 47.249006 
L 101 47.249006 
" style="fill:none;stroke:#4c72b0;stroke-linecap:round;stroke-width:1.75;"/>
    </g>
    <g id="line2d_14"/>
    <g id="text_13">
     <!-- Glucose -->
     <defs>
      <path d="M 41.21875 28.078125 
L 41.21875 36.46875 
L 71.53125 36.53125 
L 71.53125 9.96875 
Q 64.546875 4.390625 57.125 1.578125 
Q 49.703125 -1.21875 41.890625 -1.21875 
Q 31.34375 -1.21875 22.71875 3.296875 
Q 14.109375 7.8125 9.71875 16.359375 
Q 5.328125 24.90625 5.328125 35.453125 
Q 5.328125 45.90625 9.6875 54.953125 
Q 14.0625 64.015625 22.265625 68.40625 
Q 30.46875 72.796875 41.15625 72.796875 
Q 48.921875 72.796875 55.1875 70.28125 
Q 61.46875 67.78125 65.03125 63.28125 
Q 68.609375 58.796875 70.453125 51.5625 
L 61.921875 49.21875 
Q 60.296875 54.6875 57.90625 57.8125 
Q 55.515625 60.9375 51.0625 62.8125 
Q 46.625 64.703125 41.21875 64.703125 
Q 34.71875 64.703125 29.984375 62.71875 
Q 25.25 60.75 22.34375 57.515625 
Q 19.4375 54.296875 17.828125 50.4375 
Q 15.09375 43.796875 15.09375 36.03125 
Q 15.09375 26.46875 18.390625 20.015625 
Q 21.6875 13.578125 27.984375 10.453125 
Q 34.28125 7.328125 41.359375 7.328125 
Q 47.515625 7.328125 53.375 9.6875 
Q 59.234375 12.0625 62.25 14.75 
L 62.25 28.078125 
z
" id="ArialMT-47"/>
     </defs>
     <g style="fill:#262626;" transform="translate(109.0 50.7490056818)scale(0.1 -0.1)">
      <use xlink:href="#ArialMT-47"/>
      <use x="77.783203125" xlink:href="#ArialMT-6c"/>
      <use x="100.0" xlink:href="#ArialMT-75"/>
      <use x="155.615234375" xlink:href="#ArialMT-63"/>
      <use x="205.615234375" xlink:href="#ArialMT-6f"/>
      <use x="261.23046875" xlink:href="#ArialMT-73"/>
      <use x="311.23046875" xlink:href="#ArialMT-65"/>
     </g>
    </g>
    <g id="line2d_15">
     <path d="M 81 61.394318 
L 101 61.394318 
" style="fill:none;stroke:#55a868;stroke-linecap:round;stroke-width:1.75;"/>
    </g>
    <g id="line2d_16"/>
    <g id="text_14">
     <!-- Succinate -->
     <defs>
      <path d="M 4.5 23 
L 13.421875 23.78125 
Q 14.0625 18.40625 16.375 14.96875 
Q 18.703125 11.53125 23.578125 9.40625 
Q 28.46875 7.28125 34.578125 7.28125 
Q 39.984375 7.28125 44.140625 8.890625 
Q 48.296875 10.5 50.3125 13.296875 
Q 52.34375 16.109375 52.34375 19.4375 
Q 52.34375 22.796875 50.390625 25.3125 
Q 48.4375 27.828125 43.953125 29.546875 
Q 41.0625 30.671875 31.203125 33.03125 
Q 21.34375 35.40625 17.390625 37.5 
Q 12.25 40.1875 9.734375 44.15625 
Q 7.234375 48.140625 7.234375 53.078125 
Q 7.234375 58.5 10.296875 63.203125 
Q 13.375 67.921875 19.28125 70.359375 
Q 25.203125 72.796875 32.421875 72.796875 
Q 40.375 72.796875 46.453125 70.234375 
Q 52.546875 67.671875 55.8125 62.6875 
Q 59.078125 57.71875 59.328125 51.421875 
L 50.25 50.734375 
Q 49.515625 57.515625 45.28125 60.984375 
Q 41.0625 64.453125 32.8125 64.453125 
Q 24.21875 64.453125 20.28125 61.296875 
Q 16.359375 58.15625 16.359375 53.71875 
Q 16.359375 49.859375 19.140625 47.359375 
Q 21.875 44.875 33.421875 42.265625 
Q 44.96875 39.65625 49.265625 37.703125 
Q 55.515625 34.8125 58.484375 30.390625 
Q 61.46875 25.984375 61.46875 20.21875 
Q 61.46875 14.5 58.203125 9.4375 
Q 54.9375 4.390625 48.796875 1.578125 
Q 42.671875 -1.21875 35.015625 -1.21875 
Q 25.296875 -1.21875 18.71875 1.609375 
Q 12.15625 4.4375 8.421875 10.125 
Q 4.6875 15.828125 4.5 23 
" id="ArialMT-53"/>
     </defs>
     <g style="fill:#262626;" transform="translate(109.0 64.8943181818)scale(0.1 -0.1)">
      <use xlink:href="#ArialMT-53"/>
      <use x="66.69921875" xlink:href="#ArialMT-75"/>
      <use x="122.314453125" xlink:href="#ArialMT-63"/>
      <use x="172.314453125" xlink:href="#ArialMT-63"/>
      <use x="222.314453125" xlink:href="#ArialMT-69"/>
      <use x="244.53125" xlink:href="#ArialMT-6e"/>
      <use x="300.146484375" xlink:href="#ArialMT-61"/>
      <use x="355.76171875" xlink:href="#ArialMT-74"/>
      <use x="383.544921875" xlink:href="#ArialMT-65"/>
     </g>
    </g>
    <g id="line2d_17">
     <path d="M 81 75.539631 
L 101 75.539631 
" style="fill:none;stroke:#c44e52;stroke-linecap:round;stroke-width:1.75;"/>
    </g>
    <g id="line2d_18"/>
    <g id="text_15">
     <!-- Acetate -->
     <defs>
      <path d="M -0.140625 0 
L 27.34375 71.578125 
L 37.546875 71.578125 
L 66.84375 0 
L 56.0625 0 
L 47.703125 21.6875 
L 17.78125 21.6875 
L 9.90625 0 
z
M 20.515625 29.390625 
L 44.78125 29.390625 
L 37.3125 49.21875 
Q 33.890625 58.25 32.234375 64.0625 
Q 30.859375 57.171875 28.375 50.390625 
z
" id="ArialMT-41"/>
     </defs>
     <g style="fill:#262626;" transform="translate(109.0 79.0396306818)scale(0.1 -0.1)">
      <use xlink:href="#ArialMT-41"/>
      <use x="66.69921875" xlink:href="#ArialMT-63"/>
      <use x="116.69921875" xlink:href="#ArialMT-65"/>
      <use x="172.314453125" xlink:href="#ArialMT-74"/>
      <use x="200.09765625" xlink:href="#ArialMT-61"/>
      <use x="255.712890625" xlink:href="#ArialMT-74"/>
      <use x="283.49609375" xlink:href="#ArialMT-65"/>
     </g>
    </g>
    <g id="line2d_19">
     <path d="M 81 89.684943 
L 101 89.684943 
" style="fill:none;stroke:#ccb974;stroke-linecap:round;stroke-width:1.75;"/>
    </g>
    <g id="line2d_20"/>
    <g id="text_16">
     <!-- Biomass -->
     <defs>
      <path d="M 7.328125 0 
L 7.328125 71.578125 
L 34.1875 71.578125 
Q 42.390625 71.578125 47.34375 69.40625 
Q 52.296875 67.234375 55.09375 62.71875 
Q 57.90625 58.203125 57.90625 53.265625 
Q 57.90625 48.6875 55.421875 44.625 
Q 52.9375 40.578125 47.90625 38.09375 
Q 54.390625 36.1875 57.875 31.59375 
Q 61.375 27 61.375 20.75 
Q 61.375 15.71875 59.25 11.390625 
Q 57.125 7.078125 54 4.734375 
Q 50.875 2.390625 46.15625 1.1875 
Q 41.453125 0 34.625 0 
z
M 16.796875 41.5 
L 32.28125 41.5 
Q 38.578125 41.5 41.3125 42.328125 
Q 44.921875 43.40625 46.75 45.890625 
Q 48.578125 48.390625 48.578125 52.15625 
Q 48.578125 55.71875 46.875 58.421875 
Q 45.171875 61.140625 41.984375 62.140625 
Q 38.8125 63.140625 31.109375 63.140625 
L 16.796875 63.140625 
z
M 16.796875 8.453125 
L 34.625 8.453125 
Q 39.203125 8.453125 41.0625 8.796875 
Q 44.34375 9.375 46.53125 10.734375 
Q 48.734375 12.109375 50.140625 14.71875 
Q 51.5625 17.328125 51.5625 20.75 
Q 51.5625 24.75 49.515625 27.703125 
Q 47.46875 30.671875 43.828125 31.859375 
Q 40.1875 33.0625 33.34375 33.0625 
L 16.796875 33.0625 
z
" id="ArialMT-42"/>
     </defs>
     <g style="fill:#262626;" transform="translate(109.0 93.1849431818)scale(0.1 -0.1)">
      <use xlink:href="#ArialMT-42"/>
      <use x="66.69921875" xlink:href="#ArialMT-69"/>
      <use x="88.916015625" xlink:href="#ArialMT-6f"/>
      <use x="144.53125" xlink:href="#ArialMT-6d"/>
      <use x="227.83203125" xlink:href="#ArialMT-61"/>
      <use x="283.447265625" xlink:href="#ArialMT-73"/>
      <use x="333.447265625" xlink:href="#ArialMT-73"/>
     </g>
    </g>
   </g>
  </g>
  <g id="axes_2">
   <g id="matplotlib.axis_3">
    <g id="ytick_6">
     <g id="line2d_21">
      <defs>
       <path d="M 0 0 
L 6 0 
" id="me2b106b76f" style="stroke:#262626;"/>
      </defs>
      <g>
       <use style="fill:#262626;stroke:#262626;" x="518.4" xlink:href="#me2b106b76f" y="109.963636364"/>
      </g>
     </g>
     <g id="text_17">
      <!-- 0 -->
      <g style="fill:#262626;" transform="translate(531.4 112.548792614)scale(0.1 -0.1)">
       <use xlink:href="#ArialMT-30"/>
      </g>
     </g>
    </g>
    <g id="ytick_7">
     <g id="line2d_22">
      <g>
       <use style="fill:#262626;stroke:#262626;" x="518.4" xlink:href="#me2b106b76f" y="84.6"/>
      </g>
     </g>
     <g id="text_18">
      <!-- 5 -->
      <g style="fill:#262626;" transform="translate(531.4 87.18515625)scale(0.1 -0.1)">
       <use xlink:href="#ArialMT-35"/>
      </g>
     </g>
    </g>
    <g id="ytick_8">
     <g id="line2d_23">
      <g>
       <use style="fill:#262626;stroke:#262626;" x="518.4" xlink:href="#me2b106b76f" y="59.2363636364"/>
      </g>
     </g>
     <g id="text_19">
      <!-- 10 -->
      <g style="fill:#262626;" transform="translate(531.4 61.8215198864)scale(0.1 -0.1)">
       <use xlink:href="#ArialMT-31"/>
       <use x="55.615234375" xlink:href="#ArialMT-30"/>
      </g>
     </g>
    </g>
    <g id="ytick_9">
     <g id="line2d_24">
      <g>
       <use style="fill:#262626;stroke:#262626;" x="518.4" xlink:href="#me2b106b76f" y="33.8727272727"/>
      </g>
     </g>
     <g id="text_20">
      <!-- 15 -->
      <g style="fill:#262626;" transform="translate(531.4 36.4578835227)scale(0.1 -0.1)">
       <use xlink:href="#ArialMT-31"/>
       <use x="55.615234375" xlink:href="#ArialMT-35"/>
      </g>
     </g>
    </g>
    <g id="text_21">
     <!-- Biomass (g DCW/L) -->
     <defs>
      <path d="M 7.328125 0 
L 7.328125 71.578125 
L 16.796875 71.578125 
L 16.796875 8.453125 
L 52.046875 8.453125 
L 52.046875 0 
z
" id="ArialMT-4c"/>
      <path d="M 7.71875 0 
L 7.71875 71.578125 
L 32.375 71.578125 
Q 40.71875 71.578125 45.125 70.5625 
Q 51.265625 69.140625 55.609375 65.4375 
Q 61.28125 60.640625 64.078125 53.1875 
Q 66.890625 45.75 66.890625 36.1875 
Q 66.890625 28.03125 64.984375 21.734375 
Q 63.09375 15.4375 60.109375 11.296875 
Q 57.125 7.171875 53.578125 4.796875 
Q 50.046875 2.4375 45.046875 1.21875 
Q 40.046875 0 33.546875 0 
z
M 17.1875 8.453125 
L 32.46875 8.453125 
Q 39.546875 8.453125 43.578125 9.765625 
Q 47.609375 11.078125 50 13.484375 
Q 53.375 16.84375 55.25 22.53125 
Q 57.125 28.21875 57.125 36.328125 
Q 57.125 47.5625 53.4375 53.59375 
Q 49.75 59.625 44.484375 61.671875 
Q 40.671875 63.140625 32.234375 63.140625 
L 17.1875 63.140625 
z
" id="ArialMT-44"/>
      <path d="M 0 -1.21875 
L 20.75 72.796875 
L 27.78125 72.796875 
L 7.078125 -1.21875 
z
" id="ArialMT-2f"/>
      <path d="M 4.984375 -4.296875 
L 13.53125 -5.5625 
Q 14.0625 -9.515625 16.5 -11.328125 
Q 19.78125 -13.765625 25.4375 -13.765625 
Q 31.546875 -13.765625 34.859375 -11.328125 
Q 38.1875 -8.890625 39.359375 -4.5 
Q 40.046875 -1.8125 39.984375 6.78125 
Q 34.234375 0 25.640625 0 
Q 14.9375 0 9.078125 7.71875 
Q 3.21875 15.4375 3.21875 26.21875 
Q 3.21875 33.640625 5.90625 39.90625 
Q 8.59375 46.1875 13.6875 49.609375 
Q 18.796875 53.03125 25.6875 53.03125 
Q 34.859375 53.03125 40.828125 45.609375 
L 40.828125 51.859375 
L 48.921875 51.859375 
L 48.921875 7.03125 
Q 48.921875 -5.078125 46.453125 -10.125 
Q 44 -15.1875 38.640625 -18.109375 
Q 33.296875 -21.046875 25.484375 -21.046875 
Q 16.21875 -21.046875 10.5 -16.875 
Q 4.78125 -12.703125 4.984375 -4.296875 
M 12.25 26.859375 
Q 12.25 16.65625 16.296875 11.96875 
Q 20.359375 7.28125 26.46875 7.28125 
Q 32.515625 7.28125 36.609375 11.9375 
Q 40.71875 16.609375 40.71875 26.5625 
Q 40.71875 36.078125 36.5 40.90625 
Q 32.28125 45.75 26.3125 45.75 
Q 20.453125 45.75 16.34375 40.984375 
Q 12.25 36.234375 12.25 26.859375 
" id="ArialMT-67"/>
      <path d="M 20.21875 0 
L 1.21875 71.578125 
L 10.9375 71.578125 
L 21.828125 24.65625 
Q 23.578125 17.28125 24.859375 10.015625 
Q 27.59375 21.484375 28.078125 23.25 
L 41.703125 71.578125 
L 53.125 71.578125 
L 63.375 35.359375 
Q 67.234375 21.875 68.953125 10.015625 
Q 70.3125 16.796875 72.515625 25.59375 
L 83.734375 71.578125 
L 93.265625 71.578125 
L 73.640625 0 
L 64.5 0 
L 49.421875 54.546875 
Q 47.515625 61.375 47.171875 62.9375 
Q 46.046875 58.015625 45.0625 54.546875 
L 29.890625 0 
z
" id="ArialMT-57"/>
     </defs>
     <g style="fill:#262626;" transform="translate(555.52953125 117.970021307)rotate(-90.0)scale(0.11 -0.11)">
      <use xlink:href="#ArialMT-42"/>
      <use x="66.69921875" xlink:href="#ArialMT-69"/>
      <use x="88.916015625" xlink:href="#ArialMT-6f"/>
      <use x="144.53125" xlink:href="#ArialMT-6d"/>
      <use x="227.83203125" xlink:href="#ArialMT-61"/>
      <use x="283.447265625" xlink:href="#ArialMT-73"/>
      <use x="333.447265625" xlink:href="#ArialMT-73"/>
      <use x="383.447265625" xlink:href="#ArialMT-20"/>
      <use x="411.23046875" xlink:href="#ArialMT-28"/>
      <use x="444.53125" xlink:href="#ArialMT-67"/>
      <use x="500.146484375" xlink:href="#ArialMT-20"/>
      <use x="527.9296875" xlink:href="#ArialMT-44"/>
      <use x="600.146484375" xlink:href="#ArialMT-43"/>
      <use x="672.36328125" xlink:href="#ArialMT-57"/>
      <use x="766.748046875" xlink:href="#ArialMT-2f"/>
      <use x="794.53125" xlink:href="#ArialMT-4c"/>
      <use x="850.146484375" xlink:href="#ArialMT-29"/>
     </g>
    </g>
   </g>
   <g id="line2d_25">
    <path clip-path="url(#p7ea9d86e55)" d="M 72 109.456364 
L 74.952737 109.421303 
L 77.905474 109.383878 
L 80.858211 109.343882 
L 83.810948 109.301111 
L 86.763685 109.25536 
L 89.716422 109.206425 
L 92.669159 109.154101 
L 95.621896 109.098101 
L 98.574632 109.038298 
L 101.527369 108.974394 
L 104.480106 108.906055 
L 107.432843 108.832944 
L 110.38558 108.754728 
L 113.338317 108.671073 
L 116.291054 108.581539 
L 119.243791 108.485865 
L 122.196528 108.383635 
L 125.149265 108.274299 
L 128.102002 108.157307 
L 131.054739 108.032108 
L 134.007476 107.898152 
L 136.960213 107.754777 
L 139.91295 107.601423 
L 142.865687 107.437559 
L 145.818424 107.262272 
L 148.77116 107.074648 
L 151.723897 106.873774 
L 154.676634 106.658737 
L 157.629371 106.428562 
L 160.582108 106.18201 
L 163.534845 105.918529 
L 166.487582 105.636581 
L 169.440319 105.334628 
L 172.393056 105.011131 
L 175.345793 104.664553 
L 178.29853 104.293354 
L 181.251267 103.895225 
L 184.204004 103.469446 
L 187.156741 103.013546 
L 190.109478 102.524874 
L 193.062215 102.000777 
L 196.014952 101.438603 
L 198.967688 100.835698 
L 201.920425 100.188238 
L 204.873162 99.494663 
L 207.825899 98.751277 
L 210.778636 97.953338 
L 213.731373 97.096102 
L 216.68411 96.174829 
L 219.636847 95.184777 
L 222.589584 94.120634 
L 225.542321 92.976924 
L 228.495058 91.747137 
L 231.447795 90.423566 
L 234.400532 88.998506 
L 237.353269 87.464252 
L 240.306006 85.813098 
L 243.258743 84.036443 
L 246.21148 82.127283 
L 249.164217 80.080912 
L 252.116953 77.884785 
L 255.06969 75.526356 
L 258.022427 72.993079 
L 260.975164 70.272408 
L 263.927901 67.351798 
L 266.880638 64.212483 
L 269.833375 60.848343 
L 272.786112 57.238825 
L 275.738849 53.362975 
L 278.691586 49.199837 
L 281.644323 44.728457 
L 284.59706 39.927881 
L 287.549797 38.578029 
L 290.502534 38.578032 
L 293.455271 38.578034 
L 296.408008 38.578037 
L 299.360745 38.578039 
L 302.313481 38.578041 
L 305.266218 38.578043 
L 308.218955 38.578045 
L 311.171692 38.578047 
L 314.124429 38.578049 
L 317.077166 38.578051 
L 320.029903 38.578052 
L 322.98264 38.578054 
L 325.935377 38.578055 
L 328.888114 38.578057 
L 331.840851 38.578058 
L 334.793588 38.578059 
L 337.746325 38.578061 
L 340.699062 38.578062 
L 343.651799 38.578063 
L 346.604536 38.578064 
L 349.557273 38.578065 
L 352.510009 38.578066 
L 355.462746 38.578067 
L 358.415483 38.578067 
L 361.36822 38.578068 
L 364.320957 38.578069 
" style="fill:none;stroke:#ccb974;stroke-linecap:round;stroke-width:1.75;"/>
   </g>
   <g id="patch_8">
    <path d="M 518.4 109.963636 
L 518.4 28.8 
" style="fill:none;stroke:#262626;stroke-linecap:square;stroke-linejoin:miter;stroke-width:1.25;"/>
   </g>
   <g id="patch_9">
    <path d="M 72 109.963636 
L 72 28.8 
" style="fill:none;stroke:#262626;stroke-linecap:square;stroke-linejoin:miter;stroke-width:1.25;"/>
   </g>
   <g id="patch_10">
    <path d="M 72 109.963636 
L 518.4 109.963636 
" style="fill:none;stroke:#262626;stroke-linecap:square;stroke-linejoin:miter;stroke-width:1.25;"/>
   </g>
  </g>
  <g id="axes_3">
   <g id="patch_11">
    <path d="M 72 252 
L 196 252 
L 196 170.836364 
L 72 170.836364 
z
" style="fill:#ffffff;"/>
   </g>
   <g id="matplotlib.axis_4">
    <g id="xtick_5">
     <g id="line2d_26">
      <g>
       <use style="fill:#262626;stroke:#262626;" x="72.0" xlink:href="#m14c9a50a1d" y="252.0"/>
      </g>
     </g>
     <g id="text_22">
      <!-- 0 -->
      <g style="fill:#262626;" transform="translate(69.21953125 272.1578125)scale(0.1 -0.1)">
       <use xlink:href="#ArialMT-30"/>
      </g>
     </g>
    </g>
    <g id="xtick_6">
     <g id="line2d_27">
      <g>
       <use style="fill:#262626;stroke:#262626;" x="112.456769984" xlink:href="#m14c9a50a1d" y="252.0"/>
      </g>
     </g>
     <g id="text_23">
      <!-- 5 -->
      <g style="fill:#262626;" transform="translate(109.676301234 272.1578125)scale(0.1 -0.1)">
       <use xlink:href="#ArialMT-35"/>
      </g>
     </g>
    </g>
    <g id="xtick_7">
     <g id="line2d_28">
      <g>
       <use style="fill:#262626;stroke:#262626;" x="152.913539967" xlink:href="#m14c9a50a1d" y="252.0"/>
      </g>
     </g>
     <g id="text_24">
      <!-- 10 -->
      <g style="fill:#262626;" transform="translate(147.352602467 272.1578125)scale(0.1 -0.1)">
       <use xlink:href="#ArialMT-31"/>
       <use x="55.615234375" xlink:href="#ArialMT-30"/>
      </g>
     </g>
    </g>
    <g id="xtick_8">
     <g id="line2d_29">
      <g>
       <use style="fill:#262626;stroke:#262626;" x="193.370309951" xlink:href="#m14c9a50a1d" y="252.0"/>
      </g>
     </g>
     <g id="text_25">
      <!-- 15 -->
      <g style="fill:#262626;" transform="translate(187.809372451 272.1578125)scale(0.1 -0.1)">
       <use xlink:href="#ArialMT-31"/>
       <use x="55.615234375" xlink:href="#ArialMT-35"/>
      </g>
     </g>
    </g>
   </g>
   <g id="matplotlib.axis_5">
    <g id="ytick_10">
     <g id="line2d_30">
      <g>
       <use style="fill:#262626;stroke:#262626;" x="72.0" xlink:href="#mba26ad8f06" y="244.621487603"/>
      </g>
     </g>
     <g id="text_26">
      <!-- 10 -->
      <g style="fill:#262626;" transform="translate(47.878125 247.206643853)scale(0.1 -0.1)">
       <use xlink:href="#ArialMT-31"/>
       <use x="55.615234375" xlink:href="#ArialMT-30"/>
      </g>
     </g>
    </g>
    <g id="ytick_11">
     <g id="line2d_31">
      <g>
       <use style="fill:#262626;stroke:#262626;" x="72.0" xlink:href="#mba26ad8f06" y="226.175206612"/>
      </g>
     </g>
     <g id="text_27">
      <!-- 15 -->
      <g style="fill:#262626;" transform="translate(47.878125 228.760362862)scale(0.1 -0.1)">
       <use xlink:href="#ArialMT-31"/>
       <use x="55.615234375" xlink:href="#ArialMT-35"/>
      </g>
     </g>
    </g>
    <g id="ytick_12">
     <g id="line2d_32">
      <g>
       <use style="fill:#262626;stroke:#262626;" x="72.0" xlink:href="#mba26ad8f06" y="207.72892562"/>
      </g>
     </g>
     <g id="text_28">
      <!-- 20 -->
      <g style="fill:#262626;" transform="translate(47.878125 210.31408187)scale(0.1 -0.1)">
       <use xlink:href="#ArialMT-32"/>
       <use x="55.615234375" xlink:href="#ArialMT-30"/>
      </g>
     </g>
    </g>
    <g id="ytick_13">
     <g id="line2d_33">
      <g>
       <use style="fill:#262626;stroke:#262626;" x="72.0" xlink:href="#mba26ad8f06" y="189.282644628"/>
      </g>
     </g>
     <g id="text_29">
      <!-- 25 -->
      <g style="fill:#262626;" transform="translate(47.878125 191.867800878)scale(0.1 -0.1)">
       <use xlink:href="#ArialMT-32"/>
       <use x="55.615234375" xlink:href="#ArialMT-35"/>
      </g>
     </g>
    </g>
    <g id="ytick_14">
     <g id="line2d_34">
      <g>
       <use style="fill:#262626;stroke:#262626;" x="72.0" xlink:href="#mba26ad8f06" y="170.836363636"/>
      </g>
     </g>
     <g id="text_30">
      <!-- 30 -->
      <g style="fill:#262626;" transform="translate(47.878125 173.421519886)scale(0.1 -0.1)">
       <use xlink:href="#ArialMT-33"/>
       <use x="55.615234375" xlink:href="#ArialMT-30"/>
      </g>
     </g>
    </g>
    <g id="text_31">
     <!-- mM / g DCW * hr -->
     <defs>
      <path d="M 3.125 58.453125 
L 5.375 65.375 
Q 13.140625 62.640625 16.65625 60.640625 
Q 15.71875 69.484375 15.671875 72.796875 
L 22.75 72.796875 
Q 22.609375 67.96875 21.625 60.6875 
Q 26.65625 63.234375 33.15625 65.375 
L 35.40625 58.453125 
Q 29.203125 56.390625 23.25 55.71875 
Q 26.21875 53.125 31.640625 46.484375 
L 25.78125 42.328125 
Q 22.953125 46.1875 19.09375 52.828125 
Q 15.484375 45.953125 12.75 42.328125 
L 6.984375 46.484375 
Q 12.640625 53.46875 15.09375 55.71875 
Q 8.796875 56.9375 3.125 58.453125 
" id="ArialMT-2a"/>
     </defs>
     <g style="fill:#262626;" transform="translate(40.56296875 252.973259943)rotate(-90.0)scale(0.11 -0.11)">
      <use xlink:href="#ArialMT-6d"/>
      <use x="83.30078125" xlink:href="#ArialMT-4d"/>
      <use x="166.6015625" xlink:href="#ArialMT-20"/>
      <use x="194.384765625" xlink:href="#ArialMT-2f"/>
      <use x="222.16796875" xlink:href="#ArialMT-20"/>
      <use x="249.951171875" xlink:href="#ArialMT-67"/>
      <use x="305.56640625" xlink:href="#ArialMT-20"/>
      <use x="333.349609375" xlink:href="#ArialMT-44"/>
      <use x="405.56640625" xlink:href="#ArialMT-43"/>
      <use x="477.783203125" xlink:href="#ArialMT-57"/>
      <use x="572.16796875" xlink:href="#ArialMT-20"/>
      <use x="599.951171875" xlink:href="#ArialMT-2a"/>
      <use x="638.8671875" xlink:href="#ArialMT-20"/>
      <use x="666.650390625" xlink:href="#ArialMT-68"/>
      <use x="722.265625" xlink:href="#ArialMT-72"/>
     </g>
    </g>
   </g>
   <g id="patch_12">
    <path clip-path="url(#pacf84e76f4)" d="M 72 252 
L 72 170.836364 
L 131.27531 170.836364 
L 131.27531 252 
z
" style="fill:#e8f6f2;"/>
   </g>
   <g id="patch_13">
    <path clip-path="url(#pacf84e76f4)" d="M 131.27531 252 
L 131.27531 170.836364 
L 153.200266 170.836364 
L 153.200266 252 
z
" style="fill:#feeee8;"/>
   </g>
   <g id="line2d_35">
    <path clip-path="url(#pacf84e76f4)" d="M 72 250.485111 
L 72.820205 250.556157 
L 73.640409 250.580858 
L 74.460614 250.577555 
L 75.280819 250.56093 
L 76.101024 250.54255 
L 76.921228 250.531331 
L 77.741433 250.533944 
L 78.561638 250.515403 
L 79.381842 250.547489 
L 80.202047 250.547073 
L 81.022252 250.529864 
L 81.842456 250.508289 
L 82.662661 250.491987 
L 83.482866 250.48823 
L 84.303071 250.454255 
L 85.123275 250.494373 
L 85.94348 250.496703 
L 86.763685 250.478191 
L 87.583889 250.452306 
L 88.404094 250.429554 
L 89.224299 250.417922 
L 90.044504 250.361242 
L 90.864708 250.410183 
L 91.684913 250.414779 
L 92.505118 250.393573 
L 93.325322 250.361364 
L 94.145527 250.329761 
L 94.965732 250.307658 
L 95.785936 250.217579 
L 96.606141 250.276583 
L 97.426346 250.282559 
L 98.246551 250.256243 
L 99.066755 250.214256 
L 99.88696 250.169712 
L 100.707165 250.132736 
L 101.527369 250.110911 
L 102.347574 250.063595 
L 103.167779 250.069699 
L 103.987984 250.034341 
L 104.808188 249.976826 
L 105.628393 249.912474 
L 106.448598 249.853204 
L 107.268802 249.808033 
L 108.089007 249.721534 
L 108.909212 249.72659 
L 109.729416 249.676115 
L 110.549621 249.59366 
L 111.369826 249.498029 
L 112.190031 249.40396 
L 113.010235 249.322716 
L 113.83044 249.225018 
L 114.650645 249.154531 
L 115.470849 249.049999 
L 116.291054 248.932088 
L 117.111259 248.816938 
L 117.931464 248.716819 
L 118.751668 248.640716 
L 119.571873 248.522561 
L 120.392078 248.604187 
L 121.212282 248.631448 
L 122.032487 248.62727 
L 122.852692 248.609716 
L 123.672896 248.592753 
L 124.493101 248.586903 
L 125.313306 248.599808 
L 126.133511 248.591365 
L 126.953715 248.628759 
L 127.77392 248.629969 
L 128.594125 248.614089 
L 129.414329 248.595955 
L 130.234534 248.586819 
L 131.054739 248.594929 
L 131.874944 167.125309 
L 132.695148 171.403565 
L 133.515353 175.652053 
L 134.335558 179.864588 
L 135.155762 184.014226 
L 135.975967 188.09839 
L 136.796172 192.104684 
L 137.616376 196.023014 
L 138.436581 199.849779 
L 139.256786 203.576035 
L 140.076991 207.198456 
L 140.897195 210.714845 
L 141.7174 214.120558 
L 142.537605 217.41534 
L 143.357809 220.597959 
L 144.178014 223.668622 
L 144.998219 226.627569 
L 145.818424 229.476666 
L 146.638628 232.217904 
L 147.458833 234.850833 
L 148.279038 237.381592 
L 149.099242 239.810886 
L 149.919447 242.142071 
L 150.739652 244.379759 
L 151.559856 246.525539 
L 152.380061 248.585144 
L 153.200266 250.56119 
" style="fill:none;stroke:#4c72b0;stroke-linecap:round;stroke-width:1.75;"/>
   </g>
   <g id="line2d_36">
    <path clip-path="url(#pacf84e76f4)" d="M 72 250.56119 
L 72.820205 250.56119 
L 73.640409 250.56119 
L 74.460614 250.56119 
L 75.280819 250.56119 
L 76.101024 250.56119 
L 76.921228 250.56119 
L 77.741433 250.56119 
L 78.561638 250.56119 
L 79.381842 250.56119 
L 80.202047 250.56119 
L 81.022252 250.56119 
L 81.842456 250.56119 
L 82.662661 250.56119 
L 83.482866 250.56119 
L 84.303071 250.56119 
L 85.123275 250.56119 
L 85.94348 250.56119 
L 86.763685 250.56119 
L 87.583889 250.56119 
L 88.404094 250.56119 
L 89.224299 250.56119 
L 90.044504 250.56119 
L 90.864708 250.56119 
L 91.684913 250.56119 
L 92.505118 250.56119 
L 93.325322 250.56119 
L 94.145527 250.56119 
L 94.965732 250.56119 
L 95.785936 250.56119 
L 96.606141 250.56119 
L 97.426346 250.56119 
L 98.246551 250.56119 
L 99.066755 250.56119 
L 99.88696 250.56119 
L 100.707165 250.56119 
L 101.527369 250.56119 
L 102.347574 250.56119 
L 103.167779 250.56119 
L 103.987984 250.56119 
L 104.808188 250.56119 
L 105.628393 250.56119 
L 106.448598 250.56119 
L 107.268802 250.56119 
L 108.089007 250.56119 
L 108.909212 250.56119 
L 109.729416 250.56119 
L 110.549621 250.56119 
L 111.369826 250.56119 
L 112.190031 250.56119 
L 113.010235 250.56119 
L 113.83044 250.56119 
L 114.650645 250.56119 
L 115.470849 250.56119 
L 116.291054 250.56119 
L 117.111259 250.56119 
L 117.931464 250.56119 
L 118.751668 250.56119 
L 119.571873 250.56119 
L 120.392078 250.56119 
L 121.212282 250.56119 
L 122.032487 250.56119 
L 122.852692 250.56119 
L 123.672896 250.56119 
L 124.493101 250.56119 
L 125.313306 250.56119 
L 126.133511 250.56119 
L 126.953715 250.56119 
L 127.77392 250.56119 
L 128.594125 250.56119 
L 129.414329 250.56119 
L 130.234534 250.56119 
L 131.054739 250.56119 
L 131.874944 250.56119 
L 132.695148 250.56119 
L 133.515353 250.56119 
L 134.335558 250.56119 
L 135.155762 250.56119 
L 135.975967 250.56119 
L 136.796172 250.56119 
L 137.616376 250.56119 
L 138.436581 250.56119 
L 139.256786 250.56119 
L 140.076991 250.56119 
L 140.897195 250.56119 
L 141.7174 250.56119 
L 142.537605 250.56119 
L 143.357809 250.56119 
L 144.178014 250.56119 
L 144.998219 250.56119 
L 145.818424 250.56119 
L 146.638628 250.56119 
L 147.458833 250.56119 
L 148.279038 250.56119 
L 149.099242 250.56119 
L 149.919447 250.56119 
L 150.739652 250.56119 
L 151.559856 250.56119 
L 152.380061 250.56119 
L 153.200266 250.56119 
" style="fill:none;stroke:#c44e52;stroke-dasharray:6.000000,6.000000;stroke-dashoffset:0.0;stroke-width:1.75;"/>
   </g>
   <g id="patch_14">
    <path d="M 72 252 
L 72 170.836364 
" style="fill:none;stroke:#262626;stroke-linecap:square;stroke-linejoin:miter;stroke-width:1.25;"/>
   </g>
   <g id="patch_15">
    <path d="M 72 252 
L 196 252 
" style="fill:none;stroke:#262626;stroke-linecap:square;stroke-linejoin:miter;stroke-width:1.25;"/>
   </g>
   <g id="text_32">
    <!-- ATP Maintenance -->
    <defs>
     <path d="M 7.71875 0 
L 7.71875 71.578125 
L 34.71875 71.578125 
Q 41.84375 71.578125 45.609375 70.90625 
Q 50.875 70.015625 54.4375 67.546875 
Q 58.015625 65.09375 60.1875 60.640625 
Q 62.359375 56.203125 62.359375 50.875 
Q 62.359375 41.75 56.546875 35.421875 
Q 50.734375 29.109375 35.546875 29.109375 
L 17.1875 29.109375 
L 17.1875 0 
z
M 17.1875 37.546875 
L 35.6875 37.546875 
Q 44.875 37.546875 48.734375 40.96875 
Q 52.59375 44.390625 52.59375 50.59375 
Q 52.59375 55.078125 50.3125 58.265625 
Q 48.046875 61.46875 44.34375 62.5 
Q 41.9375 63.140625 35.5 63.140625 
L 17.1875 63.140625 
z
" id="ArialMT-50"/>
    </defs>
    <g style="fill:#262626;" transform="translate(86.3178125 165.836363636)scale(0.12 -0.12)">
     <use xlink:href="#ArialMT-41"/>
     <use x="66.58984375" xlink:href="#ArialMT-54"/>
     <use x="127.673828125" xlink:href="#ArialMT-50"/>
     <use x="194.357421875" xlink:href="#ArialMT-20"/>
     <use x="222.140625" xlink:href="#ArialMT-4d"/>
     <use x="305.44140625" xlink:href="#ArialMT-61"/>
     <use x="361.056640625" xlink:href="#ArialMT-69"/>
     <use x="383.2734375" xlink:href="#ArialMT-6e"/>
     <use x="438.888671875" xlink:href="#ArialMT-74"/>
     <use x="466.671875" xlink:href="#ArialMT-65"/>
     <use x="522.287109375" xlink:href="#ArialMT-6e"/>
     <use x="577.90234375" xlink:href="#ArialMT-61"/>
     <use x="633.517578125" xlink:href="#ArialMT-6e"/>
     <use x="689.1328125" xlink:href="#ArialMT-63"/>
     <use x="739.1328125" xlink:href="#ArialMT-65"/>
    </g>
   </g>
  </g>
  <g id="axes_4">
   <g id="patch_16">
    <path d="M 233.2 252 
L 357.2 252 
L 357.2 170.836364 
L 233.2 170.836364 
z
" style="fill:#ffffff;"/>
   </g>
   <g id="matplotlib.axis_6">
    <g id="xtick_9">
     <g id="line2d_37">
      <g>
       <use style="fill:#262626;stroke:#262626;" x="233.2" xlink:href="#m14c9a50a1d" y="252.0"/>
      </g>
     </g>
     <g id="text_33">
      <!-- 0 -->
      <g style="fill:#262626;" transform="translate(230.41953125 272.1578125)scale(0.1 -0.1)">
       <use xlink:href="#ArialMT-30"/>
      </g>
     </g>
    </g>
    <g id="xtick_10">
     <g id="line2d_38">
      <g>
       <use style="fill:#262626;stroke:#262626;" x="273.656769984" xlink:href="#m14c9a50a1d" y="252.0"/>
      </g>
     </g>
     <g id="text_34">
      <!-- 5 -->
      <g style="fill:#262626;" transform="translate(270.876301234 272.1578125)scale(0.1 -0.1)">
       <use xlink:href="#ArialMT-35"/>
      </g>
     </g>
    </g>
    <g id="xtick_11">
     <g id="line2d_39">
      <g>
       <use style="fill:#262626;stroke:#262626;" x="314.113539967" xlink:href="#m14c9a50a1d" y="252.0"/>
      </g>
     </g>
     <g id="text_35">
      <!-- 10 -->
      <g style="fill:#262626;" transform="translate(308.552602467 272.1578125)scale(0.1 -0.1)">
       <use xlink:href="#ArialMT-31"/>
       <use x="55.615234375" xlink:href="#ArialMT-30"/>
      </g>
     </g>
    </g>
    <g id="xtick_12">
     <g id="line2d_40">
      <g>
       <use style="fill:#262626;stroke:#262626;" x="354.570309951" xlink:href="#m14c9a50a1d" y="252.0"/>
      </g>
     </g>
     <g id="text_36">
      <!-- 15 -->
      <g style="fill:#262626;" transform="translate(349.009372451 272.1578125)scale(0.1 -0.1)">
       <use xlink:href="#ArialMT-31"/>
       <use x="55.615234375" xlink:href="#ArialMT-35"/>
      </g>
     </g>
    </g>
    <g id="text_37">
     <!-- Time (hr) -->
     <g style="fill:#262626;" transform="translate(272.9009375 287.15296875)scale(0.11 -0.11)">
      <use xlink:href="#ArialMT-54"/>
      <use x="61.037109375" xlink:href="#ArialMT-69"/>
      <use x="83.25390625" xlink:href="#ArialMT-6d"/>
      <use x="166.5546875" xlink:href="#ArialMT-65"/>
      <use x="222.169921875" xlink:href="#ArialMT-20"/>
      <use x="249.953125" xlink:href="#ArialMT-28"/>
      <use x="283.25390625" xlink:href="#ArialMT-68"/>
      <use x="338.869140625" xlink:href="#ArialMT-72"/>
      <use x="372.169921875" xlink:href="#ArialMT-29"/>
     </g>
    </g>
   </g>
   <g id="matplotlib.axis_7">
    <g id="ytick_15">
     <g id="line2d_41">
      <g>
       <use style="fill:#262626;stroke:#262626;" x="233.2" xlink:href="#mba26ad8f06" y="252.0"/>
      </g>
     </g>
     <g id="text_38">
      <!-- 0 -->
      <g style="fill:#262626;" transform="translate(214.6390625 254.58515625)scale(0.1 -0.1)">
       <use xlink:href="#ArialMT-30"/>
      </g>
     </g>
    </g>
    <g id="ytick_16">
     <g id="line2d_42">
      <g>
       <use style="fill:#262626;stroke:#262626;" x="233.2" xlink:href="#mba26ad8f06" y="235.767272727"/>
      </g>
     </g>
     <g id="text_39">
      <!-- 2 -->
      <g style="fill:#262626;" transform="translate(214.6390625 238.352428977)scale(0.1 -0.1)">
       <use xlink:href="#ArialMT-32"/>
      </g>
     </g>
    </g>
    <g id="ytick_17">
     <g id="line2d_43">
      <g>
       <use style="fill:#262626;stroke:#262626;" x="233.2" xlink:href="#mba26ad8f06" y="219.534545455"/>
      </g>
     </g>
     <g id="text_40">
      <!-- 4 -->
      <g style="fill:#262626;" transform="translate(214.6390625 222.119701705)scale(0.1 -0.1)">
       <use xlink:href="#ArialMT-34"/>
      </g>
     </g>
    </g>
    <g id="ytick_18">
     <g id="line2d_44">
      <g>
       <use style="fill:#262626;stroke:#262626;" x="233.2" xlink:href="#mba26ad8f06" y="203.301818182"/>
      </g>
     </g>
     <g id="text_41">
      <!-- 6 -->
      <defs>
       <path d="M 49.75 54.046875 
L 41.015625 53.375 
Q 39.84375 58.546875 37.703125 60.890625 
Q 34.125 64.65625 28.90625 64.65625 
Q 24.703125 64.65625 21.53125 62.3125 
Q 17.390625 59.28125 14.984375 53.46875 
Q 12.59375 47.65625 12.5 36.921875 
Q 15.671875 41.75 20.265625 44.09375 
Q 24.859375 46.4375 29.890625 46.4375 
Q 38.671875 46.4375 44.84375 39.96875 
Q 51.03125 33.5 51.03125 23.25 
Q 51.03125 16.5 48.125 10.71875 
Q 45.21875 4.9375 40.140625 1.859375 
Q 35.0625 -1.21875 28.609375 -1.21875 
Q 17.625 -1.21875 10.6875 6.859375 
Q 3.765625 14.9375 3.765625 33.5 
Q 3.765625 54.25 11.421875 63.671875 
Q 18.109375 71.875 29.4375 71.875 
Q 37.890625 71.875 43.28125 67.140625 
Q 48.6875 62.40625 49.75 54.046875 
M 13.875 23.1875 
Q 13.875 18.65625 15.796875 14.5 
Q 17.71875 10.359375 21.1875 8.171875 
Q 24.65625 6 28.46875 6 
Q 34.03125 6 38.03125 10.484375 
Q 42.046875 14.984375 42.046875 22.703125 
Q 42.046875 30.125 38.078125 34.390625 
Q 34.125 38.671875 28.125 38.671875 
Q 22.171875 38.671875 18.015625 34.390625 
Q 13.875 30.125 13.875 23.1875 
" id="ArialMT-36"/>
      </defs>
      <g style="fill:#262626;" transform="translate(214.6390625 205.886974432)scale(0.1 -0.1)">
       <use xlink:href="#ArialMT-36"/>
      </g>
     </g>
    </g>
    <g id="ytick_19">
     <g id="line2d_45">
      <g>
       <use style="fill:#262626;stroke:#262626;" x="233.2" xlink:href="#mba26ad8f06" y="187.069090909"/>
      </g>
     </g>
     <g id="text_42">
      <!-- 8 -->
      <defs>
       <path d="M 17.671875 38.8125 
Q 12.203125 40.828125 9.5625 44.53125 
Q 6.9375 48.25 6.9375 53.421875 
Q 6.9375 61.234375 12.546875 66.546875 
Q 18.171875 71.875 27.484375 71.875 
Q 36.859375 71.875 42.578125 66.421875 
Q 48.296875 60.984375 48.296875 53.171875 
Q 48.296875 48.1875 45.671875 44.5 
Q 43.0625 40.828125 37.75 38.8125 
Q 44.34375 36.671875 47.78125 31.875 
Q 51.21875 27.09375 51.21875 20.453125 
Q 51.21875 11.28125 44.71875 5.03125 
Q 38.234375 -1.21875 27.640625 -1.21875 
Q 17.046875 -1.21875 10.546875 5.046875 
Q 4.046875 11.328125 4.046875 20.703125 
Q 4.046875 27.6875 7.59375 32.390625 
Q 11.140625 37.109375 17.671875 38.8125 
M 15.921875 53.71875 
Q 15.921875 48.640625 19.1875 45.40625 
Q 22.46875 42.1875 27.6875 42.1875 
Q 32.765625 42.1875 36.015625 45.375 
Q 39.265625 48.578125 39.265625 53.21875 
Q 39.265625 58.0625 35.90625 61.359375 
Q 32.5625 64.65625 27.59375 64.65625 
Q 22.5625 64.65625 19.234375 61.421875 
Q 15.921875 58.203125 15.921875 53.71875 
M 13.09375 20.65625 
Q 13.09375 16.890625 14.875 13.375 
Q 16.65625 9.859375 20.171875 7.921875 
Q 23.6875 6 27.734375 6 
Q 34.03125 6 38.125 10.046875 
Q 42.234375 14.109375 42.234375 20.359375 
Q 42.234375 26.703125 38.015625 30.859375 
Q 33.796875 35.015625 27.4375 35.015625 
Q 21.234375 35.015625 17.15625 30.90625 
Q 13.09375 26.8125 13.09375 20.65625 
" id="ArialMT-38"/>
      </defs>
      <g style="fill:#262626;" transform="translate(214.6390625 189.654247159)scale(0.1 -0.1)">
       <use xlink:href="#ArialMT-38"/>
      </g>
     </g>
    </g>
    <g id="ytick_20">
     <g id="line2d_46">
      <g>
       <use style="fill:#262626;stroke:#262626;" x="233.2" xlink:href="#mba26ad8f06" y="170.836363636"/>
      </g>
     </g>
     <g id="text_43">
      <!-- 10 -->
      <g style="fill:#262626;" transform="translate(209.078125 173.421519886)scale(0.1 -0.1)">
       <use xlink:href="#ArialMT-31"/>
       <use x="55.615234375" xlink:href="#ArialMT-30"/>
      </g>
     </g>
    </g>
   </g>
   <g id="patch_17">
    <path clip-path="url(#p4f73ab1a63)" d="M 233.2 252 
L 233.2 170.836364 
L 292.47531 170.836364 
L 292.47531 252 
z
" style="fill:#e8f6f2;"/>
   </g>
   <g id="patch_18">
    <path clip-path="url(#p4f73ab1a63)" d="M 292.47531 252 
L 292.47531 170.836364 
L 314.400266 170.836364 
L 314.400266 252 
z
" style="fill:#feeee8;"/>
   </g>
   <g id="line2d_47">
    <path clip-path="url(#p4f73ab1a63)" d="M 233.2 189.755223 
L 234.020205 189.897743 
L 234.840409 189.947294 
L 235.660614 189.940668 
L 236.480819 189.907319 
L 237.301024 189.870448 
L 238.121228 189.847941 
L 238.941433 189.853185 
L 239.761638 189.815991 
L 240.581842 189.880355 
L 241.402047 189.879521 
L 242.222252 189.844999 
L 243.042456 189.801719 
L 243.862661 189.769017 
L 244.682866 189.761479 
L 245.503071 189.693325 
L 246.323275 189.773804 
L 247.14348 189.778478 
L 247.963685 189.741342 
L 248.783889 189.689417 
L 249.604094 189.643775 
L 250.424299 189.62044 
L 251.244504 189.50674 
L 252.064708 189.604916 
L 252.884913 189.614136 
L 253.705118 189.571596 
L 254.525322 189.506983 
L 255.345527 189.443587 
L 256.165732 189.399249 
L 256.985936 189.218547 
L 257.806141 189.336911 
L 258.626346 189.3489 
L 259.446551 189.296109 
L 260.266755 189.211881 
L 261.08696 189.122526 
L 261.907165 189.04835 
L 262.727369 189.004569 
L 263.547574 188.909652 
L 264.367779 188.921898 
L 265.187984 188.850969 
L 266.008188 188.735592 
L 266.828393 188.606501 
L 267.648598 188.487603 
L 268.468802 188.39699 
L 269.289007 188.22347 
L 270.109212 188.233613 
L 270.929416 188.132359 
L 271.749621 187.966952 
L 272.569826 187.775113 
L 273.390031 187.586409 
L 274.210235 187.423433 
L 275.03044 187.227448 
L 275.850645 187.086049 
L 276.670849 186.876355 
L 277.491054 186.639823 
L 278.311259 186.408829 
L 279.131464 186.207988 
L 279.951668 186.055323 
L 280.771873 185.818303 
L 281.592078 185.982046 
L 282.412282 186.036733 
L 283.232487 186.028352 
L 284.052692 185.993138 
L 284.872896 185.959109 
L 285.693101 185.947375 
L 286.513306 185.973262 
L 287.333511 185.956325 
L 288.153715 186.031339 
L 288.97392 186.033766 
L 289.794125 186.00191 
L 290.614329 185.965533 
L 291.434534 185.947205 
L 292.254739 185.963474 
L 293.074944 180.833575 
L 293.895148 183.495272 
L 294.715353 186.138449 
L 295.535558 188.759258 
L 296.355762 191.340936 
L 297.175967 193.88188 
L 297.996172 196.374377 
L 298.816376 198.812148 
L 299.636581 201.192952 
L 300.456786 203.511225 
L 301.276991 205.764898 
L 302.097195 207.952603 
L 302.9174 210.071451 
L 303.737605 212.121285 
L 304.557809 214.101336 
L 305.378014 216.011735 
L 306.198219 217.85263 
L 307.018424 219.625183 
L 307.838628 221.330632 
L 308.658833 222.968696 
L 309.479038 224.543196 
L 310.299242 226.05457 
L 311.119447 227.504906 
L 311.939652 228.897073 
L 312.759856 230.23206 
L 313.580061 231.513434 
L 314.400266 232.742822 
" style="fill:none;stroke:#4c72b0;stroke-linecap:round;stroke-width:1.75;"/>
   </g>
   <g id="line2d_48">
    <path clip-path="url(#p4f73ab1a63)" d="M 233.2 189.914801 
L 234.020205 189.908613 
L 234.840409 189.902009 
L 235.660614 189.894951 
L 236.480819 189.887405 
L 237.301024 189.879334 
L 238.121228 189.870703 
L 238.941433 189.861476 
L 239.761638 189.851601 
L 240.581842 189.841058 
L 241.402047 189.829795 
L 242.222252 189.817751 
L 243.042456 189.80487 
L 243.862661 189.791093 
L 244.682866 189.776361 
L 245.503071 189.760597 
L 246.323275 189.743758 
L 247.14348 189.72577 
L 247.963685 189.706538 
L 248.783889 189.685966 
L 249.604094 189.66396 
L 250.424299 189.640423 
L 251.244504 189.615242 
L 252.064708 189.58832 
L 252.884913 189.559567 
L 253.705118 189.528825 
L 254.525322 189.49594 
L 255.345527 189.460753 
L 256.165732 189.423108 
L 256.985936 189.382839 
L 257.806141 189.339738 
L 258.626346 189.293711 
L 259.446551 189.244501 
L 260.266755 189.191848 
L 261.08696 189.135494 
L 261.907165 189.075182 
L 262.727369 189.010651 
L 263.547574 188.941523 
L 264.367779 188.867683 
L 265.187984 188.788729 
L 266.008188 188.70423 
L 266.828393 188.613752 
L 267.648598 188.516865 
L 268.468802 188.413137 
L 269.289007 188.301962 
L 270.109212 188.183109 
L 270.929416 188.056009 
L 271.749621 187.91993 
L 272.569826 187.774141 
L 273.390031 187.61791 
L 274.210235 187.450505 
L 275.03044 187.271154 
L 275.850645 187.079069 
L 276.670849 186.873313 
L 277.491054 186.652838 
L 278.311259 186.4166 
L 279.131464 186.163551 
L 279.951668 185.892646 
L 280.771873 185.602769 
L 281.592078 185.293309 
L 282.412282 184.963822 
L 283.232487 184.613042 
L 284.052692 184.239702 
L 284.872896 183.842536 
L 285.693101 183.420278 
L 286.513306 182.971661 
L 287.333511 182.495957 
L 288.153715 181.992613 
L 288.97392 181.461533 
L 289.794125 180.902637 
L 290.614329 180.315841 
L 291.434534 179.701065 
L 292.254739 179.058227 
L 293.074944 180.832531 
L 293.895148 183.495287 
L 294.715353 186.140362 
L 295.535558 188.758405 
L 296.355762 191.341351 
L 297.175967 193.881953 
L 297.996172 196.374032 
L 298.816376 198.812453 
L 299.636581 201.192677 
L 300.456786 203.511218 
L 301.276991 205.765214 
L 302.097195 207.95247 
L 302.9174 210.071512 
L 303.737605 212.121281 
L 304.557809 214.101345 
L 305.378014 216.011727 
L 306.198219 217.852729 
L 307.018424 219.625189 
L 307.838628 221.330128 
L 308.658833 222.968894 
L 309.479038 224.543108 
L 310.299242 226.054493 
L 311.119447 227.505069 
L 311.939652 228.896935 
L 312.759856 230.232271 
L 313.580061 231.513458 
L 314.400266 232.742822 
" style="fill:none;stroke:#c44e52;stroke-dasharray:6.000000,6.000000;stroke-dashoffset:0.0;stroke-width:1.75;"/>
   </g>
   <g id="patch_19">
    <path d="M 233.2 252 
L 233.2 170.836364 
" style="fill:none;stroke:#262626;stroke-linecap:square;stroke-linejoin:miter;stroke-width:1.25;"/>
   </g>
   <g id="patch_20">
    <path d="M 233.2 252 
L 357.2 252 
" style="fill:none;stroke:#262626;stroke-linecap:square;stroke-linejoin:miter;stroke-width:1.25;"/>
   </g>
   <g id="text_44">
    <!-- Glucose Uptake -->
    <defs>
     <path d="M 54.6875 71.578125 
L 64.15625 71.578125 
L 64.15625 30.21875 
Q 64.15625 19.4375 61.71875 13.078125 
Q 59.28125 6.734375 52.90625 2.75 
Q 46.53125 -1.21875 36.1875 -1.21875 
Q 26.125 -1.21875 19.71875 2.25 
Q 13.328125 5.71875 10.59375 12.28125 
Q 7.859375 18.84375 7.859375 30.21875 
L 7.859375 71.578125 
L 17.328125 71.578125 
L 17.328125 30.28125 
Q 17.328125 20.953125 19.0625 16.53125 
Q 20.796875 12.109375 25.015625 9.71875 
Q 29.25 7.328125 35.359375 7.328125 
Q 45.796875 7.328125 50.234375 12.0625 
Q 54.6875 16.796875 54.6875 30.28125 
z
" id="ArialMT-55"/>
     <path d="M 6.640625 0 
L 6.640625 71.578125 
L 15.4375 71.578125 
L 15.4375 30.765625 
L 36.234375 51.859375 
L 47.609375 51.859375 
L 27.78125 32.625 
L 49.609375 0 
L 38.765625 0 
L 21.625 26.515625 
L 15.4375 20.5625 
L 15.4375 0 
z
" id="ArialMT-6b"/>
    </defs>
    <g style="fill:#262626;" transform="translate(252.51375 165.836363636)scale(0.12 -0.12)">
     <use xlink:href="#ArialMT-47"/>
     <use x="77.783203125" xlink:href="#ArialMT-6c"/>
     <use x="100.0" xlink:href="#ArialMT-75"/>
     <use x="155.615234375" xlink:href="#ArialMT-63"/>
     <use x="205.615234375" xlink:href="#ArialMT-6f"/>
     <use x="261.23046875" xlink:href="#ArialMT-73"/>
     <use x="311.23046875" xlink:href="#ArialMT-65"/>
     <use x="366.845703125" xlink:href="#ArialMT-20"/>
     <use x="394.62890625" xlink:href="#ArialMT-55"/>
     <use x="466.845703125" xlink:href="#ArialMT-70"/>
     <use x="522.4609375" xlink:href="#ArialMT-74"/>
     <use x="550.244140625" xlink:href="#ArialMT-61"/>
     <use x="605.859375" xlink:href="#ArialMT-6b"/>
     <use x="655.859375" xlink:href="#ArialMT-65"/>
    </g>
   </g>
   <g id="legend_2">
    <g id="line2d_49">
     <path d="M 242.2 223.367187 
L 262.2 223.367187 
" style="fill:none;stroke:#4c72b0;stroke-linecap:round;stroke-width:1.75;"/>
    </g>
    <g id="line2d_50"/>
    <g id="text_45">
     <!-- Optimal flux -->
     <defs>
      <path d="M 4.828125 34.859375 
Q 4.828125 52.6875 14.390625 62.765625 
Q 23.96875 72.859375 39.109375 72.859375 
Q 49.03125 72.859375 56.984375 68.109375 
Q 64.9375 63.375 69.109375 54.90625 
Q 73.296875 46.4375 73.296875 35.6875 
Q 73.296875 24.8125 68.890625 16.21875 
Q 64.5 7.625 56.4375 3.203125 
Q 48.390625 -1.21875 39.0625 -1.21875 
Q 28.953125 -1.21875 20.984375 3.65625 
Q 13.03125 8.546875 8.921875 16.984375 
Q 4.828125 25.4375 4.828125 34.859375 
M 14.59375 34.71875 
Q 14.59375 21.78125 21.546875 14.328125 
Q 28.515625 6.890625 39.015625 6.890625 
Q 49.703125 6.890625 56.609375 14.40625 
Q 63.53125 21.921875 63.53125 35.75 
Q 63.53125 44.484375 60.578125 51 
Q 57.625 57.515625 51.921875 61.109375 
Q 46.234375 64.703125 39.15625 64.703125 
Q 29.109375 64.703125 21.84375 57.78125 
Q 14.59375 50.875 14.59375 34.71875 
" id="ArialMT-4f"/>
      <path d="M 8.6875 0 
L 8.6875 45.015625 
L 0.921875 45.015625 
L 0.921875 51.859375 
L 8.6875 51.859375 
L 8.6875 57.375 
Q 8.6875 62.59375 9.625 65.140625 
Q 10.890625 68.5625 14.078125 70.671875 
Q 17.28125 72.796875 23.046875 72.796875 
Q 26.765625 72.796875 31.25 71.921875 
L 29.9375 64.265625 
Q 27.203125 64.75 24.75 64.75 
Q 20.75 64.75 19.09375 63.03125 
Q 17.4375 61.328125 17.4375 56.640625 
L 17.4375 51.859375 
L 27.546875 51.859375 
L 27.546875 45.015625 
L 17.4375 45.015625 
L 17.4375 0 
z
" id="ArialMT-66"/>
     </defs>
     <g style="fill:#262626;" transform="translate(270.2 226.8671875)scale(0.1 -0.1)">
      <use xlink:href="#ArialMT-4f"/>
      <use x="77.783203125" xlink:href="#ArialMT-70"/>
      <use x="133.3984375" xlink:href="#ArialMT-74"/>
      <use x="161.181640625" xlink:href="#ArialMT-69"/>
      <use x="183.3984375" xlink:href="#ArialMT-6d"/>
      <use x="266.69921875" xlink:href="#ArialMT-61"/>
      <use x="322.314453125" xlink:href="#ArialMT-6c"/>
      <use x="344.53125" xlink:href="#ArialMT-20"/>
      <use x="372.314453125" xlink:href="#ArialMT-66"/>
      <use x="400.09765625" xlink:href="#ArialMT-6c"/>
      <use x="422.314453125" xlink:href="#ArialMT-75"/>
      <use x="477.9296875" xlink:href="#ArialMT-78"/>
     </g>
    </g>
    <g id="line2d_51">
     <path d="M 242.2 237.5125 
L 262.2 237.5125 
" style="fill:none;stroke:#c44e52;stroke-dasharray:6.000000,6.000000;stroke-dashoffset:0.0;stroke-width:1.75;"/>
    </g>
    <g id="line2d_52"/>
    <g id="text_46">
     <!-- Constraint -->
     <g style="fill:#262626;" transform="translate(270.2 241.0125)scale(0.1 -0.1)">
      <use xlink:href="#ArialMT-43"/>
      <use x="72.216796875" xlink:href="#ArialMT-6f"/>
      <use x="127.83203125" xlink:href="#ArialMT-6e"/>
      <use x="183.447265625" xlink:href="#ArialMT-73"/>
      <use x="233.447265625" xlink:href="#ArialMT-74"/>
      <use x="261.23046875" xlink:href="#ArialMT-72"/>
      <use x="294.53125" xlink:href="#ArialMT-61"/>
      <use x="350.146484375" xlink:href="#ArialMT-69"/>
      <use x="372.36328125" xlink:href="#ArialMT-6e"/>
      <use x="427.978515625" xlink:href="#ArialMT-74"/>
     </g>
    </g>
   </g>
  </g>
  <g id="axes_5">
   <g id="patch_21">
    <path d="M 394.4 252 
L 518.4 252 
L 518.4 170.836364 
L 394.4 170.836364 
z
" style="fill:#ffffff;"/>
   </g>
   <g id="matplotlib.axis_8">
    <g id="xtick_13">
     <g id="line2d_53">
      <g>
       <use style="fill:#262626;stroke:#262626;" x="394.4" xlink:href="#m14c9a50a1d" y="252.0"/>
      </g>
     </g>
     <g id="text_47">
      <!-- 0 -->
      <g style="fill:#262626;" transform="translate(391.61953125 272.1578125)scale(0.1 -0.1)">
       <use xlink:href="#ArialMT-30"/>
      </g>
     </g>
    </g>
    <g id="xtick_14">
     <g id="line2d_54">
      <g>
       <use style="fill:#262626;stroke:#262626;" x="434.856769984" xlink:href="#m14c9a50a1d" y="252.0"/>
      </g>
     </g>
     <g id="text_48">
      <!-- 5 -->
      <g style="fill:#262626;" transform="translate(432.076301234 272.1578125)scale(0.1 -0.1)">
       <use xlink:href="#ArialMT-35"/>
      </g>
     </g>
    </g>
    <g id="xtick_15">
     <g id="line2d_55">
      <g>
       <use style="fill:#262626;stroke:#262626;" x="475.313539967" xlink:href="#m14c9a50a1d" y="252.0"/>
      </g>
     </g>
     <g id="text_49">
      <!-- 10 -->
      <g style="fill:#262626;" transform="translate(469.752602467 272.1578125)scale(0.1 -0.1)">
       <use xlink:href="#ArialMT-31"/>
       <use x="55.615234375" xlink:href="#ArialMT-30"/>
      </g>
     </g>
    </g>
    <g id="xtick_16">
     <g id="line2d_56">
      <g>
       <use style="fill:#262626;stroke:#262626;" x="515.770309951" xlink:href="#m14c9a50a1d" y="252.0"/>
      </g>
     </g>
     <g id="text_50">
      <!-- 15 -->
      <g style="fill:#262626;" transform="translate(510.209372451 272.1578125)scale(0.1 -0.1)">
       <use xlink:href="#ArialMT-31"/>
       <use x="55.615234375" xlink:href="#ArialMT-35"/>
      </g>
     </g>
    </g>
   </g>
   <g id="matplotlib.axis_9">
    <g id="ytick_21">
     <g id="line2d_57">
      <g>
       <use style="fill:#262626;stroke:#262626;" x="394.4" xlink:href="#mba26ad8f06" y="252.0"/>
      </g>
     </g>
     <g id="text_51">
      <!-- 0 -->
      <g style="fill:#262626;" transform="translate(375.8390625 254.58515625)scale(0.1 -0.1)">
       <use xlink:href="#ArialMT-30"/>
      </g>
     </g>
    </g>
    <g id="ytick_22">
     <g id="line2d_58">
      <g>
       <use style="fill:#262626;stroke:#262626;" x="394.4" xlink:href="#mba26ad8f06" y="231.709090909"/>
      </g>
     </g>
     <g id="text_52">
      <!-- 5 -->
      <g style="fill:#262626;" transform="translate(375.8390625 234.294247159)scale(0.1 -0.1)">
       <use xlink:href="#ArialMT-35"/>
      </g>
     </g>
    </g>
    <g id="ytick_23">
     <g id="line2d_59">
      <g>
       <use style="fill:#262626;stroke:#262626;" x="394.4" xlink:href="#mba26ad8f06" y="211.418181818"/>
      </g>
     </g>
     <g id="text_53">
      <!-- 10 -->
      <g style="fill:#262626;" transform="translate(370.278125 214.003338068)scale(0.1 -0.1)">
       <use xlink:href="#ArialMT-31"/>
       <use x="55.615234375" xlink:href="#ArialMT-30"/>
      </g>
     </g>
    </g>
    <g id="ytick_24">
     <g id="line2d_60">
      <g>
       <use style="fill:#262626;stroke:#262626;" x="394.4" xlink:href="#mba26ad8f06" y="191.127272727"/>
      </g>
     </g>
     <g id="text_54">
      <!-- 15 -->
      <g style="fill:#262626;" transform="translate(370.278125 193.712428977)scale(0.1 -0.1)">
       <use xlink:href="#ArialMT-31"/>
       <use x="55.615234375" xlink:href="#ArialMT-35"/>
      </g>
     </g>
    </g>
    <g id="ytick_25">
     <g id="line2d_61">
      <g>
       <use style="fill:#262626;stroke:#262626;" x="394.4" xlink:href="#mba26ad8f06" y="170.836363636"/>
      </g>
     </g>
     <g id="text_55">
      <!-- 20 -->
      <g style="fill:#262626;" transform="translate(370.278125 173.421519886)scale(0.1 -0.1)">
       <use xlink:href="#ArialMT-32"/>
       <use x="55.615234375" xlink:href="#ArialMT-30"/>
      </g>
     </g>
    </g>
   </g>
   <g id="patch_22">
    <path clip-path="url(#p3f1504c1cd)" d="M 394.4 252 
L 394.4 170.836364 
L 453.67531 170.836364 
L 453.67531 252 
z
" style="fill:#e8f6f2;"/>
   </g>
   <g id="patch_23">
    <path clip-path="url(#p3f1504c1cd)" d="M 453.67531 252 
L 453.67531 170.836364 
L 475.600266 170.836364 
L 475.600266 252 
z
" style="fill:#feeee8;"/>
   </g>
   <g id="line2d_62">
    <path clip-path="url(#p3f1504c1cd)" d="M 394.4 182.369476 
L 395.220205 182.528906 
L 396.040409 182.584337 
L 396.860614 182.576925 
L 397.680819 182.539618 
L 398.501024 182.498372 
L 399.321228 182.473196 
L 400.141433 182.479061 
L 400.961638 182.437454 
L 401.781842 182.509455 
L 402.602047 182.508523 
L 403.422252 182.469904 
L 404.242456 182.421489 
L 405.062661 182.384907 
L 405.882866 182.376474 
L 406.703071 182.300233 
L 407.523275 182.390262 
L 408.34348 182.39549 
L 409.163685 182.353948 
L 409.983889 182.295861 
L 410.804094 182.244804 
L 411.624299 182.2187 
L 412.444504 182.091509 
L 413.264708 182.201334 
L 414.084913 182.211648 
L 414.905118 182.16406 
L 415.725322 182.091781 
L 416.545527 182.020862 
L 417.365732 181.971263 
L 418.185936 181.76912 
L 419.006141 181.901529 
L 419.826346 181.91494 
L 420.646551 181.855884 
L 421.466755 181.761663 
L 422.28696 181.661705 
L 423.107165 181.578728 
L 423.927369 181.529752 
L 424.747574 181.423573 
L 425.567779 181.437271 
L 426.387984 181.357926 
L 427.208188 181.228858 
L 428.028393 181.08445 
L 428.848598 180.951444 
L 429.668802 180.850079 
L 430.489007 180.65597 
L 431.309212 180.667317 
L 432.129416 180.554048 
L 432.949621 180.369015 
L 433.769826 180.154413 
L 434.590031 179.943318 
L 435.410235 179.761003 
L 436.23044 179.541764 
L 437.050645 179.383587 
L 437.870849 179.149011 
L 438.691054 178.884413 
L 439.511259 178.626011 
L 440.331464 178.401338 
L 441.151668 178.230559 
L 441.971873 177.965414 
L 442.792078 178.148586 
L 443.612282 178.209763 
L 444.432487 178.200387 
L 445.252692 178.160994 
L 446.072896 178.122929 
L 446.893101 178.109801 
L 447.713306 178.13876 
L 448.533511 178.119814 
L 449.353715 178.203728 
L 450.17392 178.206444 
L 450.994125 178.170808 
L 451.814329 178.130114 
L 452.634534 178.109611 
L 453.454739 178.127811 
L 454.274944 212.408271 
L 455.095148 213.889043 
L 455.915353 215.35951 
L 456.735558 216.817535 
L 457.555762 218.253789 
L 458.375967 219.667382 
L 459.196172 221.054023 
L 460.016376 222.410218 
L 460.836581 223.734721 
L 461.656786 225.024437 
L 462.476991 226.278213 
L 463.297195 227.49529 
L 464.1174 228.67406 
L 464.937605 229.814436 
L 465.757809 230.91599 
L 466.578014 231.978795 
L 467.398219 233.002932 
L 468.218424 233.989049 
L 469.038628 234.937835 
L 469.858833 235.849132 
L 470.679038 236.725067 
L 471.499242 237.565884 
L 472.319447 238.372744 
L 473.139652 239.147242 
L 473.959856 239.88993 
L 474.780061 240.602792 
L 475.600266 241.286732 
" style="fill:none;stroke:#4c72b0;stroke-linecap:round;stroke-width:1.75;"/>
   </g>
   <g id="line2d_63">
    <path clip-path="url(#p3f1504c1cd)" d="M 394.4 178.141091 
L 395.220205 178.141091 
L 396.040409 178.141091 
L 396.860614 178.141091 
L 397.680819 178.141091 
L 398.501024 178.141091 
L 399.321228 178.141091 
L 400.141433 178.141091 
L 400.961638 178.141091 
L 401.781842 178.141091 
L 402.602047 178.141091 
L 403.422252 178.141091 
L 404.242456 178.141091 
L 405.062661 178.141091 
L 405.882866 178.141091 
L 406.703071 178.141091 
L 407.523275 178.141091 
L 408.34348 178.141091 
L 409.163685 178.141091 
L 409.983889 178.141091 
L 410.804094 178.141091 
L 411.624299 178.141091 
L 412.444504 178.141091 
L 413.264708 178.141091 
L 414.084913 178.141091 
L 414.905118 178.141091 
L 415.725322 178.141091 
L 416.545527 178.141091 
L 417.365732 178.141091 
L 418.185936 178.141091 
L 419.006141 178.141091 
L 419.826346 178.141091 
L 420.646551 178.141091 
L 421.466755 178.141091 
L 422.28696 178.141091 
L 423.107165 178.141091 
L 423.927369 178.141091 
L 424.747574 178.141091 
L 425.567779 178.141091 
L 426.387984 178.141091 
L 427.208188 178.141091 
L 428.028393 178.141091 
L 428.848598 178.141091 
L 429.668802 178.141091 
L 430.489007 178.141091 
L 431.309212 178.141091 
L 432.129416 178.141091 
L 432.949621 178.141091 
L 433.769826 178.141091 
L 434.590031 178.141091 
L 435.410235 178.141091 
L 436.23044 178.141091 
L 437.050645 178.141091 
L 437.870849 178.141091 
L 438.691054 178.141091 
L 439.511259 178.141091 
L 440.331464 178.141091 
L 441.151668 178.141091 
L 441.971873 178.141091 
L 442.792078 178.141091 
L 443.612282 178.141091 
L 444.432487 178.141091 
L 445.252692 178.141091 
L 446.072896 178.141091 
L 446.893101 178.141091 
L 447.713306 178.141091 
L 448.533511 178.141091 
L 449.353715 178.141091 
L 450.17392 178.141091 
L 450.994125 178.141091 
L 451.814329 178.141091 
L 452.634534 178.141091 
L 453.454739 178.141091 
L 454.274944 178.141091 
L 455.095148 178.141091 
L 455.915353 178.141091 
L 456.735558 178.141091 
L 457.555762 178.141091 
L 458.375967 178.141091 
L 459.196172 178.141091 
L 460.016376 178.141091 
L 460.836581 178.141091 
L 461.656786 178.141091 
L 462.476991 178.141091 
L 463.297195 178.141091 
L 464.1174 178.141091 
L 464.937605 178.141091 
L 465.757809 178.141091 
L 466.578014 178.141091 
L 467.398219 178.141091 
L 468.218424 178.141091 
L 469.038628 178.141091 
L 469.858833 178.141091 
L 470.679038 178.141091 
L 471.499242 178.141091 
L 472.319447 178.141091 
L 473.139652 178.141091 
L 473.959856 178.141091 
L 474.780061 178.141091 
L 475.600266 178.141091 
" style="fill:none;stroke:#c44e52;stroke-dasharray:6.000000,6.000000;stroke-dashoffset:0.0;stroke-width:1.75;"/>
   </g>
   <g id="patch_24">
    <path d="M 394.4 252 
L 394.4 170.836364 
" style="fill:none;stroke:#262626;stroke-linecap:square;stroke-linejoin:miter;stroke-width:1.25;"/>
   </g>
   <g id="patch_25">
    <path d="M 394.4 252 
L 518.4 252 
" style="fill:none;stroke:#262626;stroke-linecap:square;stroke-linejoin:miter;stroke-width:1.25;"/>
   </g>
   <g id="text_56">
    <!-- Oxygen Uptake -->
    <g style="fill:#262626;" transform="translate(415.046875 165.836363636)scale(0.12 -0.12)">
     <use xlink:href="#ArialMT-4f"/>
     <use x="77.783203125" xlink:href="#ArialMT-78"/>
     <use x="127.783203125" xlink:href="#ArialMT-79"/>
     <use x="177.783203125" xlink:href="#ArialMT-67"/>
     <use x="233.3984375" xlink:href="#ArialMT-65"/>
     <use x="289.013671875" xlink:href="#ArialMT-6e"/>
     <use x="344.62890625" xlink:href="#ArialMT-20"/>
     <use x="372.412109375" xlink:href="#ArialMT-55"/>
     <use x="444.62890625" xlink:href="#ArialMT-70"/>
     <use x="500.244140625" xlink:href="#ArialMT-74"/>
     <use x="528.02734375" xlink:href="#ArialMT-61"/>
     <use x="583.642578125" xlink:href="#ArialMT-6b"/>
     <use x="633.642578125" xlink:href="#ArialMT-65"/>
    </g>
   </g>
  </g>
 </g>
 <defs>
  <clipPath id="p7ea9d86e55">
   <rect height="81.1636363636" width="446.4" x="72.0" y="28.8"/>
  </clipPath>
  <clipPath id="p3f1504c1cd">
   <rect height="81.1636363636" width="124.0" x="394.4" y="170.836363636"/>
  </clipPath>
  <clipPath id="p4f73ab1a63">
   <rect height="81.1636363636" width="124.0" x="233.2" y="170.836363636"/>
  </clipPath>
  <clipPath id="pacf84e76f4">
   <rect height="81.1636363636" width="124.0" x="72.0" y="170.836363636"/>
  </clipPath>
 </defs>
</svg>
