<?xml version="1.0" encoding="utf-8" standalone="no"?>
<!DOCTYPE svg PUBLIC "-//W3C//DTD SVG 1.1//EN"
  "http://www.w3.org/Graphics/SVG/1.1/DTD/svg11.dtd">
<!-- Created with matplotlib (http://matplotlib.org/) -->
<svg height="288pt" version="1.1" viewBox="0 0 576 288" width="576pt" xmlns="http://www.w3.org/2000/svg" xmlns:xlink="http://www.w3.org/1999/xlink">
 <defs>
  <style type="text/css">
*{stroke-linecap:butt;stroke-linejoin:round;stroke-miterlimit:100000;}
  </style>
 </defs>
 <g id="figure_1">
  <g id="patch_1">
   <path d="M 0 288 
L 576 288 
L 576 0 
L 0 0 
z
" style="fill:#ffffff;"/>
  </g>
  <g id="axes_1">
   <g id="patch_2">
    <path d="M 72 109.963636 
L 518.4 109.963636 
L 518.4 28.8 
L 72 28.8 
z
" style="fill:#ffffff;"/>
   </g>
   <g id="matplotlib.axis_1">
    <g id="xtick_1">
     <g id="line2d_1">
      <defs>
       <path d="M 0 0 
L 0 6 
" id="m0ae85901b7" style="stroke:#262626;"/>
      </defs>
      <g>
       <use style="fill:#262626;stroke:#262626;" x="72.0" xlink:href="#m0ae85901b7" y="109.963636364"/>
      </g>
     </g>
     <g id="text_1">
      <!-- 0 -->
      <defs>
       <path d="M 4.15625 35.296875 
Q 4.15625 48 6.765625 55.734375 
Q 9.375 63.484375 14.515625 67.671875 
Q 19.671875 71.875 27.484375 71.875 
Q 33.25 71.875 37.59375 69.546875 
Q 41.9375 67.234375 44.765625 62.859375 
Q 47.609375 58.5 49.21875 52.21875 
Q 50.828125 45.953125 50.828125 35.296875 
Q 50.828125 22.703125 48.234375 14.96875 
Q 45.65625 7.234375 40.5 3 
Q 35.359375 -1.21875 27.484375 -1.21875 
Q 17.140625 -1.21875 11.234375 6.203125 
Q 4.15625 15.140625 4.15625 35.296875 
M 13.1875 35.296875 
Q 13.1875 17.671875 17.3125 11.828125 
Q 21.4375 6 27.484375 6 
Q 33.546875 6 37.671875 11.859375 
Q 41.796875 17.71875 41.796875 35.296875 
Q 41.796875 52.984375 37.671875 58.78125 
Q 33.546875 64.59375 27.390625 64.59375 
Q 21.34375 64.59375 17.71875 59.46875 
Q 13.1875 52.9375 13.1875 35.296875 
" id="ArialMT-30"/>
      </defs>
      <g style="fill:#262626;" transform="translate(69.21953125 130.121448864)scale(0.1 -0.1)">
       <use xlink:href="#ArialMT-30"/>
      </g>
     </g>
    </g>
    <g id="xtick_2">
     <g id="line2d_2">
      <g>
       <use style="fill:#262626;stroke:#262626;" x="217.644371941" xlink:href="#m0ae85901b7" y="109.963636364"/>
      </g>
     </g>
     <g id="text_2">
      <!-- 5 -->
      <defs>
       <path d="M 4.15625 18.75 
L 13.375 19.53125 
Q 14.40625 12.796875 18.140625 9.390625 
Q 21.875 6 27.15625 6 
Q 33.5 6 37.890625 10.78125 
Q 42.28125 15.578125 42.28125 23.484375 
Q 42.28125 31 38.0625 35.34375 
Q 33.84375 39.703125 27 39.703125 
Q 22.75 39.703125 19.328125 37.765625 
Q 15.921875 35.84375 13.96875 32.765625 
L 5.71875 33.84375 
L 12.640625 70.609375 
L 48.25 70.609375 
L 48.25 62.203125 
L 19.671875 62.203125 
L 15.828125 42.96875 
Q 22.265625 47.46875 29.34375 47.46875 
Q 38.71875 47.46875 45.15625 40.96875 
Q 51.609375 34.46875 51.609375 24.265625 
Q 51.609375 14.546875 45.953125 7.46875 
Q 39.0625 -1.21875 27.15625 -1.21875 
Q 17.390625 -1.21875 11.203125 4.25 
Q 5.03125 9.71875 4.15625 18.75 
" id="ArialMT-35"/>
      </defs>
      <g style="fill:#262626;" transform="translate(214.863903191 130.121448864)scale(0.1 -0.1)">
       <use xlink:href="#ArialMT-35"/>
      </g>
     </g>
    </g>
    <g id="xtick_3">
     <g id="line2d_3">
      <g>
       <use style="fill:#262626;stroke:#262626;" x="363.288743883" xlink:href="#m0ae85901b7" y="109.963636364"/>
      </g>
     </g>
     <g id="text_3">
      <!-- 10 -->
      <defs>
       <path d="M 37.25 0 
L 28.46875 0 
L 28.46875 56 
Q 25.296875 52.984375 20.140625 49.953125 
Q 14.984375 46.921875 10.890625 45.40625 
L 10.890625 53.90625 
Q 18.265625 57.375 23.78125 62.296875 
Q 29.296875 67.234375 31.59375 71.875 
L 37.25 71.875 
z
" id="ArialMT-31"/>
      </defs>
      <g style="fill:#262626;" transform="translate(357.727806383 130.121448864)scale(0.1 -0.1)">
       <use xlink:href="#ArialMT-31"/>
       <use x="55.615234375" xlink:href="#ArialMT-30"/>
      </g>
     </g>
    </g>
    <g id="xtick_4">
     <g id="line2d_4">
      <g>
       <use style="fill:#262626;stroke:#262626;" x="508.933115824" xlink:href="#m0ae85901b7" y="109.963636364"/>
      </g>
     </g>
     <g id="text_4">
      <!-- 15 -->
      <g style="fill:#262626;" transform="translate(503.372178324 130.121448864)scale(0.1 -0.1)">
       <use xlink:href="#ArialMT-31"/>
       <use x="55.615234375" xlink:href="#ArialMT-35"/>
      </g>
     </g>
    </g>
    <g id="text_5">
     <!-- Time (hr) -->
     <defs>
      <path d="M 6.59375 0 
L 6.59375 71.578125 
L 15.375 71.578125 
L 15.375 45.90625 
Q 21.53125 53.03125 30.90625 53.03125 
Q 36.671875 53.03125 40.921875 50.75 
Q 45.171875 48.484375 47 44.484375 
Q 48.828125 40.484375 48.828125 32.859375 
L 48.828125 0 
L 40.046875 0 
L 40.046875 32.859375 
Q 40.046875 39.453125 37.1875 42.453125 
Q 34.328125 45.453125 29.109375 45.453125 
Q 25.203125 45.453125 21.75 43.421875 
Q 18.3125 41.40625 16.84375 37.9375 
Q 15.375 34.46875 15.375 28.375 
L 15.375 0 
z
" id="ArialMT-68"/>
      <path d="M 23.390625 -21.046875 
Q 16.109375 -11.859375 11.078125 0.4375 
Q 6.0625 12.75 6.0625 25.921875 
Q 6.0625 37.546875 9.8125 48.1875 
Q 14.203125 60.546875 23.390625 72.796875 
L 29.6875 72.796875 
Q 23.78125 62.640625 21.875 58.296875 
Q 18.890625 51.5625 17.1875 44.234375 
Q 15.09375 35.109375 15.09375 25.875 
Q 15.09375 2.390625 29.6875 -21.046875 
z
" id="ArialMT-28"/>
      <path id="ArialMT-20"/>
      <path d="M 6.59375 0 
L 6.59375 51.859375 
L 14.453125 51.859375 
L 14.453125 44.578125 
Q 16.890625 48.390625 20.9375 50.703125 
Q 25 53.03125 30.171875 53.03125 
Q 35.9375 53.03125 39.625 50.640625 
Q 43.3125 48.25 44.828125 43.953125 
Q 50.984375 53.03125 60.84375 53.03125 
Q 68.5625 53.03125 72.703125 48.75 
Q 76.859375 44.484375 76.859375 35.59375 
L 76.859375 0 
L 68.109375 0 
L 68.109375 32.671875 
Q 68.109375 37.9375 67.25 40.25 
Q 66.40625 42.578125 64.15625 43.984375 
Q 61.921875 45.40625 58.890625 45.40625 
Q 53.421875 45.40625 49.796875 41.765625 
Q 46.1875 38.140625 46.1875 30.125 
L 46.1875 0 
L 37.40625 0 
L 37.40625 33.6875 
Q 37.40625 39.546875 35.25 42.46875 
Q 33.109375 45.40625 28.21875 45.40625 
Q 24.515625 45.40625 21.359375 43.453125 
Q 18.21875 41.5 16.796875 37.734375 
Q 15.375 33.984375 15.375 26.90625 
L 15.375 0 
z
" id="ArialMT-6d"/>
      <path d="M 6.5 0 
L 6.5 51.859375 
L 14.40625 51.859375 
L 14.40625 44 
Q 17.4375 49.515625 20 51.265625 
Q 22.5625 53.03125 25.640625 53.03125 
Q 30.078125 53.03125 34.671875 50.203125 
L 31.640625 42.046875 
Q 28.421875 43.953125 25.203125 43.953125 
Q 22.3125 43.953125 20.015625 42.21875 
Q 17.71875 40.484375 16.75 37.40625 
Q 15.28125 32.71875 15.28125 27.15625 
L 15.28125 0 
z
" id="ArialMT-72"/>
      <path d="M 6.640625 61.46875 
L 6.640625 71.578125 
L 15.4375 71.578125 
L 15.4375 61.46875 
z
M 6.640625 0 
L 6.640625 51.859375 
L 15.4375 51.859375 
L 15.4375 0 
z
" id="ArialMT-69"/>
      <path d="M 12.359375 -21.046875 
L 6.0625 -21.046875 
Q 20.65625 2.390625 20.65625 25.875 
Q 20.65625 35.0625 18.5625 44.09375 
Q 16.890625 51.421875 13.921875 58.15625 
Q 12.015625 62.546875 6.0625 72.796875 
L 12.359375 72.796875 
Q 21.53125 60.546875 25.921875 48.1875 
Q 29.6875 37.546875 29.6875 25.921875 
Q 29.6875 12.75 24.625 0.4375 
Q 19.578125 -11.859375 12.359375 -21.046875 
" id="ArialMT-29"/>
      <path d="M 42.09375 16.703125 
L 51.171875 15.578125 
Q 49.03125 7.625 43.21875 3.21875 
Q 37.40625 -1.171875 28.375 -1.171875 
Q 17 -1.171875 10.328125 5.828125 
Q 3.65625 12.84375 3.65625 25.484375 
Q 3.65625 38.578125 10.390625 45.796875 
Q 17.140625 53.03125 27.875 53.03125 
Q 38.28125 53.03125 44.875 45.953125 
Q 51.46875 38.875 51.46875 26.03125 
Q 51.46875 25.25 51.421875 23.6875 
L 12.75 23.6875 
Q 13.234375 15.140625 17.578125 10.59375 
Q 21.921875 6.0625 28.421875 6.0625 
Q 33.25 6.0625 36.671875 8.59375 
Q 40.09375 11.140625 42.09375 16.703125 
M 13.234375 30.90625 
L 42.1875 30.90625 
Q 41.609375 37.453125 38.875 40.71875 
Q 34.671875 45.796875 27.984375 45.796875 
Q 21.921875 45.796875 17.796875 41.75 
Q 13.671875 37.703125 13.234375 30.90625 
" id="ArialMT-65"/>
      <path d="M 25.921875 0 
L 25.921875 63.140625 
L 2.34375 63.140625 
L 2.34375 71.578125 
L 59.078125 71.578125 
L 59.078125 63.140625 
L 35.40625 63.140625 
L 35.40625 0 
z
" id="ArialMT-54"/>
     </defs>
     <g style="fill:#262626;" transform="translate(272.9009375 145.116605114)scale(0.11 -0.11)">
      <use xlink:href="#ArialMT-54"/>
      <use x="61.037109375" xlink:href="#ArialMT-69"/>
      <use x="83.25390625" xlink:href="#ArialMT-6d"/>
      <use x="166.5546875" xlink:href="#ArialMT-65"/>
      <use x="222.169921875" xlink:href="#ArialMT-20"/>
      <use x="249.953125" xlink:href="#ArialMT-28"/>
      <use x="283.25390625" xlink:href="#ArialMT-68"/>
      <use x="338.869140625" xlink:href="#ArialMT-72"/>
      <use x="372.169921875" xlink:href="#ArialMT-29"/>
     </g>
    </g>
   </g>
   <g id="matplotlib.axis_2">
    <g id="ytick_1">
     <g id="line2d_5">
      <defs>
       <path d="M 0 0 
L -6 0 
" id="m049011b8a8" style="stroke:#262626;"/>
      </defs>
      <g>
       <use style="fill:#262626;stroke:#262626;" x="72.0" xlink:href="#m049011b8a8" y="109.963636364"/>
      </g>
     </g>
     <g id="text_6">
      <!-- 0 -->
      <g style="fill:#262626;" transform="translate(53.4390625 112.548792614)scale(0.1 -0.1)">
       <use xlink:href="#ArialMT-30"/>
      </g>
     </g>
    </g>
    <g id="ytick_2">
     <g id="line2d_6">
      <g>
       <use style="fill:#262626;stroke:#262626;" x="72.0" xlink:href="#m049011b8a8" y="91.9272727273"/>
      </g>
     </g>
     <g id="text_7">
      <!-- 100 -->
      <g style="fill:#262626;" transform="translate(42.3171875 94.5124289773)scale(0.1 -0.1)">
       <use xlink:href="#ArialMT-31"/>
       <use x="55.615234375" xlink:href="#ArialMT-30"/>
       <use x="111.23046875" xlink:href="#ArialMT-30"/>
      </g>
     </g>
    </g>
    <g id="ytick_3">
     <g id="line2d_7">
      <g>
       <use style="fill:#262626;stroke:#262626;" x="72.0" xlink:href="#m049011b8a8" y="73.8909090909"/>
      </g>
     </g>
     <g id="text_8">
      <!-- 200 -->
      <defs>
       <path d="M 50.34375 8.453125 
L 50.34375 0 
L 3.03125 0 
Q 2.9375 3.171875 4.046875 6.109375 
Q 5.859375 10.9375 9.828125 15.625 
Q 13.8125 20.3125 21.34375 26.46875 
Q 33.015625 36.03125 37.109375 41.625 
Q 41.21875 47.21875 41.21875 52.203125 
Q 41.21875 57.421875 37.46875 61 
Q 33.734375 64.59375 27.734375 64.59375 
Q 21.390625 64.59375 17.578125 60.78125 
Q 13.765625 56.984375 13.71875 50.25 
L 4.6875 51.171875 
Q 5.609375 61.28125 11.65625 66.578125 
Q 17.71875 71.875 27.9375 71.875 
Q 38.234375 71.875 44.234375 66.15625 
Q 50.25 60.453125 50.25 52 
Q 50.25 47.703125 48.484375 43.546875 
Q 46.734375 39.40625 42.65625 34.8125 
Q 38.578125 30.21875 29.109375 22.21875 
Q 21.1875 15.578125 18.9375 13.203125 
Q 16.703125 10.84375 15.234375 8.453125 
z
" id="ArialMT-32"/>
      </defs>
      <g style="fill:#262626;" transform="translate(42.3171875 76.4760653409)scale(0.1 -0.1)">
       <use xlink:href="#ArialMT-32"/>
       <use x="55.615234375" xlink:href="#ArialMT-30"/>
       <use x="111.23046875" xlink:href="#ArialMT-30"/>
      </g>
     </g>
    </g>
    <g id="ytick_4">
     <g id="line2d_8">
      <g>
       <use style="fill:#262626;stroke:#262626;" x="72.0" xlink:href="#m049011b8a8" y="55.8545454545"/>
      </g>
     </g>
     <g id="text_9">
      <!-- 300 -->
      <defs>
       <path d="M 4.203125 18.890625 
L 12.984375 20.0625 
Q 14.5 12.59375 18.140625 9.296875 
Q 21.78125 6 27 6 
Q 33.203125 6 37.46875 10.296875 
Q 41.75 14.59375 41.75 20.953125 
Q 41.75 27 37.796875 30.921875 
Q 33.84375 34.859375 27.734375 34.859375 
Q 25.25 34.859375 21.53125 33.890625 
L 22.515625 41.609375 
Q 23.390625 41.5 23.921875 41.5 
Q 29.546875 41.5 34.03125 44.421875 
Q 38.53125 47.359375 38.53125 53.46875 
Q 38.53125 58.296875 35.25 61.46875 
Q 31.984375 64.65625 26.8125 64.65625 
Q 21.6875 64.65625 18.265625 61.421875 
Q 14.84375 58.203125 13.875 51.765625 
L 5.078125 53.328125 
Q 6.6875 62.15625 12.390625 67.015625 
Q 18.109375 71.875 26.609375 71.875 
Q 32.46875 71.875 37.390625 69.359375 
Q 42.328125 66.84375 44.9375 62.5 
Q 47.5625 58.15625 47.5625 53.265625 
Q 47.5625 48.640625 45.0625 44.828125 
Q 42.578125 41.015625 37.703125 38.765625 
Q 44.046875 37.3125 47.5625 32.6875 
Q 51.078125 28.078125 51.078125 21.140625 
Q 51.078125 11.765625 44.234375 5.25 
Q 37.40625 -1.265625 26.953125 -1.265625 
Q 17.53125 -1.265625 11.296875 4.34375 
Q 5.078125 9.96875 4.203125 18.890625 
" id="ArialMT-33"/>
      </defs>
      <g style="fill:#262626;" transform="translate(42.3171875 58.4397017045)scale(0.1 -0.1)">
       <use xlink:href="#ArialMT-33"/>
       <use x="55.615234375" xlink:href="#ArialMT-30"/>
       <use x="111.23046875" xlink:href="#ArialMT-30"/>
      </g>
     </g>
    </g>
    <g id="ytick_5">
     <g id="line2d_9">
      <g>
       <use style="fill:#262626;stroke:#262626;" x="72.0" xlink:href="#m049011b8a8" y="37.8181818182"/>
      </g>
     </g>
     <g id="text_10">
      <!-- 400 -->
      <defs>
       <path d="M 32.328125 0 
L 32.328125 17.140625 
L 1.265625 17.140625 
L 1.265625 25.203125 
L 33.9375 71.578125 
L 41.109375 71.578125 
L 41.109375 25.203125 
L 50.78125 25.203125 
L 50.78125 17.140625 
L 41.109375 17.140625 
L 41.109375 0 
z
M 32.328125 25.203125 
L 32.328125 57.46875 
L 9.90625 25.203125 
z
" id="ArialMT-34"/>
      </defs>
      <g style="fill:#262626;" transform="translate(42.3171875 40.4033380682)scale(0.1 -0.1)">
       <use xlink:href="#ArialMT-34"/>
       <use x="55.615234375" xlink:href="#ArialMT-30"/>
       <use x="111.23046875" xlink:href="#ArialMT-30"/>
      </g>
     </g>
    </g>
    <g id="text_11">
     <!-- Concentration (mM) -->
     <defs>
      <path d="M 40.4375 6.390625 
Q 35.546875 2.25 31.03125 0.53125 
Q 26.515625 -1.171875 21.34375 -1.171875 
Q 12.796875 -1.171875 8.203125 3 
Q 3.609375 7.171875 3.609375 13.671875 
Q 3.609375 17.484375 5.34375 20.625 
Q 7.078125 23.78125 9.890625 25.6875 
Q 12.703125 27.59375 16.21875 28.5625 
Q 18.796875 29.25 24.03125 29.890625 
Q 34.671875 31.15625 39.703125 32.90625 
Q 39.75 34.71875 39.75 35.203125 
Q 39.75 40.578125 37.25 42.78125 
Q 33.890625 45.75 27.25 45.75 
Q 21.046875 45.75 18.09375 43.578125 
Q 15.140625 41.40625 13.71875 35.890625 
L 5.125 37.0625 
Q 6.296875 42.578125 8.984375 45.96875 
Q 11.671875 49.359375 16.75 51.1875 
Q 21.828125 53.03125 28.515625 53.03125 
Q 35.15625 53.03125 39.296875 51.46875 
Q 43.453125 49.90625 45.40625 47.53125 
Q 47.359375 45.171875 48.140625 41.546875 
Q 48.578125 39.3125 48.578125 33.453125 
L 48.578125 21.734375 
Q 48.578125 9.46875 49.140625 6.21875 
Q 49.703125 2.984375 51.375 0 
L 42.1875 0 
Q 40.828125 2.734375 40.4375 6.390625 
M 39.703125 26.03125 
Q 34.90625 24.078125 25.34375 22.703125 
Q 19.921875 21.921875 17.671875 20.9375 
Q 15.4375 19.96875 14.203125 18.09375 
Q 12.984375 16.21875 12.984375 13.921875 
Q 12.984375 10.40625 15.640625 8.0625 
Q 18.3125 5.71875 23.4375 5.71875 
Q 28.515625 5.71875 32.46875 7.9375 
Q 36.421875 10.15625 38.28125 14.015625 
Q 39.703125 17 39.703125 22.796875 
z
" id="ArialMT-61"/>
      <path d="M 6.59375 0 
L 6.59375 51.859375 
L 14.5 51.859375 
L 14.5 44.484375 
Q 20.21875 53.03125 31 53.03125 
Q 35.6875 53.03125 39.625 51.34375 
Q 43.5625 49.65625 45.515625 46.921875 
Q 47.46875 44.1875 48.25 40.4375 
Q 48.734375 37.984375 48.734375 31.890625 
L 48.734375 0 
L 39.9375 0 
L 39.9375 31.546875 
Q 39.9375 36.921875 38.90625 39.578125 
Q 37.890625 42.234375 35.28125 43.8125 
Q 32.671875 45.40625 29.15625 45.40625 
Q 23.53125 45.40625 19.453125 41.84375 
Q 15.375 38.28125 15.375 28.328125 
L 15.375 0 
z
" id="ArialMT-6e"/>
      <path d="M 40.4375 19 
L 49.078125 17.875 
Q 47.65625 8.9375 41.8125 3.875 
Q 35.984375 -1.171875 27.484375 -1.171875 
Q 16.84375 -1.171875 10.375 5.78125 
Q 3.90625 12.75 3.90625 25.734375 
Q 3.90625 34.125 6.6875 40.421875 
Q 9.46875 46.734375 15.15625 49.875 
Q 20.84375 53.03125 27.546875 53.03125 
Q 35.984375 53.03125 41.359375 48.75 
Q 46.734375 44.484375 48.25 36.625 
L 39.703125 35.296875 
Q 38.484375 40.53125 35.375 43.15625 
Q 32.28125 45.796875 27.875 45.796875 
Q 21.234375 45.796875 17.078125 41.03125 
Q 12.9375 36.28125 12.9375 25.984375 
Q 12.9375 15.53125 16.9375 10.796875 
Q 20.953125 6.0625 27.390625 6.0625 
Q 32.5625 6.0625 36.03125 9.234375 
Q 39.5 12.40625 40.4375 19 
" id="ArialMT-63"/>
      <path d="M 7.421875 0 
L 7.421875 71.578125 
L 21.6875 71.578125 
L 38.625 20.90625 
Q 40.96875 13.8125 42.046875 10.296875 
Q 43.265625 14.203125 45.84375 21.78125 
L 62.984375 71.578125 
L 75.734375 71.578125 
L 75.734375 0 
L 66.609375 0 
L 66.609375 59.90625 
L 45.796875 0 
L 37.25 0 
L 16.546875 60.9375 
L 16.546875 0 
z
" id="ArialMT-4d"/>
      <path d="M 3.328125 25.921875 
Q 3.328125 40.328125 11.328125 47.265625 
Q 18.015625 53.03125 27.640625 53.03125 
Q 38.328125 53.03125 45.109375 46.015625 
Q 51.90625 39.015625 51.90625 26.65625 
Q 51.90625 16.65625 48.90625 10.90625 
Q 45.90625 5.171875 40.15625 2 
Q 34.421875 -1.171875 27.640625 -1.171875 
Q 16.75 -1.171875 10.03125 5.8125 
Q 3.328125 12.796875 3.328125 25.921875 
M 12.359375 25.921875 
Q 12.359375 15.96875 16.703125 11.015625 
Q 21.046875 6.0625 27.640625 6.0625 
Q 34.1875 6.0625 38.53125 11.03125 
Q 42.875 16.015625 42.875 26.21875 
Q 42.875 35.84375 38.5 40.796875 
Q 34.125 45.75 27.640625 45.75 
Q 21.046875 45.75 16.703125 40.8125 
Q 12.359375 35.890625 12.359375 25.921875 
" id="ArialMT-6f"/>
      <path d="M 25.78125 7.859375 
L 27.046875 0.09375 
Q 23.34375 -0.6875 20.40625 -0.6875 
Q 15.625 -0.6875 12.984375 0.828125 
Q 10.359375 2.34375 9.28125 4.8125 
Q 8.203125 7.28125 8.203125 15.1875 
L 8.203125 45.015625 
L 1.765625 45.015625 
L 1.765625 51.859375 
L 8.203125 51.859375 
L 8.203125 64.703125 
L 16.9375 69.96875 
L 16.9375 51.859375 
L 25.78125 51.859375 
L 25.78125 45.015625 
L 16.9375 45.015625 
L 16.9375 14.703125 
Q 16.9375 10.9375 17.40625 9.859375 
Q 17.875 8.796875 18.921875 8.15625 
Q 19.96875 7.515625 21.921875 7.515625 
Q 23.390625 7.515625 25.78125 7.859375 
" id="ArialMT-74"/>
      <path d="M 58.796875 25.09375 
L 68.265625 22.703125 
Q 65.28125 11.03125 57.546875 4.90625 
Q 49.8125 -1.21875 38.625 -1.21875 
Q 27.046875 -1.21875 19.796875 3.484375 
Q 12.546875 8.203125 8.765625 17.140625 
Q 4.984375 26.078125 4.984375 36.328125 
Q 4.984375 47.515625 9.25 55.828125 
Q 13.53125 64.15625 21.40625 68.46875 
Q 29.296875 72.796875 38.765625 72.796875 
Q 49.515625 72.796875 56.828125 67.328125 
Q 64.15625 61.859375 67.046875 51.953125 
L 57.71875 49.75 
Q 55.21875 57.5625 50.484375 61.125 
Q 45.75 64.703125 38.578125 64.703125 
Q 30.328125 64.703125 24.78125 60.734375 
Q 19.234375 56.78125 16.984375 50.109375 
Q 14.75 43.453125 14.75 36.375 
Q 14.75 27.25 17.40625 20.4375 
Q 20.0625 13.625 25.671875 10.25 
Q 31.296875 6.890625 37.84375 6.890625 
Q 45.796875 6.890625 51.3125 11.46875 
Q 56.84375 16.0625 58.796875 25.09375 
" id="ArialMT-43"/>
     </defs>
     <g style="fill:#262626;" transform="translate(35.00203125 117.976036932)rotate(-90.0)scale(0.11 -0.11)">
      <use xlink:href="#ArialMT-43"/>
      <use x="72.216796875" xlink:href="#ArialMT-6f"/>
      <use x="127.83203125" xlink:href="#ArialMT-6e"/>
      <use x="183.447265625" xlink:href="#ArialMT-63"/>
      <use x="233.447265625" xlink:href="#ArialMT-65"/>
      <use x="289.0625" xlink:href="#ArialMT-6e"/>
      <use x="344.677734375" xlink:href="#ArialMT-74"/>
      <use x="372.4609375" xlink:href="#ArialMT-72"/>
      <use x="405.76171875" xlink:href="#ArialMT-61"/>
      <use x="461.376953125" xlink:href="#ArialMT-74"/>
      <use x="489.16015625" xlink:href="#ArialMT-69"/>
      <use x="511.376953125" xlink:href="#ArialMT-6f"/>
      <use x="566.9921875" xlink:href="#ArialMT-6e"/>
      <use x="622.607421875" xlink:href="#ArialMT-20"/>
      <use x="650.390625" xlink:href="#ArialMT-28"/>
      <use x="683.69140625" xlink:href="#ArialMT-6d"/>
      <use x="766.9921875" xlink:href="#ArialMT-4d"/>
      <use x="850.29296875" xlink:href="#ArialMT-29"/>
     </g>
    </g>
   </g>
   <g id="patch_3">
    <path clip-path="url(#p2c4be153a6)" d="M 72 109.963636 
L 72 28.8 
L 518.41095 28.8 
L 518.41095 109.963636 
z
" style="fill:#e8f6f2;"/>
   </g>
   <g id="line2d_10">
    <path clip-path="url(#p2c4be153a6)" d="M 72 42.992431 
L 76.509202 43.01516 
L 81.018403 43.039172 
L 85.527605 43.064547 
L 90.036806 43.091365 
L 94.546008 43.119705 
L 99.055209 43.149652 
L 103.564411 43.181291 
L 108.073612 43.214724 
L 112.582814 43.250055 
L 117.092015 43.287389 
L 121.601217 43.326839 
L 126.110418 43.368513 
L 130.61962 43.412549 
L 135.128821 43.459081 
L 139.638023 43.508248 
L 144.147224 43.560194 
L 148.656426 43.615067 
L 153.165627 43.673044 
L 157.674829 43.734301 
L 162.18403 43.799021 
L 166.693232 43.867389 
L 171.202433 43.939602 
L 175.711635 44.015891 
L 180.220836 44.096485 
L 184.730038 44.181624 
L 189.239239 44.271546 
L 193.748441 44.366512 
L 198.257642 44.466821 
L 202.766844 44.572773 
L 207.276045 44.684677 
L 211.785247 44.802842 
L 216.294448 44.927611 
L 220.80365 45.059369 
L 225.312851 45.198504 
L 229.822053 45.345417 
L 234.331254 45.500506 
L 238.840456 45.664215 
L 243.349658 45.837042 
L 247.858859 46.019482 
L 252.368061 46.212051 
L 256.877262 46.415258 
L 261.386464 46.629676 
L 265.895665 46.855937 
L 270.404867 47.09467 
L 274.914068 47.34653 
L 279.42327 47.612161 
L 283.932471 47.892295 
L 288.441673 48.187718 
L 292.950874 48.49922 
L 297.460076 48.827616 
L 301.969277 49.173713 
L 306.478479 49.53842 
L 310.98768 49.922699 
L 315.496882 50.327512 
L 320.006083 50.753851 
L 324.515285 51.202704 
L 329.024486 51.67516 
L 333.533688 52.172352 
L 338.042889 52.695413 
L 342.552091 53.245494 
L 347.061292 53.823766 
L 351.570494 54.431461 
L 356.079695 55.069829 
L 360.588897 55.740122 
L 365.098098 56.443581 
L 369.6073 57.181513 
L 374.116501 57.955168 
L 378.625703 58.765775 
L 383.134904 59.614565 
L 387.644106 60.502689 
L 392.153307 61.431456 
L 396.662509 62.40186 
L 401.17171 63.414824 
L 405.680912 64.471272 
L 410.190114 65.571926 
L 414.699315 66.717794 
L 419.208517 67.909137 
L 423.717718 69.146085 
L 428.22692 70.428773 
L 432.736121 71.756946 
L 437.245323 73.130781 
L 441.754524 74.549107 
L 446.263726 76.010593 
L 450.772927 77.513903 
L 455.282129 79.057094 
L 459.79133 80.638757 
L 464.300532 82.255506 
L 468.809733 83.903783 
L 473.318935 85.58003 
L 477.828136 87.279769 
L 482.337338 88.999389 
L 486.846539 90.732327 
L 491.355741 92.471858 
L 495.864942 94.211255 
L 500.374144 95.941492 
L 504.883345 97.657767 
L 509.392547 99.34601 
L 513.901748 100.991908 
L 518.41095 102.581149 
" style="fill:none;stroke:#4c72b0;stroke-linecap:round;stroke-width:1.75;"/>
   </g>
   <g id="line2d_11">
    <path clip-path="url(#p2c4be153a6)" d="M 72 109.963636 
L 76.509202 109.948393 
L 81.018403 109.932288 
L 85.527605 109.91527 
L 90.036806 109.897284 
L 94.546008 109.878277 
L 99.055209 109.858192 
L 103.564411 109.836972 
L 108.073612 109.814549 
L 112.582814 109.790854 
L 117.092015 109.765814 
L 121.601217 109.739356 
L 126.110418 109.711406 
L 130.61962 109.681872 
L 135.128821 109.650664 
L 139.638023 109.617688 
L 144.147224 109.582849 
L 148.656426 109.546047 
L 153.165627 109.507163 
L 157.674829 109.466079 
L 162.18403 109.422673 
L 166.693232 109.37682 
L 171.202433 109.328388 
L 175.711635 109.277223 
L 180.220836 109.223169 
L 184.730038 109.166069 
L 189.239239 109.105759 
L 193.748441 109.042068 
L 198.257642 108.974792 
L 202.766844 108.903733 
L 207.276045 108.828681 
L 211.785247 108.74943 
L 216.294448 108.66575 
L 220.80365 108.577383 
L 225.312851 108.484067 
L 229.822053 108.385536 
L 234.331254 108.281521 
L 238.840456 108.171724 
L 243.349658 108.055813 
L 247.858859 107.933454 
L 252.368061 107.804301 
L 256.877262 107.668015 
L 261.386464 107.524209 
L 265.895665 107.37246 
L 270.404867 107.212347 
L 274.914068 107.043429 
L 279.42327 106.865275 
L 283.932471 106.677396 
L 288.441673 106.479261 
L 292.950874 106.270343 
L 297.460076 106.050094 
L 301.969277 105.817973 
L 306.478479 105.573372 
L 310.98768 105.315644 
L 315.496882 105.044144 
L 320.006083 104.758206 
L 324.515285 104.45717 
L 329.024486 104.140303 
L 333.533688 103.806846 
L 338.042889 103.456039 
L 342.552091 103.087111 
L 347.061292 102.699275 
L 351.570494 102.291707 
L 356.079695 101.863566 
L 360.588897 101.414013 
L 365.098098 100.942217 
L 369.6073 100.447301 
L 374.116501 99.928426 
L 378.625703 99.384768 
L 383.134904 98.815502 
L 387.644106 98.219855 
L 392.153307 97.596949 
L 396.662509 96.946119 
L 401.17171 96.266743 
L 405.680912 95.558205 
L 410.190114 94.820018 
L 414.699315 94.051507 
L 419.208517 93.252497 
L 423.717718 92.4229 
L 428.22692 91.562627 
L 432.736121 90.671848 
L 437.245323 89.750444 
L 441.754524 88.799201 
L 446.263726 87.819011 
L 450.772927 86.810771 
L 455.282129 85.775784 
L 459.79133 84.714994 
L 464.300532 83.630672 
L 468.809733 82.525206 
L 473.318935 81.40098 
L 477.828136 80.260999 
L 482.337338 79.107684 
L 486.846539 77.945436 
L 491.355741 76.778768 
L 495.864942 75.612189 
L 500.374144 74.451754 
L 504.883345 73.300682 
L 509.392547 72.168411 
L 513.901748 71.06454 
L 518.41095 69.998667 
" style="fill:none;stroke:#55a868;stroke-linecap:round;stroke-width:1.75;"/>
   </g>
   <g id="line2d_12">
    <path clip-path="url(#p2c4be153a6)" d="M 72 109.96363 
L 76.509202 109.96363 
L 81.018403 109.96363 
L 85.527605 109.96363 
L 90.036806 109.96363 
L 94.546008 109.96363 
L 99.055209 109.96363 
L 103.564411 109.96363 
L 108.073612 109.96363 
L 112.582814 109.96363 
L 117.092015 109.96363 
L 121.601217 109.96363 
L 126.110418 109.96363 
L 130.61962 109.96363 
L 135.128821 109.96363 
L 139.638023 109.96363 
L 144.147224 109.96363 
L 148.656426 109.96363 
L 153.165627 109.96363 
L 157.674829 109.96363 
L 162.18403 109.96363 
L 166.693232 109.96363 
L 171.202433 109.96363 
L 175.711635 109.96363 
L 180.220836 109.96363 
L 184.730038 109.96363 
L 189.239239 109.96363 
L 193.748441 109.96363 
L 198.257642 109.96363 
L 202.766844 109.96363 
L 207.276045 109.96363 
L 211.785247 109.96363 
L 216.294448 109.96363 
L 220.80365 109.963631 
L 225.312851 109.963631 
L 229.822053 109.963631 
L 234.331254 109.963631 
L 238.840456 109.963631 
L 243.349658 109.963631 
L 247.858859 109.963631 
L 252.368061 109.963631 
L 256.877262 109.963631 
L 261.386464 109.963631 
L 265.895665 109.963631 
L 270.404867 109.963631 
L 274.914068 109.963631 
L 279.42327 109.963631 
L 283.932471 109.963631 
L 288.441673 109.963631 
L 292.950874 109.963631 
L 297.460076 109.963631 
L 301.969277 109.963631 
L 306.478479 109.963631 
L 310.98768 109.963631 
L 315.496882 109.963631 
L 320.006083 109.963631 
L 324.515285 109.963631 
L 329.024486 109.963631 
L 333.533688 109.963631 
L 338.042889 109.963631 
L 342.552091 109.963631 
L 347.061292 109.963631 
L 351.570494 109.963631 
L 356.079695 109.963632 
L 360.588897 109.963632 
L 365.098098 109.963632 
L 369.6073 109.963632 
L 374.116501 109.963632 
L 378.625703 109.963632 
L 383.134904 109.963632 
L 387.644106 109.963632 
L 392.153307 109.963632 
L 396.662509 109.963632 
L 401.17171 109.963632 
L 405.680912 109.963632 
L 410.190114 109.963633 
L 414.699315 109.963633 
L 419.208517 109.963633 
L 423.717718 109.963633 
L 428.22692 109.963633 
L 432.736121 109.963633 
L 437.245323 109.963633 
L 441.754524 109.963634 
L 446.263726 109.963634 
L 450.772927 109.963634 
L 455.282129 109.963634 
L 459.79133 109.963634 
L 464.300532 109.963634 
L 468.809733 109.963634 
L 473.318935 109.963635 
L 477.828136 109.963635 
L 482.337338 109.963635 
L 486.846539 109.963635 
L 491.355741 109.963635 
L 495.864942 109.963635 
L 500.374144 109.963636 
L 504.883345 109.963636 
L 509.392547 109.963636 
L 513.901748 109.963636 
L 518.41095 109.963636 
" style="fill:none;stroke:#c44e52;stroke-linecap:round;stroke-width:1.75;"/>
   </g>
   <g id="patch_4">
    <path d="M 72 109.963636 
L 72 28.8 
" style="fill:none;stroke:#262626;stroke-linecap:square;stroke-linejoin:miter;stroke-width:1.25;"/>
   </g>
   <g id="patch_5">
    <path d="M 72 109.963636 
L 518.4 109.963636 
" style="fill:none;stroke:#262626;stroke-linecap:square;stroke-linejoin:miter;stroke-width:1.25;"/>
   </g>
   <g id="patch_6">
    <path d="M 518.4 109.963636 
L 518.4 28.8 
" style="fill:none;stroke:#262626;stroke-linecap:square;stroke-linejoin:miter;stroke-width:1.25;"/>
   </g>
   <g id="text_12">
    <!-- E. coli maximum succinate producitivity -->
    <defs>
     <path d="M 6.203125 -19.96875 
L 5.21875 -11.71875 
Q 8.109375 -12.5 10.25 -12.5 
Q 13.1875 -12.5 14.9375 -11.515625 
Q 16.703125 -10.546875 17.828125 -8.796875 
Q 18.65625 -7.46875 20.515625 -2.25 
Q 20.75 -1.515625 21.296875 -0.09375 
L 1.609375 51.859375 
L 11.078125 51.859375 
L 21.875 21.828125 
Q 23.96875 16.109375 25.640625 9.8125 
Q 27.15625 15.875 29.25 21.625 
L 40.328125 51.859375 
L 49.125 51.859375 
L 29.390625 -0.875 
Q 26.21875 -9.421875 24.46875 -12.640625 
Q 22.125 -17 19.09375 -19.015625 
Q 16.0625 -21.046875 11.859375 -21.046875 
Q 9.328125 -21.046875 6.203125 -19.96875 
" id="ArialMT-79"/>
     <path d="M 9.078125 0 
L 9.078125 10.015625 
L 19.09375 10.015625 
L 19.09375 0 
z
" id="ArialMT-2e"/>
     <path d="M 7.90625 0 
L 7.90625 71.578125 
L 59.671875 71.578125 
L 59.671875 63.140625 
L 17.390625 63.140625 
L 17.390625 41.21875 
L 56.984375 41.21875 
L 56.984375 32.8125 
L 17.390625 32.8125 
L 17.390625 8.453125 
L 61.328125 8.453125 
L 61.328125 0 
z
" id="ArialMT-45"/>
     <path d="M 0.734375 0 
L 19.671875 26.953125 
L 2.15625 51.859375 
L 13.140625 51.859375 
L 21.09375 39.703125 
Q 23.34375 36.234375 24.703125 33.890625 
Q 26.859375 37.109375 28.65625 39.59375 
L 37.40625 51.859375 
L 47.90625 51.859375 
L 29.984375 27.4375 
L 49.265625 0 
L 38.484375 0 
L 27.828125 16.109375 
L 25 20.453125 
L 11.375 0 
z
" id="ArialMT-78"/>
     <path d="M 40.578125 0 
L 40.578125 7.625 
Q 34.515625 -1.171875 24.125 -1.171875 
Q 19.53125 -1.171875 15.546875 0.578125 
Q 11.578125 2.34375 9.640625 5 
Q 7.71875 7.671875 6.9375 11.53125 
Q 6.390625 14.109375 6.390625 19.734375 
L 6.390625 51.859375 
L 15.1875 51.859375 
L 15.1875 23.09375 
Q 15.1875 16.21875 15.71875 13.8125 
Q 16.546875 10.359375 19.234375 8.375 
Q 21.921875 6.390625 25.875 6.390625 
Q 29.828125 6.390625 33.296875 8.421875 
Q 36.765625 10.453125 38.203125 13.9375 
Q 39.65625 17.4375 39.65625 24.078125 
L 39.65625 51.859375 
L 48.4375 51.859375 
L 48.4375 0 
z
" id="ArialMT-75"/>
     <path d="M 40.234375 0 
L 40.234375 6.546875 
Q 35.296875 -1.171875 25.734375 -1.171875 
Q 19.53125 -1.171875 14.328125 2.25 
Q 9.125 5.671875 6.265625 11.796875 
Q 3.421875 17.921875 3.421875 25.875 
Q 3.421875 33.640625 6 39.96875 
Q 8.59375 46.296875 13.765625 49.65625 
Q 18.953125 53.03125 25.34375 53.03125 
Q 30.03125 53.03125 33.6875 51.046875 
Q 37.359375 49.078125 39.65625 45.90625 
L 39.65625 71.578125 
L 48.390625 71.578125 
L 48.390625 0 
z
M 12.453125 25.875 
Q 12.453125 15.921875 16.640625 10.984375 
Q 20.84375 6.0625 26.5625 6.0625 
Q 32.328125 6.0625 36.34375 10.765625 
Q 40.375 15.484375 40.375 25.140625 
Q 40.375 35.796875 36.265625 40.765625 
Q 32.171875 45.75 26.171875 45.75 
Q 20.3125 45.75 16.375 40.96875 
Q 12.453125 36.1875 12.453125 25.875 
" id="ArialMT-64"/>
     <path d="M 21 0 
L 1.265625 51.859375 
L 10.546875 51.859375 
L 21.6875 20.796875 
Q 23.484375 15.765625 25 10.359375 
Q 26.171875 14.453125 28.265625 20.21875 
L 39.796875 51.859375 
L 48.828125 51.859375 
L 29.203125 0 
z
" id="ArialMT-76"/>
     <path d="M 3.078125 15.484375 
L 11.765625 16.84375 
Q 12.5 11.625 15.84375 8.84375 
Q 19.1875 6.0625 25.203125 6.0625 
Q 31.25 6.0625 34.171875 8.515625 
Q 37.109375 10.984375 37.109375 14.3125 
Q 37.109375 17.28125 34.515625 19 
Q 32.71875 20.171875 25.53125 21.96875 
Q 15.875 24.421875 12.140625 26.203125 
Q 8.40625 27.984375 6.46875 31.125 
Q 4.546875 34.28125 4.546875 38.09375 
Q 4.546875 41.546875 6.125 44.5 
Q 7.71875 47.46875 10.453125 49.421875 
Q 12.5 50.921875 16.03125 51.96875 
Q 19.578125 53.03125 23.640625 53.03125 
Q 29.734375 53.03125 34.34375 51.265625 
Q 38.96875 49.515625 41.15625 46.5 
Q 43.359375 43.5 44.1875 38.484375 
L 35.59375 37.3125 
Q 35.015625 41.3125 32.203125 43.546875 
Q 29.390625 45.796875 24.265625 45.796875 
Q 18.21875 45.796875 15.625 43.796875 
Q 13.03125 41.796875 13.03125 39.109375 
Q 13.03125 37.40625 14.109375 36.03125 
Q 15.1875 34.625 17.484375 33.6875 
Q 18.796875 33.203125 25.25 31.453125 
Q 34.578125 28.953125 38.25 27.359375 
Q 41.9375 25.78125 44.03125 22.75 
Q 46.140625 19.734375 46.140625 15.234375 
Q 46.140625 10.84375 43.578125 6.953125 
Q 41.015625 3.078125 36.171875 0.953125 
Q 31.34375 -1.171875 25.25 -1.171875 
Q 15.140625 -1.171875 9.84375 3.03125 
Q 4.546875 7.234375 3.078125 15.484375 
" id="ArialMT-73"/>
     <path d="M 6.390625 0 
L 6.390625 71.578125 
L 15.1875 71.578125 
L 15.1875 0 
z
" id="ArialMT-6c"/>
     <path d="M 6.59375 -19.875 
L 6.59375 51.859375 
L 14.59375 51.859375 
L 14.59375 45.125 
Q 17.4375 49.078125 21 51.046875 
Q 24.5625 53.03125 29.640625 53.03125 
Q 36.28125 53.03125 41.359375 49.609375 
Q 46.4375 46.1875 49.015625 39.953125 
Q 51.609375 33.734375 51.609375 26.3125 
Q 51.609375 18.359375 48.75 11.984375 
Q 45.90625 5.609375 40.453125 2.21875 
Q 35.015625 -1.171875 29 -1.171875 
Q 24.609375 -1.171875 21.109375 0.6875 
Q 17.625 2.546875 15.375 5.375 
L 15.375 -19.875 
z
M 14.546875 25.640625 
Q 14.546875 15.625 18.59375 10.84375 
Q 22.65625 6.0625 28.421875 6.0625 
Q 34.28125 6.0625 38.453125 11.015625 
Q 42.625 15.96875 42.625 26.375 
Q 42.625 36.28125 38.546875 41.203125 
Q 34.46875 46.140625 28.8125 46.140625 
Q 23.1875 46.140625 18.859375 40.890625 
Q 14.546875 35.640625 14.546875 25.640625 
" id="ArialMT-70"/>
    </defs>
    <g style="fill:#262626;" transform="translate(190.8375 23.8)scale(0.12 -0.12)">
     <use xlink:href="#ArialMT-45"/>
     <use x="66.69921875" xlink:href="#ArialMT-2e"/>
     <use x="94.482421875" xlink:href="#ArialMT-20"/>
     <use x="122.265625" xlink:href="#ArialMT-63"/>
     <use x="172.265625" xlink:href="#ArialMT-6f"/>
     <use x="227.880859375" xlink:href="#ArialMT-6c"/>
     <use x="250.09765625" xlink:href="#ArialMT-69"/>
     <use x="272.314453125" xlink:href="#ArialMT-20"/>
     <use x="300.09765625" xlink:href="#ArialMT-6d"/>
     <use x="383.3984375" xlink:href="#ArialMT-61"/>
     <use x="439.013671875" xlink:href="#ArialMT-78"/>
     <use x="489.013671875" xlink:href="#ArialMT-69"/>
     <use x="511.23046875" xlink:href="#ArialMT-6d"/>
     <use x="594.53125" xlink:href="#ArialMT-75"/>
     <use x="650.146484375" xlink:href="#ArialMT-6d"/>
     <use x="733.447265625" xlink:href="#ArialMT-20"/>
     <use x="761.23046875" xlink:href="#ArialMT-73"/>
     <use x="811.23046875" xlink:href="#ArialMT-75"/>
     <use x="866.845703125" xlink:href="#ArialMT-63"/>
     <use x="916.845703125" xlink:href="#ArialMT-63"/>
     <use x="966.845703125" xlink:href="#ArialMT-69"/>
     <use x="989.0625" xlink:href="#ArialMT-6e"/>
     <use x="1044.677734375" xlink:href="#ArialMT-61"/>
     <use x="1100.29296875" xlink:href="#ArialMT-74"/>
     <use x="1128.076171875" xlink:href="#ArialMT-65"/>
     <use x="1183.69140625" xlink:href="#ArialMT-20"/>
     <use x="1211.474609375" xlink:href="#ArialMT-70"/>
     <use x="1267.08984375" xlink:href="#ArialMT-72"/>
     <use x="1300.390625" xlink:href="#ArialMT-6f"/>
     <use x="1356.005859375" xlink:href="#ArialMT-64"/>
     <use x="1411.62109375" xlink:href="#ArialMT-75"/>
     <use x="1467.236328125" xlink:href="#ArialMT-63"/>
     <use x="1517.236328125" xlink:href="#ArialMT-69"/>
     <use x="1539.453125" xlink:href="#ArialMT-74"/>
     <use x="1567.236328125" xlink:href="#ArialMT-69"/>
     <use x="1589.453125" xlink:href="#ArialMT-76"/>
     <use x="1639.453125" xlink:href="#ArialMT-69"/>
     <use x="1661.669921875" xlink:href="#ArialMT-74"/>
     <use x="1689.453125" xlink:href="#ArialMT-79"/>
    </g>
   </g>
   <g id="legend_1">
    <g id="line2d_13">
     <path d="M 81 47.249006 
L 101 47.249006 
" style="fill:none;stroke:#4c72b0;stroke-linecap:round;stroke-width:1.75;"/>
    </g>
    <g id="line2d_14"/>
    <g id="text_13">
     <!-- Glucose -->
     <defs>
      <path d="M 41.21875 28.078125 
L 41.21875 36.46875 
L 71.53125 36.53125 
L 71.53125 9.96875 
Q 64.546875 4.390625 57.125 1.578125 
Q 49.703125 -1.21875 41.890625 -1.21875 
Q 31.34375 -1.21875 22.71875 3.296875 
Q 14.109375 7.8125 9.71875 16.359375 
Q 5.328125 24.90625 5.328125 35.453125 
Q 5.328125 45.90625 9.6875 54.953125 
Q 14.0625 64.015625 22.265625 68.40625 
Q 30.46875 72.796875 41.15625 72.796875 
Q 48.921875 72.796875 55.1875 70.28125 
Q 61.46875 67.78125 65.03125 63.28125 
Q 68.609375 58.796875 70.453125 51.5625 
L 61.921875 49.21875 
Q 60.296875 54.6875 57.90625 57.8125 
Q 55.515625 60.9375 51.0625 62.8125 
Q 46.625 64.703125 41.21875 64.703125 
Q 34.71875 64.703125 29.984375 62.71875 
Q 25.25 60.75 22.34375 57.515625 
Q 19.4375 54.296875 17.828125 50.4375 
Q 15.09375 43.796875 15.09375 36.03125 
Q 15.09375 26.46875 18.390625 20.015625 
Q 21.6875 13.578125 27.984375 10.453125 
Q 34.28125 7.328125 41.359375 7.328125 
Q 47.515625 7.328125 53.375 9.6875 
Q 59.234375 12.0625 62.25 14.75 
L 62.25 28.078125 
z
" id="ArialMT-47"/>
     </defs>
     <g style="fill:#262626;" transform="translate(109.0 50.7490056818)scale(0.1 -0.1)">
      <use xlink:href="#ArialMT-47"/>
      <use x="77.783203125" xlink:href="#ArialMT-6c"/>
      <use x="100.0" xlink:href="#ArialMT-75"/>
      <use x="155.615234375" xlink:href="#ArialMT-63"/>
      <use x="205.615234375" xlink:href="#ArialMT-6f"/>
      <use x="261.23046875" xlink:href="#ArialMT-73"/>
      <use x="311.23046875" xlink:href="#ArialMT-65"/>
     </g>
    </g>
    <g id="line2d_15">
     <path d="M 81 61.394318 
L 101 61.394318 
" style="fill:none;stroke:#55a868;stroke-linecap:round;stroke-width:1.75;"/>
    </g>
    <g id="line2d_16"/>
    <g id="text_14">
     <!-- Succinate -->
     <defs>
      <path d="M 4.5 23 
L 13.421875 23.78125 
Q 14.0625 18.40625 16.375 14.96875 
Q 18.703125 11.53125 23.578125 9.40625 
Q 28.46875 7.28125 34.578125 7.28125 
Q 39.984375 7.28125 44.140625 8.890625 
Q 48.296875 10.5 50.3125 13.296875 
Q 52.34375 16.109375 52.34375 19.4375 
Q 52.34375 22.796875 50.390625 25.3125 
Q 48.4375 27.828125 43.953125 29.546875 
Q 41.0625 30.671875 31.203125 33.03125 
Q 21.34375 35.40625 17.390625 37.5 
Q 12.25 40.1875 9.734375 44.15625 
Q 7.234375 48.140625 7.234375 53.078125 
Q 7.234375 58.5 10.296875 63.203125 
Q 13.375 67.921875 19.28125 70.359375 
Q 25.203125 72.796875 32.421875 72.796875 
Q 40.375 72.796875 46.453125 70.234375 
Q 52.546875 67.671875 55.8125 62.6875 
Q 59.078125 57.71875 59.328125 51.421875 
L 50.25 50.734375 
Q 49.515625 57.515625 45.28125 60.984375 
Q 41.0625 64.453125 32.8125 64.453125 
Q 24.21875 64.453125 20.28125 61.296875 
Q 16.359375 58.15625 16.359375 53.71875 
Q 16.359375 49.859375 19.140625 47.359375 
Q 21.875 44.875 33.421875 42.265625 
Q 44.96875 39.65625 49.265625 37.703125 
Q 55.515625 34.8125 58.484375 30.390625 
Q 61.46875 25.984375 61.46875 20.21875 
Q 61.46875 14.5 58.203125 9.4375 
Q 54.9375 4.390625 48.796875 1.578125 
Q 42.671875 -1.21875 35.015625 -1.21875 
Q 25.296875 -1.21875 18.71875 1.609375 
Q 12.15625 4.4375 8.421875 10.125 
Q 4.6875 15.828125 4.5 23 
" id="ArialMT-53"/>
     </defs>
     <g style="fill:#262626;" transform="translate(109.0 64.8943181818)scale(0.1 -0.1)">
      <use xlink:href="#ArialMT-53"/>
      <use x="66.69921875" xlink:href="#ArialMT-75"/>
      <use x="122.314453125" xlink:href="#ArialMT-63"/>
      <use x="172.314453125" xlink:href="#ArialMT-63"/>
      <use x="222.314453125" xlink:href="#ArialMT-69"/>
      <use x="244.53125" xlink:href="#ArialMT-6e"/>
      <use x="300.146484375" xlink:href="#ArialMT-61"/>
      <use x="355.76171875" xlink:href="#ArialMT-74"/>
      <use x="383.544921875" xlink:href="#ArialMT-65"/>
     </g>
    </g>
    <g id="line2d_17">
     <path d="M 81 75.539631 
L 101 75.539631 
" style="fill:none;stroke:#c44e52;stroke-linecap:round;stroke-width:1.75;"/>
    </g>
    <g id="line2d_18"/>
    <g id="text_15">
     <!-- Acetate -->
     <defs>
      <path d="M -0.140625 0 
L 27.34375 71.578125 
L 37.546875 71.578125 
L 66.84375 0 
L 56.0625 0 
L 47.703125 21.6875 
L 17.78125 21.6875 
L 9.90625 0 
z
M 20.515625 29.390625 
L 44.78125 29.390625 
L 37.3125 49.21875 
Q 33.890625 58.25 32.234375 64.0625 
Q 30.859375 57.171875 28.375 50.390625 
z
" id="ArialMT-41"/>
     </defs>
     <g style="fill:#262626;" transform="translate(109.0 79.0396306818)scale(0.1 -0.1)">
      <use xlink:href="#ArialMT-41"/>
      <use x="66.69921875" xlink:href="#ArialMT-63"/>
      <use x="116.69921875" xlink:href="#ArialMT-65"/>
      <use x="172.314453125" xlink:href="#ArialMT-74"/>
      <use x="200.09765625" xlink:href="#ArialMT-61"/>
      <use x="255.712890625" xlink:href="#ArialMT-74"/>
      <use x="283.49609375" xlink:href="#ArialMT-65"/>
     </g>
    </g>
    <g id="line2d_19">
     <path d="M 81 89.684943 
L 101 89.684943 
" style="fill:none;stroke:#ccb974;stroke-linecap:round;stroke-width:1.75;"/>
    </g>
    <g id="line2d_20"/>
    <g id="text_16">
     <!-- Biomass -->
     <defs>
      <path d="M 7.328125 0 
L 7.328125 71.578125 
L 34.1875 71.578125 
Q 42.390625 71.578125 47.34375 69.40625 
Q 52.296875 67.234375 55.09375 62.71875 
Q 57.90625 58.203125 57.90625 53.265625 
Q 57.90625 48.6875 55.421875 44.625 
Q 52.9375 40.578125 47.90625 38.09375 
Q 54.390625 36.1875 57.875 31.59375 
Q 61.375 27 61.375 20.75 
Q 61.375 15.71875 59.25 11.390625 
Q 57.125 7.078125 54 4.734375 
Q 50.875 2.390625 46.15625 1.1875 
Q 41.453125 0 34.625 0 
z
M 16.796875 41.5 
L 32.28125 41.5 
Q 38.578125 41.5 41.3125 42.328125 
Q 44.921875 43.40625 46.75 45.890625 
Q 48.578125 48.390625 48.578125 52.15625 
Q 48.578125 55.71875 46.875 58.421875 
Q 45.171875 61.140625 41.984375 62.140625 
Q 38.8125 63.140625 31.109375 63.140625 
L 16.796875 63.140625 
z
M 16.796875 8.453125 
L 34.625 8.453125 
Q 39.203125 8.453125 41.0625 8.796875 
Q 44.34375 9.375 46.53125 10.734375 
Q 48.734375 12.109375 50.140625 14.71875 
Q 51.5625 17.328125 51.5625 20.75 
Q 51.5625 24.75 49.515625 27.703125 
Q 47.46875 30.671875 43.828125 31.859375 
Q 40.1875 33.0625 33.34375 33.0625 
L 16.796875 33.0625 
z
" id="ArialMT-42"/>
     </defs>
     <g style="fill:#262626;" transform="translate(109.0 93.1849431818)scale(0.1 -0.1)">
      <use xlink:href="#ArialMT-42"/>
      <use x="66.69921875" xlink:href="#ArialMT-69"/>
      <use x="88.916015625" xlink:href="#ArialMT-6f"/>
      <use x="144.53125" xlink:href="#ArialMT-6d"/>
      <use x="227.83203125" xlink:href="#ArialMT-61"/>
      <use x="283.447265625" xlink:href="#ArialMT-73"/>
      <use x="333.447265625" xlink:href="#ArialMT-73"/>
     </g>
    </g>
   </g>
  </g>
  <g id="axes_2">
   <g id="matplotlib.axis_3">
    <g id="ytick_6">
     <g id="line2d_21">
      <defs>
       <path d="M 0 0 
L 6 0 
" id="m0e7aaf4960" style="stroke:#262626;"/>
      </defs>
      <g>
       <use style="fill:#262626;stroke:#262626;" x="518.4" xlink:href="#m0e7aaf4960" y="109.963636364"/>
      </g>
     </g>
     <g id="text_17">
      <!-- 0 -->
      <g style="fill:#262626;" transform="translate(531.4 112.548792614)scale(0.1 -0.1)">
       <use xlink:href="#ArialMT-30"/>
      </g>
     </g>
    </g>
    <g id="ytick_7">
     <g id="line2d_22">
      <g>
       <use style="fill:#262626;stroke:#262626;" x="518.4" xlink:href="#m0e7aaf4960" y="84.6"/>
      </g>
     </g>
     <g id="text_18">
      <!-- 5 -->
      <g style="fill:#262626;" transform="translate(531.4 87.18515625)scale(0.1 -0.1)">
       <use xlink:href="#ArialMT-35"/>
      </g>
     </g>
    </g>
    <g id="ytick_8">
     <g id="line2d_23">
      <g>
       <use style="fill:#262626;stroke:#262626;" x="518.4" xlink:href="#m0e7aaf4960" y="59.2363636364"/>
      </g>
     </g>
     <g id="text_19">
      <!-- 10 -->
      <g style="fill:#262626;" transform="translate(531.4 61.8215198864)scale(0.1 -0.1)">
       <use xlink:href="#ArialMT-31"/>
       <use x="55.615234375" xlink:href="#ArialMT-30"/>
      </g>
     </g>
    </g>
    <g id="ytick_9">
     <g id="line2d_24">
      <g>
       <use style="fill:#262626;stroke:#262626;" x="518.4" xlink:href="#m0e7aaf4960" y="33.8727272727"/>
      </g>
     </g>
     <g id="text_20">
      <!-- 15 -->
      <g style="fill:#262626;" transform="translate(531.4 36.4578835227)scale(0.1 -0.1)">
       <use xlink:href="#ArialMT-31"/>
       <use x="55.615234375" xlink:href="#ArialMT-35"/>
      </g>
     </g>
    </g>
    <g id="text_21">
     <!-- Biomass (g DCW/L) -->
     <defs>
      <path d="M 0 -1.21875 
L 20.75 72.796875 
L 27.78125 72.796875 
L 7.078125 -1.21875 
z
" id="ArialMT-2f"/>
      <path d="M 7.71875 0 
L 7.71875 71.578125 
L 32.375 71.578125 
Q 40.71875 71.578125 45.125 70.5625 
Q 51.265625 69.140625 55.609375 65.4375 
Q 61.28125 60.640625 64.078125 53.1875 
Q 66.890625 45.75 66.890625 36.1875 
Q 66.890625 28.03125 64.984375 21.734375 
Q 63.09375 15.4375 60.109375 11.296875 
Q 57.125 7.171875 53.578125 4.796875 
Q 50.046875 2.4375 45.046875 1.21875 
Q 40.046875 0 33.546875 0 
z
M 17.1875 8.453125 
L 32.46875 8.453125 
Q 39.546875 8.453125 43.578125 9.765625 
Q 47.609375 11.078125 50 13.484375 
Q 53.375 16.84375 55.25 22.53125 
Q 57.125 28.21875 57.125 36.328125 
Q 57.125 47.5625 53.4375 53.59375 
Q 49.75 59.625 44.484375 61.671875 
Q 40.671875 63.140625 32.234375 63.140625 
L 17.1875 63.140625 
z
" id="ArialMT-44"/>
      <path d="M 7.328125 0 
L 7.328125 71.578125 
L 16.796875 71.578125 
L 16.796875 8.453125 
L 52.046875 8.453125 
L 52.046875 0 
z
" id="ArialMT-4c"/>
      <path d="M 20.21875 0 
L 1.21875 71.578125 
L 10.9375 71.578125 
L 21.828125 24.65625 
Q 23.578125 17.28125 24.859375 10.015625 
Q 27.59375 21.484375 28.078125 23.25 
L 41.703125 71.578125 
L 53.125 71.578125 
L 63.375 35.359375 
Q 67.234375 21.875 68.953125 10.015625 
Q 70.3125 16.796875 72.515625 25.59375 
L 83.734375 71.578125 
L 93.265625 71.578125 
L 73.640625 0 
L 64.5 0 
L 49.421875 54.546875 
Q 47.515625 61.375 47.171875 62.9375 
Q 46.046875 58.015625 45.0625 54.546875 
L 29.890625 0 
z
" id="ArialMT-57"/>
      <path d="M 4.984375 -4.296875 
L 13.53125 -5.5625 
Q 14.0625 -9.515625 16.5 -11.328125 
Q 19.78125 -13.765625 25.4375 -13.765625 
Q 31.546875 -13.765625 34.859375 -11.328125 
Q 38.1875 -8.890625 39.359375 -4.5 
Q 40.046875 -1.8125 39.984375 6.78125 
Q 34.234375 0 25.640625 0 
Q 14.9375 0 9.078125 7.71875 
Q 3.21875 15.4375 3.21875 26.21875 
Q 3.21875 33.640625 5.90625 39.90625 
Q 8.59375 46.1875 13.6875 49.609375 
Q 18.796875 53.03125 25.6875 53.03125 
Q 34.859375 53.03125 40.828125 45.609375 
L 40.828125 51.859375 
L 48.921875 51.859375 
L 48.921875 7.03125 
Q 48.921875 -5.078125 46.453125 -10.125 
Q 44 -15.1875 38.640625 -18.109375 
Q 33.296875 -21.046875 25.484375 -21.046875 
Q 16.21875 -21.046875 10.5 -16.875 
Q 4.78125 -12.703125 4.984375 -4.296875 
M 12.25 26.859375 
Q 12.25 16.65625 16.296875 11.96875 
Q 20.359375 7.28125 26.46875 7.28125 
Q 32.515625 7.28125 36.609375 11.9375 
Q 40.71875 16.609375 40.71875 26.5625 
Q 40.71875 36.078125 36.5 40.90625 
Q 32.28125 45.75 26.3125 45.75 
Q 20.453125 45.75 16.34375 40.984375 
Q 12.25 36.234375 12.25 26.859375 
" id="ArialMT-67"/>
     </defs>
     <g style="fill:#262626;" transform="translate(555.52953125 117.970021307)rotate(-90.0)scale(0.11 -0.11)">
      <use xlink:href="#ArialMT-42"/>
      <use x="66.69921875" xlink:href="#ArialMT-69"/>
      <use x="88.916015625" xlink:href="#ArialMT-6f"/>
      <use x="144.53125" xlink:href="#ArialMT-6d"/>
      <use x="227.83203125" xlink:href="#ArialMT-61"/>
      <use x="283.447265625" xlink:href="#ArialMT-73"/>
      <use x="333.447265625" xlink:href="#ArialMT-73"/>
      <use x="383.447265625" xlink:href="#ArialMT-20"/>
      <use x="411.23046875" xlink:href="#ArialMT-28"/>
      <use x="444.53125" xlink:href="#ArialMT-67"/>
      <use x="500.146484375" xlink:href="#ArialMT-20"/>
      <use x="527.9296875" xlink:href="#ArialMT-44"/>
      <use x="600.146484375" xlink:href="#ArialMT-43"/>
      <use x="672.36328125" xlink:href="#ArialMT-57"/>
      <use x="766.748046875" xlink:href="#ArialMT-2f"/>
      <use x="794.53125" xlink:href="#ArialMT-4c"/>
      <use x="850.146484375" xlink:href="#ArialMT-29"/>
     </g>
    </g>
   </g>
   <g id="line2d_25">
    <path clip-path="url(#p2c4be153a6)" d="M 72 109.456364 
L 76.509202 109.427534 
L 81.018403 109.397077 
L 85.527605 109.36489 
L 90.036806 109.330874 
L 94.546008 109.294928 
L 99.055209 109.256941 
L 103.564411 109.21681 
L 108.073612 109.174403 
L 112.582814 109.129589 
L 117.092015 109.082233 
L 121.601217 109.032194 
L 126.110418 108.979333 
L 130.61962 108.923478 
L 135.128821 108.864455 
L 139.638023 108.80209 
L 144.147224 108.736201 
L 148.656426 108.666599 
L 153.165627 108.59306 
L 157.674829 108.51536 
L 162.18403 108.433268 
L 166.693232 108.346548 
L 171.202433 108.254951 
L 175.711635 108.158185 
L 180.220836 108.055957 
L 184.730038 107.947966 
L 189.239239 107.833906 
L 193.748441 107.713449 
L 198.257642 107.586215 
L 202.766844 107.451824 
L 207.276045 107.309883 
L 211.785247 107.159999 
L 216.294448 107.00174 
L 220.80365 106.834615 
L 225.312851 106.658133 
L 229.822053 106.471785 
L 234.331254 106.275067 
L 238.840456 106.067414 
L 243.349658 105.848197 
L 247.858859 105.616786 
L 252.368061 105.372527 
L 256.877262 105.114776 
L 261.386464 104.842803 
L 265.895665 104.555809 
L 270.404867 104.252994 
L 274.914068 103.93353 
L 279.42327 103.596597 
L 283.932471 103.24127 
L 288.441673 102.866548 
L 292.950874 102.471433 
L 297.460076 102.054887 
L 301.969277 101.61589 
L 306.478479 101.153288 
L 310.98768 100.66586 
L 315.496882 100.152387 
L 320.006083 99.611609 
L 324.515285 99.042274 
L 329.024486 98.443 
L 333.533688 97.81235 
L 338.042889 97.148889 
L 342.552091 96.451154 
L 347.061292 95.717661 
L 351.570494 94.946848 
L 356.079695 94.137127 
L 360.588897 93.286913 
L 365.098098 92.39463 
L 369.6073 91.458621 
L 374.116501 90.4773 
L 378.625703 89.449108 
L 383.134904 88.372485 
L 387.644106 87.245969 
L 392.153307 86.067901 
L 396.662509 84.837019 
L 401.17171 83.552153 
L 405.680912 82.212131 
L 410.190114 80.816038 
L 414.699315 79.362593 
L 419.208517 77.851468 
L 423.717718 76.282495 
L 428.22692 74.655506 
L 432.736121 72.970821 
L 437.245323 71.22822 
L 441.754524 69.429183 
L 446.263726 67.575403 
L 450.772927 65.668572 
L 455.282129 63.711154 
L 459.79133 61.704938 
L 464.300532 59.654218 
L 468.809733 57.563508 
L 473.318935 55.437319 
L 477.828136 53.281333 
L 482.337338 51.100129 
L 486.846539 48.902032 
L 491.355741 46.695573 
L 495.864942 44.489283 
L 500.374144 42.294614 
L 504.883345 40.117652 
L 509.392547 37.976248 
L 513.901748 35.888555 
L 518.41095 33.872727 
" style="fill:none;stroke:#ccb974;stroke-linecap:round;stroke-width:1.75;"/>
   </g>
   <g id="patch_7">
    <path d="M 72 109.963636 
L 72 28.8 
" style="fill:none;stroke:#262626;stroke-linecap:square;stroke-linejoin:miter;stroke-width:1.25;"/>
   </g>
   <g id="patch_8">
    <path d="M 72 109.963636 
L 518.4 109.963636 
" style="fill:none;stroke:#262626;stroke-linecap:square;stroke-linejoin:miter;stroke-width:1.25;"/>
   </g>
   <g id="patch_9">
    <path d="M 518.4 109.963636 
L 518.4 28.8 
" style="fill:none;stroke:#262626;stroke-linecap:square;stroke-linejoin:miter;stroke-width:1.25;"/>
   </g>
  </g>
  <g id="axes_3">
   <g id="patch_10">
    <path d="M 72 252 
L 196 252 
L 196 170.836364 
L 72 170.836364 
z
" style="fill:#ffffff;"/>
   </g>
   <g id="matplotlib.axis_4">
    <g id="xtick_5">
     <g id="line2d_26">
      <g>
       <use style="fill:#262626;stroke:#262626;" x="72.0" xlink:href="#m0ae85901b7" y="252.0"/>
      </g>
     </g>
     <g id="text_22">
      <!-- 0 -->
      <g style="fill:#262626;" transform="translate(69.21953125 272.1578125)scale(0.1 -0.1)">
       <use xlink:href="#ArialMT-30"/>
      </g>
     </g>
    </g>
    <g id="xtick_6">
     <g id="line2d_27">
      <g>
       <use style="fill:#262626;stroke:#262626;" x="112.456769984" xlink:href="#m0ae85901b7" y="252.0"/>
      </g>
     </g>
     <g id="text_23">
      <!-- 5 -->
      <g style="fill:#262626;" transform="translate(109.676301234 272.1578125)scale(0.1 -0.1)">
       <use xlink:href="#ArialMT-35"/>
      </g>
     </g>
    </g>
    <g id="xtick_7">
     <g id="line2d_28">
      <g>
       <use style="fill:#262626;stroke:#262626;" x="152.913539967" xlink:href="#m0ae85901b7" y="252.0"/>
      </g>
     </g>
     <g id="text_24">
      <!-- 10 -->
      <g style="fill:#262626;" transform="translate(147.352602467 272.1578125)scale(0.1 -0.1)">
       <use xlink:href="#ArialMT-31"/>
       <use x="55.615234375" xlink:href="#ArialMT-30"/>
      </g>
     </g>
    </g>
    <g id="xtick_8">
     <g id="line2d_29">
      <g>
       <use style="fill:#262626;stroke:#262626;" x="193.370309951" xlink:href="#m0ae85901b7" y="252.0"/>
      </g>
     </g>
     <g id="text_25">
      <!-- 15 -->
      <g style="fill:#262626;" transform="translate(187.809372451 272.1578125)scale(0.1 -0.1)">
       <use xlink:href="#ArialMT-31"/>
       <use x="55.615234375" xlink:href="#ArialMT-35"/>
      </g>
     </g>
    </g>
   </g>
   <g id="matplotlib.axis_5">
    <g id="ytick_10">
     <g id="line2d_30">
      <g>
       <use style="fill:#262626;stroke:#262626;" x="72.0" xlink:href="#m049011b8a8" y="244.621487603"/>
      </g>
     </g>
     <g id="text_26">
      <!-- 10 -->
      <g style="fill:#262626;" transform="translate(47.878125 247.206643853)scale(0.1 -0.1)">
       <use xlink:href="#ArialMT-31"/>
       <use x="55.615234375" xlink:href="#ArialMT-30"/>
      </g>
     </g>
    </g>
    <g id="ytick_11">
     <g id="line2d_31">
      <g>
       <use style="fill:#262626;stroke:#262626;" x="72.0" xlink:href="#m049011b8a8" y="226.175206612"/>
      </g>
     </g>
     <g id="text_27">
      <!-- 15 -->
      <g style="fill:#262626;" transform="translate(47.878125 228.760362862)scale(0.1 -0.1)">
       <use xlink:href="#ArialMT-31"/>
       <use x="55.615234375" xlink:href="#ArialMT-35"/>
      </g>
     </g>
    </g>
    <g id="ytick_12">
     <g id="line2d_32">
      <g>
       <use style="fill:#262626;stroke:#262626;" x="72.0" xlink:href="#m049011b8a8" y="207.72892562"/>
      </g>
     </g>
     <g id="text_28">
      <!-- 20 -->
      <g style="fill:#262626;" transform="translate(47.878125 210.31408187)scale(0.1 -0.1)">
       <use xlink:href="#ArialMT-32"/>
       <use x="55.615234375" xlink:href="#ArialMT-30"/>
      </g>
     </g>
    </g>
    <g id="ytick_13">
     <g id="line2d_33">
      <g>
       <use style="fill:#262626;stroke:#262626;" x="72.0" xlink:href="#m049011b8a8" y="189.282644628"/>
      </g>
     </g>
     <g id="text_29">
      <!-- 25 -->
      <g style="fill:#262626;" transform="translate(47.878125 191.867800878)scale(0.1 -0.1)">
       <use xlink:href="#ArialMT-32"/>
       <use x="55.615234375" xlink:href="#ArialMT-35"/>
      </g>
     </g>
    </g>
    <g id="ytick_14">
     <g id="line2d_34">
      <g>
       <use style="fill:#262626;stroke:#262626;" x="72.0" xlink:href="#m049011b8a8" y="170.836363636"/>
      </g>
     </g>
     <g id="text_30">
      <!-- 30 -->
      <g style="fill:#262626;" transform="translate(47.878125 173.421519886)scale(0.1 -0.1)">
       <use xlink:href="#ArialMT-33"/>
       <use x="55.615234375" xlink:href="#ArialMT-30"/>
      </g>
     </g>
    </g>
    <g id="text_31">
     <!-- mM / g DCW * hr -->
     <defs>
      <path d="M 3.125 58.453125 
L 5.375 65.375 
Q 13.140625 62.640625 16.65625 60.640625 
Q 15.71875 69.484375 15.671875 72.796875 
L 22.75 72.796875 
Q 22.609375 67.96875 21.625 60.6875 
Q 26.65625 63.234375 33.15625 65.375 
L 35.40625 58.453125 
Q 29.203125 56.390625 23.25 55.71875 
Q 26.21875 53.125 31.640625 46.484375 
L 25.78125 42.328125 
Q 22.953125 46.1875 19.09375 52.828125 
Q 15.484375 45.953125 12.75 42.328125 
L 6.984375 46.484375 
Q 12.640625 53.46875 15.09375 55.71875 
Q 8.796875 56.9375 3.125 58.453125 
" id="ArialMT-2a"/>
     </defs>
     <g style="fill:#262626;" transform="translate(40.56296875 252.973259943)rotate(-90.0)scale(0.11 -0.11)">
      <use xlink:href="#ArialMT-6d"/>
      <use x="83.30078125" xlink:href="#ArialMT-4d"/>
      <use x="166.6015625" xlink:href="#ArialMT-20"/>
      <use x="194.384765625" xlink:href="#ArialMT-2f"/>
      <use x="222.16796875" xlink:href="#ArialMT-20"/>
      <use x="249.951171875" xlink:href="#ArialMT-67"/>
      <use x="305.56640625" xlink:href="#ArialMT-20"/>
      <use x="333.349609375" xlink:href="#ArialMT-44"/>
      <use x="405.56640625" xlink:href="#ArialMT-43"/>
      <use x="477.783203125" xlink:href="#ArialMT-57"/>
      <use x="572.16796875" xlink:href="#ArialMT-20"/>
      <use x="599.951171875" xlink:href="#ArialMT-2a"/>
      <use x="638.8671875" xlink:href="#ArialMT-20"/>
      <use x="666.650390625" xlink:href="#ArialMT-68"/>
      <use x="722.265625" xlink:href="#ArialMT-72"/>
     </g>
    </g>
   </g>
   <g id="patch_11">
    <path clip-path="url(#pea8783e5ab)" d="M 72 252 
L 72 170.836364 
L 196.003042 170.836364 
L 196.003042 252 
z
" style="fill:#e8f6f2;"/>
   </g>
   <g id="line2d_35">
    <path clip-path="url(#pea8783e5ab)" d="M 72 215.53786 
L 73.252556 215.57296 
L 74.505112 215.582361 
L 75.757668 215.580977 
L 77.010224 215.580935 
L 78.26278 215.567759 
L 79.515336 215.602527 
L 80.767892 215.612703 
L 82.020448 215.612944 
L 83.273004 215.615162 
L 84.52556 215.606521 
L 85.778116 215.641502 
L 87.030672 215.653065 
L 88.283228 215.655586 
L 89.535784 215.660738 
L 90.78834 215.657194 
L 92.040896 215.693103 
L 93.293452 215.706873 
L 94.546008 215.712556 
L 95.798564 215.721551 
L 97.05112 215.723918 
L 98.303675 215.761722 
L 99.556231 215.778808 
L 100.808787 215.788852 
L 102.061343 215.802928 
L 103.313899 215.81237 
L 104.566455 215.853391 
L 105.819011 215.875319 
L 107.071567 215.89137 
L 108.324123 215.912232 
L 109.576679 215.930412 
L 110.829235 215.976484 
L 112.081791 216.00537 
L 113.334347 216.029719 
L 114.586903 216.059742 
L 115.839459 216.089041 
L 117.092015 216.14274 
L 118.344571 216.18156 
L 119.597127 216.217431 
L 120.849683 216.259966 
L 122.102239 216.303801 
L 123.354795 216.368797 
L 124.607351 216.421784 
L 125.859907 216.473768 
L 127.112463 216.533586 
L 128.365019 216.596897 
L 129.617575 216.678473 
L 130.870131 216.75171 
L 132.122687 216.8264 
L 133.375243 216.910363 
L 134.627799 217.000314 
L 135.880355 217.106147 
L 137.132911 217.208432 
L 138.385467 217.315349 
L 139.638023 217.433366 
L 140.890579 217.560362 
L 142.143135 217.701651 
L 143.395691 217.845717 
L 144.648247 217.998591 
L 145.900803 218.164948 
L 147.153359 218.344024 
L 148.405915 218.537047 
L 149.658471 218.741165 
L 150.911026 218.959585 
L 152.163582 219.194624 
L 153.416138 219.447183 
L 154.668694 219.715219 
L 155.92125 220.005037 
L 157.173806 220.316245 
L 158.426362 220.648159 
L 159.678918 221.003758 
L 160.931474 221.378988 
L 162.18403 221.789014 
L 163.436586 222.229142 
L 164.689142 222.695104 
L 165.941698 223.19244 
L 167.194254 223.716693 
L 168.44681 224.290118 
L 169.699366 224.903432 
L 170.951922 225.54857 
L 172.204478 226.234001 
L 173.457034 226.95637 
L 174.70959 227.7414 
L 175.962146 228.575864 
L 177.214702 229.448474 
L 178.467258 230.370591 
L 179.719814 231.34056 
L 180.97237 232.383734 
L 182.224926 233.484723 
L 183.477482 234.630577 
L 184.730038 235.83513 
L 185.982594 237.098877 
L 187.23515 238.450983 
L 188.487706 239.875544 
L 189.740262 241.359458 
L 190.992818 242.920496 
L 192.245374 244.575752 
L 193.49793 246.41438 
L 194.750486 248.415019 
L 196.003042 250.56119 
" style="fill:none;stroke:#4c72b0;stroke-linecap:round;stroke-width:1.75;"/>
   </g>
   <g id="line2d_36">
    <path clip-path="url(#pea8783e5ab)" d="M 72 250.56119 
L 73.252556 250.56119 
L 74.505112 250.56119 
L 75.757668 250.56119 
L 77.010224 250.56119 
L 78.26278 250.56119 
L 79.515336 250.56119 
L 80.767892 250.56119 
L 82.020448 250.56119 
L 83.273004 250.56119 
L 84.52556 250.56119 
L 85.778116 250.56119 
L 87.030672 250.56119 
L 88.283228 250.56119 
L 89.535784 250.56119 
L 90.78834 250.56119 
L 92.040896 250.56119 
L 93.293452 250.56119 
L 94.546008 250.56119 
L 95.798564 250.56119 
L 97.05112 250.56119 
L 98.303675 250.56119 
L 99.556231 250.56119 
L 100.808787 250.56119 
L 102.061343 250.56119 
L 103.313899 250.56119 
L 104.566455 250.56119 
L 105.819011 250.56119 
L 107.071567 250.56119 
L 108.324123 250.56119 
L 109.576679 250.56119 
L 110.829235 250.56119 
L 112.081791 250.56119 
L 113.334347 250.56119 
L 114.586903 250.56119 
L 115.839459 250.56119 
L 117.092015 250.56119 
L 118.344571 250.56119 
L 119.597127 250.56119 
L 120.849683 250.56119 
L 122.102239 250.56119 
L 123.354795 250.56119 
L 124.607351 250.56119 
L 125.859907 250.56119 
L 127.112463 250.56119 
L 128.365019 250.56119 
L 129.617575 250.56119 
L 130.870131 250.56119 
L 132.122687 250.56119 
L 133.375243 250.56119 
L 134.627799 250.56119 
L 135.880355 250.56119 
L 137.132911 250.56119 
L 138.385467 250.56119 
L 139.638023 250.56119 
L 140.890579 250.56119 
L 142.143135 250.56119 
L 143.395691 250.56119 
L 144.648247 250.56119 
L 145.900803 250.56119 
L 147.153359 250.56119 
L 148.405915 250.56119 
L 149.658471 250.56119 
L 150.911026 250.56119 
L 152.163582 250.56119 
L 153.416138 250.56119 
L 154.668694 250.56119 
L 155.92125 250.56119 
L 157.173806 250.56119 
L 158.426362 250.56119 
L 159.678918 250.56119 
L 160.931474 250.56119 
L 162.18403 250.56119 
L 163.436586 250.56119 
L 164.689142 250.56119 
L 165.941698 250.56119 
L 167.194254 250.56119 
L 168.44681 250.56119 
L 169.699366 250.56119 
L 170.951922 250.56119 
L 172.204478 250.56119 
L 173.457034 250.56119 
L 174.70959 250.56119 
L 175.962146 250.56119 
L 177.214702 250.56119 
L 178.467258 250.56119 
L 179.719814 250.56119 
L 180.97237 250.56119 
L 182.224926 250.56119 
L 183.477482 250.56119 
L 184.730038 250.56119 
L 185.982594 250.56119 
L 187.23515 250.56119 
L 188.487706 250.56119 
L 189.740262 250.56119 
L 190.992818 250.56119 
L 192.245374 250.56119 
L 193.49793 250.56119 
L 194.750486 250.56119 
L 196.003042 250.56119 
" style="fill:none;stroke:#c44e52;stroke-dasharray:6.000000,6.000000;stroke-dashoffset:0.0;stroke-width:1.75;"/>
   </g>
   <g id="patch_12">
    <path d="M 72 252 
L 72 170.836364 
" style="fill:none;stroke:#262626;stroke-linecap:square;stroke-linejoin:miter;stroke-width:1.25;"/>
   </g>
   <g id="patch_13">
    <path d="M 72 252 
L 196 252 
" style="fill:none;stroke:#262626;stroke-linecap:square;stroke-linejoin:miter;stroke-width:1.25;"/>
   </g>
   <g id="text_32">
    <!-- ATP Maintenance -->
    <defs>
     <path d="M 7.71875 0 
L 7.71875 71.578125 
L 34.71875 71.578125 
Q 41.84375 71.578125 45.609375 70.90625 
Q 50.875 70.015625 54.4375 67.546875 
Q 58.015625 65.09375 60.1875 60.640625 
Q 62.359375 56.203125 62.359375 50.875 
Q 62.359375 41.75 56.546875 35.421875 
Q 50.734375 29.109375 35.546875 29.109375 
L 17.1875 29.109375 
L 17.1875 0 
z
M 17.1875 37.546875 
L 35.6875 37.546875 
Q 44.875 37.546875 48.734375 40.96875 
Q 52.59375 44.390625 52.59375 50.59375 
Q 52.59375 55.078125 50.3125 58.265625 
Q 48.046875 61.46875 44.34375 62.5 
Q 41.9375 63.140625 35.5 63.140625 
L 17.1875 63.140625 
z
" id="ArialMT-50"/>
    </defs>
    <g style="fill:#262626;" transform="translate(86.3178125 165.836363636)scale(0.12 -0.12)">
     <use xlink:href="#ArialMT-41"/>
     <use x="66.58984375" xlink:href="#ArialMT-54"/>
     <use x="127.673828125" xlink:href="#ArialMT-50"/>
     <use x="194.357421875" xlink:href="#ArialMT-20"/>
     <use x="222.140625" xlink:href="#ArialMT-4d"/>
     <use x="305.44140625" xlink:href="#ArialMT-61"/>
     <use x="361.056640625" xlink:href="#ArialMT-69"/>
     <use x="383.2734375" xlink:href="#ArialMT-6e"/>
     <use x="438.888671875" xlink:href="#ArialMT-74"/>
     <use x="466.671875" xlink:href="#ArialMT-65"/>
     <use x="522.287109375" xlink:href="#ArialMT-6e"/>
     <use x="577.90234375" xlink:href="#ArialMT-61"/>
     <use x="633.517578125" xlink:href="#ArialMT-6e"/>
     <use x="689.1328125" xlink:href="#ArialMT-63"/>
     <use x="739.1328125" xlink:href="#ArialMT-65"/>
    </g>
   </g>
  </g>
  <g id="axes_4">
   <g id="patch_14">
    <path d="M 233.2 252 
L 357.2 252 
L 357.2 170.836364 
L 233.2 170.836364 
z
" style="fill:#ffffff;"/>
   </g>
   <g id="matplotlib.axis_6">
    <g id="xtick_9">
     <g id="line2d_37">
      <g>
       <use style="fill:#262626;stroke:#262626;" x="233.2" xlink:href="#m0ae85901b7" y="252.0"/>
      </g>
     </g>
     <g id="text_33">
      <!-- 0 -->
      <g style="fill:#262626;" transform="translate(230.41953125 272.1578125)scale(0.1 -0.1)">
       <use xlink:href="#ArialMT-30"/>
      </g>
     </g>
    </g>
    <g id="xtick_10">
     <g id="line2d_38">
      <g>
       <use style="fill:#262626;stroke:#262626;" x="273.656769984" xlink:href="#m0ae85901b7" y="252.0"/>
      </g>
     </g>
     <g id="text_34">
      <!-- 5 -->
      <g style="fill:#262626;" transform="translate(270.876301234 272.1578125)scale(0.1 -0.1)">
       <use xlink:href="#ArialMT-35"/>
      </g>
     </g>
    </g>
    <g id="xtick_11">
     <g id="line2d_39">
      <g>
       <use style="fill:#262626;stroke:#262626;" x="314.113539967" xlink:href="#m0ae85901b7" y="252.0"/>
      </g>
     </g>
     <g id="text_35">
      <!-- 10 -->
      <g style="fill:#262626;" transform="translate(308.552602467 272.1578125)scale(0.1 -0.1)">
       <use xlink:href="#ArialMT-31"/>
       <use x="55.615234375" xlink:href="#ArialMT-30"/>
      </g>
     </g>
    </g>
    <g id="xtick_12">
     <g id="line2d_40">
      <g>
       <use style="fill:#262626;stroke:#262626;" x="354.570309951" xlink:href="#m0ae85901b7" y="252.0"/>
      </g>
     </g>
     <g id="text_36">
      <!-- 15 -->
      <g style="fill:#262626;" transform="translate(349.009372451 272.1578125)scale(0.1 -0.1)">
       <use xlink:href="#ArialMT-31"/>
       <use x="55.615234375" xlink:href="#ArialMT-35"/>
      </g>
     </g>
    </g>
    <g id="text_37">
     <!-- Time (hr) -->
     <g style="fill:#262626;" transform="translate(272.9009375 287.15296875)scale(0.11 -0.11)">
      <use xlink:href="#ArialMT-54"/>
      <use x="61.037109375" xlink:href="#ArialMT-69"/>
      <use x="83.25390625" xlink:href="#ArialMT-6d"/>
      <use x="166.5546875" xlink:href="#ArialMT-65"/>
      <use x="222.169921875" xlink:href="#ArialMT-20"/>
      <use x="249.953125" xlink:href="#ArialMT-28"/>
      <use x="283.25390625" xlink:href="#ArialMT-68"/>
      <use x="338.869140625" xlink:href="#ArialMT-72"/>
      <use x="372.169921875" xlink:href="#ArialMT-29"/>
     </g>
    </g>
   </g>
   <g id="matplotlib.axis_7">
    <g id="ytick_15">
     <g id="line2d_41">
      <g>
       <use style="fill:#262626;stroke:#262626;" x="233.2" xlink:href="#m049011b8a8" y="252.0"/>
      </g>
     </g>
     <g id="text_38">
      <!-- 0 -->
      <g style="fill:#262626;" transform="translate(214.6390625 254.58515625)scale(0.1 -0.1)">
       <use xlink:href="#ArialMT-30"/>
      </g>
     </g>
    </g>
    <g id="ytick_16">
     <g id="line2d_42">
      <g>
       <use style="fill:#262626;stroke:#262626;" x="233.2" xlink:href="#m049011b8a8" y="235.767272727"/>
      </g>
     </g>
     <g id="text_39">
      <!-- 2 -->
      <g style="fill:#262626;" transform="translate(214.6390625 238.352428977)scale(0.1 -0.1)">
       <use xlink:href="#ArialMT-32"/>
      </g>
     </g>
    </g>
    <g id="ytick_17">
     <g id="line2d_43">
      <g>
       <use style="fill:#262626;stroke:#262626;" x="233.2" xlink:href="#m049011b8a8" y="219.534545455"/>
      </g>
     </g>
     <g id="text_40">
      <!-- 4 -->
      <g style="fill:#262626;" transform="translate(214.6390625 222.119701705)scale(0.1 -0.1)">
       <use xlink:href="#ArialMT-34"/>
      </g>
     </g>
    </g>
    <g id="ytick_18">
     <g id="line2d_44">
      <g>
       <use style="fill:#262626;stroke:#262626;" x="233.2" xlink:href="#m049011b8a8" y="203.301818182"/>
      </g>
     </g>
     <g id="text_41">
      <!-- 6 -->
      <defs>
       <path d="M 49.75 54.046875 
L 41.015625 53.375 
Q 39.84375 58.546875 37.703125 60.890625 
Q 34.125 64.65625 28.90625 64.65625 
Q 24.703125 64.65625 21.53125 62.3125 
Q 17.390625 59.28125 14.984375 53.46875 
Q 12.59375 47.65625 12.5 36.921875 
Q 15.671875 41.75 20.265625 44.09375 
Q 24.859375 46.4375 29.890625 46.4375 
Q 38.671875 46.4375 44.84375 39.96875 
Q 51.03125 33.5 51.03125 23.25 
Q 51.03125 16.5 48.125 10.71875 
Q 45.21875 4.9375 40.140625 1.859375 
Q 35.0625 -1.21875 28.609375 -1.21875 
Q 17.625 -1.21875 10.6875 6.859375 
Q 3.765625 14.9375 3.765625 33.5 
Q 3.765625 54.25 11.421875 63.671875 
Q 18.109375 71.875 29.4375 71.875 
Q 37.890625 71.875 43.28125 67.140625 
Q 48.6875 62.40625 49.75 54.046875 
M 13.875 23.1875 
Q 13.875 18.65625 15.796875 14.5 
Q 17.71875 10.359375 21.1875 8.171875 
Q 24.65625 6 28.46875 6 
Q 34.03125 6 38.03125 10.484375 
Q 42.046875 14.984375 42.046875 22.703125 
Q 42.046875 30.125 38.078125 34.390625 
Q 34.125 38.671875 28.125 38.671875 
Q 22.171875 38.671875 18.015625 34.390625 
Q 13.875 30.125 13.875 23.1875 
" id="ArialMT-36"/>
      </defs>
      <g style="fill:#262626;" transform="translate(214.6390625 205.886974432)scale(0.1 -0.1)">
       <use xlink:href="#ArialMT-36"/>
      </g>
     </g>
    </g>
    <g id="ytick_19">
     <g id="line2d_45">
      <g>
       <use style="fill:#262626;stroke:#262626;" x="233.2" xlink:href="#m049011b8a8" y="187.069090909"/>
      </g>
     </g>
     <g id="text_42">
      <!-- 8 -->
      <defs>
       <path d="M 17.671875 38.8125 
Q 12.203125 40.828125 9.5625 44.53125 
Q 6.9375 48.25 6.9375 53.421875 
Q 6.9375 61.234375 12.546875 66.546875 
Q 18.171875 71.875 27.484375 71.875 
Q 36.859375 71.875 42.578125 66.421875 
Q 48.296875 60.984375 48.296875 53.171875 
Q 48.296875 48.1875 45.671875 44.5 
Q 43.0625 40.828125 37.75 38.8125 
Q 44.34375 36.671875 47.78125 31.875 
Q 51.21875 27.09375 51.21875 20.453125 
Q 51.21875 11.28125 44.71875 5.03125 
Q 38.234375 -1.21875 27.640625 -1.21875 
Q 17.046875 -1.21875 10.546875 5.046875 
Q 4.046875 11.328125 4.046875 20.703125 
Q 4.046875 27.6875 7.59375 32.390625 
Q 11.140625 37.109375 17.671875 38.8125 
M 15.921875 53.71875 
Q 15.921875 48.640625 19.1875 45.40625 
Q 22.46875 42.1875 27.6875 42.1875 
Q 32.765625 42.1875 36.015625 45.375 
Q 39.265625 48.578125 39.265625 53.21875 
Q 39.265625 58.0625 35.90625 61.359375 
Q 32.5625 64.65625 27.59375 64.65625 
Q 22.5625 64.65625 19.234375 61.421875 
Q 15.921875 58.203125 15.921875 53.71875 
M 13.09375 20.65625 
Q 13.09375 16.890625 14.875 13.375 
Q 16.65625 9.859375 20.171875 7.921875 
Q 23.6875 6 27.734375 6 
Q 34.03125 6 38.125 10.046875 
Q 42.234375 14.109375 42.234375 20.359375 
Q 42.234375 26.703125 38.015625 30.859375 
Q 33.796875 35.015625 27.4375 35.015625 
Q 21.234375 35.015625 17.15625 30.90625 
Q 13.09375 26.8125 13.09375 20.65625 
" id="ArialMT-38"/>
      </defs>
      <g style="fill:#262626;" transform="translate(214.6390625 189.654247159)scale(0.1 -0.1)">
       <use xlink:href="#ArialMT-38"/>
      </g>
     </g>
    </g>
    <g id="ytick_20">
     <g id="line2d_46">
      <g>
       <use style="fill:#262626;stroke:#262626;" x="233.2" xlink:href="#m049011b8a8" y="170.836363636"/>
      </g>
     </g>
     <g id="text_43">
      <!-- 10 -->
      <g style="fill:#262626;" transform="translate(209.078125 173.421519886)scale(0.1 -0.1)">
       <use xlink:href="#ArialMT-31"/>
       <use x="55.615234375" xlink:href="#ArialMT-30"/>
      </g>
     </g>
    </g>
   </g>
   <g id="patch_15">
    <path clip-path="url(#p27c2e07118)" d="M 233.2 252 
L 233.2 170.836364 
L 357.203042 170.836364 
L 357.203042 252 
z
" style="fill:#e8f6f2;"/>
   </g>
   <g id="line2d_47">
    <path clip-path="url(#p27c2e07118)" d="M 233.2 187.719266 
L 234.452556 187.753463 
L 235.705112 187.762623 
L 236.957668 187.761274 
L 238.210224 187.761234 
L 239.46278 187.748396 
L 240.715336 187.782271 
L 241.967892 187.792185 
L 243.220448 187.79242 
L 244.473004 187.794581 
L 245.72556 187.786162 
L 246.978116 187.820244 
L 248.230672 187.83151 
L 249.483228 187.833966 
L 250.735784 187.838986 
L 251.98834 187.835533 
L 253.240896 187.87052 
L 254.493452 187.883935 
L 255.746008 187.889472 
L 256.998564 187.898236 
L 258.25112 187.900542 
L 259.503675 187.937374 
L 260.756231 187.954022 
L 262.008787 187.963808 
L 263.261343 187.977522 
L 264.513899 187.986721 
L 265.766455 188.026688 
L 267.019011 188.048052 
L 268.271567 188.063691 
L 269.524123 188.084017 
L 270.776679 188.10173 
L 272.029235 188.146618 
L 273.281791 188.174761 
L 274.534347 188.198484 
L 275.786903 188.227737 
L 277.039459 188.256282 
L 278.292015 188.308602 
L 279.544571 188.346424 
L 280.797127 188.381373 
L 282.049683 188.422815 
L 283.302239 188.465524 
L 284.554795 188.528849 
L 285.807351 188.580474 
L 287.059907 188.631123 
L 288.312463 188.689404 
L 289.565019 188.751088 
L 290.817575 188.830567 
L 292.070131 188.901922 
L 293.322687 188.974693 
L 294.575243 189.056498 
L 295.827799 189.144138 
L 297.080355 189.24725 
L 298.332911 189.346907 
L 299.585467 189.451076 
L 300.838023 189.566061 
L 302.090579 189.689793 
L 303.343135 189.827452 
L 304.595691 189.967816 
L 305.848247 190.116761 
L 307.100803 190.278843 
L 308.353359 190.453316 
L 309.605915 190.641379 
L 310.858471 190.840252 
L 312.111026 191.053059 
L 313.363582 191.282059 
L 314.616138 191.528127 
L 315.868694 191.789275 
L 317.12125 192.071645 
L 318.373806 192.374856 
L 319.626362 192.69824 
L 320.878918 193.044702 
L 322.131474 193.410288 
L 323.38403 193.809778 
L 324.636586 194.238595 
L 325.889142 194.692583 
L 327.141698 195.177138 
L 328.394254 195.687919 
L 329.64681 196.246608 
L 330.899366 196.844162 
L 332.151922 197.472721 
L 333.404478 198.140538 
L 334.657034 198.844343 
L 335.90959 199.609199 
L 337.162146 200.42222 
L 338.414702 201.272405 
L 339.667258 202.170825 
L 340.919814 203.115868 
L 342.17237 204.132234 
L 343.424926 205.204931 
L 344.677482 206.321338 
L 345.930038 207.494937 
L 347.182594 208.726208 
L 348.43515 210.043567 
L 349.687706 211.43152 
L 350.940262 212.8773 
L 352.192818 214.398223 
L 353.445374 216.010942 
L 354.69793 217.802322 
L 355.950486 219.751548 
L 357.203042 221.842566 
" style="fill:none;stroke:#4c72b0;stroke-linecap:round;stroke-width:1.75;"/>
   </g>
   <g id="line2d_48">
    <path clip-path="url(#p27c2e07118)" d="M 233.2 187.744724 
L 234.452556 187.749465 
L 235.705112 187.754479 
L 236.957668 187.759785 
L 238.210224 187.765401 
L 239.46278 187.771343 
L 240.715336 187.777633 
L 241.967892 187.784288 
L 243.220448 187.791334 
L 244.473004 187.798792 
L 245.72556 187.806689 
L 246.978116 187.815049 
L 248.230672 187.8239 
L 249.483228 187.833274 
L 250.735784 187.843202 
L 251.98834 187.853718 
L 253.240896 187.864858 
L 254.493452 187.876658 
L 255.746008 187.889161 
L 256.998564 187.902413 
L 258.25112 187.916458 
L 259.503675 187.931346 
L 260.756231 187.947126 
L 262.008787 187.963861 
L 263.261343 187.981609 
L 264.513899 188.000436 
L 265.766455 188.020406 
L 267.019011 188.041594 
L 268.271567 188.064083 
L 269.524123 188.087957 
L 270.776679 188.113305 
L 272.029235 188.14022 
L 273.281791 188.168806 
L 274.534347 188.199181 
L 275.786903 188.231463 
L 277.039459 188.265777 
L 278.292015 188.302257 
L 279.544571 188.34105 
L 280.797127 188.382325 
L 282.049683 188.426249 
L 283.302239 188.473001 
L 284.554795 188.522772 
L 285.807351 188.575778 
L 287.059907 188.632259 
L 288.312463 188.692454 
L 289.565019 188.75662 
L 290.817575 188.825037 
L 292.070131 188.898019 
L 293.322687 188.97591 
L 294.575243 189.059055 
L 295.827799 189.147828 
L 297.080355 189.242636 
L 298.332911 189.343937 
L 299.585467 189.452228 
L 300.838023 189.568003 
L 302.090579 189.691805 
L 303.343135 189.824228 
L 304.595691 189.965938 
L 305.848247 190.11764 
L 307.100803 190.28004 
L 308.353359 190.453918 
L 309.605915 190.640134 
L 310.858471 190.839628 
L 312.111026 191.053387 
L 313.363582 191.282396 
L 314.616138 191.527748 
L 315.868694 191.790654 
L 317.12125 192.072394 
L 318.373806 192.37429 
L 319.626362 192.697663 
L 320.878918 193.043969 
L 322.131474 193.414838 
L 323.38403 193.811894 
L 324.636586 194.236788 
L 325.889142 194.691167 
L 327.141698 195.176817 
L 328.394254 195.695767 
L 329.64681 196.249852 
L 330.899366 196.840903 
L 332.151922 197.47075 
L 333.404478 198.141311 
L 334.657034 198.854822 
L 335.90959 199.613031 
L 337.162146 200.417646 
L 338.414702 201.270374 
L 339.667258 202.172985 
L 340.919814 203.127672 
L 342.17237 204.136008 
L 343.424926 205.199526 
L 344.677482 206.319757 
L 345.930038 207.498927 
L 347.182594 208.740142 
L 348.43515 210.04741 
L 349.687706 211.424783 
L 350.940262 212.876315 
L 352.192818 214.41197 
L 353.445374 216.047035 
L 354.69793 217.810775 
L 355.950486 219.732762 
L 357.203042 221.842567 
" style="fill:none;stroke:#c44e52;stroke-dasharray:6.000000,6.000000;stroke-dashoffset:0.0;stroke-width:1.75;"/>
   </g>
   <g id="patch_16">
    <path d="M 233.2 252 
L 233.2 170.836364 
" style="fill:none;stroke:#262626;stroke-linecap:square;stroke-linejoin:miter;stroke-width:1.25;"/>
   </g>
   <g id="patch_17">
    <path d="M 233.2 252 
L 357.2 252 
" style="fill:none;stroke:#262626;stroke-linecap:square;stroke-linejoin:miter;stroke-width:1.25;"/>
   </g>
   <g id="text_44">
    <!-- Glucose Uptake -->
    <defs>
     <path d="M 54.6875 71.578125 
L 64.15625 71.578125 
L 64.15625 30.21875 
Q 64.15625 19.4375 61.71875 13.078125 
Q 59.28125 6.734375 52.90625 2.75 
Q 46.53125 -1.21875 36.1875 -1.21875 
Q 26.125 -1.21875 19.71875 2.25 
Q 13.328125 5.71875 10.59375 12.28125 
Q 7.859375 18.84375 7.859375 30.21875 
L 7.859375 71.578125 
L 17.328125 71.578125 
L 17.328125 30.28125 
Q 17.328125 20.953125 19.0625 16.53125 
Q 20.796875 12.109375 25.015625 9.71875 
Q 29.25 7.328125 35.359375 7.328125 
Q 45.796875 7.328125 50.234375 12.0625 
Q 54.6875 16.796875 54.6875 30.28125 
z
" id="ArialMT-55"/>
     <path d="M 6.640625 0 
L 6.640625 71.578125 
L 15.4375 71.578125 
L 15.4375 30.765625 
L 36.234375 51.859375 
L 47.609375 51.859375 
L 27.78125 32.625 
L 49.609375 0 
L 38.765625 0 
L 21.625 26.515625 
L 15.4375 20.5625 
L 15.4375 0 
z
" id="ArialMT-6b"/>
    </defs>
    <g style="fill:#262626;" transform="translate(252.51375 165.836363636)scale(0.12 -0.12)">
     <use xlink:href="#ArialMT-47"/>
     <use x="77.783203125" xlink:href="#ArialMT-6c"/>
     <use x="100.0" xlink:href="#ArialMT-75"/>
     <use x="155.615234375" xlink:href="#ArialMT-63"/>
     <use x="205.615234375" xlink:href="#ArialMT-6f"/>
     <use x="261.23046875" xlink:href="#ArialMT-73"/>
     <use x="311.23046875" xlink:href="#ArialMT-65"/>
     <use x="366.845703125" xlink:href="#ArialMT-20"/>
     <use x="394.62890625" xlink:href="#ArialMT-55"/>
     <use x="466.845703125" xlink:href="#ArialMT-70"/>
     <use x="522.4609375" xlink:href="#ArialMT-74"/>
     <use x="550.244140625" xlink:href="#ArialMT-61"/>
     <use x="605.859375" xlink:href="#ArialMT-6b"/>
     <use x="655.859375" xlink:href="#ArialMT-65"/>
    </g>
   </g>
   <g id="legend_2">
    <g id="line2d_49">
     <path d="M 242.2 223.367187 
L 262.2 223.367187 
" style="fill:none;stroke:#4c72b0;stroke-linecap:round;stroke-width:1.75;"/>
    </g>
    <g id="line2d_50"/>
    <g id="text_45">
     <!-- Optimal flux -->
     <defs>
      <path d="M 4.828125 34.859375 
Q 4.828125 52.6875 14.390625 62.765625 
Q 23.96875 72.859375 39.109375 72.859375 
Q 49.03125 72.859375 56.984375 68.109375 
Q 64.9375 63.375 69.109375 54.90625 
Q 73.296875 46.4375 73.296875 35.6875 
Q 73.296875 24.8125 68.890625 16.21875 
Q 64.5 7.625 56.4375 3.203125 
Q 48.390625 -1.21875 39.0625 -1.21875 
Q 28.953125 -1.21875 20.984375 3.65625 
Q 13.03125 8.546875 8.921875 16.984375 
Q 4.828125 25.4375 4.828125 34.859375 
M 14.59375 34.71875 
Q 14.59375 21.78125 21.546875 14.328125 
Q 28.515625 6.890625 39.015625 6.890625 
Q 49.703125 6.890625 56.609375 14.40625 
Q 63.53125 21.921875 63.53125 35.75 
Q 63.53125 44.484375 60.578125 51 
Q 57.625 57.515625 51.921875 61.109375 
Q 46.234375 64.703125 39.15625 64.703125 
Q 29.109375 64.703125 21.84375 57.78125 
Q 14.59375 50.875 14.59375 34.71875 
" id="ArialMT-4f"/>
      <path d="M 8.6875 0 
L 8.6875 45.015625 
L 0.921875 45.015625 
L 0.921875 51.859375 
L 8.6875 51.859375 
L 8.6875 57.375 
Q 8.6875 62.59375 9.625 65.140625 
Q 10.890625 68.5625 14.078125 70.671875 
Q 17.28125 72.796875 23.046875 72.796875 
Q 26.765625 72.796875 31.25 71.921875 
L 29.9375 64.265625 
Q 27.203125 64.75 24.75 64.75 
Q 20.75 64.75 19.09375 63.03125 
Q 17.4375 61.328125 17.4375 56.640625 
L 17.4375 51.859375 
L 27.546875 51.859375 
L 27.546875 45.015625 
L 17.4375 45.015625 
L 17.4375 0 
z
" id="ArialMT-66"/>
     </defs>
     <g style="fill:#262626;" transform="translate(270.2 226.8671875)scale(0.1 -0.1)">
      <use xlink:href="#ArialMT-4f"/>
      <use x="77.783203125" xlink:href="#ArialMT-70"/>
      <use x="133.3984375" xlink:href="#ArialMT-74"/>
      <use x="161.181640625" xlink:href="#ArialMT-69"/>
      <use x="183.3984375" xlink:href="#ArialMT-6d"/>
      <use x="266.69921875" xlink:href="#ArialMT-61"/>
      <use x="322.314453125" xlink:href="#ArialMT-6c"/>
      <use x="344.53125" xlink:href="#ArialMT-20"/>
      <use x="372.314453125" xlink:href="#ArialMT-66"/>
      <use x="400.09765625" xlink:href="#ArialMT-6c"/>
      <use x="422.314453125" xlink:href="#ArialMT-75"/>
      <use x="477.9296875" xlink:href="#ArialMT-78"/>
     </g>
    </g>
    <g id="line2d_51">
     <path d="M 242.2 237.5125 
L 262.2 237.5125 
" style="fill:none;stroke:#c44e52;stroke-dasharray:6.000000,6.000000;stroke-dashoffset:0.0;stroke-width:1.75;"/>
    </g>
    <g id="line2d_52"/>
    <g id="text_46">
     <!-- Constraint -->
     <g style="fill:#262626;" transform="translate(270.2 241.0125)scale(0.1 -0.1)">
      <use xlink:href="#ArialMT-43"/>
      <use x="72.216796875" xlink:href="#ArialMT-6f"/>
      <use x="127.83203125" xlink:href="#ArialMT-6e"/>
      <use x="183.447265625" xlink:href="#ArialMT-73"/>
      <use x="233.447265625" xlink:href="#ArialMT-74"/>
      <use x="261.23046875" xlink:href="#ArialMT-72"/>
      <use x="294.53125" xlink:href="#ArialMT-61"/>
      <use x="350.146484375" xlink:href="#ArialMT-69"/>
      <use x="372.36328125" xlink:href="#ArialMT-6e"/>
      <use x="427.978515625" xlink:href="#ArialMT-74"/>
     </g>
    </g>
   </g>
  </g>
  <g id="axes_5">
   <g id="patch_18">
    <path d="M 394.4 252 
L 518.4 252 
L 518.4 170.836364 
L 394.4 170.836364 
z
" style="fill:#ffffff;"/>
   </g>
   <g id="matplotlib.axis_8">
    <g id="xtick_13">
     <g id="line2d_53">
      <g>
       <use style="fill:#262626;stroke:#262626;" x="394.4" xlink:href="#m0ae85901b7" y="252.0"/>
      </g>
     </g>
     <g id="text_47">
      <!-- 0 -->
      <g style="fill:#262626;" transform="translate(391.61953125 272.1578125)scale(0.1 -0.1)">
       <use xlink:href="#ArialMT-30"/>
      </g>
     </g>
    </g>
    <g id="xtick_14">
     <g id="line2d_54">
      <g>
       <use style="fill:#262626;stroke:#262626;" x="434.856769984" xlink:href="#m0ae85901b7" y="252.0"/>
      </g>
     </g>
     <g id="text_48">
      <!-- 5 -->
      <g style="fill:#262626;" transform="translate(432.076301234 272.1578125)scale(0.1 -0.1)">
       <use xlink:href="#ArialMT-35"/>
      </g>
     </g>
    </g>
    <g id="xtick_15">
     <g id="line2d_55">
      <g>
       <use style="fill:#262626;stroke:#262626;" x="475.313539967" xlink:href="#m0ae85901b7" y="252.0"/>
      </g>
     </g>
     <g id="text_49">
      <!-- 10 -->
      <g style="fill:#262626;" transform="translate(469.752602467 272.1578125)scale(0.1 -0.1)">
       <use xlink:href="#ArialMT-31"/>
       <use x="55.615234375" xlink:href="#ArialMT-30"/>
      </g>
     </g>
    </g>
    <g id="xtick_16">
     <g id="line2d_56">
      <g>
       <use style="fill:#262626;stroke:#262626;" x="515.770309951" xlink:href="#m0ae85901b7" y="252.0"/>
      </g>
     </g>
     <g id="text_50">
      <!-- 15 -->
      <g style="fill:#262626;" transform="translate(510.209372451 272.1578125)scale(0.1 -0.1)">
       <use xlink:href="#ArialMT-31"/>
       <use x="55.615234375" xlink:href="#ArialMT-35"/>
      </g>
     </g>
    </g>
   </g>
   <g id="matplotlib.axis_9">
    <g id="ytick_21">
     <g id="line2d_57">
      <g>
       <use style="fill:#262626;stroke:#262626;" x="394.4" xlink:href="#m049011b8a8" y="252.0"/>
      </g>
     </g>
     <g id="text_51">
      <!-- 0 -->
      <g style="fill:#262626;" transform="translate(375.8390625 254.58515625)scale(0.1 -0.1)">
       <use xlink:href="#ArialMT-30"/>
      </g>
     </g>
    </g>
    <g id="ytick_22">
     <g id="line2d_58">
      <g>
       <use style="fill:#262626;stroke:#262626;" x="394.4" xlink:href="#m049011b8a8" y="231.709090909"/>
      </g>
     </g>
     <g id="text_52">
      <!-- 5 -->
      <g style="fill:#262626;" transform="translate(375.8390625 234.294247159)scale(0.1 -0.1)">
       <use xlink:href="#ArialMT-35"/>
      </g>
     </g>
    </g>
    <g id="ytick_23">
     <g id="line2d_59">
      <g>
       <use style="fill:#262626;stroke:#262626;" x="394.4" xlink:href="#m049011b8a8" y="211.418181818"/>
      </g>
     </g>
     <g id="text_53">
      <!-- 10 -->
      <g style="fill:#262626;" transform="translate(370.278125 214.003338068)scale(0.1 -0.1)">
       <use xlink:href="#ArialMT-31"/>
       <use x="55.615234375" xlink:href="#ArialMT-30"/>
      </g>
     </g>
    </g>
    <g id="ytick_24">
     <g id="line2d_60">
      <g>
       <use style="fill:#262626;stroke:#262626;" x="394.4" xlink:href="#m049011b8a8" y="191.127272727"/>
      </g>
     </g>
     <g id="text_54">
      <!-- 15 -->
      <g style="fill:#262626;" transform="translate(370.278125 193.712428977)scale(0.1 -0.1)">
       <use xlink:href="#ArialMT-31"/>
       <use x="55.615234375" xlink:href="#ArialMT-35"/>
      </g>
     </g>
    </g>
    <g id="ytick_25">
     <g id="line2d_61">
      <g>
       <use style="fill:#262626;stroke:#262626;" x="394.4" xlink:href="#m049011b8a8" y="170.836363636"/>
      </g>
     </g>
     <g id="text_55">
      <!-- 20 -->
      <g style="fill:#262626;" transform="translate(370.278125 173.421519886)scale(0.1 -0.1)">
       <use xlink:href="#ArialMT-32"/>
       <use x="55.615234375" xlink:href="#ArialMT-30"/>
      </g>
     </g>
    </g>
   </g>
   <g id="patch_19">
    <path clip-path="url(#p21b90b1696)" d="M 394.4 252 
L 394.4 170.836364 
L 518.403042 170.836364 
L 518.403042 252 
z
" style="fill:#e8f6f2;"/>
   </g>
   <g id="line2d_62">
    <path clip-path="url(#p21b90b1696)" d="M 394.4 197.96397 
L 395.652556 197.992717 
L 396.905112 198.000417 
L 398.157668 197.999283 
L 399.410224 197.999249 
L 400.66278 197.988458 
L 401.915336 198.016934 
L 403.167892 198.025268 
L 404.420448 198.025465 
L 405.673004 198.027282 
L 406.92556 198.020205 
L 408.178116 198.048855 
L 409.430672 198.058325 
L 410.683228 198.06039 
L 411.935784 198.06461 
L 413.18834 198.061707 
L 414.440896 198.091118 
L 415.693452 198.102395 
L 416.946008 198.10705 
L 418.198564 198.114417 
L 419.45112 198.116356 
L 420.703675 198.147318 
L 421.956231 198.161312 
L 423.208787 198.169538 
L 424.461343 198.181066 
L 425.713899 198.1888 
L 426.966455 198.222397 
L 428.219011 198.240356 
L 429.471567 198.253502 
L 430.724123 198.270589 
L 431.976679 198.285479 
L 433.229235 198.323213 
L 434.481791 198.346871 
L 435.734347 198.366813 
L 436.986903 198.391403 
L 438.239459 198.4154 
L 439.492015 198.459381 
L 440.744571 198.491175 
L 441.997127 198.520555 
L 443.249683 198.555391 
L 444.502239 198.591294 
L 445.754795 198.644527 
L 447.007351 198.687924 
L 448.259907 198.730501 
L 449.512463 198.779493 
L 450.765019 198.831346 
L 452.017575 198.898158 
L 453.270131 198.958141 
L 454.522687 199.019314 
L 455.775243 199.088082 
L 457.027799 199.161754 
L 458.280355 199.248433 
L 459.532911 199.332207 
L 460.785467 199.419774 
L 462.038023 199.516433 
L 463.290579 199.620446 
L 464.543135 199.736165 
L 465.795691 199.854159 
L 467.048247 199.979366 
L 468.300803 200.115616 
L 469.553359 200.262283 
L 470.805915 200.420373 
L 472.058471 200.587551 
L 473.311026 200.766442 
L 474.563582 200.958945 
L 475.816138 201.165796 
L 477.068694 201.385324 
L 478.32125 201.622691 
L 479.573806 201.877578 
L 480.826362 202.149423 
L 482.078918 202.440668 
L 483.331474 202.747989 
L 484.58403 203.08381 
L 485.836586 203.444285 
L 487.089142 203.825919 
L 488.341698 204.233248 
L 489.594254 204.662624 
L 490.84681 205.132272 
L 492.099366 205.634591 
L 493.351922 206.162974 
L 494.604478 206.724358 
L 495.857034 207.315994 
L 497.10959 207.958952 
L 498.362146 208.642398 
L 499.614702 209.357085 
L 500.867258 210.112321 
L 502.119814 210.906748 
L 503.37237 211.761131 
L 504.624926 212.662867 
L 505.877482 213.601348 
L 507.130038 214.587905 
L 508.382594 215.622943 
L 509.63515 216.730349 
L 510.887706 217.897097 
L 512.140262 219.112458 
L 513.392818 220.390984 
L 514.645374 221.746677 
L 515.89793 223.252556 
L 517.150486 224.891126 
L 518.403042 226.64889 
" style="fill:none;stroke:#4c72b0;stroke-linecap:round;stroke-width:1.75;"/>
   </g>
   <g id="line2d_63">
    <path clip-path="url(#p21b90b1696)" d="M 394.4 178.141091 
L 395.652556 178.141091 
L 396.905112 178.141091 
L 398.157668 178.141091 
L 399.410224 178.141091 
L 400.66278 178.141091 
L 401.915336 178.141091 
L 403.167892 178.141091 
L 404.420448 178.141091 
L 405.673004 178.141091 
L 406.92556 178.141091 
L 408.178116 178.141091 
L 409.430672 178.141091 
L 410.683228 178.141091 
L 411.935784 178.141091 
L 413.18834 178.141091 
L 414.440896 178.141091 
L 415.693452 178.141091 
L 416.946008 178.141091 
L 418.198564 178.141091 
L 419.45112 178.141091 
L 420.703675 178.141091 
L 421.956231 178.141091 
L 423.208787 178.141091 
L 424.461343 178.141091 
L 425.713899 178.141091 
L 426.966455 178.141091 
L 428.219011 178.141091 
L 429.471567 178.141091 
L 430.724123 178.141091 
L 431.976679 178.141091 
L 433.229235 178.141091 
L 434.481791 178.141091 
L 435.734347 178.141091 
L 436.986903 178.141091 
L 438.239459 178.141091 
L 439.492015 178.141091 
L 440.744571 178.141091 
L 441.997127 178.141091 
L 443.249683 178.141091 
L 444.502239 178.141091 
L 445.754795 178.141091 
L 447.007351 178.141091 
L 448.259907 178.141091 
L 449.512463 178.141091 
L 450.765019 178.141091 
L 452.017575 178.141091 
L 453.270131 178.141091 
L 454.522687 178.141091 
L 455.775243 178.141091 
L 457.027799 178.141091 
L 458.280355 178.141091 
L 459.532911 178.141091 
L 460.785467 178.141091 
L 462.038023 178.141091 
L 463.290579 178.141091 
L 464.543135 178.141091 
L 465.795691 178.141091 
L 467.048247 178.141091 
L 468.300803 178.141091 
L 469.553359 178.141091 
L 470.805915 178.141091 
L 472.058471 178.141091 
L 473.311026 178.141091 
L 474.563582 178.141091 
L 475.816138 178.141091 
L 477.068694 178.141091 
L 478.32125 178.141091 
L 479.573806 178.141091 
L 480.826362 178.141091 
L 482.078918 178.141091 
L 483.331474 178.141091 
L 484.58403 178.141091 
L 485.836586 178.141091 
L 487.089142 178.141091 
L 488.341698 178.141091 
L 489.594254 178.141091 
L 490.84681 178.141091 
L 492.099366 178.141091 
L 493.351922 178.141091 
L 494.604478 178.141091 
L 495.857034 178.141091 
L 497.10959 178.141091 
L 498.362146 178.141091 
L 499.614702 178.141091 
L 500.867258 178.141091 
L 502.119814 178.141091 
L 503.37237 178.141091 
L 504.624926 178.141091 
L 505.877482 178.141091 
L 507.130038 178.141091 
L 508.382594 178.141091 
L 509.63515 178.141091 
L 510.887706 178.141091 
L 512.140262 178.141091 
L 513.392818 178.141091 
L 514.645374 178.141091 
L 515.89793 178.141091 
L 517.150486 178.141091 
L 518.403042 178.141091 
" style="fill:none;stroke:#c44e52;stroke-dasharray:6.000000,6.000000;stroke-dashoffset:0.0;stroke-width:1.75;"/>
   </g>
   <g id="patch_20">
    <path d="M 394.4 252 
L 394.4 170.836364 
" style="fill:none;stroke:#262626;stroke-linecap:square;stroke-linejoin:miter;stroke-width:1.25;"/>
   </g>
   <g id="patch_21">
    <path d="M 394.4 252 
L 518.4 252 
" style="fill:none;stroke:#262626;stroke-linecap:square;stroke-linejoin:miter;stroke-width:1.25;"/>
   </g>
   <g id="text_56">
    <!-- Oxygen Uptake -->
    <g style="fill:#262626;" transform="translate(415.046875 165.836363636)scale(0.12 -0.12)">
     <use xlink:href="#ArialMT-4f"/>
     <use x="77.783203125" xlink:href="#ArialMT-78"/>
     <use x="127.783203125" xlink:href="#ArialMT-79"/>
     <use x="177.783203125" xlink:href="#ArialMT-67"/>
     <use x="233.3984375" xlink:href="#ArialMT-65"/>
     <use x="289.013671875" xlink:href="#ArialMT-6e"/>
     <use x="344.62890625" xlink:href="#ArialMT-20"/>
     <use x="372.412109375" xlink:href="#ArialMT-55"/>
     <use x="444.62890625" xlink:href="#ArialMT-70"/>
     <use x="500.244140625" xlink:href="#ArialMT-74"/>
     <use x="528.02734375" xlink:href="#ArialMT-61"/>
     <use x="583.642578125" xlink:href="#ArialMT-6b"/>
     <use x="633.642578125" xlink:href="#ArialMT-65"/>
    </g>
   </g>
  </g>
 </g>
 <defs>
  <clipPath id="p2c4be153a6">
   <rect height="81.1636363636" width="446.4" x="72.0" y="28.8"/>
  </clipPath>
  <clipPath id="p21b90b1696">
   <rect height="81.1636363636" width="124.0" x="394.4" y="170.836363636"/>
  </clipPath>
  <clipPath id="p27c2e07118">
   <rect height="81.1636363636" width="124.0" x="233.2" y="170.836363636"/>
  </clipPath>
  <clipPath id="pea8783e5ab">
   <rect height="81.1636363636" width="124.0" x="72.0" y="170.836363636"/>
  </clipPath>
 </defs>
</svg>
