<?xml version="1.0" encoding="utf-8" standalone="no"?>
<!DOCTYPE svg PUBLIC "-//W3C//DTD SVG 1.1//EN"
  "http://www.w3.org/Graphics/SVG/1.1/DTD/svg11.dtd">
<!-- Created with matplotlib (http://matplotlib.org/) -->
<svg height="288pt" version="1.1" viewBox="0 0 576 288" width="576pt" xmlns="http://www.w3.org/2000/svg" xmlns:xlink="http://www.w3.org/1999/xlink">
 <defs>
  <style type="text/css">
*{stroke-linecap:butt;stroke-linejoin:round;stroke-miterlimit:100000;}
  </style>
 </defs>
 <g id="figure_1">
  <g id="patch_1">
   <path d="M 0 288 
L 576 288 
L 576 0 
L 0 0 
z
" style="fill:#ffffff;"/>
  </g>
  <g id="axes_1">
   <g id="patch_2">
    <path d="M 72 109.963636 
L 518.4 109.963636 
L 518.4 28.8 
L 72 28.8 
z
" style="fill:#ffffff;"/>
   </g>
   <g id="matplotlib.axis_1">
    <g id="xtick_1">
     <g id="line2d_1">
      <defs>
       <path d="M 0 0 
L 0 6 
" id="m16443e2d28" style="stroke:#262626;"/>
      </defs>
      <g>
       <use style="fill:#262626;stroke:#262626;" x="72.0" xlink:href="#m16443e2d28" y="109.963636364"/>
      </g>
     </g>
     <g id="text_1">
      <!-- 0 -->
      <defs>
       <path d="M 4.15625 35.296875 
Q 4.15625 48 6.765625 55.734375 
Q 9.375 63.484375 14.515625 67.671875 
Q 19.671875 71.875 27.484375 71.875 
Q 33.25 71.875 37.59375 69.546875 
Q 41.9375 67.234375 44.765625 62.859375 
Q 47.609375 58.5 49.21875 52.21875 
Q 50.828125 45.953125 50.828125 35.296875 
Q 50.828125 22.703125 48.234375 14.96875 
Q 45.65625 7.234375 40.5 3 
Q 35.359375 -1.21875 27.484375 -1.21875 
Q 17.140625 -1.21875 11.234375 6.203125 
Q 4.15625 15.140625 4.15625 35.296875 
M 13.1875 35.296875 
Q 13.1875 17.671875 17.3125 11.828125 
Q 21.4375 6 27.484375 6 
Q 33.546875 6 37.671875 11.859375 
Q 41.796875 17.71875 41.796875 35.296875 
Q 41.796875 52.984375 37.671875 58.78125 
Q 33.546875 64.59375 27.390625 64.59375 
Q 21.34375 64.59375 17.71875 59.46875 
Q 13.1875 52.9375 13.1875 35.296875 
" id="ArialMT-30"/>
      </defs>
      <g style="fill:#262626;" transform="translate(69.21953125 130.121448864)scale(0.1 -0.1)">
       <use xlink:href="#ArialMT-30"/>
      </g>
     </g>
    </g>
    <g id="xtick_2">
     <g id="line2d_2">
      <g>
       <use style="fill:#262626;stroke:#262626;" x="187.887850467" xlink:href="#m16443e2d28" y="109.963636364"/>
      </g>
     </g>
     <g id="text_2">
      <!-- 5 -->
      <defs>
       <path d="M 4.15625 18.75 
L 13.375 19.53125 
Q 14.40625 12.796875 18.140625 9.390625 
Q 21.875 6 27.15625 6 
Q 33.5 6 37.890625 10.78125 
Q 42.28125 15.578125 42.28125 23.484375 
Q 42.28125 31 38.0625 35.34375 
Q 33.84375 39.703125 27 39.703125 
Q 22.75 39.703125 19.328125 37.765625 
Q 15.921875 35.84375 13.96875 32.765625 
L 5.71875 33.84375 
L 12.640625 70.609375 
L 48.25 70.609375 
L 48.25 62.203125 
L 19.671875 62.203125 
L 15.828125 42.96875 
Q 22.265625 47.46875 29.34375 47.46875 
Q 38.71875 47.46875 45.15625 40.96875 
Q 51.609375 34.46875 51.609375 24.265625 
Q 51.609375 14.546875 45.953125 7.46875 
Q 39.0625 -1.21875 27.15625 -1.21875 
Q 17.390625 -1.21875 11.203125 4.25 
Q 5.03125 9.71875 4.15625 18.75 
" id="ArialMT-35"/>
      </defs>
      <g style="fill:#262626;" transform="translate(185.107381717 130.121448864)scale(0.1 -0.1)">
       <use xlink:href="#ArialMT-35"/>
      </g>
     </g>
    </g>
    <g id="xtick_3">
     <g id="line2d_3">
      <g>
       <use style="fill:#262626;stroke:#262626;" x="303.775700935" xlink:href="#m16443e2d28" y="109.963636364"/>
      </g>
     </g>
     <g id="text_3">
      <!-- 10 -->
      <defs>
       <path d="M 37.25 0 
L 28.46875 0 
L 28.46875 56 
Q 25.296875 52.984375 20.140625 49.953125 
Q 14.984375 46.921875 10.890625 45.40625 
L 10.890625 53.90625 
Q 18.265625 57.375 23.78125 62.296875 
Q 29.296875 67.234375 31.59375 71.875 
L 37.25 71.875 
z
" id="ArialMT-31"/>
      </defs>
      <g style="fill:#262626;" transform="translate(298.214763435 130.121448864)scale(0.1 -0.1)">
       <use xlink:href="#ArialMT-31"/>
       <use x="55.615234375" xlink:href="#ArialMT-30"/>
      </g>
     </g>
    </g>
    <g id="xtick_4">
     <g id="line2d_4">
      <g>
       <use style="fill:#262626;stroke:#262626;" x="419.663551402" xlink:href="#m16443e2d28" y="109.963636364"/>
      </g>
     </g>
     <g id="text_4">
      <!-- 15 -->
      <g style="fill:#262626;" transform="translate(414.102613902 130.121448864)scale(0.1 -0.1)">
       <use xlink:href="#ArialMT-31"/>
       <use x="55.615234375" xlink:href="#ArialMT-35"/>
      </g>
     </g>
    </g>
    <g id="text_5">
     <!-- Time (hr) -->
     <defs>
      <path d="M 25.921875 0 
L 25.921875 63.140625 
L 2.34375 63.140625 
L 2.34375 71.578125 
L 59.078125 71.578125 
L 59.078125 63.140625 
L 35.40625 63.140625 
L 35.40625 0 
z
" id="ArialMT-54"/>
      <path d="M 42.09375 16.703125 
L 51.171875 15.578125 
Q 49.03125 7.625 43.21875 3.21875 
Q 37.40625 -1.171875 28.375 -1.171875 
Q 17 -1.171875 10.328125 5.828125 
Q 3.65625 12.84375 3.65625 25.484375 
Q 3.65625 38.578125 10.390625 45.796875 
Q 17.140625 53.03125 27.875 53.03125 
Q 38.28125 53.03125 44.875 45.953125 
Q 51.46875 38.875 51.46875 26.03125 
Q 51.46875 25.25 51.421875 23.6875 
L 12.75 23.6875 
Q 13.234375 15.140625 17.578125 10.59375 
Q 21.921875 6.0625 28.421875 6.0625 
Q 33.25 6.0625 36.671875 8.59375 
Q 40.09375 11.140625 42.09375 16.703125 
M 13.234375 30.90625 
L 42.1875 30.90625 
Q 41.609375 37.453125 38.875 40.71875 
Q 34.671875 45.796875 27.984375 45.796875 
Q 21.921875 45.796875 17.796875 41.75 
Q 13.671875 37.703125 13.234375 30.90625 
" id="ArialMT-65"/>
      <path id="ArialMT-20"/>
      <path d="M 6.59375 0 
L 6.59375 51.859375 
L 14.453125 51.859375 
L 14.453125 44.578125 
Q 16.890625 48.390625 20.9375 50.703125 
Q 25 53.03125 30.171875 53.03125 
Q 35.9375 53.03125 39.625 50.640625 
Q 43.3125 48.25 44.828125 43.953125 
Q 50.984375 53.03125 60.84375 53.03125 
Q 68.5625 53.03125 72.703125 48.75 
Q 76.859375 44.484375 76.859375 35.59375 
L 76.859375 0 
L 68.109375 0 
L 68.109375 32.671875 
Q 68.109375 37.9375 67.25 40.25 
Q 66.40625 42.578125 64.15625 43.984375 
Q 61.921875 45.40625 58.890625 45.40625 
Q 53.421875 45.40625 49.796875 41.765625 
Q 46.1875 38.140625 46.1875 30.125 
L 46.1875 0 
L 37.40625 0 
L 37.40625 33.6875 
Q 37.40625 39.546875 35.25 42.46875 
Q 33.109375 45.40625 28.21875 45.40625 
Q 24.515625 45.40625 21.359375 43.453125 
Q 18.21875 41.5 16.796875 37.734375 
Q 15.375 33.984375 15.375 26.90625 
L 15.375 0 
z
" id="ArialMT-6d"/>
      <path d="M 6.640625 61.46875 
L 6.640625 71.578125 
L 15.4375 71.578125 
L 15.4375 61.46875 
z
M 6.640625 0 
L 6.640625 51.859375 
L 15.4375 51.859375 
L 15.4375 0 
z
" id="ArialMT-69"/>
      <path d="M 23.390625 -21.046875 
Q 16.109375 -11.859375 11.078125 0.4375 
Q 6.0625 12.75 6.0625 25.921875 
Q 6.0625 37.546875 9.8125 48.1875 
Q 14.203125 60.546875 23.390625 72.796875 
L 29.6875 72.796875 
Q 23.78125 62.640625 21.875 58.296875 
Q 18.890625 51.5625 17.1875 44.234375 
Q 15.09375 35.109375 15.09375 25.875 
Q 15.09375 2.390625 29.6875 -21.046875 
z
" id="ArialMT-28"/>
      <path d="M 6.5 0 
L 6.5 51.859375 
L 14.40625 51.859375 
L 14.40625 44 
Q 17.4375 49.515625 20 51.265625 
Q 22.5625 53.03125 25.640625 53.03125 
Q 30.078125 53.03125 34.671875 50.203125 
L 31.640625 42.046875 
Q 28.421875 43.953125 25.203125 43.953125 
Q 22.3125 43.953125 20.015625 42.21875 
Q 17.71875 40.484375 16.75 37.40625 
Q 15.28125 32.71875 15.28125 27.15625 
L 15.28125 0 
z
" id="ArialMT-72"/>
      <path d="M 6.59375 0 
L 6.59375 71.578125 
L 15.375 71.578125 
L 15.375 45.90625 
Q 21.53125 53.03125 30.90625 53.03125 
Q 36.671875 53.03125 40.921875 50.75 
Q 45.171875 48.484375 47 44.484375 
Q 48.828125 40.484375 48.828125 32.859375 
L 48.828125 0 
L 40.046875 0 
L 40.046875 32.859375 
Q 40.046875 39.453125 37.1875 42.453125 
Q 34.328125 45.453125 29.109375 45.453125 
Q 25.203125 45.453125 21.75 43.421875 
Q 18.3125 41.40625 16.84375 37.9375 
Q 15.375 34.46875 15.375 28.375 
L 15.375 0 
z
" id="ArialMT-68"/>
      <path d="M 12.359375 -21.046875 
L 6.0625 -21.046875 
Q 20.65625 2.390625 20.65625 25.875 
Q 20.65625 35.0625 18.5625 44.09375 
Q 16.890625 51.421875 13.921875 58.15625 
Q 12.015625 62.546875 6.0625 72.796875 
L 12.359375 72.796875 
Q 21.53125 60.546875 25.921875 48.1875 
Q 29.6875 37.546875 29.6875 25.921875 
Q 29.6875 12.75 24.625 0.4375 
Q 19.578125 -11.859375 12.359375 -21.046875 
" id="ArialMT-29"/>
     </defs>
     <g style="fill:#262626;" transform="translate(272.9009375 145.116605114)scale(0.11 -0.11)">
      <use xlink:href="#ArialMT-54"/>
      <use x="61.037109375" xlink:href="#ArialMT-69"/>
      <use x="83.25390625" xlink:href="#ArialMT-6d"/>
      <use x="166.5546875" xlink:href="#ArialMT-65"/>
      <use x="222.169921875" xlink:href="#ArialMT-20"/>
      <use x="249.953125" xlink:href="#ArialMT-28"/>
      <use x="283.25390625" xlink:href="#ArialMT-68"/>
      <use x="338.869140625" xlink:href="#ArialMT-72"/>
      <use x="372.169921875" xlink:href="#ArialMT-29"/>
     </g>
    </g>
   </g>
   <g id="matplotlib.axis_2">
    <g id="ytick_1">
     <g id="line2d_5">
      <defs>
       <path d="M 0 0 
L -6 0 
" id="m2c986e33d9" style="stroke:#262626;"/>
      </defs>
      <g>
       <use style="fill:#262626;stroke:#262626;" x="72.0" xlink:href="#m2c986e33d9" y="109.963636364"/>
      </g>
     </g>
     <g id="text_6">
      <!-- 0 -->
      <g style="fill:#262626;" transform="translate(53.4390625 112.548792614)scale(0.1 -0.1)">
       <use xlink:href="#ArialMT-30"/>
      </g>
     </g>
    </g>
    <g id="ytick_2">
     <g id="line2d_6">
      <g>
       <use style="fill:#262626;stroke:#262626;" x="72.0" xlink:href="#m2c986e33d9" y="93.7309090909"/>
      </g>
     </g>
     <g id="text_7">
      <!-- 50 -->
      <g style="fill:#262626;" transform="translate(47.878125 96.3160653409)scale(0.1 -0.1)">
       <use xlink:href="#ArialMT-35"/>
       <use x="55.615234375" xlink:href="#ArialMT-30"/>
      </g>
     </g>
    </g>
    <g id="ytick_3">
     <g id="line2d_7">
      <g>
       <use style="fill:#262626;stroke:#262626;" x="72.0" xlink:href="#m2c986e33d9" y="77.4981818182"/>
      </g>
     </g>
     <g id="text_8">
      <!-- 100 -->
      <g style="fill:#262626;" transform="translate(42.3171875 80.0833380682)scale(0.1 -0.1)">
       <use xlink:href="#ArialMT-31"/>
       <use x="55.615234375" xlink:href="#ArialMT-30"/>
       <use x="111.23046875" xlink:href="#ArialMT-30"/>
      </g>
     </g>
    </g>
    <g id="ytick_4">
     <g id="line2d_8">
      <g>
       <use style="fill:#262626;stroke:#262626;" x="72.0" xlink:href="#m2c986e33d9" y="61.2654545455"/>
      </g>
     </g>
     <g id="text_9">
      <!-- 150 -->
      <g style="fill:#262626;" transform="translate(42.3171875 63.8506107955)scale(0.1 -0.1)">
       <use xlink:href="#ArialMT-31"/>
       <use x="55.615234375" xlink:href="#ArialMT-35"/>
       <use x="111.23046875" xlink:href="#ArialMT-30"/>
      </g>
     </g>
    </g>
    <g id="ytick_5">
     <g id="line2d_9">
      <g>
       <use style="fill:#262626;stroke:#262626;" x="72.0" xlink:href="#m2c986e33d9" y="45.0327272727"/>
      </g>
     </g>
     <g id="text_10">
      <!-- 200 -->
      <defs>
       <path d="M 50.34375 8.453125 
L 50.34375 0 
L 3.03125 0 
Q 2.9375 3.171875 4.046875 6.109375 
Q 5.859375 10.9375 9.828125 15.625 
Q 13.8125 20.3125 21.34375 26.46875 
Q 33.015625 36.03125 37.109375 41.625 
Q 41.21875 47.21875 41.21875 52.203125 
Q 41.21875 57.421875 37.46875 61 
Q 33.734375 64.59375 27.734375 64.59375 
Q 21.390625 64.59375 17.578125 60.78125 
Q 13.765625 56.984375 13.71875 50.25 
L 4.6875 51.171875 
Q 5.609375 61.28125 11.65625 66.578125 
Q 17.71875 71.875 27.9375 71.875 
Q 38.234375 71.875 44.234375 66.15625 
Q 50.25 60.453125 50.25 52 
Q 50.25 47.703125 48.484375 43.546875 
Q 46.734375 39.40625 42.65625 34.8125 
Q 38.578125 30.21875 29.109375 22.21875 
Q 21.1875 15.578125 18.9375 13.203125 
Q 16.703125 10.84375 15.234375 8.453125 
z
" id="ArialMT-32"/>
      </defs>
      <g style="fill:#262626;" transform="translate(42.3171875 47.6178835227)scale(0.1 -0.1)">
       <use xlink:href="#ArialMT-32"/>
       <use x="55.615234375" xlink:href="#ArialMT-30"/>
       <use x="111.23046875" xlink:href="#ArialMT-30"/>
      </g>
     </g>
    </g>
    <g id="ytick_6">
     <g id="line2d_10">
      <g>
       <use style="fill:#262626;stroke:#262626;" x="72.0" xlink:href="#m2c986e33d9" y="28.8"/>
      </g>
     </g>
     <g id="text_11">
      <!-- 250 -->
      <g style="fill:#262626;" transform="translate(42.3171875 31.38515625)scale(0.1 -0.1)">
       <use xlink:href="#ArialMT-32"/>
       <use x="55.615234375" xlink:href="#ArialMT-35"/>
       <use x="111.23046875" xlink:href="#ArialMT-30"/>
      </g>
     </g>
    </g>
    <g id="text_12">
     <!-- Concentration (mM) -->
     <defs>
      <path d="M 40.4375 6.390625 
Q 35.546875 2.25 31.03125 0.53125 
Q 26.515625 -1.171875 21.34375 -1.171875 
Q 12.796875 -1.171875 8.203125 3 
Q 3.609375 7.171875 3.609375 13.671875 
Q 3.609375 17.484375 5.34375 20.625 
Q 7.078125 23.78125 9.890625 25.6875 
Q 12.703125 27.59375 16.21875 28.5625 
Q 18.796875 29.25 24.03125 29.890625 
Q 34.671875 31.15625 39.703125 32.90625 
Q 39.75 34.71875 39.75 35.203125 
Q 39.75 40.578125 37.25 42.78125 
Q 33.890625 45.75 27.25 45.75 
Q 21.046875 45.75 18.09375 43.578125 
Q 15.140625 41.40625 13.71875 35.890625 
L 5.125 37.0625 
Q 6.296875 42.578125 8.984375 45.96875 
Q 11.671875 49.359375 16.75 51.1875 
Q 21.828125 53.03125 28.515625 53.03125 
Q 35.15625 53.03125 39.296875 51.46875 
Q 43.453125 49.90625 45.40625 47.53125 
Q 47.359375 45.171875 48.140625 41.546875 
Q 48.578125 39.3125 48.578125 33.453125 
L 48.578125 21.734375 
Q 48.578125 9.46875 49.140625 6.21875 
Q 49.703125 2.984375 51.375 0 
L 42.1875 0 
Q 40.828125 2.734375 40.4375 6.390625 
M 39.703125 26.03125 
Q 34.90625 24.078125 25.34375 22.703125 
Q 19.921875 21.921875 17.671875 20.9375 
Q 15.4375 19.96875 14.203125 18.09375 
Q 12.984375 16.21875 12.984375 13.921875 
Q 12.984375 10.40625 15.640625 8.0625 
Q 18.3125 5.71875 23.4375 5.71875 
Q 28.515625 5.71875 32.46875 7.9375 
Q 36.421875 10.15625 38.28125 14.015625 
Q 39.703125 17 39.703125 22.796875 
z
" id="ArialMT-61"/>
      <path d="M 40.4375 19 
L 49.078125 17.875 
Q 47.65625 8.9375 41.8125 3.875 
Q 35.984375 -1.171875 27.484375 -1.171875 
Q 16.84375 -1.171875 10.375 5.78125 
Q 3.90625 12.75 3.90625 25.734375 
Q 3.90625 34.125 6.6875 40.421875 
Q 9.46875 46.734375 15.15625 49.875 
Q 20.84375 53.03125 27.546875 53.03125 
Q 35.984375 53.03125 41.359375 48.75 
Q 46.734375 44.484375 48.25 36.625 
L 39.703125 35.296875 
Q 38.484375 40.53125 35.375 43.15625 
Q 32.28125 45.796875 27.875 45.796875 
Q 21.234375 45.796875 17.078125 41.03125 
Q 12.9375 36.28125 12.9375 25.984375 
Q 12.9375 15.53125 16.9375 10.796875 
Q 20.953125 6.0625 27.390625 6.0625 
Q 32.5625 6.0625 36.03125 9.234375 
Q 39.5 12.40625 40.4375 19 
" id="ArialMT-63"/>
      <path d="M 3.328125 25.921875 
Q 3.328125 40.328125 11.328125 47.265625 
Q 18.015625 53.03125 27.640625 53.03125 
Q 38.328125 53.03125 45.109375 46.015625 
Q 51.90625 39.015625 51.90625 26.65625 
Q 51.90625 16.65625 48.90625 10.90625 
Q 45.90625 5.171875 40.15625 2 
Q 34.421875 -1.171875 27.640625 -1.171875 
Q 16.75 -1.171875 10.03125 5.8125 
Q 3.328125 12.796875 3.328125 25.921875 
M 12.359375 25.921875 
Q 12.359375 15.96875 16.703125 11.015625 
Q 21.046875 6.0625 27.640625 6.0625 
Q 34.1875 6.0625 38.53125 11.03125 
Q 42.875 16.015625 42.875 26.21875 
Q 42.875 35.84375 38.5 40.796875 
Q 34.125 45.75 27.640625 45.75 
Q 21.046875 45.75 16.703125 40.8125 
Q 12.359375 35.890625 12.359375 25.921875 
" id="ArialMT-6f"/>
      <path d="M 7.421875 0 
L 7.421875 71.578125 
L 21.6875 71.578125 
L 38.625 20.90625 
Q 40.96875 13.8125 42.046875 10.296875 
Q 43.265625 14.203125 45.84375 21.78125 
L 62.984375 71.578125 
L 75.734375 71.578125 
L 75.734375 0 
L 66.609375 0 
L 66.609375 59.90625 
L 45.796875 0 
L 37.25 0 
L 16.546875 60.9375 
L 16.546875 0 
z
" id="ArialMT-4d"/>
      <path d="M 6.59375 0 
L 6.59375 51.859375 
L 14.5 51.859375 
L 14.5 44.484375 
Q 20.21875 53.03125 31 53.03125 
Q 35.6875 53.03125 39.625 51.34375 
Q 43.5625 49.65625 45.515625 46.921875 
Q 47.46875 44.1875 48.25 40.4375 
Q 48.734375 37.984375 48.734375 31.890625 
L 48.734375 0 
L 39.9375 0 
L 39.9375 31.546875 
Q 39.9375 36.921875 38.90625 39.578125 
Q 37.890625 42.234375 35.28125 43.8125 
Q 32.671875 45.40625 29.15625 45.40625 
Q 23.53125 45.40625 19.453125 41.84375 
Q 15.375 38.28125 15.375 28.328125 
L 15.375 0 
z
" id="ArialMT-6e"/>
      <path d="M 58.796875 25.09375 
L 68.265625 22.703125 
Q 65.28125 11.03125 57.546875 4.90625 
Q 49.8125 -1.21875 38.625 -1.21875 
Q 27.046875 -1.21875 19.796875 3.484375 
Q 12.546875 8.203125 8.765625 17.140625 
Q 4.984375 26.078125 4.984375 36.328125 
Q 4.984375 47.515625 9.25 55.828125 
Q 13.53125 64.15625 21.40625 68.46875 
Q 29.296875 72.796875 38.765625 72.796875 
Q 49.515625 72.796875 56.828125 67.328125 
Q 64.15625 61.859375 67.046875 51.953125 
L 57.71875 49.75 
Q 55.21875 57.5625 50.484375 61.125 
Q 45.75 64.703125 38.578125 64.703125 
Q 30.328125 64.703125 24.78125 60.734375 
Q 19.234375 56.78125 16.984375 50.109375 
Q 14.75 43.453125 14.75 36.375 
Q 14.75 27.25 17.40625 20.4375 
Q 20.0625 13.625 25.671875 10.25 
Q 31.296875 6.890625 37.84375 6.890625 
Q 45.796875 6.890625 51.3125 11.46875 
Q 56.84375 16.0625 58.796875 25.09375 
" id="ArialMT-43"/>
      <path d="M 25.78125 7.859375 
L 27.046875 0.09375 
Q 23.34375 -0.6875 20.40625 -0.6875 
Q 15.625 -0.6875 12.984375 0.828125 
Q 10.359375 2.34375 9.28125 4.8125 
Q 8.203125 7.28125 8.203125 15.1875 
L 8.203125 45.015625 
L 1.765625 45.015625 
L 1.765625 51.859375 
L 8.203125 51.859375 
L 8.203125 64.703125 
L 16.9375 69.96875 
L 16.9375 51.859375 
L 25.78125 51.859375 
L 25.78125 45.015625 
L 16.9375 45.015625 
L 16.9375 14.703125 
Q 16.9375 10.9375 17.40625 9.859375 
Q 17.875 8.796875 18.921875 8.15625 
Q 19.96875 7.515625 21.921875 7.515625 
Q 23.390625 7.515625 25.78125 7.859375 
" id="ArialMT-74"/>
     </defs>
     <g style="fill:#262626;" transform="translate(35.00203125 117.976036932)rotate(-90.0)scale(0.11 -0.11)">
      <use xlink:href="#ArialMT-43"/>
      <use x="72.216796875" xlink:href="#ArialMT-6f"/>
      <use x="127.83203125" xlink:href="#ArialMT-6e"/>
      <use x="183.447265625" xlink:href="#ArialMT-63"/>
      <use x="233.447265625" xlink:href="#ArialMT-65"/>
      <use x="289.0625" xlink:href="#ArialMT-6e"/>
      <use x="344.677734375" xlink:href="#ArialMT-74"/>
      <use x="372.4609375" xlink:href="#ArialMT-72"/>
      <use x="405.76171875" xlink:href="#ArialMT-61"/>
      <use x="461.376953125" xlink:href="#ArialMT-74"/>
      <use x="489.16015625" xlink:href="#ArialMT-69"/>
      <use x="511.376953125" xlink:href="#ArialMT-6f"/>
      <use x="566.9921875" xlink:href="#ArialMT-6e"/>
      <use x="622.607421875" xlink:href="#ArialMT-20"/>
      <use x="650.390625" xlink:href="#ArialMT-28"/>
      <use x="683.69140625" xlink:href="#ArialMT-6d"/>
      <use x="766.9921875" xlink:href="#ArialMT-4d"/>
      <use x="850.29296875" xlink:href="#ArialMT-29"/>
     </g>
    </g>
   </g>
   <g id="patch_3">
    <path clip-path="url(#pe30c929327)" d="M 72 109.963636 
L 72 28.8 
L 263.430821 28.8 
L 263.430821 109.963636 
z
" style="fill:#e8f6f2;"/>
   </g>
   <g id="patch_4">
    <path clip-path="url(#pe30c929327)" d="M 263.430821 109.963636 
L 263.430821 28.8 
L 350.600701 28.8 
L 350.600701 109.963636 
z
" style="fill:#feeee8;"/>
   </g>
   <g id="patch_5">
    <path clip-path="url(#pe30c929327)" d="M 350.600701 109.963636 
L 350.600701 28.8 
L 417.349496 28.8 
L 417.349496 109.963636 
z
" style="fill:#eef1f7;"/>
   </g>
   <g id="patch_6">
    <path clip-path="url(#pe30c929327)" d="M 417.349496 109.963636 
L 417.349496 28.8 
L 496.699318 28.8 
L 496.699318 109.963636 
z
" style="fill:#fbedf6;"/>
   </g>
   <g id="line2d_11">
    <path clip-path="url(#pe30c929327)" d="M 72 30.423105 
L 76.289892 30.478608 
L 80.579784 30.537325 
L 84.869676 30.599495 
L 89.159568 30.665356 
L 93.44946 30.735149 
L 97.739353 30.809113 
L 102.029245 30.887487 
L 106.319137 30.97051 
L 110.609029 31.058439 
L 114.898921 31.15164 
L 119.188813 31.250192 
L 123.478705 31.354474 
L 127.768597 31.464865 
L 132.058489 31.581746 
L 136.348381 31.705494 
L 140.638274 31.836489 
L 144.928166 31.975111 
L 149.218058 32.121781 
L 153.50795 32.277003 
L 157.797842 32.440995 
L 162.087734 32.614331 
L 166.377626 32.797583 
L 170.667518 32.991324 
L 174.95741 33.196126 
L 179.247302 33.412563 
L 183.537195 33.641207 
L 187.827087 33.882696 
L 192.116979 34.137699 
L 196.406871 34.406691 
L 200.696763 34.690467 
L 204.986655 34.989818 
L 209.276547 35.30554 
L 213.566439 35.638425 
L 217.856331 35.989268 
L 222.146223 36.358862 
L 226.436116 36.74803 
L 230.726008 37.15764 
L 235.0159 37.588541 
L 239.305792 38.041664 
L 243.595684 38.517941 
L 247.885576 39.018302 
L 252.175468 39.543679 
L 256.46536 40.095002 
L 260.755252 40.673203 
L 265.045144 41.278939 
L 269.335037 41.910303 
L 273.624929 42.567191 
L 277.914821 43.250177 
L 282.204713 43.959818 
L 286.494605 44.696675 
L 290.784497 45.461222 
L 295.074389 46.253863 
L 299.364281 47.074985 
L 303.654173 47.92496 
L 307.944065 48.80405 
L 312.233958 49.712394 
L 316.52385 50.650113 
L 320.813742 51.617294 
L 325.103634 52.613894 
L 329.393526 53.63969 
L 333.683418 54.694444 
L 337.97331 55.777852 
L 342.263202 56.889489 
L 346.553094 58.028685 
L 350.842986 59.194748 
L 355.132878 60.37988 
L 359.422771 61.577409 
L 363.712663 62.786222 
L 368.002555 64.005182 
L 372.292447 65.2331 
L 376.582339 66.468721 
L 380.872231 67.710775 
L 385.162123 68.957955 
L 389.452015 70.208905 
L 393.741907 71.462262 
L 398.031799 72.716639 
L 402.321692 73.970624 
L 406.611584 75.222803 
L 410.901476 76.471753 
L 415.191368 77.716053 
L 419.48126 78.950557 
L 423.771152 80.152193 
L 428.061044 81.318035 
L 432.350936 82.449048 
L 436.640828 83.546183 
L 440.93072 84.61037 
L 445.220613 85.642474 
L 449.510505 86.643356 
L 453.800397 87.613856 
L 458.090289 88.554781 
L 462.380181 89.466892 
L 466.670073 90.350944 
L 470.959965 91.207677 
L 475.249857 92.037779 
L 479.539749 92.841915 
L 483.829641 93.620741 
L 488.119534 94.374895 
L 492.409426 95.10496 
L 496.699318 95.811514 
" style="fill:none;stroke:#4c72b0;stroke-linecap:round;stroke-width:1.75;"/>
   </g>
   <g id="line2d_12">
    <path clip-path="url(#pe30c929327)" d="M 72 109.963636 
L 76.289892 109.907974 
L 80.579784 109.849089 
L 84.869676 109.786741 
L 89.159568 109.720691 
L 93.44946 109.650697 
L 97.739353 109.576522 
L 102.029245 109.497923 
L 106.319137 109.414661 
L 110.609029 109.326481 
L 114.898921 109.233013 
L 119.188813 109.134178 
L 123.478705 109.029597 
L 127.768597 108.918889 
L 132.058489 108.801674 
L 136.348381 108.677571 
L 140.638274 108.5462 
L 144.928166 108.407181 
L 149.218058 108.26009 
L 153.50795 108.104423 
L 157.797842 107.93996 
L 162.087734 107.766127 
L 166.377626 107.58235 
L 170.667518 107.388053 
L 174.95741 107.182664 
L 179.247302 106.965606 
L 183.537195 106.736307 
L 187.827087 106.494125 
L 192.116979 106.238391 
L 196.406871 105.968627 
L 200.696763 105.684039 
L 204.986655 105.383829 
L 209.276547 105.067202 
L 213.566439 104.733362 
L 217.856331 104.381513 
L 222.146223 104.010859 
L 226.436116 103.620575 
L 230.726008 103.209791 
L 235.0159 102.777654 
L 239.305792 102.323232 
L 243.595684 101.845589 
L 247.885576 101.343793 
L 252.175468 100.81691 
L 256.46536 100.264006 
L 260.755252 99.684147 
L 265.045144 99.053052 
L 269.335037 98.355343 
L 273.624929 97.629428 
L 277.914821 96.874673 
L 282.204713 96.09046 
L 286.494605 95.276173 
L 290.784497 94.431286 
L 295.074389 93.555352 
L 299.364281 92.647945 
L 303.654173 91.708652 
L 307.944065 90.737186 
L 312.233958 89.733391 
L 316.52385 88.697134 
L 320.813742 87.62832 
L 325.103634 86.526994 
L 329.393526 85.393405 
L 333.683418 84.227815 
L 337.97331 83.03056 
L 342.263202 81.80211 
L 346.553094 80.543205 
L 350.842986 79.246249 
L 355.132878 77.787676 
L 359.422771 76.313846 
L 363.712663 74.826128 
L 368.002555 73.325923 
L 372.292447 71.814693 
L 376.582339 70.293983 
L 380.872231 68.765354 
L 385.162123 67.230418 
L 389.452015 65.690841 
L 393.741907 64.148302 
L 398.031799 62.604508 
L 402.321692 61.061197 
L 406.611584 59.520107 
L 410.901476 57.982992 
L 415.191368 56.451601 
L 419.48126 54.78942 
L 423.771152 53.029487 
L 428.061044 51.321979 
L 432.350936 49.665481 
L 436.640828 48.058601 
L 440.93072 46.499978 
L 445.220613 44.988343 
L 449.510505 43.522438 
L 453.800397 42.10103 
L 458.090289 40.722938 
L 462.380181 39.387046 
L 466.670073 38.092251 
L 470.959965 36.837468 
L 475.249857 35.62169 
L 479.539749 34.44394 
L 483.829641 33.30326 
L 488.119534 32.198717 
L 492.409426 31.129453 
L 496.699318 30.094624 
" style="fill:none;stroke:#55a868;stroke-linecap:round;stroke-width:1.75;"/>
   </g>
   <g id="line2d_13">
    <path clip-path="url(#pe30c929327)" d="M 72 109.963636 
L 76.289892 109.938919 
L 80.579784 109.91277 
L 84.869676 109.885084 
L 89.159568 109.855753 
L 93.44946 109.824672 
L 97.739353 109.791733 
L 102.029245 109.756831 
L 106.319137 109.719858 
L 110.609029 109.6807 
L 114.898921 109.639194 
L 119.188813 109.595306 
L 123.478705 109.548865 
L 127.768597 109.499704 
L 132.058489 109.447653 
L 136.348381 109.392544 
L 140.638274 109.334207 
L 144.928166 109.272474 
L 149.218058 109.207156 
L 153.50795 109.138031 
L 157.797842 109.064999 
L 162.087734 108.987806 
L 166.377626 108.906198 
L 170.667518 108.819918 
L 174.95741 108.728713 
L 179.247302 108.632326 
L 183.537195 108.530502 
L 187.827087 108.422959 
L 192.116979 108.309397 
L 196.406871 108.189605 
L 200.696763 108.06323 
L 204.986655 107.929919 
L 209.276547 107.789317 
L 213.566439 107.641071 
L 217.856331 107.484829 
L 222.146223 107.320235 
L 226.436116 107.146925 
L 230.726008 106.964511 
L 235.0159 106.772616 
L 239.305792 106.570824 
L 243.595684 106.358722 
L 247.885576 106.135893 
L 252.175468 105.901924 
L 256.46536 105.656401 
L 260.755252 105.398907 
L 265.045144 105.123288 
L 269.335037 104.826099 
L 273.624929 104.516895 
L 277.914821 104.195406 
L 282.204713 103.861371 
L 286.494605 103.514525 
L 290.784497 103.154645 
L 295.074389 102.781541 
L 299.364281 102.395031 
L 303.654173 101.994939 
L 307.944065 101.581142 
L 312.233958 101.153576 
L 316.52385 100.712181 
L 320.813742 100.25692 
L 325.103634 99.78781 
L 329.393526 99.304957 
L 333.683418 98.808474 
L 337.97331 98.298503 
L 342.263202 97.775244 
L 346.553094 97.239013 
L 350.842986 96.694634 
L 355.132878 96.216893 
L 359.422771 95.734156 
L 363.712663 95.246869 
L 368.002555 94.755493 
L 372.292447 94.260505 
L 376.582339 93.762412 
L 380.872231 93.261726 
L 385.162123 92.758973 
L 389.452015 92.254701 
L 393.741907 91.749458 
L 398.031799 91.243805 
L 402.321692 90.738309 
L 406.611584 90.233541 
L 410.901476 89.730075 
L 415.191368 89.228484 
L 419.48126 88.71019 
L 423.771152 88.185164 
L 428.061044 87.675778 
L 432.350936 87.18161 
L 436.640828 86.702244 
L 440.93072 86.237273 
L 445.220613 85.786321 
L 449.510505 85.34901 
L 453.800397 84.924974 
L 458.090289 84.51386 
L 462.380181 84.115335 
L 466.670073 83.72907 
L 470.959965 83.354742 
L 475.249857 82.992049 
L 479.539749 82.640702 
L 483.829641 82.300413 
L 488.119534 81.970904 
L 492.409426 81.65192 
L 496.699318 81.343209 
" style="fill:none;stroke:#c44e52;stroke-linecap:round;stroke-width:1.75;"/>
   </g>
   <g id="patch_7">
    <path d="M 72 109.963636 
L 518.4 109.963636 
" style="fill:none;stroke:#262626;stroke-linecap:square;stroke-linejoin:miter;stroke-width:1.25;"/>
   </g>
   <g id="patch_8">
    <path d="M 518.4 109.963636 
L 518.4 28.8 
" style="fill:none;stroke:#262626;stroke-linecap:square;stroke-linejoin:miter;stroke-width:1.25;"/>
   </g>
   <g id="patch_9">
    <path d="M 72 109.963636 
L 72 28.8 
" style="fill:none;stroke:#262626;stroke-linecap:square;stroke-linejoin:miter;stroke-width:1.25;"/>
   </g>
   <g id="text_13">
    <!-- A. succinogenes maximum succinate producitivity -->
    <defs>
     <path d="M 6.59375 -19.875 
L 6.59375 51.859375 
L 14.59375 51.859375 
L 14.59375 45.125 
Q 17.4375 49.078125 21 51.046875 
Q 24.5625 53.03125 29.640625 53.03125 
Q 36.28125 53.03125 41.359375 49.609375 
Q 46.4375 46.1875 49.015625 39.953125 
Q 51.609375 33.734375 51.609375 26.3125 
Q 51.609375 18.359375 48.75 11.984375 
Q 45.90625 5.609375 40.453125 2.21875 
Q 35.015625 -1.171875 29 -1.171875 
Q 24.609375 -1.171875 21.109375 0.6875 
Q 17.625 2.546875 15.375 5.375 
L 15.375 -19.875 
z
M 14.546875 25.640625 
Q 14.546875 15.625 18.59375 10.84375 
Q 22.65625 6.0625 28.421875 6.0625 
Q 34.28125 6.0625 38.453125 11.015625 
Q 42.625 15.96875 42.625 26.375 
Q 42.625 36.28125 38.546875 41.203125 
Q 34.46875 46.140625 28.8125 46.140625 
Q 23.1875 46.140625 18.859375 40.890625 
Q 14.546875 35.640625 14.546875 25.640625 
" id="ArialMT-70"/>
     <path d="M 3.078125 15.484375 
L 11.765625 16.84375 
Q 12.5 11.625 15.84375 8.84375 
Q 19.1875 6.0625 25.203125 6.0625 
Q 31.25 6.0625 34.171875 8.515625 
Q 37.109375 10.984375 37.109375 14.3125 
Q 37.109375 17.28125 34.515625 19 
Q 32.71875 20.171875 25.53125 21.96875 
Q 15.875 24.421875 12.140625 26.203125 
Q 8.40625 27.984375 6.46875 31.125 
Q 4.546875 34.28125 4.546875 38.09375 
Q 4.546875 41.546875 6.125 44.5 
Q 7.71875 47.46875 10.453125 49.421875 
Q 12.5 50.921875 16.03125 51.96875 
Q 19.578125 53.03125 23.640625 53.03125 
Q 29.734375 53.03125 34.34375 51.265625 
Q 38.96875 49.515625 41.15625 46.5 
Q 43.359375 43.5 44.1875 38.484375 
L 35.59375 37.3125 
Q 35.015625 41.3125 32.203125 43.546875 
Q 29.390625 45.796875 24.265625 45.796875 
Q 18.21875 45.796875 15.625 43.796875 
Q 13.03125 41.796875 13.03125 39.109375 
Q 13.03125 37.40625 14.109375 36.03125 
Q 15.1875 34.625 17.484375 33.6875 
Q 18.796875 33.203125 25.25 31.453125 
Q 34.578125 28.953125 38.25 27.359375 
Q 41.9375 25.78125 44.03125 22.75 
Q 46.140625 19.734375 46.140625 15.234375 
Q 46.140625 10.84375 43.578125 6.953125 
Q 41.015625 3.078125 36.171875 0.953125 
Q 31.34375 -1.171875 25.25 -1.171875 
Q 15.140625 -1.171875 9.84375 3.03125 
Q 4.546875 7.234375 3.078125 15.484375 
" id="ArialMT-73"/>
     <path d="M 0.734375 0 
L 19.671875 26.953125 
L 2.15625 51.859375 
L 13.140625 51.859375 
L 21.09375 39.703125 
Q 23.34375 36.234375 24.703125 33.890625 
Q 26.859375 37.109375 28.65625 39.59375 
L 37.40625 51.859375 
L 47.90625 51.859375 
L 29.984375 27.4375 
L 49.265625 0 
L 38.484375 0 
L 27.828125 16.109375 
L 25 20.453125 
L 11.375 0 
z
" id="ArialMT-78"/>
     <path d="M 9.078125 0 
L 9.078125 10.015625 
L 19.09375 10.015625 
L 19.09375 0 
z
" id="ArialMT-2e"/>
     <path d="M -0.140625 0 
L 27.34375 71.578125 
L 37.546875 71.578125 
L 66.84375 0 
L 56.0625 0 
L 47.703125 21.6875 
L 17.78125 21.6875 
L 9.90625 0 
z
M 20.515625 29.390625 
L 44.78125 29.390625 
L 37.3125 49.21875 
Q 33.890625 58.25 32.234375 64.0625 
Q 30.859375 57.171875 28.375 50.390625 
z
" id="ArialMT-41"/>
     <path d="M 6.203125 -19.96875 
L 5.21875 -11.71875 
Q 8.109375 -12.5 10.25 -12.5 
Q 13.1875 -12.5 14.9375 -11.515625 
Q 16.703125 -10.546875 17.828125 -8.796875 
Q 18.65625 -7.46875 20.515625 -2.25 
Q 20.75 -1.515625 21.296875 -0.09375 
L 1.609375 51.859375 
L 11.078125 51.859375 
L 21.875 21.828125 
Q 23.96875 16.109375 25.640625 9.8125 
Q 27.15625 15.875 29.25 21.625 
L 40.328125 51.859375 
L 49.125 51.859375 
L 29.390625 -0.875 
Q 26.21875 -9.421875 24.46875 -12.640625 
Q 22.125 -17 19.09375 -19.015625 
Q 16.0625 -21.046875 11.859375 -21.046875 
Q 9.328125 -21.046875 6.203125 -19.96875 
" id="ArialMT-79"/>
     <path d="M 40.578125 0 
L 40.578125 7.625 
Q 34.515625 -1.171875 24.125 -1.171875 
Q 19.53125 -1.171875 15.546875 0.578125 
Q 11.578125 2.34375 9.640625 5 
Q 7.71875 7.671875 6.9375 11.53125 
Q 6.390625 14.109375 6.390625 19.734375 
L 6.390625 51.859375 
L 15.1875 51.859375 
L 15.1875 23.09375 
Q 15.1875 16.21875 15.71875 13.8125 
Q 16.546875 10.359375 19.234375 8.375 
Q 21.921875 6.390625 25.875 6.390625 
Q 29.828125 6.390625 33.296875 8.421875 
Q 36.765625 10.453125 38.203125 13.9375 
Q 39.65625 17.4375 39.65625 24.078125 
L 39.65625 51.859375 
L 48.4375 51.859375 
L 48.4375 0 
z
" id="ArialMT-75"/>
     <path d="M 4.984375 -4.296875 
L 13.53125 -5.5625 
Q 14.0625 -9.515625 16.5 -11.328125 
Q 19.78125 -13.765625 25.4375 -13.765625 
Q 31.546875 -13.765625 34.859375 -11.328125 
Q 38.1875 -8.890625 39.359375 -4.5 
Q 40.046875 -1.8125 39.984375 6.78125 
Q 34.234375 0 25.640625 0 
Q 14.9375 0 9.078125 7.71875 
Q 3.21875 15.4375 3.21875 26.21875 
Q 3.21875 33.640625 5.90625 39.90625 
Q 8.59375 46.1875 13.6875 49.609375 
Q 18.796875 53.03125 25.6875 53.03125 
Q 34.859375 53.03125 40.828125 45.609375 
L 40.828125 51.859375 
L 48.921875 51.859375 
L 48.921875 7.03125 
Q 48.921875 -5.078125 46.453125 -10.125 
Q 44 -15.1875 38.640625 -18.109375 
Q 33.296875 -21.046875 25.484375 -21.046875 
Q 16.21875 -21.046875 10.5 -16.875 
Q 4.78125 -12.703125 4.984375 -4.296875 
M 12.25 26.859375 
Q 12.25 16.65625 16.296875 11.96875 
Q 20.359375 7.28125 26.46875 7.28125 
Q 32.515625 7.28125 36.609375 11.9375 
Q 40.71875 16.609375 40.71875 26.5625 
Q 40.71875 36.078125 36.5 40.90625 
Q 32.28125 45.75 26.3125 45.75 
Q 20.453125 45.75 16.34375 40.984375 
Q 12.25 36.234375 12.25 26.859375 
" id="ArialMT-67"/>
     <path d="M 21 0 
L 1.265625 51.859375 
L 10.546875 51.859375 
L 21.6875 20.796875 
Q 23.484375 15.765625 25 10.359375 
Q 26.171875 14.453125 28.265625 20.21875 
L 39.796875 51.859375 
L 48.828125 51.859375 
L 29.203125 0 
z
" id="ArialMT-76"/>
     <path d="M 40.234375 0 
L 40.234375 6.546875 
Q 35.296875 -1.171875 25.734375 -1.171875 
Q 19.53125 -1.171875 14.328125 2.25 
Q 9.125 5.671875 6.265625 11.796875 
Q 3.421875 17.921875 3.421875 25.875 
Q 3.421875 33.640625 6 39.96875 
Q 8.59375 46.296875 13.765625 49.65625 
Q 18.953125 53.03125 25.34375 53.03125 
Q 30.03125 53.03125 33.6875 51.046875 
Q 37.359375 49.078125 39.65625 45.90625 
L 39.65625 71.578125 
L 48.390625 71.578125 
L 48.390625 0 
z
M 12.453125 25.875 
Q 12.453125 15.921875 16.640625 10.984375 
Q 20.84375 6.0625 26.5625 6.0625 
Q 32.328125 6.0625 36.34375 10.765625 
Q 40.375 15.484375 40.375 25.140625 
Q 40.375 35.796875 36.265625 40.765625 
Q 32.171875 45.75 26.171875 45.75 
Q 20.3125 45.75 16.375 40.96875 
Q 12.453125 36.1875 12.453125 25.875 
" id="ArialMT-64"/>
    </defs>
    <g style="fill:#262626;" transform="translate(163.15125 23.8)scale(0.12 -0.12)">
     <use xlink:href="#ArialMT-41"/>
     <use x="66.69921875" xlink:href="#ArialMT-2e"/>
     <use x="94.482421875" xlink:href="#ArialMT-20"/>
     <use x="122.265625" xlink:href="#ArialMT-73"/>
     <use x="172.265625" xlink:href="#ArialMT-75"/>
     <use x="227.880859375" xlink:href="#ArialMT-63"/>
     <use x="277.880859375" xlink:href="#ArialMT-63"/>
     <use x="327.880859375" xlink:href="#ArialMT-69"/>
     <use x="350.09765625" xlink:href="#ArialMT-6e"/>
     <use x="405.712890625" xlink:href="#ArialMT-6f"/>
     <use x="461.328125" xlink:href="#ArialMT-67"/>
     <use x="516.943359375" xlink:href="#ArialMT-65"/>
     <use x="572.55859375" xlink:href="#ArialMT-6e"/>
     <use x="628.173828125" xlink:href="#ArialMT-65"/>
     <use x="683.7890625" xlink:href="#ArialMT-73"/>
     <use x="733.7890625" xlink:href="#ArialMT-20"/>
     <use x="761.572265625" xlink:href="#ArialMT-6d"/>
     <use x="844.873046875" xlink:href="#ArialMT-61"/>
     <use x="900.48828125" xlink:href="#ArialMT-78"/>
     <use x="950.48828125" xlink:href="#ArialMT-69"/>
     <use x="972.705078125" xlink:href="#ArialMT-6d"/>
     <use x="1056.005859375" xlink:href="#ArialMT-75"/>
     <use x="1111.62109375" xlink:href="#ArialMT-6d"/>
     <use x="1194.921875" xlink:href="#ArialMT-20"/>
     <use x="1222.705078125" xlink:href="#ArialMT-73"/>
     <use x="1272.705078125" xlink:href="#ArialMT-75"/>
     <use x="1328.3203125" xlink:href="#ArialMT-63"/>
     <use x="1378.3203125" xlink:href="#ArialMT-63"/>
     <use x="1428.3203125" xlink:href="#ArialMT-69"/>
     <use x="1450.537109375" xlink:href="#ArialMT-6e"/>
     <use x="1506.15234375" xlink:href="#ArialMT-61"/>
     <use x="1561.767578125" xlink:href="#ArialMT-74"/>
     <use x="1589.55078125" xlink:href="#ArialMT-65"/>
     <use x="1645.166015625" xlink:href="#ArialMT-20"/>
     <use x="1672.94921875" xlink:href="#ArialMT-70"/>
     <use x="1728.564453125" xlink:href="#ArialMT-72"/>
     <use x="1761.865234375" xlink:href="#ArialMT-6f"/>
     <use x="1817.48046875" xlink:href="#ArialMT-64"/>
     <use x="1873.095703125" xlink:href="#ArialMT-75"/>
     <use x="1928.7109375" xlink:href="#ArialMT-63"/>
     <use x="1978.7109375" xlink:href="#ArialMT-69"/>
     <use x="2000.927734375" xlink:href="#ArialMT-74"/>
     <use x="2028.7109375" xlink:href="#ArialMT-69"/>
     <use x="2050.927734375" xlink:href="#ArialMT-76"/>
     <use x="2100.927734375" xlink:href="#ArialMT-69"/>
     <use x="2123.14453125" xlink:href="#ArialMT-74"/>
     <use x="2150.927734375" xlink:href="#ArialMT-79"/>
    </g>
   </g>
   <g id="legend_1">
    <g id="line2d_14">
     <path d="M 81 47.249006 
L 101 47.249006 
" style="fill:none;stroke:#4c72b0;stroke-linecap:round;stroke-width:1.75;"/>
    </g>
    <g id="line2d_15"/>
    <g id="text_14">
     <!-- Glucose -->
     <defs>
      <path d="M 6.390625 0 
L 6.390625 71.578125 
L 15.1875 71.578125 
L 15.1875 0 
z
" id="ArialMT-6c"/>
      <path d="M 41.21875 28.078125 
L 41.21875 36.46875 
L 71.53125 36.53125 
L 71.53125 9.96875 
Q 64.546875 4.390625 57.125 1.578125 
Q 49.703125 -1.21875 41.890625 -1.21875 
Q 31.34375 -1.21875 22.71875 3.296875 
Q 14.109375 7.8125 9.71875 16.359375 
Q 5.328125 24.90625 5.328125 35.453125 
Q 5.328125 45.90625 9.6875 54.953125 
Q 14.0625 64.015625 22.265625 68.40625 
Q 30.46875 72.796875 41.15625 72.796875 
Q 48.921875 72.796875 55.1875 70.28125 
Q 61.46875 67.78125 65.03125 63.28125 
Q 68.609375 58.796875 70.453125 51.5625 
L 61.921875 49.21875 
Q 60.296875 54.6875 57.90625 57.8125 
Q 55.515625 60.9375 51.0625 62.8125 
Q 46.625 64.703125 41.21875 64.703125 
Q 34.71875 64.703125 29.984375 62.71875 
Q 25.25 60.75 22.34375 57.515625 
Q 19.4375 54.296875 17.828125 50.4375 
Q 15.09375 43.796875 15.09375 36.03125 
Q 15.09375 26.46875 18.390625 20.015625 
Q 21.6875 13.578125 27.984375 10.453125 
Q 34.28125 7.328125 41.359375 7.328125 
Q 47.515625 7.328125 53.375 9.6875 
Q 59.234375 12.0625 62.25 14.75 
L 62.25 28.078125 
z
" id="ArialMT-47"/>
     </defs>
     <g style="fill:#262626;" transform="translate(109.0 50.7490056818)scale(0.1 -0.1)">
      <use xlink:href="#ArialMT-47"/>
      <use x="77.783203125" xlink:href="#ArialMT-6c"/>
      <use x="100.0" xlink:href="#ArialMT-75"/>
      <use x="155.615234375" xlink:href="#ArialMT-63"/>
      <use x="205.615234375" xlink:href="#ArialMT-6f"/>
      <use x="261.23046875" xlink:href="#ArialMT-73"/>
      <use x="311.23046875" xlink:href="#ArialMT-65"/>
     </g>
    </g>
    <g id="line2d_16">
     <path d="M 81 61.394318 
L 101 61.394318 
" style="fill:none;stroke:#55a868;stroke-linecap:round;stroke-width:1.75;"/>
    </g>
    <g id="line2d_17"/>
    <g id="text_15">
     <!-- Succinate -->
     <defs>
      <path d="M 4.5 23 
L 13.421875 23.78125 
Q 14.0625 18.40625 16.375 14.96875 
Q 18.703125 11.53125 23.578125 9.40625 
Q 28.46875 7.28125 34.578125 7.28125 
Q 39.984375 7.28125 44.140625 8.890625 
Q 48.296875 10.5 50.3125 13.296875 
Q 52.34375 16.109375 52.34375 19.4375 
Q 52.34375 22.796875 50.390625 25.3125 
Q 48.4375 27.828125 43.953125 29.546875 
Q 41.0625 30.671875 31.203125 33.03125 
Q 21.34375 35.40625 17.390625 37.5 
Q 12.25 40.1875 9.734375 44.15625 
Q 7.234375 48.140625 7.234375 53.078125 
Q 7.234375 58.5 10.296875 63.203125 
Q 13.375 67.921875 19.28125 70.359375 
Q 25.203125 72.796875 32.421875 72.796875 
Q 40.375 72.796875 46.453125 70.234375 
Q 52.546875 67.671875 55.8125 62.6875 
Q 59.078125 57.71875 59.328125 51.421875 
L 50.25 50.734375 
Q 49.515625 57.515625 45.28125 60.984375 
Q 41.0625 64.453125 32.8125 64.453125 
Q 24.21875 64.453125 20.28125 61.296875 
Q 16.359375 58.15625 16.359375 53.71875 
Q 16.359375 49.859375 19.140625 47.359375 
Q 21.875 44.875 33.421875 42.265625 
Q 44.96875 39.65625 49.265625 37.703125 
Q 55.515625 34.8125 58.484375 30.390625 
Q 61.46875 25.984375 61.46875 20.21875 
Q 61.46875 14.5 58.203125 9.4375 
Q 54.9375 4.390625 48.796875 1.578125 
Q 42.671875 -1.21875 35.015625 -1.21875 
Q 25.296875 -1.21875 18.71875 1.609375 
Q 12.15625 4.4375 8.421875 10.125 
Q 4.6875 15.828125 4.5 23 
" id="ArialMT-53"/>
     </defs>
     <g style="fill:#262626;" transform="translate(109.0 64.8943181818)scale(0.1 -0.1)">
      <use xlink:href="#ArialMT-53"/>
      <use x="66.69921875" xlink:href="#ArialMT-75"/>
      <use x="122.314453125" xlink:href="#ArialMT-63"/>
      <use x="172.314453125" xlink:href="#ArialMT-63"/>
      <use x="222.314453125" xlink:href="#ArialMT-69"/>
      <use x="244.53125" xlink:href="#ArialMT-6e"/>
      <use x="300.146484375" xlink:href="#ArialMT-61"/>
      <use x="355.76171875" xlink:href="#ArialMT-74"/>
      <use x="383.544921875" xlink:href="#ArialMT-65"/>
     </g>
    </g>
    <g id="line2d_18">
     <path d="M 81 75.539631 
L 101 75.539631 
" style="fill:none;stroke:#c44e52;stroke-linecap:round;stroke-width:1.75;"/>
    </g>
    <g id="line2d_19"/>
    <g id="text_16">
     <!-- Acetate -->
     <g style="fill:#262626;" transform="translate(109.0 79.0396306818)scale(0.1 -0.1)">
      <use xlink:href="#ArialMT-41"/>
      <use x="66.69921875" xlink:href="#ArialMT-63"/>
      <use x="116.69921875" xlink:href="#ArialMT-65"/>
      <use x="172.314453125" xlink:href="#ArialMT-74"/>
      <use x="200.09765625" xlink:href="#ArialMT-61"/>
      <use x="255.712890625" xlink:href="#ArialMT-74"/>
      <use x="283.49609375" xlink:href="#ArialMT-65"/>
     </g>
    </g>
    <g id="line2d_20">
     <path d="M 81 89.684943 
L 101 89.684943 
" style="fill:none;stroke:#ccb974;stroke-linecap:round;stroke-width:1.75;"/>
    </g>
    <g id="line2d_21"/>
    <g id="text_17">
     <!-- Biomass -->
     <defs>
      <path d="M 7.328125 0 
L 7.328125 71.578125 
L 34.1875 71.578125 
Q 42.390625 71.578125 47.34375 69.40625 
Q 52.296875 67.234375 55.09375 62.71875 
Q 57.90625 58.203125 57.90625 53.265625 
Q 57.90625 48.6875 55.421875 44.625 
Q 52.9375 40.578125 47.90625 38.09375 
Q 54.390625 36.1875 57.875 31.59375 
Q 61.375 27 61.375 20.75 
Q 61.375 15.71875 59.25 11.390625 
Q 57.125 7.078125 54 4.734375 
Q 50.875 2.390625 46.15625 1.1875 
Q 41.453125 0 34.625 0 
z
M 16.796875 41.5 
L 32.28125 41.5 
Q 38.578125 41.5 41.3125 42.328125 
Q 44.921875 43.40625 46.75 45.890625 
Q 48.578125 48.390625 48.578125 52.15625 
Q 48.578125 55.71875 46.875 58.421875 
Q 45.171875 61.140625 41.984375 62.140625 
Q 38.8125 63.140625 31.109375 63.140625 
L 16.796875 63.140625 
z
M 16.796875 8.453125 
L 34.625 8.453125 
Q 39.203125 8.453125 41.0625 8.796875 
Q 44.34375 9.375 46.53125 10.734375 
Q 48.734375 12.109375 50.140625 14.71875 
Q 51.5625 17.328125 51.5625 20.75 
Q 51.5625 24.75 49.515625 27.703125 
Q 47.46875 30.671875 43.828125 31.859375 
Q 40.1875 33.0625 33.34375 33.0625 
L 16.796875 33.0625 
z
" id="ArialMT-42"/>
     </defs>
     <g style="fill:#262626;" transform="translate(109.0 93.1849431818)scale(0.1 -0.1)">
      <use xlink:href="#ArialMT-42"/>
      <use x="66.69921875" xlink:href="#ArialMT-69"/>
      <use x="88.916015625" xlink:href="#ArialMT-6f"/>
      <use x="144.53125" xlink:href="#ArialMT-6d"/>
      <use x="227.83203125" xlink:href="#ArialMT-61"/>
      <use x="283.447265625" xlink:href="#ArialMT-73"/>
      <use x="333.447265625" xlink:href="#ArialMT-73"/>
     </g>
    </g>
   </g>
  </g>
  <g id="axes_2">
   <g id="matplotlib.axis_3">
    <g id="ytick_7">
     <g id="line2d_22">
      <defs>
       <path d="M 0 0 
L 6 0 
" id="md7161cea22" style="stroke:#262626;"/>
      </defs>
      <g>
       <use style="fill:#262626;stroke:#262626;" x="518.4" xlink:href="#md7161cea22" y="109.963636364"/>
      </g>
     </g>
     <g id="text_18">
      <!-- 0 -->
      <g style="fill:#262626;" transform="translate(531.4 112.548792614)scale(0.1 -0.1)">
       <use xlink:href="#ArialMT-30"/>
      </g>
     </g>
    </g>
    <g id="ytick_8">
     <g id="line2d_23">
      <g>
       <use style="fill:#262626;stroke:#262626;" x="518.4" xlink:href="#md7161cea22" y="93.7309090909"/>
      </g>
     </g>
     <g id="text_19">
      <!-- 1 -->
      <g style="fill:#262626;" transform="translate(531.4 96.3160653409)scale(0.1 -0.1)">
       <use xlink:href="#ArialMT-31"/>
      </g>
     </g>
    </g>
    <g id="ytick_9">
     <g id="line2d_24">
      <g>
       <use style="fill:#262626;stroke:#262626;" x="518.4" xlink:href="#md7161cea22" y="77.4981818182"/>
      </g>
     </g>
     <g id="text_20">
      <!-- 2 -->
      <g style="fill:#262626;" transform="translate(531.4 80.0833380682)scale(0.1 -0.1)">
       <use xlink:href="#ArialMT-32"/>
      </g>
     </g>
    </g>
    <g id="ytick_10">
     <g id="line2d_25">
      <g>
       <use style="fill:#262626;stroke:#262626;" x="518.4" xlink:href="#md7161cea22" y="61.2654545455"/>
      </g>
     </g>
     <g id="text_21">
      <!-- 3 -->
      <defs>
       <path d="M 4.203125 18.890625 
L 12.984375 20.0625 
Q 14.5 12.59375 18.140625 9.296875 
Q 21.78125 6 27 6 
Q 33.203125 6 37.46875 10.296875 
Q 41.75 14.59375 41.75 20.953125 
Q 41.75 27 37.796875 30.921875 
Q 33.84375 34.859375 27.734375 34.859375 
Q 25.25 34.859375 21.53125 33.890625 
L 22.515625 41.609375 
Q 23.390625 41.5 23.921875 41.5 
Q 29.546875 41.5 34.03125 44.421875 
Q 38.53125 47.359375 38.53125 53.46875 
Q 38.53125 58.296875 35.25 61.46875 
Q 31.984375 64.65625 26.8125 64.65625 
Q 21.6875 64.65625 18.265625 61.421875 
Q 14.84375 58.203125 13.875 51.765625 
L 5.078125 53.328125 
Q 6.6875 62.15625 12.390625 67.015625 
Q 18.109375 71.875 26.609375 71.875 
Q 32.46875 71.875 37.390625 69.359375 
Q 42.328125 66.84375 44.9375 62.5 
Q 47.5625 58.15625 47.5625 53.265625 
Q 47.5625 48.640625 45.0625 44.828125 
Q 42.578125 41.015625 37.703125 38.765625 
Q 44.046875 37.3125 47.5625 32.6875 
Q 51.078125 28.078125 51.078125 21.140625 
Q 51.078125 11.765625 44.234375 5.25 
Q 37.40625 -1.265625 26.953125 -1.265625 
Q 17.53125 -1.265625 11.296875 4.34375 
Q 5.078125 9.96875 4.203125 18.890625 
" id="ArialMT-33"/>
      </defs>
      <g style="fill:#262626;" transform="translate(531.4 63.8506107955)scale(0.1 -0.1)">
       <use xlink:href="#ArialMT-33"/>
      </g>
     </g>
    </g>
    <g id="ytick_11">
     <g id="line2d_26">
      <g>
       <use style="fill:#262626;stroke:#262626;" x="518.4" xlink:href="#md7161cea22" y="45.0327272727"/>
      </g>
     </g>
     <g id="text_22">
      <!-- 4 -->
      <defs>
       <path d="M 32.328125 0 
L 32.328125 17.140625 
L 1.265625 17.140625 
L 1.265625 25.203125 
L 33.9375 71.578125 
L 41.109375 71.578125 
L 41.109375 25.203125 
L 50.78125 25.203125 
L 50.78125 17.140625 
L 41.109375 17.140625 
L 41.109375 0 
z
M 32.328125 25.203125 
L 32.328125 57.46875 
L 9.90625 25.203125 
z
" id="ArialMT-34"/>
      </defs>
      <g style="fill:#262626;" transform="translate(531.4 47.6178835227)scale(0.1 -0.1)">
       <use xlink:href="#ArialMT-34"/>
      </g>
     </g>
    </g>
    <g id="ytick_12">
     <g id="line2d_27">
      <g>
       <use style="fill:#262626;stroke:#262626;" x="518.4" xlink:href="#md7161cea22" y="28.8"/>
      </g>
     </g>
     <g id="text_23">
      <!-- 5 -->
      <g style="fill:#262626;" transform="translate(531.4 31.38515625)scale(0.1 -0.1)">
       <use xlink:href="#ArialMT-35"/>
      </g>
     </g>
    </g>
    <g id="text_24">
     <!-- Biomass (g DCW/L) -->
     <defs>
      <path d="M 7.71875 0 
L 7.71875 71.578125 
L 32.375 71.578125 
Q 40.71875 71.578125 45.125 70.5625 
Q 51.265625 69.140625 55.609375 65.4375 
Q 61.28125 60.640625 64.078125 53.1875 
Q 66.890625 45.75 66.890625 36.1875 
Q 66.890625 28.03125 64.984375 21.734375 
Q 63.09375 15.4375 60.109375 11.296875 
Q 57.125 7.171875 53.578125 4.796875 
Q 50.046875 2.4375 45.046875 1.21875 
Q 40.046875 0 33.546875 0 
z
M 17.1875 8.453125 
L 32.46875 8.453125 
Q 39.546875 8.453125 43.578125 9.765625 
Q 47.609375 11.078125 50 13.484375 
Q 53.375 16.84375 55.25 22.53125 
Q 57.125 28.21875 57.125 36.328125 
Q 57.125 47.5625 53.4375 53.59375 
Q 49.75 59.625 44.484375 61.671875 
Q 40.671875 63.140625 32.234375 63.140625 
L 17.1875 63.140625 
z
" id="ArialMT-44"/>
      <path d="M 20.21875 0 
L 1.21875 71.578125 
L 10.9375 71.578125 
L 21.828125 24.65625 
Q 23.578125 17.28125 24.859375 10.015625 
Q 27.59375 21.484375 28.078125 23.25 
L 41.703125 71.578125 
L 53.125 71.578125 
L 63.375 35.359375 
Q 67.234375 21.875 68.953125 10.015625 
Q 70.3125 16.796875 72.515625 25.59375 
L 83.734375 71.578125 
L 93.265625 71.578125 
L 73.640625 0 
L 64.5 0 
L 49.421875 54.546875 
Q 47.515625 61.375 47.171875 62.9375 
Q 46.046875 58.015625 45.0625 54.546875 
L 29.890625 0 
z
" id="ArialMT-57"/>
      <path d="M 0 -1.21875 
L 20.75 72.796875 
L 27.78125 72.796875 
L 7.078125 -1.21875 
z
" id="ArialMT-2f"/>
      <path d="M 7.328125 0 
L 7.328125 71.578125 
L 16.796875 71.578125 
L 16.796875 8.453125 
L 52.046875 8.453125 
L 52.046875 0 
z
" id="ArialMT-4c"/>
     </defs>
     <g style="fill:#262626;" transform="translate(549.96859375 117.970021307)rotate(-90.0)scale(0.11 -0.11)">
      <use xlink:href="#ArialMT-42"/>
      <use x="66.69921875" xlink:href="#ArialMT-69"/>
      <use x="88.916015625" xlink:href="#ArialMT-6f"/>
      <use x="144.53125" xlink:href="#ArialMT-6d"/>
      <use x="227.83203125" xlink:href="#ArialMT-61"/>
      <use x="283.447265625" xlink:href="#ArialMT-73"/>
      <use x="333.447265625" xlink:href="#ArialMT-73"/>
      <use x="383.447265625" xlink:href="#ArialMT-20"/>
      <use x="411.23046875" xlink:href="#ArialMT-28"/>
      <use x="444.53125" xlink:href="#ArialMT-67"/>
      <use x="500.146484375" xlink:href="#ArialMT-20"/>
      <use x="527.9296875" xlink:href="#ArialMT-44"/>
      <use x="600.146484375" xlink:href="#ArialMT-43"/>
      <use x="672.36328125" xlink:href="#ArialMT-57"/>
      <use x="766.748046875" xlink:href="#ArialMT-2f"/>
      <use x="794.53125" xlink:href="#ArialMT-4c"/>
      <use x="850.146484375" xlink:href="#ArialMT-29"/>
     </g>
    </g>
   </g>
   <g id="line2d_28">
    <path clip-path="url(#pe30c929327)" d="M 72 108.340364 
L 76.289892 108.242506 
L 80.579784 108.138983 
L 84.869676 108.029372 
L 89.159568 107.913252 
L 93.44946 107.7902 
L 97.739353 107.659795 
L 102.029245 107.521614 
L 106.319137 107.375236 
L 110.609029 107.220209 
L 114.898921 107.055887 
L 119.188813 106.882131 
L 123.478705 106.698272 
L 127.768597 106.503641 
L 132.058489 106.29757 
L 136.348381 106.07939 
L 140.638274 105.848433 
L 144.928166 105.60403 
L 149.218058 105.345436 
L 153.50795 105.071765 
L 157.797842 104.782631 
L 162.087734 104.477023 
L 166.377626 104.153932 
L 170.667518 103.812349 
L 174.95741 103.451262 
L 179.247302 103.069663 
L 183.537195 102.666542 
L 187.827087 102.240774 
L 192.116979 101.791179 
L 196.406871 101.31692 
L 200.696763 100.816598 
L 204.986655 100.288813 
L 209.276547 99.732165 
L 213.566439 99.145257 
L 217.856331 98.526687 
L 222.146223 97.875058 
L 226.436116 97.188917 
L 230.726008 96.466736 
L 235.0159 95.707016 
L 239.305792 94.908116 
L 243.595684 94.068395 
L 247.885576 93.186211 
L 252.175468 92.259921 
L 256.46536 91.287885 
L 260.755252 90.268462 
L 265.045144 89.247204 
L 269.335037 88.261669 
L 273.624929 87.236291 
L 277.914821 86.170177 
L 282.204713 85.062454 
L 286.494605 83.912248 
L 290.784497 82.71882 
L 295.074389 81.481538 
L 299.364281 80.199798 
L 303.654173 78.873019 
L 307.944065 77.500794 
L 312.233958 76.082904 
L 316.52385 74.619159 
L 320.813742 73.109428 
L 325.103634 71.553773 
L 329.393526 69.952544 
L 333.683418 68.306113 
L 337.97331 66.614955 
L 342.263202 64.879732 
L 346.553094 63.101492 
L 350.842986 61.307877 
L 355.132878 59.931071 
L 359.422771 58.539861 
L 363.712663 57.135543 
L 368.002555 55.719438 
L 372.292447 54.292925 
L 376.582339 52.857464 
L 380.872231 51.414529 
L 385.162123 49.965639 
L 389.452015 48.512369 
L 393.741907 47.056303 
L 398.031799 45.599052 
L 402.321692 44.142257 
L 406.611584 42.687559 
L 410.901476 41.236612 
L 415.191368 39.791069 
L 419.48126 39.066419 
L 423.771152 39.066419 
L 428.061044 39.06642 
L 432.350936 39.06642 
L 436.640828 39.06642 
L 440.93072 39.066421 
L 445.220613 39.066421 
L 449.510505 39.066421 
L 453.800397 39.066422 
L 458.090289 39.066422 
L 462.380181 39.066422 
L 466.670073 39.066422 
L 470.959965 39.066423 
L 475.249857 39.066423 
L 479.539749 39.066423 
L 483.829641 39.066423 
L 488.119534 39.066423 
L 492.409426 39.066424 
L 496.699318 39.066424 
" style="fill:none;stroke:#ccb974;stroke-linecap:round;stroke-width:1.75;"/>
   </g>
   <g id="patch_10">
    <path d="M 72 109.963636 
L 518.4 109.963636 
" style="fill:none;stroke:#262626;stroke-linecap:square;stroke-linejoin:miter;stroke-width:1.25;"/>
   </g>
   <g id="patch_11">
    <path d="M 518.4 109.963636 
L 518.4 28.8 
" style="fill:none;stroke:#262626;stroke-linecap:square;stroke-linejoin:miter;stroke-width:1.25;"/>
   </g>
   <g id="patch_12">
    <path d="M 72 109.963636 
L 72 28.8 
" style="fill:none;stroke:#262626;stroke-linecap:square;stroke-linejoin:miter;stroke-width:1.25;"/>
   </g>
  </g>
  <g id="axes_3">
   <g id="patch_13">
    <path d="M 72 252 
L 266.086957 252 
L 266.086957 170.836364 
L 72 170.836364 
z
" style="fill:#ffffff;"/>
   </g>
   <g id="matplotlib.axis_4">
    <g id="xtick_5">
     <g id="line2d_29">
      <g>
       <use style="fill:#262626;stroke:#262626;" x="72.0" xlink:href="#m16443e2d28" y="252.0"/>
      </g>
     </g>
     <g id="text_25">
      <!-- 0 -->
      <g style="fill:#262626;" transform="translate(69.21953125 272.1578125)scale(0.1 -0.1)">
       <use xlink:href="#ArialMT-30"/>
      </g>
     </g>
    </g>
    <g id="xtick_6">
     <g id="line2d_30">
      <g>
       <use style="fill:#262626;stroke:#262626;" x="122.386021942" xlink:href="#m16443e2d28" y="252.0"/>
      </g>
     </g>
     <g id="text_26">
      <!-- 5 -->
      <g style="fill:#262626;" transform="translate(119.605553192 272.1578125)scale(0.1 -0.1)">
       <use xlink:href="#ArialMT-35"/>
      </g>
     </g>
    </g>
    <g id="xtick_7">
     <g id="line2d_31">
      <g>
       <use style="fill:#262626;stroke:#262626;" x="172.772043885" xlink:href="#m16443e2d28" y="252.0"/>
      </g>
     </g>
     <g id="text_27">
      <!-- 10 -->
      <g style="fill:#262626;" transform="translate(167.211106385 272.1578125)scale(0.1 -0.1)">
       <use xlink:href="#ArialMT-31"/>
       <use x="55.615234375" xlink:href="#ArialMT-30"/>
      </g>
     </g>
    </g>
    <g id="xtick_8">
     <g id="line2d_32">
      <g>
       <use style="fill:#262626;stroke:#262626;" x="223.158065827" xlink:href="#m16443e2d28" y="252.0"/>
      </g>
     </g>
     <g id="text_28">
      <!-- 15 -->
      <g style="fill:#262626;" transform="translate(217.597128327 272.1578125)scale(0.1 -0.1)">
       <use xlink:href="#ArialMT-31"/>
       <use x="55.615234375" xlink:href="#ArialMT-35"/>
      </g>
     </g>
    </g>
    <g id="text_29">
     <!-- Time (hr) -->
     <g style="fill:#262626;" transform="translate(146.744415761 287.15296875)scale(0.11 -0.11)">
      <use xlink:href="#ArialMT-54"/>
      <use x="61.037109375" xlink:href="#ArialMT-69"/>
      <use x="83.25390625" xlink:href="#ArialMT-6d"/>
      <use x="166.5546875" xlink:href="#ArialMT-65"/>
      <use x="222.169921875" xlink:href="#ArialMT-20"/>
      <use x="249.953125" xlink:href="#ArialMT-28"/>
      <use x="283.25390625" xlink:href="#ArialMT-68"/>
      <use x="338.869140625" xlink:href="#ArialMT-72"/>
      <use x="372.169921875" xlink:href="#ArialMT-29"/>
     </g>
    </g>
   </g>
   <g id="matplotlib.axis_5">
    <g id="ytick_13">
     <g id="line2d_33">
      <g>
       <use style="fill:#262626;stroke:#262626;" x="72.0" xlink:href="#m2c986e33d9" y="252.0"/>
      </g>
     </g>
     <g id="text_30">
      <!-- 4 -->
      <g style="fill:#262626;" transform="translate(53.4390625 254.58515625)scale(0.1 -0.1)">
       <use xlink:href="#ArialMT-34"/>
      </g>
     </g>
    </g>
    <g id="ytick_14">
     <g id="line2d_34">
      <g>
       <use style="fill:#262626;stroke:#262626;" x="72.0" xlink:href="#m2c986e33d9" y="240.405194805"/>
      </g>
     </g>
     <g id="text_31">
      <!-- 5 -->
      <g style="fill:#262626;" transform="translate(53.4390625 242.990351055)scale(0.1 -0.1)">
       <use xlink:href="#ArialMT-35"/>
      </g>
     </g>
    </g>
    <g id="ytick_15">
     <g id="line2d_35">
      <g>
       <use style="fill:#262626;stroke:#262626;" x="72.0" xlink:href="#m2c986e33d9" y="228.81038961"/>
      </g>
     </g>
     <g id="text_32">
      <!-- 6 -->
      <defs>
       <path d="M 49.75 54.046875 
L 41.015625 53.375 
Q 39.84375 58.546875 37.703125 60.890625 
Q 34.125 64.65625 28.90625 64.65625 
Q 24.703125 64.65625 21.53125 62.3125 
Q 17.390625 59.28125 14.984375 53.46875 
Q 12.59375 47.65625 12.5 36.921875 
Q 15.671875 41.75 20.265625 44.09375 
Q 24.859375 46.4375 29.890625 46.4375 
Q 38.671875 46.4375 44.84375 39.96875 
Q 51.03125 33.5 51.03125 23.25 
Q 51.03125 16.5 48.125 10.71875 
Q 45.21875 4.9375 40.140625 1.859375 
Q 35.0625 -1.21875 28.609375 -1.21875 
Q 17.625 -1.21875 10.6875 6.859375 
Q 3.765625 14.9375 3.765625 33.5 
Q 3.765625 54.25 11.421875 63.671875 
Q 18.109375 71.875 29.4375 71.875 
Q 37.890625 71.875 43.28125 67.140625 
Q 48.6875 62.40625 49.75 54.046875 
M 13.875 23.1875 
Q 13.875 18.65625 15.796875 14.5 
Q 17.71875 10.359375 21.1875 8.171875 
Q 24.65625 6 28.46875 6 
Q 34.03125 6 38.03125 10.484375 
Q 42.046875 14.984375 42.046875 22.703125 
Q 42.046875 30.125 38.078125 34.390625 
Q 34.125 38.671875 28.125 38.671875 
Q 22.171875 38.671875 18.015625 34.390625 
Q 13.875 30.125 13.875 23.1875 
" id="ArialMT-36"/>
      </defs>
      <g style="fill:#262626;" transform="translate(53.4390625 231.39554586)scale(0.1 -0.1)">
       <use xlink:href="#ArialMT-36"/>
      </g>
     </g>
    </g>
    <g id="ytick_16">
     <g id="line2d_36">
      <g>
       <use style="fill:#262626;stroke:#262626;" x="72.0" xlink:href="#m2c986e33d9" y="217.215584416"/>
      </g>
     </g>
     <g id="text_33">
      <!-- 7 -->
      <defs>
       <path d="M 4.734375 62.203125 
L 4.734375 70.65625 
L 51.078125 70.65625 
L 51.078125 63.8125 
Q 44.234375 56.546875 37.515625 44.484375 
Q 30.8125 32.421875 27.15625 19.671875 
Q 24.515625 10.6875 23.78125 0 
L 14.75 0 
Q 14.890625 8.453125 18.0625 20.40625 
Q 21.234375 32.375 27.171875 43.484375 
Q 33.109375 54.59375 39.796875 62.203125 
z
" id="ArialMT-37"/>
      </defs>
      <g style="fill:#262626;" transform="translate(53.4390625 219.800740666)scale(0.1 -0.1)">
       <use xlink:href="#ArialMT-37"/>
      </g>
     </g>
    </g>
    <g id="ytick_17">
     <g id="line2d_37">
      <g>
       <use style="fill:#262626;stroke:#262626;" x="72.0" xlink:href="#m2c986e33d9" y="205.620779221"/>
      </g>
     </g>
     <g id="text_34">
      <!-- 8 -->
      <defs>
       <path d="M 17.671875 38.8125 
Q 12.203125 40.828125 9.5625 44.53125 
Q 6.9375 48.25 6.9375 53.421875 
Q 6.9375 61.234375 12.546875 66.546875 
Q 18.171875 71.875 27.484375 71.875 
Q 36.859375 71.875 42.578125 66.421875 
Q 48.296875 60.984375 48.296875 53.171875 
Q 48.296875 48.1875 45.671875 44.5 
Q 43.0625 40.828125 37.75 38.8125 
Q 44.34375 36.671875 47.78125 31.875 
Q 51.21875 27.09375 51.21875 20.453125 
Q 51.21875 11.28125 44.71875 5.03125 
Q 38.234375 -1.21875 27.640625 -1.21875 
Q 17.046875 -1.21875 10.546875 5.046875 
Q 4.046875 11.328125 4.046875 20.703125 
Q 4.046875 27.6875 7.59375 32.390625 
Q 11.140625 37.109375 17.671875 38.8125 
M 15.921875 53.71875 
Q 15.921875 48.640625 19.1875 45.40625 
Q 22.46875 42.1875 27.6875 42.1875 
Q 32.765625 42.1875 36.015625 45.375 
Q 39.265625 48.578125 39.265625 53.21875 
Q 39.265625 58.0625 35.90625 61.359375 
Q 32.5625 64.65625 27.59375 64.65625 
Q 22.5625 64.65625 19.234375 61.421875 
Q 15.921875 58.203125 15.921875 53.71875 
M 13.09375 20.65625 
Q 13.09375 16.890625 14.875 13.375 
Q 16.65625 9.859375 20.171875 7.921875 
Q 23.6875 6 27.734375 6 
Q 34.03125 6 38.125 10.046875 
Q 42.234375 14.109375 42.234375 20.359375 
Q 42.234375 26.703125 38.015625 30.859375 
Q 33.796875 35.015625 27.4375 35.015625 
Q 21.234375 35.015625 17.15625 30.90625 
Q 13.09375 26.8125 13.09375 20.65625 
" id="ArialMT-38"/>
      </defs>
      <g style="fill:#262626;" transform="translate(53.4390625 208.205935471)scale(0.1 -0.1)">
       <use xlink:href="#ArialMT-38"/>
      </g>
     </g>
    </g>
    <g id="ytick_18">
     <g id="line2d_38">
      <g>
       <use style="fill:#262626;stroke:#262626;" x="72.0" xlink:href="#m2c986e33d9" y="194.025974026"/>
      </g>
     </g>
     <g id="text_35">
      <!-- 9 -->
      <defs>
       <path d="M 5.46875 16.546875 
L 13.921875 17.328125 
Q 14.984375 11.375 18.015625 8.6875 
Q 21.046875 6 25.78125 6 
Q 29.828125 6 32.875 7.859375 
Q 35.9375 9.71875 37.890625 12.8125 
Q 39.84375 15.921875 41.15625 21.1875 
Q 42.484375 26.46875 42.484375 31.9375 
Q 42.484375 32.515625 42.4375 33.6875 
Q 39.796875 29.5 35.234375 26.875 
Q 30.671875 24.265625 25.34375 24.265625 
Q 16.453125 24.265625 10.296875 30.703125 
Q 4.15625 37.15625 4.15625 47.703125 
Q 4.15625 58.59375 10.578125 65.234375 
Q 17 71.875 26.65625 71.875 
Q 33.640625 71.875 39.421875 68.109375 
Q 45.21875 64.359375 48.21875 57.390625 
Q 51.21875 50.4375 51.21875 37.25 
Q 51.21875 23.53125 48.234375 15.40625 
Q 45.265625 7.28125 39.375 3.03125 
Q 33.5 -1.21875 25.59375 -1.21875 
Q 17.1875 -1.21875 11.859375 3.4375 
Q 6.546875 8.109375 5.46875 16.546875 
M 41.453125 48.140625 
Q 41.453125 55.71875 37.421875 60.15625 
Q 33.40625 64.59375 27.734375 64.59375 
Q 21.875 64.59375 17.53125 59.8125 
Q 13.1875 55.03125 13.1875 47.40625 
Q 13.1875 40.578125 17.3125 36.296875 
Q 21.4375 32.03125 27.484375 32.03125 
Q 33.59375 32.03125 37.515625 36.296875 
Q 41.453125 40.578125 41.453125 48.140625 
" id="ArialMT-39"/>
      </defs>
      <g style="fill:#262626;" transform="translate(53.4390625 196.611130276)scale(0.1 -0.1)">
       <use xlink:href="#ArialMT-39"/>
      </g>
     </g>
    </g>
    <g id="ytick_19">
     <g id="line2d_39">
      <g>
       <use style="fill:#262626;stroke:#262626;" x="72.0" xlink:href="#m2c986e33d9" y="182.431168831"/>
      </g>
     </g>
     <g id="text_36">
      <!-- 10 -->
      <g style="fill:#262626;" transform="translate(47.878125 185.016325081)scale(0.1 -0.1)">
       <use xlink:href="#ArialMT-31"/>
       <use x="55.615234375" xlink:href="#ArialMT-30"/>
      </g>
     </g>
    </g>
    <g id="ytick_20">
     <g id="line2d_40">
      <g>
       <use style="fill:#262626;stroke:#262626;" x="72.0" xlink:href="#m2c986e33d9" y="170.836363636"/>
      </g>
     </g>
     <g id="text_37">
      <!-- 11 -->
      <g style="fill:#262626;" transform="translate(47.8890625 173.421519886)scale(0.1 -0.1)">
       <use xlink:href="#ArialMT-31"/>
       <use x="55.505859375" xlink:href="#ArialMT-31"/>
      </g>
     </g>
    </g>
    <g id="text_38">
     <!-- mM / g DCW * hr -->
     <defs>
      <path d="M 3.125 58.453125 
L 5.375 65.375 
Q 13.140625 62.640625 16.65625 60.640625 
Q 15.71875 69.484375 15.671875 72.796875 
L 22.75 72.796875 
Q 22.609375 67.96875 21.625 60.6875 
Q 26.65625 63.234375 33.15625 65.375 
L 35.40625 58.453125 
Q 29.203125 56.390625 23.25 55.71875 
Q 26.21875 53.125 31.640625 46.484375 
L 25.78125 42.328125 
Q 22.953125 46.1875 19.09375 52.828125 
Q 15.484375 45.953125 12.75 42.328125 
L 6.984375 46.484375 
Q 12.640625 53.46875 15.09375 55.71875 
Q 8.796875 56.9375 3.125 58.453125 
" id="ArialMT-2a"/>
     </defs>
     <g style="fill:#262626;" transform="translate(40.56296875 252.973259943)rotate(-90.0)scale(0.11 -0.11)">
      <use xlink:href="#ArialMT-6d"/>
      <use x="83.30078125" xlink:href="#ArialMT-4d"/>
      <use x="166.6015625" xlink:href="#ArialMT-20"/>
      <use x="194.384765625" xlink:href="#ArialMT-2f"/>
      <use x="222.16796875" xlink:href="#ArialMT-20"/>
      <use x="249.951171875" xlink:href="#ArialMT-67"/>
      <use x="305.56640625" xlink:href="#ArialMT-20"/>
      <use x="333.349609375" xlink:href="#ArialMT-44"/>
      <use x="405.56640625" xlink:href="#ArialMT-43"/>
      <use x="477.783203125" xlink:href="#ArialMT-57"/>
      <use x="572.16796875" xlink:href="#ArialMT-20"/>
      <use x="599.951171875" xlink:href="#ArialMT-2a"/>
      <use x="638.8671875" xlink:href="#ArialMT-20"/>
      <use x="666.650390625" xlink:href="#ArialMT-68"/>
      <use x="722.265625" xlink:href="#ArialMT-72"/>
     </g>
    </g>
   </g>
   <g id="patch_14">
    <path clip-path="url(#p23f8f06ca4)" d="M 72 252 
L 72 170.836364 
L 155.230792 170.836364 
L 155.230792 252 
z
" style="fill:#e8f6f2;"/>
   </g>
   <g id="patch_15">
    <path clip-path="url(#p23f8f06ca4)" d="M 155.230792 252 
L 155.230792 170.836364 
L 193.130739 170.836364 
L 193.130739 252 
z
" style="fill:#feeee8;"/>
   </g>
   <g id="patch_16">
    <path clip-path="url(#p23f8f06ca4)" d="M 193.130739 252 
L 193.130739 170.836364 
L 222.151955 170.836364 
L 222.151955 252 
z
" style="fill:#eef1f7;"/>
   </g>
   <g id="patch_17">
    <path clip-path="url(#p23f8f06ca4)" d="M 222.151955 252 
L 222.151955 170.836364 
L 256.651877 170.836364 
L 256.651877 252 
z
" style="fill:#fbedf6;"/>
   </g>
   <g id="line2d_41">
    <path clip-path="url(#p23f8f06ca4)" d="M 72 237.839463 
L 73.86517 238.008908 
L 75.730341 238.108285 
L 77.595511 238.161113 
L 79.460682 238.186781 
L 81.325852 238.201097 
L 83.191023 238.216774 
L 85.056193 238.243845 
L 86.921364 238.290039 
L 88.786534 238.218862 
L 90.651705 238.386835 
L 92.516875 238.496003 
L 94.382046 238.567059 
L 96.247216 238.617007 
L 98.112387 238.659662 
L 99.977557 238.706082 
L 101.842728 238.764944 
L 103.707898 238.842885 
L 105.573069 238.838844 
L 107.438239 239.012111 
L 109.30341 239.142473 
L 111.16858 239.246499 
L 113.033751 239.337723 
L 114.898921 239.427066 
L 116.764091 239.52319 
L 118.629262 239.632819 
L 120.494432 239.761023 
L 122.359603 239.849065 
L 124.224773 240.04092 
L 126.089944 240.211569 
L 127.955114 240.371806 
L 129.820285 240.53032 
L 131.685455 240.693991 
L 133.550626 240.868152 
L 135.415796 241.056821 
L 137.280967 241.262898 
L 139.146137 241.474448 
L 141.011308 241.709999 
L 142.876478 241.951373 
L 144.741649 242.202008 
L 146.606819 242.464431 
L 148.47199 242.740399 
L 150.33716 243.031034 
L 152.202331 243.336934 
L 154.067501 243.658267 
L 155.932671 231.222135 
L 157.797842 231.657224 
L 159.663012 232.11411 
L 161.528183 232.590152 
L 163.393353 233.085995 
L 165.258524 233.596481 
L 167.123694 234.132469 
L 168.988865 234.689724 
L 170.854035 235.268805 
L 172.719206 235.86165 
L 174.584376 236.483052 
L 176.449547 237.127434 
L 178.314717 237.795242 
L 180.179888 238.475464 
L 182.045058 239.186105 
L 183.910229 239.920661 
L 185.775399 240.679385 
L 187.64057 241.448932 
L 189.50574 242.249041 
L 191.370911 243.072825 
L 193.236081 222.777456 
L 195.101252 224.049779 
L 196.966422 225.342019 
L 198.831592 226.649789 
L 200.696763 227.972078 
L 202.561933 229.309125 
L 204.427104 230.658635 
L 206.292274 232.01903 
L 208.157445 233.390092 
L 210.022615 234.770009 
L 211.887786 236.157076 
L 213.752956 237.55054 
L 215.618127 238.948909 
L 217.483297 240.350684 
L 219.348468 241.754722 
L 221.213638 243.159638 
L 223.078809 202.697711 
L 224.943979 205.543194 
L 226.80915 208.312905 
L 228.67432 211.006845 
L 230.539491 213.627131 
L 232.404661 216.177313 
L 234.269832 218.659971 
L 236.135002 221.0766 
L 238.000173 223.426155 
L 239.865343 225.716044 
L 241.730513 227.946269 
L 243.595684 230.118015 
L 245.460854 232.232993 
L 247.326025 234.295739 
L 249.191195 236.306253 
L 251.056366 238.266076 
L 252.921536 240.178088 
L 254.786707 242.044872 
L 256.651877 243.866429 
" style="fill:none;stroke:#4c72b0;stroke-linecap:round;stroke-width:1.75;"/>
   </g>
   <g id="line2d_42">
    <path clip-path="url(#p23f8f06ca4)" d="M 72 243.866429 
L 73.86517 243.866429 
L 75.730341 243.866429 
L 77.595511 243.866429 
L 79.460682 243.866429 
L 81.325852 243.866429 
L 83.191023 243.866429 
L 85.056193 243.866429 
L 86.921364 243.866429 
L 88.786534 243.866429 
L 90.651705 243.866429 
L 92.516875 243.866429 
L 94.382046 243.866429 
L 96.247216 243.866429 
L 98.112387 243.866429 
L 99.977557 243.866429 
L 101.842728 243.866429 
L 103.707898 243.866429 
L 105.573069 243.866429 
L 107.438239 243.866429 
L 109.30341 243.866429 
L 111.16858 243.866429 
L 113.033751 243.866429 
L 114.898921 243.866429 
L 116.764091 243.866429 
L 118.629262 243.866429 
L 120.494432 243.866429 
L 122.359603 243.866429 
L 124.224773 243.866429 
L 126.089944 243.866429 
L 127.955114 243.866429 
L 129.820285 243.866429 
L 131.685455 243.866429 
L 133.550626 243.866429 
L 135.415796 243.866429 
L 137.280967 243.866429 
L 139.146137 243.866429 
L 141.011308 243.866429 
L 142.876478 243.866429 
L 144.741649 243.866429 
L 146.606819 243.866429 
L 148.47199 243.866429 
L 150.33716 243.866429 
L 152.202331 243.866429 
L 154.067501 243.866429 
L 155.932671 243.866429 
L 157.797842 243.866429 
L 159.663012 243.866429 
L 161.528183 243.866429 
L 163.393353 243.866429 
L 165.258524 243.866429 
L 167.123694 243.866429 
L 168.988865 243.866429 
L 170.854035 243.866429 
L 172.719206 243.866429 
L 174.584376 243.866429 
L 176.449547 243.866429 
L 178.314717 243.866429 
L 180.179888 243.866429 
L 182.045058 243.866429 
L 183.910229 243.866429 
L 185.775399 243.866429 
L 187.64057 243.866429 
L 189.50574 243.866429 
L 191.370911 243.866429 
L 193.236081 243.866429 
L 195.101252 243.866429 
L 196.966422 243.866429 
L 198.831592 243.866429 
L 200.696763 243.866429 
L 202.561933 243.866429 
L 204.427104 243.866429 
L 206.292274 243.866429 
L 208.157445 243.866429 
L 210.022615 243.866429 
L 211.887786 243.866429 
L 213.752956 243.866429 
L 215.618127 243.866429 
L 217.483297 243.866429 
L 219.348468 243.866429 
L 221.213638 243.866429 
L 223.078809 243.866429 
L 224.943979 243.866429 
L 226.80915 243.866429 
L 228.67432 243.866429 
L 230.539491 243.866429 
L 232.404661 243.866429 
L 234.269832 243.866429 
L 236.135002 243.866429 
L 238.000173 243.866429 
L 239.865343 243.866429 
L 241.730513 243.866429 
L 243.595684 243.866429 
L 245.460854 243.866429 
L 247.326025 243.866429 
L 249.191195 243.866429 
L 251.056366 243.866429 
L 252.921536 243.866429 
L 254.786707 243.866429 
L 256.651877 243.866429 
" style="fill:none;stroke:#c44e52;stroke-dasharray:6.000000,6.000000;stroke-dashoffset:0.0;stroke-width:1.75;"/>
   </g>
   <g id="patch_18">
    <path d="M 72 252 
L 266.086957 252 
" style="fill:none;stroke:#262626;stroke-linecap:square;stroke-linejoin:miter;stroke-width:1.25;"/>
   </g>
   <g id="patch_19">
    <path d="M 72 252 
L 72 170.836364 
" style="fill:none;stroke:#262626;stroke-linecap:square;stroke-linejoin:miter;stroke-width:1.25;"/>
   </g>
   <g id="text_39">
    <!-- ATP Maintenance -->
    <defs>
     <path d="M 7.71875 0 
L 7.71875 71.578125 
L 34.71875 71.578125 
Q 41.84375 71.578125 45.609375 70.90625 
Q 50.875 70.015625 54.4375 67.546875 
Q 58.015625 65.09375 60.1875 60.640625 
Q 62.359375 56.203125 62.359375 50.875 
Q 62.359375 41.75 56.546875 35.421875 
Q 50.734375 29.109375 35.546875 29.109375 
L 17.1875 29.109375 
L 17.1875 0 
z
M 17.1875 37.546875 
L 35.6875 37.546875 
Q 44.875 37.546875 48.734375 40.96875 
Q 52.59375 44.390625 52.59375 50.59375 
Q 52.59375 55.078125 50.3125 58.265625 
Q 48.046875 61.46875 44.34375 62.5 
Q 41.9375 63.140625 35.5 63.140625 
L 17.1875 63.140625 
z
" id="ArialMT-50"/>
    </defs>
    <g style="fill:#262626;" transform="translate(121.361290761 165.836363636)scale(0.12 -0.12)">
     <use xlink:href="#ArialMT-41"/>
     <use x="66.58984375" xlink:href="#ArialMT-54"/>
     <use x="127.673828125" xlink:href="#ArialMT-50"/>
     <use x="194.357421875" xlink:href="#ArialMT-20"/>
     <use x="222.140625" xlink:href="#ArialMT-4d"/>
     <use x="305.44140625" xlink:href="#ArialMT-61"/>
     <use x="361.056640625" xlink:href="#ArialMT-69"/>
     <use x="383.2734375" xlink:href="#ArialMT-6e"/>
     <use x="438.888671875" xlink:href="#ArialMT-74"/>
     <use x="466.671875" xlink:href="#ArialMT-65"/>
     <use x="522.287109375" xlink:href="#ArialMT-6e"/>
     <use x="577.90234375" xlink:href="#ArialMT-61"/>
     <use x="633.517578125" xlink:href="#ArialMT-6e"/>
     <use x="689.1328125" xlink:href="#ArialMT-63"/>
     <use x="739.1328125" xlink:href="#ArialMT-65"/>
    </g>
   </g>
  </g>
  <g id="axes_4">
   <g id="patch_20">
    <path d="M 324.313043 252 
L 518.4 252 
L 518.4 170.836364 
L 324.313043 170.836364 
z
" style="fill:#ffffff;"/>
   </g>
   <g id="matplotlib.axis_6">
    <g id="xtick_9">
     <g id="line2d_43">
      <g>
       <use style="fill:#262626;stroke:#262626;" x="324.313043478" xlink:href="#m16443e2d28" y="252.0"/>
      </g>
     </g>
     <g id="text_40">
      <!-- 0 -->
      <g style="fill:#262626;" transform="translate(321.532574728 272.1578125)scale(0.1 -0.1)">
       <use xlink:href="#ArialMT-30"/>
      </g>
     </g>
    </g>
    <g id="xtick_10">
     <g id="line2d_44">
      <g>
       <use style="fill:#262626;stroke:#262626;" x="374.699065421" xlink:href="#m16443e2d28" y="252.0"/>
      </g>
     </g>
     <g id="text_41">
      <!-- 5 -->
      <g style="fill:#262626;" transform="translate(371.918596671 272.1578125)scale(0.1 -0.1)">
       <use xlink:href="#ArialMT-35"/>
      </g>
     </g>
    </g>
    <g id="xtick_11">
     <g id="line2d_45">
      <g>
       <use style="fill:#262626;stroke:#262626;" x="425.085087363" xlink:href="#m16443e2d28" y="252.0"/>
      </g>
     </g>
     <g id="text_42">
      <!-- 10 -->
      <g style="fill:#262626;" transform="translate(419.524149863 272.1578125)scale(0.1 -0.1)">
       <use xlink:href="#ArialMT-31"/>
       <use x="55.615234375" xlink:href="#ArialMT-30"/>
      </g>
     </g>
    </g>
    <g id="xtick_12">
     <g id="line2d_46">
      <g>
       <use style="fill:#262626;stroke:#262626;" x="475.471109305" xlink:href="#m16443e2d28" y="252.0"/>
      </g>
     </g>
     <g id="text_43">
      <!-- 15 -->
      <g style="fill:#262626;" transform="translate(469.910171805 272.1578125)scale(0.1 -0.1)">
       <use xlink:href="#ArialMT-31"/>
       <use x="55.615234375" xlink:href="#ArialMT-35"/>
      </g>
     </g>
    </g>
    <g id="text_44">
     <!-- Time (hr) -->
     <g style="fill:#262626;" transform="translate(399.057459239 287.15296875)scale(0.11 -0.11)">
      <use xlink:href="#ArialMT-54"/>
      <use x="61.037109375" xlink:href="#ArialMT-69"/>
      <use x="83.25390625" xlink:href="#ArialMT-6d"/>
      <use x="166.5546875" xlink:href="#ArialMT-65"/>
      <use x="222.169921875" xlink:href="#ArialMT-20"/>
      <use x="249.953125" xlink:href="#ArialMT-28"/>
      <use x="283.25390625" xlink:href="#ArialMT-68"/>
      <use x="338.869140625" xlink:href="#ArialMT-72"/>
      <use x="372.169921875" xlink:href="#ArialMT-29"/>
     </g>
    </g>
   </g>
   <g id="matplotlib.axis_7">
    <g id="ytick_21">
     <g id="line2d_47">
      <g>
       <use style="fill:#262626;stroke:#262626;" x="324.313043478" xlink:href="#m2c986e33d9" y="252.0"/>
      </g>
     </g>
     <g id="text_45">
      <!-- 0 -->
      <g style="fill:#262626;" transform="translate(305.752105978 254.58515625)scale(0.1 -0.1)">
       <use xlink:href="#ArialMT-30"/>
      </g>
     </g>
    </g>
    <g id="ytick_22">
     <g id="line2d_48">
      <g>
       <use style="fill:#262626;stroke:#262626;" x="324.313043478" xlink:href="#m2c986e33d9" y="235.767272727"/>
      </g>
     </g>
     <g id="text_46">
      <!-- 2 -->
      <g style="fill:#262626;" transform="translate(305.752105978 238.352428977)scale(0.1 -0.1)">
       <use xlink:href="#ArialMT-32"/>
      </g>
     </g>
    </g>
    <g id="ytick_23">
     <g id="line2d_49">
      <g>
       <use style="fill:#262626;stroke:#262626;" x="324.313043478" xlink:href="#m2c986e33d9" y="219.534545455"/>
      </g>
     </g>
     <g id="text_47">
      <!-- 4 -->
      <g style="fill:#262626;" transform="translate(305.752105978 222.119701705)scale(0.1 -0.1)">
       <use xlink:href="#ArialMT-34"/>
      </g>
     </g>
    </g>
    <g id="ytick_24">
     <g id="line2d_50">
      <g>
       <use style="fill:#262626;stroke:#262626;" x="324.313043478" xlink:href="#m2c986e33d9" y="203.301818182"/>
      </g>
     </g>
     <g id="text_48">
      <!-- 6 -->
      <g style="fill:#262626;" transform="translate(305.752105978 205.886974432)scale(0.1 -0.1)">
       <use xlink:href="#ArialMT-36"/>
      </g>
     </g>
    </g>
    <g id="ytick_25">
     <g id="line2d_51">
      <g>
       <use style="fill:#262626;stroke:#262626;" x="324.313043478" xlink:href="#m2c986e33d9" y="187.069090909"/>
      </g>
     </g>
     <g id="text_49">
      <!-- 8 -->
      <g style="fill:#262626;" transform="translate(305.752105978 189.654247159)scale(0.1 -0.1)">
       <use xlink:href="#ArialMT-38"/>
      </g>
     </g>
    </g>
    <g id="ytick_26">
     <g id="line2d_52">
      <g>
       <use style="fill:#262626;stroke:#262626;" x="324.313043478" xlink:href="#m2c986e33d9" y="170.836363636"/>
      </g>
     </g>
     <g id="text_50">
      <!-- 10 -->
      <g style="fill:#262626;" transform="translate(300.191168478 173.421519886)scale(0.1 -0.1)">
       <use xlink:href="#ArialMT-31"/>
       <use x="55.615234375" xlink:href="#ArialMT-30"/>
      </g>
     </g>
    </g>
   </g>
   <g id="patch_21">
    <path clip-path="url(#p94de23080f)" d="M 324.313043 252 
L 324.313043 170.836364 
L 407.543835 170.836364 
L 407.543835 252 
z
" style="fill:#e8f6f2;"/>
   </g>
   <g id="patch_22">
    <path clip-path="url(#p94de23080f)" d="M 407.543835 252 
L 407.543835 170.836364 
L 445.443783 170.836364 
L 445.443783 252 
z
" style="fill:#feeee8;"/>
   </g>
   <g id="patch_23">
    <path clip-path="url(#p94de23080f)" d="M 445.443783 252 
L 445.443783 170.836364 
L 474.464998 170.836364 
L 474.464998 252 
z
" style="fill:#eef1f7;"/>
   </g>
   <g id="patch_24">
    <path clip-path="url(#p94de23080f)" d="M 474.464998 252 
L 474.464998 170.836364 
L 508.964921 170.836364 
L 508.964921 252 
z
" style="fill:#fbedf6;"/>
   </g>
   <g id="line2d_53">
    <path clip-path="url(#p94de23080f)" d="M 324.313043 179.093633 
L 326.178214 179.297691 
L 328.043384 179.417367 
L 329.908555 179.480987 
L 331.773725 179.511898 
L 333.638896 179.529139 
L 335.504066 179.548018 
L 337.369237 179.580619 
L 339.234407 179.636249 
L 341.099578 179.550532 
L 342.964748 179.752818 
L 344.829919 179.884286 
L 346.695089 179.969857 
L 348.56026 180.030008 
L 350.42543 180.081376 
L 352.290601 180.137278 
L 354.155771 180.208163 
L 356.020942 180.302026 
L 357.886112 180.29716 
L 359.751283 180.50582 
L 361.616453 180.662812 
L 363.481624 180.788087 
L 365.346794 180.897946 
L 367.211964 181.00554 
L 369.077135 181.121299 
L 370.942305 181.253322 
L 372.807476 181.407715 
L 374.672646 181.513742 
L 376.537817 181.744786 
L 378.402987 181.950294 
L 380.268158 182.143264 
L 382.133328 182.334158 
L 383.998499 182.531262 
L 385.863669 182.741 
L 387.72884 182.968208 
L 389.59401 183.216381 
L 391.459181 183.471145 
L 393.324351 183.754812 
L 395.189522 184.045492 
L 397.054692 184.347326 
L 398.919863 184.663354 
L 400.785033 184.995695 
L 402.650204 185.345699 
L 404.515374 185.714086 
L 406.380544 186.101058 
L 408.245715 186.508767 
L 410.110885 186.933064 
L 411.976056 187.378616 
L 413.841226 187.842851 
L 415.706397 188.326394 
L 417.571567 188.824217 
L 419.436738 189.346909 
L 421.301908 189.890342 
L 423.167079 190.455059 
L 425.032249 191.033198 
L 426.89742 191.639186 
L 428.76259 192.267583 
L 430.627761 192.918826 
L 432.492931 193.582175 
L 434.358102 194.275189 
L 436.223272 194.991524 
L 438.088443 195.731428 
L 439.953613 196.481886 
L 441.818784 197.262147 
L 443.683954 198.065497 
L 445.549125 198.890612 
L 447.414295 199.784404 
L 449.279465 200.692188 
L 451.144636 201.610882 
L 453.009806 202.539775 
L 454.874977 203.479036 
L 456.740147 204.427051 
L 458.605318 205.382714 
L 460.470488 206.345869 
L 462.335659 207.315245 
L 464.200829 208.289644 
L 466.066 209.268537 
L 467.93117 210.250875 
L 469.796341 211.235606 
L 471.661511 212.221927 
L 473.526682 213.208865 
L 475.391852 214.274748 
L 477.257023 215.396663 
L 479.122193 216.488703 
L 480.987364 217.550868 
L 482.852534 218.583993 
L 484.717705 219.589478 
L 486.582875 220.568339 
L 488.448046 221.521166 
L 490.313216 222.447547 
L 492.178386 223.350403 
L 494.043557 224.229735 
L 495.908727 225.08601 
L 497.773898 225.919902 
L 499.639068 226.733201 
L 501.504239 227.525905 
L 503.369409 228.298623 
L 505.23458 229.05249 
L 507.09975 229.788524 
L 508.964921 230.506727 
" style="fill:none;stroke:#4c72b0;stroke-linecap:round;stroke-width:1.75;"/>
   </g>
   <g id="line2d_54">
    <path clip-path="url(#p94de23080f)" d="M 324.313043 179.300903 
L 326.178214 179.337382 
L 328.043384 179.375977 
L 329.908555 179.416847 
L 331.773725 179.46015 
L 333.638896 179.506045 
L 335.504066 179.554689 
L 337.369237 179.606242 
L 339.234407 179.660861 
L 341.099578 179.718717 
L 342.964748 179.780054 
L 344.829919 179.844923 
L 346.695089 179.913579 
L 348.56026 179.986273 
L 350.42543 180.063258 
L 352.290601 180.144786 
L 354.155771 180.231111 
L 356.020942 180.322484 
L 357.886112 180.419187 
L 359.751283 180.521561 
L 361.616453 180.62975 
L 363.481624 180.744141 
L 365.346794 180.865118 
L 367.211964 180.993067 
L 369.077135 181.128373 
L 370.942305 181.271421 
L 372.807476 181.422597 
L 374.672646 181.582332 
L 376.537817 181.751085 
L 378.402987 181.929178 
L 380.268158 182.117151 
L 382.133328 182.315548 
L 383.998499 182.524912 
L 385.863669 182.745784 
L 387.72884 182.978707 
L 389.59401 183.224223 
L 391.459181 183.482903 
L 393.324351 183.755355 
L 395.189522 184.042163 
L 397.054692 184.343978 
L 398.919863 184.661456 
L 400.785033 184.995248 
L 402.650204 185.346008 
L 404.515374 185.714389 
L 406.380544 186.101045 
L 408.245715 186.507701 
L 410.110885 186.93431 
L 411.976056 187.378971 
L 413.841226 187.842159 
L 415.706397 188.324343 
L 417.571567 188.825999 
L 419.436738 189.347552 
L 421.301908 189.889381 
L 423.167079 190.451855 
L 425.032249 191.035342 
L 426.89742 191.640137 
L 428.76259 192.266454 
L 430.627761 192.914496 
L 432.492931 193.584447 
L 434.358102 194.276408 
L 436.223272 194.990355 
L 438.088443 195.726252 
L 439.953613 196.484028 
L 441.818784 197.263526 
L 443.683954 198.064423 
L 445.549125 198.8896 
L 447.414295 199.78483 
L 449.279465 200.692158 
L 451.144636 201.610828 
L 453.009806 202.540067 
L 454.874977 203.479063 
L 456.740147 204.426954 
L 458.605318 205.38287 
L 460.470488 206.345915 
L 462.335659 207.315165 
L 464.200829 208.289692 
L 466.066 209.268565 
L 467.93117 210.250844 
L 469.796341 211.235597 
L 471.661511 212.221909 
L 473.526682 213.208886 
L 475.391852 214.274679 
L 477.257023 215.39693 
L 479.122193 216.488665 
L 480.987364 217.55077 
L 482.852534 218.584139 
L 484.717705 219.589672 
L 486.582875 220.568221 
L 488.448046 221.520638 
L 490.313216 222.447784 
L 492.178386 223.350498 
L 494.043557 224.229589 
L 495.908727 225.085864 
L 497.773898 225.920141 
L 499.639068 226.733197 
L 501.504239 227.525795 
L 503.369409 228.298699 
L 505.23458 229.052674 
L 507.09975 229.788444 
L 508.964921 230.506727 
" style="fill:none;stroke:#c44e52;stroke-dasharray:6.000000,6.000000;stroke-dashoffset:0.0;stroke-width:1.75;"/>
   </g>
   <g id="patch_25">
    <path d="M 324.313043 252 
L 518.4 252 
" style="fill:none;stroke:#262626;stroke-linecap:square;stroke-linejoin:miter;stroke-width:1.25;"/>
   </g>
   <g id="patch_26">
    <path d="M 324.313043 252 
L 324.313043 170.836364 
" style="fill:none;stroke:#262626;stroke-linecap:square;stroke-linejoin:miter;stroke-width:1.25;"/>
   </g>
   <g id="text_51">
    <!-- Glucose Uptake -->
    <defs>
     <path d="M 54.6875 71.578125 
L 64.15625 71.578125 
L 64.15625 30.21875 
Q 64.15625 19.4375 61.71875 13.078125 
Q 59.28125 6.734375 52.90625 2.75 
Q 46.53125 -1.21875 36.1875 -1.21875 
Q 26.125 -1.21875 19.71875 2.25 
Q 13.328125 5.71875 10.59375 12.28125 
Q 7.859375 18.84375 7.859375 30.21875 
L 7.859375 71.578125 
L 17.328125 71.578125 
L 17.328125 30.28125 
Q 17.328125 20.953125 19.0625 16.53125 
Q 20.796875 12.109375 25.015625 9.71875 
Q 29.25 7.328125 35.359375 7.328125 
Q 45.796875 7.328125 50.234375 12.0625 
Q 54.6875 16.796875 54.6875 30.28125 
z
" id="ArialMT-55"/>
     <path d="M 6.640625 0 
L 6.640625 71.578125 
L 15.4375 71.578125 
L 15.4375 30.765625 
L 36.234375 51.859375 
L 47.609375 51.859375 
L 27.78125 32.625 
L 49.609375 0 
L 38.765625 0 
L 21.625 26.515625 
L 15.4375 20.5625 
L 15.4375 0 
z
" id="ArialMT-6b"/>
    </defs>
    <g style="fill:#262626;" transform="translate(378.670271739 165.836363636)scale(0.12 -0.12)">
     <use xlink:href="#ArialMT-47"/>
     <use x="77.783203125" xlink:href="#ArialMT-6c"/>
     <use x="100.0" xlink:href="#ArialMT-75"/>
     <use x="155.615234375" xlink:href="#ArialMT-63"/>
     <use x="205.615234375" xlink:href="#ArialMT-6f"/>
     <use x="261.23046875" xlink:href="#ArialMT-73"/>
     <use x="311.23046875" xlink:href="#ArialMT-65"/>
     <use x="366.845703125" xlink:href="#ArialMT-20"/>
     <use x="394.62890625" xlink:href="#ArialMT-55"/>
     <use x="466.845703125" xlink:href="#ArialMT-70"/>
     <use x="522.4609375" xlink:href="#ArialMT-74"/>
     <use x="550.244140625" xlink:href="#ArialMT-61"/>
     <use x="605.859375" xlink:href="#ArialMT-6b"/>
     <use x="655.859375" xlink:href="#ArialMT-65"/>
    </g>
   </g>
   <g id="legend_2">
    <g id="line2d_55">
     <path d="M 333.313043 223.367187 
L 353.313043 223.367187 
" style="fill:none;stroke:#4c72b0;stroke-linecap:round;stroke-width:1.75;"/>
    </g>
    <g id="line2d_56"/>
    <g id="text_52">
     <!-- Optimal flux -->
     <defs>
      <path d="M 8.6875 0 
L 8.6875 45.015625 
L 0.921875 45.015625 
L 0.921875 51.859375 
L 8.6875 51.859375 
L 8.6875 57.375 
Q 8.6875 62.59375 9.625 65.140625 
Q 10.890625 68.5625 14.078125 70.671875 
Q 17.28125 72.796875 23.046875 72.796875 
Q 26.765625 72.796875 31.25 71.921875 
L 29.9375 64.265625 
Q 27.203125 64.75 24.75 64.75 
Q 20.75 64.75 19.09375 63.03125 
Q 17.4375 61.328125 17.4375 56.640625 
L 17.4375 51.859375 
L 27.546875 51.859375 
L 27.546875 45.015625 
L 17.4375 45.015625 
L 17.4375 0 
z
" id="ArialMT-66"/>
      <path d="M 4.828125 34.859375 
Q 4.828125 52.6875 14.390625 62.765625 
Q 23.96875 72.859375 39.109375 72.859375 
Q 49.03125 72.859375 56.984375 68.109375 
Q 64.9375 63.375 69.109375 54.90625 
Q 73.296875 46.4375 73.296875 35.6875 
Q 73.296875 24.8125 68.890625 16.21875 
Q 64.5 7.625 56.4375 3.203125 
Q 48.390625 -1.21875 39.0625 -1.21875 
Q 28.953125 -1.21875 20.984375 3.65625 
Q 13.03125 8.546875 8.921875 16.984375 
Q 4.828125 25.4375 4.828125 34.859375 
M 14.59375 34.71875 
Q 14.59375 21.78125 21.546875 14.328125 
Q 28.515625 6.890625 39.015625 6.890625 
Q 49.703125 6.890625 56.609375 14.40625 
Q 63.53125 21.921875 63.53125 35.75 
Q 63.53125 44.484375 60.578125 51 
Q 57.625 57.515625 51.921875 61.109375 
Q 46.234375 64.703125 39.15625 64.703125 
Q 29.109375 64.703125 21.84375 57.78125 
Q 14.59375 50.875 14.59375 34.71875 
" id="ArialMT-4f"/>
     </defs>
     <g style="fill:#262626;" transform="translate(361.313043478 226.8671875)scale(0.1 -0.1)">
      <use xlink:href="#ArialMT-4f"/>
      <use x="77.783203125" xlink:href="#ArialMT-70"/>
      <use x="133.3984375" xlink:href="#ArialMT-74"/>
      <use x="161.181640625" xlink:href="#ArialMT-69"/>
      <use x="183.3984375" xlink:href="#ArialMT-6d"/>
      <use x="266.69921875" xlink:href="#ArialMT-61"/>
      <use x="322.314453125" xlink:href="#ArialMT-6c"/>
      <use x="344.53125" xlink:href="#ArialMT-20"/>
      <use x="372.314453125" xlink:href="#ArialMT-66"/>
      <use x="400.09765625" xlink:href="#ArialMT-6c"/>
      <use x="422.314453125" xlink:href="#ArialMT-75"/>
      <use x="477.9296875" xlink:href="#ArialMT-78"/>
     </g>
    </g>
    <g id="line2d_57">
     <path d="M 333.313043 237.5125 
L 353.313043 237.5125 
" style="fill:none;stroke:#c44e52;stroke-dasharray:6.000000,6.000000;stroke-dashoffset:0.0;stroke-width:1.75;"/>
    </g>
    <g id="line2d_58"/>
    <g id="text_53">
     <!-- Constraint -->
     <g style="fill:#262626;" transform="translate(361.313043478 241.0125)scale(0.1 -0.1)">
      <use xlink:href="#ArialMT-43"/>
      <use x="72.216796875" xlink:href="#ArialMT-6f"/>
      <use x="127.83203125" xlink:href="#ArialMT-6e"/>
      <use x="183.447265625" xlink:href="#ArialMT-73"/>
      <use x="233.447265625" xlink:href="#ArialMT-74"/>
      <use x="261.23046875" xlink:href="#ArialMT-72"/>
      <use x="294.53125" xlink:href="#ArialMT-61"/>
      <use x="350.146484375" xlink:href="#ArialMT-69"/>
      <use x="372.36328125" xlink:href="#ArialMT-6e"/>
      <use x="427.978515625" xlink:href="#ArialMT-74"/>
     </g>
    </g>
   </g>
  </g>
 </g>
 <defs>
  <clipPath id="pe30c929327">
   <rect height="81.1636363636" width="446.4" x="72.0" y="28.8"/>
  </clipPath>
  <clipPath id="p23f8f06ca4">
   <rect height="81.1636363636" width="194.086956522" x="72.0" y="170.836363636"/>
  </clipPath>
  <clipPath id="p94de23080f">
   <rect height="81.1636363636" width="194.086956522" x="324.313043478" y="170.836363636"/>
  </clipPath>
 </defs>
</svg>
