<?xml version="1.0" encoding="utf-8" standalone="no"?>
<!DOCTYPE svg PUBLIC "-//W3C//DTD SVG 1.1//EN"
  "http://www.w3.org/Graphics/SVG/1.1/DTD/svg11.dtd">
<!-- Created with matplotlib (http://matplotlib.org/) -->
<svg height="288pt" version="1.1" viewBox="0 0 576 288" width="576pt" xmlns="http://www.w3.org/2000/svg" xmlns:xlink="http://www.w3.org/1999/xlink">
 <defs>
  <style type="text/css">
*{stroke-linecap:butt;stroke-linejoin:round;stroke-miterlimit:100000;}
  </style>
 </defs>
 <g id="figure_1">
  <g id="patch_1">
   <path d="M 0 288 
L 576 288 
L 576 0 
L 0 0 
z
" style="fill:#ffffff;"/>
  </g>
  <g id="axes_1">
   <g id="patch_2">
    <path d="M 72 109.963636 
L 518.4 109.963636 
L 518.4 28.8 
L 72 28.8 
z
" style="fill:#ffffff;"/>
   </g>
   <g id="matplotlib.axis_1">
    <g id="xtick_1">
     <g id="line2d_1">
      <defs>
       <path d="M 0 0 
L 0 6 
" id="maabd49332d" style="stroke:#262626;"/>
      </defs>
      <g>
       <use style="fill:#262626;stroke:#262626;" x="72.0" xlink:href="#maabd49332d" y="109.963636364"/>
      </g>
     </g>
     <g id="text_1">
      <!-- 0 -->
      <defs>
       <path d="M 4.15625 35.296875 
Q 4.15625 48 6.765625 55.734375 
Q 9.375 63.484375 14.515625 67.671875 
Q 19.671875 71.875 27.484375 71.875 
Q 33.25 71.875 37.59375 69.546875 
Q 41.9375 67.234375 44.765625 62.859375 
Q 47.609375 58.5 49.21875 52.21875 
Q 50.828125 45.953125 50.828125 35.296875 
Q 50.828125 22.703125 48.234375 14.96875 
Q 45.65625 7.234375 40.5 3 
Q 35.359375 -1.21875 27.484375 -1.21875 
Q 17.140625 -1.21875 11.234375 6.203125 
Q 4.15625 15.140625 4.15625 35.296875 
M 13.1875 35.296875 
Q 13.1875 17.671875 17.3125 11.828125 
Q 21.4375 6 27.484375 6 
Q 33.546875 6 37.671875 11.859375 
Q 41.796875 17.71875 41.796875 35.296875 
Q 41.796875 52.984375 37.671875 58.78125 
Q 33.546875 64.59375 27.390625 64.59375 
Q 21.34375 64.59375 17.71875 59.46875 
Q 13.1875 52.9375 13.1875 35.296875 
" id="ArialMT-30"/>
      </defs>
      <g style="fill:#262626;" transform="translate(69.21953125 130.121448864)scale(0.1 -0.1)">
       <use xlink:href="#ArialMT-30"/>
      </g>
     </g>
    </g>
    <g id="xtick_2">
     <g id="line2d_2">
      <g>
       <use style="fill:#262626;stroke:#262626;" x="187.887850467" xlink:href="#maabd49332d" y="109.963636364"/>
      </g>
     </g>
     <g id="text_2">
      <!-- 5 -->
      <defs>
       <path d="M 4.15625 18.75 
L 13.375 19.53125 
Q 14.40625 12.796875 18.140625 9.390625 
Q 21.875 6 27.15625 6 
Q 33.5 6 37.890625 10.78125 
Q 42.28125 15.578125 42.28125 23.484375 
Q 42.28125 31 38.0625 35.34375 
Q 33.84375 39.703125 27 39.703125 
Q 22.75 39.703125 19.328125 37.765625 
Q 15.921875 35.84375 13.96875 32.765625 
L 5.71875 33.84375 
L 12.640625 70.609375 
L 48.25 70.609375 
L 48.25 62.203125 
L 19.671875 62.203125 
L 15.828125 42.96875 
Q 22.265625 47.46875 29.34375 47.46875 
Q 38.71875 47.46875 45.15625 40.96875 
Q 51.609375 34.46875 51.609375 24.265625 
Q 51.609375 14.546875 45.953125 7.46875 
Q 39.0625 -1.21875 27.15625 -1.21875 
Q 17.390625 -1.21875 11.203125 4.25 
Q 5.03125 9.71875 4.15625 18.75 
" id="ArialMT-35"/>
      </defs>
      <g style="fill:#262626;" transform="translate(185.107381717 130.121448864)scale(0.1 -0.1)">
       <use xlink:href="#ArialMT-35"/>
      </g>
     </g>
    </g>
    <g id="xtick_3">
     <g id="line2d_3">
      <g>
       <use style="fill:#262626;stroke:#262626;" x="303.775700935" xlink:href="#maabd49332d" y="109.963636364"/>
      </g>
     </g>
     <g id="text_3">
      <!-- 10 -->
      <defs>
       <path d="M 37.25 0 
L 28.46875 0 
L 28.46875 56 
Q 25.296875 52.984375 20.140625 49.953125 
Q 14.984375 46.921875 10.890625 45.40625 
L 10.890625 53.90625 
Q 18.265625 57.375 23.78125 62.296875 
Q 29.296875 67.234375 31.59375 71.875 
L 37.25 71.875 
z
" id="ArialMT-31"/>
      </defs>
      <g style="fill:#262626;" transform="translate(298.214763435 130.121448864)scale(0.1 -0.1)">
       <use xlink:href="#ArialMT-31"/>
       <use x="55.615234375" xlink:href="#ArialMT-30"/>
      </g>
     </g>
    </g>
    <g id="xtick_4">
     <g id="line2d_4">
      <g>
       <use style="fill:#262626;stroke:#262626;" x="419.663551402" xlink:href="#maabd49332d" y="109.963636364"/>
      </g>
     </g>
     <g id="text_4">
      <!-- 15 -->
      <g style="fill:#262626;" transform="translate(414.102613902 130.121448864)scale(0.1 -0.1)">
       <use xlink:href="#ArialMT-31"/>
       <use x="55.615234375" xlink:href="#ArialMT-35"/>
      </g>
     </g>
    </g>
    <g id="text_5">
     <!-- Time (hr) -->
     <defs>
      <path d="M 6.59375 0 
L 6.59375 71.578125 
L 15.375 71.578125 
L 15.375 45.90625 
Q 21.53125 53.03125 30.90625 53.03125 
Q 36.671875 53.03125 40.921875 50.75 
Q 45.171875 48.484375 47 44.484375 
Q 48.828125 40.484375 48.828125 32.859375 
L 48.828125 0 
L 40.046875 0 
L 40.046875 32.859375 
Q 40.046875 39.453125 37.1875 42.453125 
Q 34.328125 45.453125 29.109375 45.453125 
Q 25.203125 45.453125 21.75 43.421875 
Q 18.3125 41.40625 16.84375 37.9375 
Q 15.375 34.46875 15.375 28.375 
L 15.375 0 
z
" id="ArialMT-68"/>
      <path d="M 23.390625 -21.046875 
Q 16.109375 -11.859375 11.078125 0.4375 
Q 6.0625 12.75 6.0625 25.921875 
Q 6.0625 37.546875 9.8125 48.1875 
Q 14.203125 60.546875 23.390625 72.796875 
L 29.6875 72.796875 
Q 23.78125 62.640625 21.875 58.296875 
Q 18.890625 51.5625 17.1875 44.234375 
Q 15.09375 35.109375 15.09375 25.875 
Q 15.09375 2.390625 29.6875 -21.046875 
z
" id="ArialMT-28"/>
      <path id="ArialMT-20"/>
      <path d="M 6.59375 0 
L 6.59375 51.859375 
L 14.453125 51.859375 
L 14.453125 44.578125 
Q 16.890625 48.390625 20.9375 50.703125 
Q 25 53.03125 30.171875 53.03125 
Q 35.9375 53.03125 39.625 50.640625 
Q 43.3125 48.25 44.828125 43.953125 
Q 50.984375 53.03125 60.84375 53.03125 
Q 68.5625 53.03125 72.703125 48.75 
Q 76.859375 44.484375 76.859375 35.59375 
L 76.859375 0 
L 68.109375 0 
L 68.109375 32.671875 
Q 68.109375 37.9375 67.25 40.25 
Q 66.40625 42.578125 64.15625 43.984375 
Q 61.921875 45.40625 58.890625 45.40625 
Q 53.421875 45.40625 49.796875 41.765625 
Q 46.1875 38.140625 46.1875 30.125 
L 46.1875 0 
L 37.40625 0 
L 37.40625 33.6875 
Q 37.40625 39.546875 35.25 42.46875 
Q 33.109375 45.40625 28.21875 45.40625 
Q 24.515625 45.40625 21.359375 43.453125 
Q 18.21875 41.5 16.796875 37.734375 
Q 15.375 33.984375 15.375 26.90625 
L 15.375 0 
z
" id="ArialMT-6d"/>
      <path d="M 6.5 0 
L 6.5 51.859375 
L 14.40625 51.859375 
L 14.40625 44 
Q 17.4375 49.515625 20 51.265625 
Q 22.5625 53.03125 25.640625 53.03125 
Q 30.078125 53.03125 34.671875 50.203125 
L 31.640625 42.046875 
Q 28.421875 43.953125 25.203125 43.953125 
Q 22.3125 43.953125 20.015625 42.21875 
Q 17.71875 40.484375 16.75 37.40625 
Q 15.28125 32.71875 15.28125 27.15625 
L 15.28125 0 
z
" id="ArialMT-72"/>
      <path d="M 6.640625 61.46875 
L 6.640625 71.578125 
L 15.4375 71.578125 
L 15.4375 61.46875 
z
M 6.640625 0 
L 6.640625 51.859375 
L 15.4375 51.859375 
L 15.4375 0 
z
" id="ArialMT-69"/>
      <path d="M 12.359375 -21.046875 
L 6.0625 -21.046875 
Q 20.65625 2.390625 20.65625 25.875 
Q 20.65625 35.0625 18.5625 44.09375 
Q 16.890625 51.421875 13.921875 58.15625 
Q 12.015625 62.546875 6.0625 72.796875 
L 12.359375 72.796875 
Q 21.53125 60.546875 25.921875 48.1875 
Q 29.6875 37.546875 29.6875 25.921875 
Q 29.6875 12.75 24.625 0.4375 
Q 19.578125 -11.859375 12.359375 -21.046875 
" id="ArialMT-29"/>
      <path d="M 42.09375 16.703125 
L 51.171875 15.578125 
Q 49.03125 7.625 43.21875 3.21875 
Q 37.40625 -1.171875 28.375 -1.171875 
Q 17 -1.171875 10.328125 5.828125 
Q 3.65625 12.84375 3.65625 25.484375 
Q 3.65625 38.578125 10.390625 45.796875 
Q 17.140625 53.03125 27.875 53.03125 
Q 38.28125 53.03125 44.875 45.953125 
Q 51.46875 38.875 51.46875 26.03125 
Q 51.46875 25.25 51.421875 23.6875 
L 12.75 23.6875 
Q 13.234375 15.140625 17.578125 10.59375 
Q 21.921875 6.0625 28.421875 6.0625 
Q 33.25 6.0625 36.671875 8.59375 
Q 40.09375 11.140625 42.09375 16.703125 
M 13.234375 30.90625 
L 42.1875 30.90625 
Q 41.609375 37.453125 38.875 40.71875 
Q 34.671875 45.796875 27.984375 45.796875 
Q 21.921875 45.796875 17.796875 41.75 
Q 13.671875 37.703125 13.234375 30.90625 
" id="ArialMT-65"/>
      <path d="M 25.921875 0 
L 25.921875 63.140625 
L 2.34375 63.140625 
L 2.34375 71.578125 
L 59.078125 71.578125 
L 59.078125 63.140625 
L 35.40625 63.140625 
L 35.40625 0 
z
" id="ArialMT-54"/>
     </defs>
     <g style="fill:#262626;" transform="translate(272.9009375 145.116605114)scale(0.11 -0.11)">
      <use xlink:href="#ArialMT-54"/>
      <use x="61.037109375" xlink:href="#ArialMT-69"/>
      <use x="83.25390625" xlink:href="#ArialMT-6d"/>
      <use x="166.5546875" xlink:href="#ArialMT-65"/>
      <use x="222.169921875" xlink:href="#ArialMT-20"/>
      <use x="249.953125" xlink:href="#ArialMT-28"/>
      <use x="283.25390625" xlink:href="#ArialMT-68"/>
      <use x="338.869140625" xlink:href="#ArialMT-72"/>
      <use x="372.169921875" xlink:href="#ArialMT-29"/>
     </g>
    </g>
   </g>
   <g id="matplotlib.axis_2">
    <g id="ytick_1">
     <g id="line2d_5">
      <defs>
       <path d="M 0 0 
L -6 0 
" id="md6845f526c" style="stroke:#262626;"/>
      </defs>
      <g>
       <use style="fill:#262626;stroke:#262626;" x="72.0" xlink:href="#md6845f526c" y="109.963636364"/>
      </g>
     </g>
     <g id="text_6">
      <!-- 0 -->
      <g style="fill:#262626;" transform="translate(53.4390625 112.548792614)scale(0.1 -0.1)">
       <use xlink:href="#ArialMT-30"/>
      </g>
     </g>
    </g>
    <g id="ytick_2">
     <g id="line2d_6">
      <g>
       <use style="fill:#262626;stroke:#262626;" x="72.0" xlink:href="#md6845f526c" y="93.7309090909"/>
      </g>
     </g>
     <g id="text_7">
      <!-- 50 -->
      <g style="fill:#262626;" transform="translate(47.878125 96.3160653409)scale(0.1 -0.1)">
       <use xlink:href="#ArialMT-35"/>
       <use x="55.615234375" xlink:href="#ArialMT-30"/>
      </g>
     </g>
    </g>
    <g id="ytick_3">
     <g id="line2d_7">
      <g>
       <use style="fill:#262626;stroke:#262626;" x="72.0" xlink:href="#md6845f526c" y="77.4981818182"/>
      </g>
     </g>
     <g id="text_8">
      <!-- 100 -->
      <g style="fill:#262626;" transform="translate(42.3171875 80.0833380682)scale(0.1 -0.1)">
       <use xlink:href="#ArialMT-31"/>
       <use x="55.615234375" xlink:href="#ArialMT-30"/>
       <use x="111.23046875" xlink:href="#ArialMT-30"/>
      </g>
     </g>
    </g>
    <g id="ytick_4">
     <g id="line2d_8">
      <g>
       <use style="fill:#262626;stroke:#262626;" x="72.0" xlink:href="#md6845f526c" y="61.2654545455"/>
      </g>
     </g>
     <g id="text_9">
      <!-- 150 -->
      <g style="fill:#262626;" transform="translate(42.3171875 63.8506107955)scale(0.1 -0.1)">
       <use xlink:href="#ArialMT-31"/>
       <use x="55.615234375" xlink:href="#ArialMT-35"/>
       <use x="111.23046875" xlink:href="#ArialMT-30"/>
      </g>
     </g>
    </g>
    <g id="ytick_5">
     <g id="line2d_9">
      <g>
       <use style="fill:#262626;stroke:#262626;" x="72.0" xlink:href="#md6845f526c" y="45.0327272727"/>
      </g>
     </g>
     <g id="text_10">
      <!-- 200 -->
      <defs>
       <path d="M 50.34375 8.453125 
L 50.34375 0 
L 3.03125 0 
Q 2.9375 3.171875 4.046875 6.109375 
Q 5.859375 10.9375 9.828125 15.625 
Q 13.8125 20.3125 21.34375 26.46875 
Q 33.015625 36.03125 37.109375 41.625 
Q 41.21875 47.21875 41.21875 52.203125 
Q 41.21875 57.421875 37.46875 61 
Q 33.734375 64.59375 27.734375 64.59375 
Q 21.390625 64.59375 17.578125 60.78125 
Q 13.765625 56.984375 13.71875 50.25 
L 4.6875 51.171875 
Q 5.609375 61.28125 11.65625 66.578125 
Q 17.71875 71.875 27.9375 71.875 
Q 38.234375 71.875 44.234375 66.15625 
Q 50.25 60.453125 50.25 52 
Q 50.25 47.703125 48.484375 43.546875 
Q 46.734375 39.40625 42.65625 34.8125 
Q 38.578125 30.21875 29.109375 22.21875 
Q 21.1875 15.578125 18.9375 13.203125 
Q 16.703125 10.84375 15.234375 8.453125 
z
" id="ArialMT-32"/>
      </defs>
      <g style="fill:#262626;" transform="translate(42.3171875 47.6178835227)scale(0.1 -0.1)">
       <use xlink:href="#ArialMT-32"/>
       <use x="55.615234375" xlink:href="#ArialMT-30"/>
       <use x="111.23046875" xlink:href="#ArialMT-30"/>
      </g>
     </g>
    </g>
    <g id="ytick_6">
     <g id="line2d_10">
      <g>
       <use style="fill:#262626;stroke:#262626;" x="72.0" xlink:href="#md6845f526c" y="28.8"/>
      </g>
     </g>
     <g id="text_11">
      <!-- 250 -->
      <g style="fill:#262626;" transform="translate(42.3171875 31.38515625)scale(0.1 -0.1)">
       <use xlink:href="#ArialMT-32"/>
       <use x="55.615234375" xlink:href="#ArialMT-35"/>
       <use x="111.23046875" xlink:href="#ArialMT-30"/>
      </g>
     </g>
    </g>
    <g id="text_12">
     <!-- Concentration (mM) -->
     <defs>
      <path d="M 40.4375 6.390625 
Q 35.546875 2.25 31.03125 0.53125 
Q 26.515625 -1.171875 21.34375 -1.171875 
Q 12.796875 -1.171875 8.203125 3 
Q 3.609375 7.171875 3.609375 13.671875 
Q 3.609375 17.484375 5.34375 20.625 
Q 7.078125 23.78125 9.890625 25.6875 
Q 12.703125 27.59375 16.21875 28.5625 
Q 18.796875 29.25 24.03125 29.890625 
Q 34.671875 31.15625 39.703125 32.90625 
Q 39.75 34.71875 39.75 35.203125 
Q 39.75 40.578125 37.25 42.78125 
Q 33.890625 45.75 27.25 45.75 
Q 21.046875 45.75 18.09375 43.578125 
Q 15.140625 41.40625 13.71875 35.890625 
L 5.125 37.0625 
Q 6.296875 42.578125 8.984375 45.96875 
Q 11.671875 49.359375 16.75 51.1875 
Q 21.828125 53.03125 28.515625 53.03125 
Q 35.15625 53.03125 39.296875 51.46875 
Q 43.453125 49.90625 45.40625 47.53125 
Q 47.359375 45.171875 48.140625 41.546875 
Q 48.578125 39.3125 48.578125 33.453125 
L 48.578125 21.734375 
Q 48.578125 9.46875 49.140625 6.21875 
Q 49.703125 2.984375 51.375 0 
L 42.1875 0 
Q 40.828125 2.734375 40.4375 6.390625 
M 39.703125 26.03125 
Q 34.90625 24.078125 25.34375 22.703125 
Q 19.921875 21.921875 17.671875 20.9375 
Q 15.4375 19.96875 14.203125 18.09375 
Q 12.984375 16.21875 12.984375 13.921875 
Q 12.984375 10.40625 15.640625 8.0625 
Q 18.3125 5.71875 23.4375 5.71875 
Q 28.515625 5.71875 32.46875 7.9375 
Q 36.421875 10.15625 38.28125 14.015625 
Q 39.703125 17 39.703125 22.796875 
z
" id="ArialMT-61"/>
      <path d="M 6.59375 0 
L 6.59375 51.859375 
L 14.5 51.859375 
L 14.5 44.484375 
Q 20.21875 53.03125 31 53.03125 
Q 35.6875 53.03125 39.625 51.34375 
Q 43.5625 49.65625 45.515625 46.921875 
Q 47.46875 44.1875 48.25 40.4375 
Q 48.734375 37.984375 48.734375 31.890625 
L 48.734375 0 
L 39.9375 0 
L 39.9375 31.546875 
Q 39.9375 36.921875 38.90625 39.578125 
Q 37.890625 42.234375 35.28125 43.8125 
Q 32.671875 45.40625 29.15625 45.40625 
Q 23.53125 45.40625 19.453125 41.84375 
Q 15.375 38.28125 15.375 28.328125 
L 15.375 0 
z
" id="ArialMT-6e"/>
      <path d="M 40.4375 19 
L 49.078125 17.875 
Q 47.65625 8.9375 41.8125 3.875 
Q 35.984375 -1.171875 27.484375 -1.171875 
Q 16.84375 -1.171875 10.375 5.78125 
Q 3.90625 12.75 3.90625 25.734375 
Q 3.90625 34.125 6.6875 40.421875 
Q 9.46875 46.734375 15.15625 49.875 
Q 20.84375 53.03125 27.546875 53.03125 
Q 35.984375 53.03125 41.359375 48.75 
Q 46.734375 44.484375 48.25 36.625 
L 39.703125 35.296875 
Q 38.484375 40.53125 35.375 43.15625 
Q 32.28125 45.796875 27.875 45.796875 
Q 21.234375 45.796875 17.078125 41.03125 
Q 12.9375 36.28125 12.9375 25.984375 
Q 12.9375 15.53125 16.9375 10.796875 
Q 20.953125 6.0625 27.390625 6.0625 
Q 32.5625 6.0625 36.03125 9.234375 
Q 39.5 12.40625 40.4375 19 
" id="ArialMT-63"/>
      <path d="M 7.421875 0 
L 7.421875 71.578125 
L 21.6875 71.578125 
L 38.625 20.90625 
Q 40.96875 13.8125 42.046875 10.296875 
Q 43.265625 14.203125 45.84375 21.78125 
L 62.984375 71.578125 
L 75.734375 71.578125 
L 75.734375 0 
L 66.609375 0 
L 66.609375 59.90625 
L 45.796875 0 
L 37.25 0 
L 16.546875 60.9375 
L 16.546875 0 
z
" id="ArialMT-4d"/>
      <path d="M 3.328125 25.921875 
Q 3.328125 40.328125 11.328125 47.265625 
Q 18.015625 53.03125 27.640625 53.03125 
Q 38.328125 53.03125 45.109375 46.015625 
Q 51.90625 39.015625 51.90625 26.65625 
Q 51.90625 16.65625 48.90625 10.90625 
Q 45.90625 5.171875 40.15625 2 
Q 34.421875 -1.171875 27.640625 -1.171875 
Q 16.75 -1.171875 10.03125 5.8125 
Q 3.328125 12.796875 3.328125 25.921875 
M 12.359375 25.921875 
Q 12.359375 15.96875 16.703125 11.015625 
Q 21.046875 6.0625 27.640625 6.0625 
Q 34.1875 6.0625 38.53125 11.03125 
Q 42.875 16.015625 42.875 26.21875 
Q 42.875 35.84375 38.5 40.796875 
Q 34.125 45.75 27.640625 45.75 
Q 21.046875 45.75 16.703125 40.8125 
Q 12.359375 35.890625 12.359375 25.921875 
" id="ArialMT-6f"/>
      <path d="M 25.78125 7.859375 
L 27.046875 0.09375 
Q 23.34375 -0.6875 20.40625 -0.6875 
Q 15.625 -0.6875 12.984375 0.828125 
Q 10.359375 2.34375 9.28125 4.8125 
Q 8.203125 7.28125 8.203125 15.1875 
L 8.203125 45.015625 
L 1.765625 45.015625 
L 1.765625 51.859375 
L 8.203125 51.859375 
L 8.203125 64.703125 
L 16.9375 69.96875 
L 16.9375 51.859375 
L 25.78125 51.859375 
L 25.78125 45.015625 
L 16.9375 45.015625 
L 16.9375 14.703125 
Q 16.9375 10.9375 17.40625 9.859375 
Q 17.875 8.796875 18.921875 8.15625 
Q 19.96875 7.515625 21.921875 7.515625 
Q 23.390625 7.515625 25.78125 7.859375 
" id="ArialMT-74"/>
      <path d="M 58.796875 25.09375 
L 68.265625 22.703125 
Q 65.28125 11.03125 57.546875 4.90625 
Q 49.8125 -1.21875 38.625 -1.21875 
Q 27.046875 -1.21875 19.796875 3.484375 
Q 12.546875 8.203125 8.765625 17.140625 
Q 4.984375 26.078125 4.984375 36.328125 
Q 4.984375 47.515625 9.25 55.828125 
Q 13.53125 64.15625 21.40625 68.46875 
Q 29.296875 72.796875 38.765625 72.796875 
Q 49.515625 72.796875 56.828125 67.328125 
Q 64.15625 61.859375 67.046875 51.953125 
L 57.71875 49.75 
Q 55.21875 57.5625 50.484375 61.125 
Q 45.75 64.703125 38.578125 64.703125 
Q 30.328125 64.703125 24.78125 60.734375 
Q 19.234375 56.78125 16.984375 50.109375 
Q 14.75 43.453125 14.75 36.375 
Q 14.75 27.25 17.40625 20.4375 
Q 20.0625 13.625 25.671875 10.25 
Q 31.296875 6.890625 37.84375 6.890625 
Q 45.796875 6.890625 51.3125 11.46875 
Q 56.84375 16.0625 58.796875 25.09375 
" id="ArialMT-43"/>
     </defs>
     <g style="fill:#262626;" transform="translate(35.00203125 117.976036932)rotate(-90.0)scale(0.11 -0.11)">
      <use xlink:href="#ArialMT-43"/>
      <use x="72.216796875" xlink:href="#ArialMT-6f"/>
      <use x="127.83203125" xlink:href="#ArialMT-6e"/>
      <use x="183.447265625" xlink:href="#ArialMT-63"/>
      <use x="233.447265625" xlink:href="#ArialMT-65"/>
      <use x="289.0625" xlink:href="#ArialMT-6e"/>
      <use x="344.677734375" xlink:href="#ArialMT-74"/>
      <use x="372.4609375" xlink:href="#ArialMT-72"/>
      <use x="405.76171875" xlink:href="#ArialMT-61"/>
      <use x="461.376953125" xlink:href="#ArialMT-74"/>
      <use x="489.16015625" xlink:href="#ArialMT-69"/>
      <use x="511.376953125" xlink:href="#ArialMT-6f"/>
      <use x="566.9921875" xlink:href="#ArialMT-6e"/>
      <use x="622.607421875" xlink:href="#ArialMT-20"/>
      <use x="650.390625" xlink:href="#ArialMT-28"/>
      <use x="683.69140625" xlink:href="#ArialMT-6d"/>
      <use x="766.9921875" xlink:href="#ArialMT-4d"/>
      <use x="850.29296875" xlink:href="#ArialMT-29"/>
     </g>
    </g>
   </g>
   <g id="patch_3">
    <path clip-path="url(#p42188b0a6e)" d="M 72 109.963636 
L 72 28.8 
L 518.321125 28.8 
L 518.321125 109.963636 
z
" style="fill:#e8f6f2;"/>
   </g>
   <g id="line2d_11">
    <path clip-path="url(#p42188b0a6e)" d="M 72 51.948318 
L 76.508294 52.008774 
L 81.016588 52.071803 
L 85.524883 52.137519 
L 90.033177 52.206034 
L 94.541471 52.277461 
L 99.049765 52.351919 
L 103.558059 52.429524 
L 108.066354 52.51041 
L 112.574648 52.594714 
L 117.082942 52.682569 
L 121.591236 52.774118 
L 126.09953 52.869501 
L 130.607825 52.968879 
L 135.116119 53.072411 
L 139.624413 53.180259 
L 144.132707 53.292589 
L 148.641001 53.409571 
L 153.149295 53.531393 
L 157.65759 53.658242 
L 162.165884 53.790309 
L 166.674178 53.927787 
L 171.182472 54.070879 
L 175.690766 54.2198 
L 180.199061 54.37477 
L 184.707355 54.53601 
L 189.215649 54.703743 
L 193.723943 54.878202 
L 198.232237 55.059637 
L 202.740532 55.248295 
L 207.248826 55.44443 
L 211.75712 55.648294 
L 216.265414 55.860154 
L 220.773708 56.080286 
L 225.282003 56.308968 
L 229.790297 56.546481 
L 234.298591 56.793108 
L 238.806885 57.04914 
L 243.315179 57.314879 
L 247.823474 57.590625 
L 252.331768 57.876681 
L 256.840062 58.173353 
L 261.348356 58.48095 
L 265.85665 58.799787 
L 270.364944 59.130175 
L 274.873239 59.472427 
L 279.381533 59.826861 
L 283.889827 60.193787 
L 288.398121 60.573514 
L 292.906415 60.966349 
L 297.41471 61.372592 
L 301.923004 61.792555 
L 306.431298 62.226525 
L 310.939592 62.674779 
L 315.447886 63.137589 
L 319.956181 63.615219 
L 324.464475 64.107946 
L 328.972769 64.615997 
L 333.481063 65.139581 
L 337.989357 65.678904 
L 342.497652 66.23415 
L 347.005946 66.805527 
L 351.51424 67.393158 
L 356.022534 67.997139 
L 360.530828 68.617566 
L 365.039123 69.2545 
L 369.547417 69.908031 
L 374.055711 70.578128 
L 378.564005 71.264726 
L 383.072299 71.96776 
L 387.580593 72.687118 
L 392.088888 73.422724 
L 396.597182 74.174337 
L 401.105476 74.941685 
L 405.61377 75.724493 
L 410.122064 76.522428 
L 414.630359 77.335193 
L 419.138653 78.162297 
L 423.646947 79.003213 
L 428.155241 79.857416 
L 432.663535 80.724307 
L 437.17183 81.60333 
L 441.680124 82.493702 
L 446.188418 83.394611 
L 450.696712 84.305245 
L 455.205006 85.224705 
L 459.713301 86.152144 
L 464.221595 87.086455 
L 468.729889 88.026503 
L 473.238183 88.971159 
L 477.746477 89.919176 
L 482.254772 90.869396 
L 486.763066 91.820316 
L 491.27136 92.770419 
L 495.779654 93.718184 
L 500.287948 94.661923 
L 504.796242 95.600105 
L 509.304537 96.530663 
L 513.812831 97.451513 
L 518.321125 98.360572 
" style="fill:none;stroke:#4c72b0;stroke-linecap:round;stroke-width:1.75;"/>
   </g>
   <g id="line2d_12">
    <path clip-path="url(#p42188b0a6e)" d="M 72 109.963636 
L 76.508294 109.893323 
L 81.016588 109.820016 
L 85.524883 109.743584 
L 90.033177 109.663896 
L 94.541471 109.580822 
L 99.049765 109.494223 
L 103.558059 109.403964 
L 108.066354 109.309888 
L 112.574648 109.211838 
L 117.082942 109.109656 
L 121.591236 109.003179 
L 126.09953 108.892243 
L 130.607825 108.77666 
L 135.116119 108.656246 
L 139.624413 108.530812 
L 144.132707 108.400164 
L 148.641001 108.264107 
L 153.149295 108.122421 
L 157.65759 107.974888 
L 162.165884 107.821286 
L 166.674178 107.661389 
L 171.182472 107.494965 
L 175.690766 107.32176 
L 180.199061 107.14152 
L 184.707355 106.953988 
L 189.215649 106.758904 
L 193.723943 106.555997 
L 198.232237 106.344977 
L 202.740532 106.125555 
L 207.248826 105.897439 
L 211.75712 105.660331 
L 216.265414 105.413925 
L 220.773708 105.157898 
L 225.282003 104.891926 
L 229.790297 104.615684 
L 234.298591 104.328842 
L 238.806885 104.03106 
L 243.315179 103.721989 
L 247.823474 103.401279 
L 252.331768 103.068577 
L 256.840062 102.72353 
L 261.348356 102.365775 
L 265.85665 101.994948 
L 270.364944 101.610685 
L 274.873239 101.212624 
L 279.381533 100.800396 
L 283.889827 100.373637 
L 288.398121 99.931991 
L 292.906415 99.4751 
L 297.41471 99.002613 
L 301.923004 98.51417 
L 306.431298 98.009435 
L 310.939592 97.488088 
L 315.447886 96.94981 
L 319.956181 96.394297 
L 324.464475 95.821225 
L 328.972769 95.230329 
L 333.481063 94.621368 
L 337.989357 93.994102 
L 342.497652 93.348316 
L 347.005946 92.683768 
L 351.51424 92.000316 
L 356.022534 91.297848 
L 360.530828 90.576252 
L 365.039123 89.835459 
L 369.547417 89.075361 
L 374.055711 88.295996 
L 378.564005 87.49744 
L 383.072299 86.679767 
L 387.580593 85.843108 
L 392.088888 84.987552 
L 396.597182 84.113379 
L 401.105476 83.220905 
L 405.61377 82.310449 
L 410.122064 81.382401 
L 414.630359 80.437104 
L 419.138653 79.47513 
L 423.646947 78.497092 
L 428.155241 77.5036 
L 432.663535 76.495352 
L 437.17183 75.472992 
L 441.680124 74.437434 
L 446.188418 73.38962 
L 450.696712 72.330496 
L 455.205006 71.261106 
L 459.713301 70.182435 
L 464.221595 69.095774 
L 468.729889 68.002438 
L 473.238183 66.903745 
L 477.746477 65.80114 
L 482.254772 64.695975 
L 486.763066 63.589995 
L 491.27136 62.484966 
L 495.779654 61.382656 
L 500.287948 60.285028 
L 504.796242 59.193862 
L 509.304537 58.111565 
L 513.812831 57.040559 
L 518.321125 55.983266 
" style="fill:none;stroke:#55a868;stroke-linecap:round;stroke-width:1.75;"/>
   </g>
   <g id="line2d_13">
    <path clip-path="url(#p42188b0a6e)" d="M 72 109.963636 
L 76.508294 109.93217 
L 81.016588 109.899364 
L 85.524883 109.86516 
L 90.033177 109.829498 
L 94.541471 109.792322 
L 99.049765 109.753567 
L 103.558059 109.713175 
L 108.066354 109.671075 
L 112.574648 109.627196 
L 117.082942 109.581468 
L 121.591236 109.533818 
L 126.09953 109.484172 
L 130.607825 109.432448 
L 135.116119 109.37856 
L 139.624413 109.322427 
L 144.132707 109.26396 
L 148.641001 109.203073 
L 153.149295 109.139666 
L 157.65759 109.073643 
L 162.165884 109.004904 
L 166.674178 108.933348 
L 171.182472 108.858871 
L 175.690766 108.781359 
L 180.199061 108.700699 
L 184.707355 108.616776 
L 189.215649 108.529473 
L 193.723943 108.438669 
L 198.232237 108.344234 
L 202.740532 108.24604 
L 207.248826 108.143955 
L 211.75712 108.037846 
L 216.265414 107.927576 
L 220.773708 107.813 
L 225.282003 107.693973 
L 229.790297 107.570351 
L 234.298591 107.441985 
L 238.806885 107.308723 
L 243.315179 107.17041 
L 247.823474 107.026887 
L 252.331768 106.877999 
L 256.840062 106.723585 
L 261.348356 106.563484 
L 265.85665 106.397534 
L 270.364944 106.225571 
L 274.873239 106.047433 
L 279.381533 105.862955 
L 283.889827 105.671974 
L 288.398121 105.474331 
L 292.906415 105.269866 
L 297.41471 105.058421 
L 301.923004 104.839836 
L 306.431298 104.61396 
L 310.939592 104.38065 
L 315.447886 104.139763 
L 319.956181 103.891162 
L 324.464475 103.634705 
L 328.972769 103.37027 
L 333.481063 103.097751 
L 337.989357 102.817041 
L 342.497652 102.528042 
L 347.005946 102.230648 
L 351.51424 101.924793 
L 356.022534 101.610428 
L 360.530828 101.287504 
L 365.039123 100.955988 
L 369.547417 100.615834 
L 374.055711 100.267057 
L 378.564005 99.909691 
L 383.072299 99.543771 
L 387.580593 99.169354 
L 392.088888 98.786481 
L 396.597182 98.395275 
L 401.105476 97.99588 
L 405.61377 97.588439 
L 410.122064 97.173124 
L 414.630359 96.75009 
L 419.138653 96.319593 
L 423.646947 95.881907 
L 428.155241 95.437305 
L 432.663535 94.986099 
L 437.17183 94.528579 
L 441.680124 94.065151 
L 446.188418 93.59624 
L 450.696712 93.122266 
L 455.205006 92.643699 
L 459.713301 92.160979 
L 464.221595 91.674682 
L 468.729889 91.185398 
L 473.238183 90.693717 
L 477.746477 90.200286 
L 482.254772 89.705709 
L 486.763066 89.210767 
L 491.27136 88.716251 
L 495.779654 88.222951 
L 500.287948 87.731747 
L 504.796242 87.243435 
L 509.304537 86.759091 
L 513.812831 86.2798 
L 518.321125 85.806647 
" style="fill:none;stroke:#c44e52;stroke-linecap:round;stroke-width:1.75;"/>
   </g>
   <g id="patch_4">
    <path d="M 72 109.963636 
L 72 28.8 
" style="fill:none;stroke:#262626;stroke-linecap:square;stroke-linejoin:miter;stroke-width:1.25;"/>
   </g>
   <g id="patch_5">
    <path d="M 72 109.963636 
L 518.4 109.963636 
" style="fill:none;stroke:#262626;stroke-linecap:square;stroke-linejoin:miter;stroke-width:1.25;"/>
   </g>
   <g id="patch_6">
    <path d="M 518.4 109.963636 
L 518.4 28.8 
" style="fill:none;stroke:#262626;stroke-linecap:square;stroke-linejoin:miter;stroke-width:1.25;"/>
   </g>
   <g id="text_13">
    <!-- A. succinogenes maximum succinate producitivity -->
    <defs>
     <path d="M -0.140625 0 
L 27.34375 71.578125 
L 37.546875 71.578125 
L 66.84375 0 
L 56.0625 0 
L 47.703125 21.6875 
L 17.78125 21.6875 
L 9.90625 0 
z
M 20.515625 29.390625 
L 44.78125 29.390625 
L 37.3125 49.21875 
Q 33.890625 58.25 32.234375 64.0625 
Q 30.859375 57.171875 28.375 50.390625 
z
" id="ArialMT-41"/>
     <path d="M 6.203125 -19.96875 
L 5.21875 -11.71875 
Q 8.109375 -12.5 10.25 -12.5 
Q 13.1875 -12.5 14.9375 -11.515625 
Q 16.703125 -10.546875 17.828125 -8.796875 
Q 18.65625 -7.46875 20.515625 -2.25 
Q 20.75 -1.515625 21.296875 -0.09375 
L 1.609375 51.859375 
L 11.078125 51.859375 
L 21.875 21.828125 
Q 23.96875 16.109375 25.640625 9.8125 
Q 27.15625 15.875 29.25 21.625 
L 40.328125 51.859375 
L 49.125 51.859375 
L 29.390625 -0.875 
Q 26.21875 -9.421875 24.46875 -12.640625 
Q 22.125 -17 19.09375 -19.015625 
Q 16.0625 -21.046875 11.859375 -21.046875 
Q 9.328125 -21.046875 6.203125 -19.96875 
" id="ArialMT-79"/>
     <path d="M 9.078125 0 
L 9.078125 10.015625 
L 19.09375 10.015625 
L 19.09375 0 
z
" id="ArialMT-2e"/>
     <path d="M 0.734375 0 
L 19.671875 26.953125 
L 2.15625 51.859375 
L 13.140625 51.859375 
L 21.09375 39.703125 
Q 23.34375 36.234375 24.703125 33.890625 
Q 26.859375 37.109375 28.65625 39.59375 
L 37.40625 51.859375 
L 47.90625 51.859375 
L 29.984375 27.4375 
L 49.265625 0 
L 38.484375 0 
L 27.828125 16.109375 
L 25 20.453125 
L 11.375 0 
z
" id="ArialMT-78"/>
     <path d="M 40.578125 0 
L 40.578125 7.625 
Q 34.515625 -1.171875 24.125 -1.171875 
Q 19.53125 -1.171875 15.546875 0.578125 
Q 11.578125 2.34375 9.640625 5 
Q 7.71875 7.671875 6.9375 11.53125 
Q 6.390625 14.109375 6.390625 19.734375 
L 6.390625 51.859375 
L 15.1875 51.859375 
L 15.1875 23.09375 
Q 15.1875 16.21875 15.71875 13.8125 
Q 16.546875 10.359375 19.234375 8.375 
Q 21.921875 6.390625 25.875 6.390625 
Q 29.828125 6.390625 33.296875 8.421875 
Q 36.765625 10.453125 38.203125 13.9375 
Q 39.65625 17.4375 39.65625 24.078125 
L 39.65625 51.859375 
L 48.4375 51.859375 
L 48.4375 0 
z
" id="ArialMT-75"/>
     <path d="M 40.234375 0 
L 40.234375 6.546875 
Q 35.296875 -1.171875 25.734375 -1.171875 
Q 19.53125 -1.171875 14.328125 2.25 
Q 9.125 5.671875 6.265625 11.796875 
Q 3.421875 17.921875 3.421875 25.875 
Q 3.421875 33.640625 6 39.96875 
Q 8.59375 46.296875 13.765625 49.65625 
Q 18.953125 53.03125 25.34375 53.03125 
Q 30.03125 53.03125 33.6875 51.046875 
Q 37.359375 49.078125 39.65625 45.90625 
L 39.65625 71.578125 
L 48.390625 71.578125 
L 48.390625 0 
z
M 12.453125 25.875 
Q 12.453125 15.921875 16.640625 10.984375 
Q 20.84375 6.0625 26.5625 6.0625 
Q 32.328125 6.0625 36.34375 10.765625 
Q 40.375 15.484375 40.375 25.140625 
Q 40.375 35.796875 36.265625 40.765625 
Q 32.171875 45.75 26.171875 45.75 
Q 20.3125 45.75 16.375 40.96875 
Q 12.453125 36.1875 12.453125 25.875 
" id="ArialMT-64"/>
     <path d="M 21 0 
L 1.265625 51.859375 
L 10.546875 51.859375 
L 21.6875 20.796875 
Q 23.484375 15.765625 25 10.359375 
Q 26.171875 14.453125 28.265625 20.21875 
L 39.796875 51.859375 
L 48.828125 51.859375 
L 29.203125 0 
z
" id="ArialMT-76"/>
     <path d="M 3.078125 15.484375 
L 11.765625 16.84375 
Q 12.5 11.625 15.84375 8.84375 
Q 19.1875 6.0625 25.203125 6.0625 
Q 31.25 6.0625 34.171875 8.515625 
Q 37.109375 10.984375 37.109375 14.3125 
Q 37.109375 17.28125 34.515625 19 
Q 32.71875 20.171875 25.53125 21.96875 
Q 15.875 24.421875 12.140625 26.203125 
Q 8.40625 27.984375 6.46875 31.125 
Q 4.546875 34.28125 4.546875 38.09375 
Q 4.546875 41.546875 6.125 44.5 
Q 7.71875 47.46875 10.453125 49.421875 
Q 12.5 50.921875 16.03125 51.96875 
Q 19.578125 53.03125 23.640625 53.03125 
Q 29.734375 53.03125 34.34375 51.265625 
Q 38.96875 49.515625 41.15625 46.5 
Q 43.359375 43.5 44.1875 38.484375 
L 35.59375 37.3125 
Q 35.015625 41.3125 32.203125 43.546875 
Q 29.390625 45.796875 24.265625 45.796875 
Q 18.21875 45.796875 15.625 43.796875 
Q 13.03125 41.796875 13.03125 39.109375 
Q 13.03125 37.40625 14.109375 36.03125 
Q 15.1875 34.625 17.484375 33.6875 
Q 18.796875 33.203125 25.25 31.453125 
Q 34.578125 28.953125 38.25 27.359375 
Q 41.9375 25.78125 44.03125 22.75 
Q 46.140625 19.734375 46.140625 15.234375 
Q 46.140625 10.84375 43.578125 6.953125 
Q 41.015625 3.078125 36.171875 0.953125 
Q 31.34375 -1.171875 25.25 -1.171875 
Q 15.140625 -1.171875 9.84375 3.03125 
Q 4.546875 7.234375 3.078125 15.484375 
" id="ArialMT-73"/>
     <path d="M 6.59375 -19.875 
L 6.59375 51.859375 
L 14.59375 51.859375 
L 14.59375 45.125 
Q 17.4375 49.078125 21 51.046875 
Q 24.5625 53.03125 29.640625 53.03125 
Q 36.28125 53.03125 41.359375 49.609375 
Q 46.4375 46.1875 49.015625 39.953125 
Q 51.609375 33.734375 51.609375 26.3125 
Q 51.609375 18.359375 48.75 11.984375 
Q 45.90625 5.609375 40.453125 2.21875 
Q 35.015625 -1.171875 29 -1.171875 
Q 24.609375 -1.171875 21.109375 0.6875 
Q 17.625 2.546875 15.375 5.375 
L 15.375 -19.875 
z
M 14.546875 25.640625 
Q 14.546875 15.625 18.59375 10.84375 
Q 22.65625 6.0625 28.421875 6.0625 
Q 34.28125 6.0625 38.453125 11.015625 
Q 42.625 15.96875 42.625 26.375 
Q 42.625 36.28125 38.546875 41.203125 
Q 34.46875 46.140625 28.8125 46.140625 
Q 23.1875 46.140625 18.859375 40.890625 
Q 14.546875 35.640625 14.546875 25.640625 
" id="ArialMT-70"/>
     <path d="M 4.984375 -4.296875 
L 13.53125 -5.5625 
Q 14.0625 -9.515625 16.5 -11.328125 
Q 19.78125 -13.765625 25.4375 -13.765625 
Q 31.546875 -13.765625 34.859375 -11.328125 
Q 38.1875 -8.890625 39.359375 -4.5 
Q 40.046875 -1.8125 39.984375 6.78125 
Q 34.234375 0 25.640625 0 
Q 14.9375 0 9.078125 7.71875 
Q 3.21875 15.4375 3.21875 26.21875 
Q 3.21875 33.640625 5.90625 39.90625 
Q 8.59375 46.1875 13.6875 49.609375 
Q 18.796875 53.03125 25.6875 53.03125 
Q 34.859375 53.03125 40.828125 45.609375 
L 40.828125 51.859375 
L 48.921875 51.859375 
L 48.921875 7.03125 
Q 48.921875 -5.078125 46.453125 -10.125 
Q 44 -15.1875 38.640625 -18.109375 
Q 33.296875 -21.046875 25.484375 -21.046875 
Q 16.21875 -21.046875 10.5 -16.875 
Q 4.78125 -12.703125 4.984375 -4.296875 
M 12.25 26.859375 
Q 12.25 16.65625 16.296875 11.96875 
Q 20.359375 7.28125 26.46875 7.28125 
Q 32.515625 7.28125 36.609375 11.9375 
Q 40.71875 16.609375 40.71875 26.5625 
Q 40.71875 36.078125 36.5 40.90625 
Q 32.28125 45.75 26.3125 45.75 
Q 20.453125 45.75 16.34375 40.984375 
Q 12.25 36.234375 12.25 26.859375 
" id="ArialMT-67"/>
    </defs>
    <g style="fill:#262626;" transform="translate(163.15125 23.8)scale(0.12 -0.12)">
     <use xlink:href="#ArialMT-41"/>
     <use x="66.69921875" xlink:href="#ArialMT-2e"/>
     <use x="94.482421875" xlink:href="#ArialMT-20"/>
     <use x="122.265625" xlink:href="#ArialMT-73"/>
     <use x="172.265625" xlink:href="#ArialMT-75"/>
     <use x="227.880859375" xlink:href="#ArialMT-63"/>
     <use x="277.880859375" xlink:href="#ArialMT-63"/>
     <use x="327.880859375" xlink:href="#ArialMT-69"/>
     <use x="350.09765625" xlink:href="#ArialMT-6e"/>
     <use x="405.712890625" xlink:href="#ArialMT-6f"/>
     <use x="461.328125" xlink:href="#ArialMT-67"/>
     <use x="516.943359375" xlink:href="#ArialMT-65"/>
     <use x="572.55859375" xlink:href="#ArialMT-6e"/>
     <use x="628.173828125" xlink:href="#ArialMT-65"/>
     <use x="683.7890625" xlink:href="#ArialMT-73"/>
     <use x="733.7890625" xlink:href="#ArialMT-20"/>
     <use x="761.572265625" xlink:href="#ArialMT-6d"/>
     <use x="844.873046875" xlink:href="#ArialMT-61"/>
     <use x="900.48828125" xlink:href="#ArialMT-78"/>
     <use x="950.48828125" xlink:href="#ArialMT-69"/>
     <use x="972.705078125" xlink:href="#ArialMT-6d"/>
     <use x="1056.005859375" xlink:href="#ArialMT-75"/>
     <use x="1111.62109375" xlink:href="#ArialMT-6d"/>
     <use x="1194.921875" xlink:href="#ArialMT-20"/>
     <use x="1222.705078125" xlink:href="#ArialMT-73"/>
     <use x="1272.705078125" xlink:href="#ArialMT-75"/>
     <use x="1328.3203125" xlink:href="#ArialMT-63"/>
     <use x="1378.3203125" xlink:href="#ArialMT-63"/>
     <use x="1428.3203125" xlink:href="#ArialMT-69"/>
     <use x="1450.537109375" xlink:href="#ArialMT-6e"/>
     <use x="1506.15234375" xlink:href="#ArialMT-61"/>
     <use x="1561.767578125" xlink:href="#ArialMT-74"/>
     <use x="1589.55078125" xlink:href="#ArialMT-65"/>
     <use x="1645.166015625" xlink:href="#ArialMT-20"/>
     <use x="1672.94921875" xlink:href="#ArialMT-70"/>
     <use x="1728.564453125" xlink:href="#ArialMT-72"/>
     <use x="1761.865234375" xlink:href="#ArialMT-6f"/>
     <use x="1817.48046875" xlink:href="#ArialMT-64"/>
     <use x="1873.095703125" xlink:href="#ArialMT-75"/>
     <use x="1928.7109375" xlink:href="#ArialMT-63"/>
     <use x="1978.7109375" xlink:href="#ArialMT-69"/>
     <use x="2000.927734375" xlink:href="#ArialMT-74"/>
     <use x="2028.7109375" xlink:href="#ArialMT-69"/>
     <use x="2050.927734375" xlink:href="#ArialMT-76"/>
     <use x="2100.927734375" xlink:href="#ArialMT-69"/>
     <use x="2123.14453125" xlink:href="#ArialMT-74"/>
     <use x="2150.927734375" xlink:href="#ArialMT-79"/>
    </g>
   </g>
   <g id="legend_1">
    <g id="line2d_14">
     <path d="M 81 47.249006 
L 101 47.249006 
" style="fill:none;stroke:#4c72b0;stroke-linecap:round;stroke-width:1.75;"/>
    </g>
    <g id="line2d_15"/>
    <g id="text_14">
     <!-- Glucose -->
     <defs>
      <path d="M 6.390625 0 
L 6.390625 71.578125 
L 15.1875 71.578125 
L 15.1875 0 
z
" id="ArialMT-6c"/>
      <path d="M 41.21875 28.078125 
L 41.21875 36.46875 
L 71.53125 36.53125 
L 71.53125 9.96875 
Q 64.546875 4.390625 57.125 1.578125 
Q 49.703125 -1.21875 41.890625 -1.21875 
Q 31.34375 -1.21875 22.71875 3.296875 
Q 14.109375 7.8125 9.71875 16.359375 
Q 5.328125 24.90625 5.328125 35.453125 
Q 5.328125 45.90625 9.6875 54.953125 
Q 14.0625 64.015625 22.265625 68.40625 
Q 30.46875 72.796875 41.15625 72.796875 
Q 48.921875 72.796875 55.1875 70.28125 
Q 61.46875 67.78125 65.03125 63.28125 
Q 68.609375 58.796875 70.453125 51.5625 
L 61.921875 49.21875 
Q 60.296875 54.6875 57.90625 57.8125 
Q 55.515625 60.9375 51.0625 62.8125 
Q 46.625 64.703125 41.21875 64.703125 
Q 34.71875 64.703125 29.984375 62.71875 
Q 25.25 60.75 22.34375 57.515625 
Q 19.4375 54.296875 17.828125 50.4375 
Q 15.09375 43.796875 15.09375 36.03125 
Q 15.09375 26.46875 18.390625 20.015625 
Q 21.6875 13.578125 27.984375 10.453125 
Q 34.28125 7.328125 41.359375 7.328125 
Q 47.515625 7.328125 53.375 9.6875 
Q 59.234375 12.0625 62.25 14.75 
L 62.25 28.078125 
z
" id="ArialMT-47"/>
     </defs>
     <g style="fill:#262626;" transform="translate(109.0 50.7490056818)scale(0.1 -0.1)">
      <use xlink:href="#ArialMT-47"/>
      <use x="77.783203125" xlink:href="#ArialMT-6c"/>
      <use x="100.0" xlink:href="#ArialMT-75"/>
      <use x="155.615234375" xlink:href="#ArialMT-63"/>
      <use x="205.615234375" xlink:href="#ArialMT-6f"/>
      <use x="261.23046875" xlink:href="#ArialMT-73"/>
      <use x="311.23046875" xlink:href="#ArialMT-65"/>
     </g>
    </g>
    <g id="line2d_16">
     <path d="M 81 61.394318 
L 101 61.394318 
" style="fill:none;stroke:#55a868;stroke-linecap:round;stroke-width:1.75;"/>
    </g>
    <g id="line2d_17"/>
    <g id="text_15">
     <!-- Succinate -->
     <defs>
      <path d="M 4.5 23 
L 13.421875 23.78125 
Q 14.0625 18.40625 16.375 14.96875 
Q 18.703125 11.53125 23.578125 9.40625 
Q 28.46875 7.28125 34.578125 7.28125 
Q 39.984375 7.28125 44.140625 8.890625 
Q 48.296875 10.5 50.3125 13.296875 
Q 52.34375 16.109375 52.34375 19.4375 
Q 52.34375 22.796875 50.390625 25.3125 
Q 48.4375 27.828125 43.953125 29.546875 
Q 41.0625 30.671875 31.203125 33.03125 
Q 21.34375 35.40625 17.390625 37.5 
Q 12.25 40.1875 9.734375 44.15625 
Q 7.234375 48.140625 7.234375 53.078125 
Q 7.234375 58.5 10.296875 63.203125 
Q 13.375 67.921875 19.28125 70.359375 
Q 25.203125 72.796875 32.421875 72.796875 
Q 40.375 72.796875 46.453125 70.234375 
Q 52.546875 67.671875 55.8125 62.6875 
Q 59.078125 57.71875 59.328125 51.421875 
L 50.25 50.734375 
Q 49.515625 57.515625 45.28125 60.984375 
Q 41.0625 64.453125 32.8125 64.453125 
Q 24.21875 64.453125 20.28125 61.296875 
Q 16.359375 58.15625 16.359375 53.71875 
Q 16.359375 49.859375 19.140625 47.359375 
Q 21.875 44.875 33.421875 42.265625 
Q 44.96875 39.65625 49.265625 37.703125 
Q 55.515625 34.8125 58.484375 30.390625 
Q 61.46875 25.984375 61.46875 20.21875 
Q 61.46875 14.5 58.203125 9.4375 
Q 54.9375 4.390625 48.796875 1.578125 
Q 42.671875 -1.21875 35.015625 -1.21875 
Q 25.296875 -1.21875 18.71875 1.609375 
Q 12.15625 4.4375 8.421875 10.125 
Q 4.6875 15.828125 4.5 23 
" id="ArialMT-53"/>
     </defs>
     <g style="fill:#262626;" transform="translate(109.0 64.8943181818)scale(0.1 -0.1)">
      <use xlink:href="#ArialMT-53"/>
      <use x="66.69921875" xlink:href="#ArialMT-75"/>
      <use x="122.314453125" xlink:href="#ArialMT-63"/>
      <use x="172.314453125" xlink:href="#ArialMT-63"/>
      <use x="222.314453125" xlink:href="#ArialMT-69"/>
      <use x="244.53125" xlink:href="#ArialMT-6e"/>
      <use x="300.146484375" xlink:href="#ArialMT-61"/>
      <use x="355.76171875" xlink:href="#ArialMT-74"/>
      <use x="383.544921875" xlink:href="#ArialMT-65"/>
     </g>
    </g>
    <g id="line2d_18">
     <path d="M 81 75.539631 
L 101 75.539631 
" style="fill:none;stroke:#c44e52;stroke-linecap:round;stroke-width:1.75;"/>
    </g>
    <g id="line2d_19"/>
    <g id="text_16">
     <!-- Acetate -->
     <g style="fill:#262626;" transform="translate(109.0 79.0396306818)scale(0.1 -0.1)">
      <use xlink:href="#ArialMT-41"/>
      <use x="66.69921875" xlink:href="#ArialMT-63"/>
      <use x="116.69921875" xlink:href="#ArialMT-65"/>
      <use x="172.314453125" xlink:href="#ArialMT-74"/>
      <use x="200.09765625" xlink:href="#ArialMT-61"/>
      <use x="255.712890625" xlink:href="#ArialMT-74"/>
      <use x="283.49609375" xlink:href="#ArialMT-65"/>
     </g>
    </g>
    <g id="line2d_20">
     <path d="M 81 89.684943 
L 101 89.684943 
" style="fill:none;stroke:#ccb974;stroke-linecap:round;stroke-width:1.75;"/>
    </g>
    <g id="line2d_21"/>
    <g id="text_17">
     <!-- Biomass -->
     <defs>
      <path d="M 7.328125 0 
L 7.328125 71.578125 
L 34.1875 71.578125 
Q 42.390625 71.578125 47.34375 69.40625 
Q 52.296875 67.234375 55.09375 62.71875 
Q 57.90625 58.203125 57.90625 53.265625 
Q 57.90625 48.6875 55.421875 44.625 
Q 52.9375 40.578125 47.90625 38.09375 
Q 54.390625 36.1875 57.875 31.59375 
Q 61.375 27 61.375 20.75 
Q 61.375 15.71875 59.25 11.390625 
Q 57.125 7.078125 54 4.734375 
Q 50.875 2.390625 46.15625 1.1875 
Q 41.453125 0 34.625 0 
z
M 16.796875 41.5 
L 32.28125 41.5 
Q 38.578125 41.5 41.3125 42.328125 
Q 44.921875 43.40625 46.75 45.890625 
Q 48.578125 48.390625 48.578125 52.15625 
Q 48.578125 55.71875 46.875 58.421875 
Q 45.171875 61.140625 41.984375 62.140625 
Q 38.8125 63.140625 31.109375 63.140625 
L 16.796875 63.140625 
z
M 16.796875 8.453125 
L 34.625 8.453125 
Q 39.203125 8.453125 41.0625 8.796875 
Q 44.34375 9.375 46.53125 10.734375 
Q 48.734375 12.109375 50.140625 14.71875 
Q 51.5625 17.328125 51.5625 20.75 
Q 51.5625 24.75 49.515625 27.703125 
Q 47.46875 30.671875 43.828125 31.859375 
Q 40.1875 33.0625 33.34375 33.0625 
L 16.796875 33.0625 
z
" id="ArialMT-42"/>
     </defs>
     <g style="fill:#262626;" transform="translate(109.0 93.1849431818)scale(0.1 -0.1)">
      <use xlink:href="#ArialMT-42"/>
      <use x="66.69921875" xlink:href="#ArialMT-69"/>
      <use x="88.916015625" xlink:href="#ArialMT-6f"/>
      <use x="144.53125" xlink:href="#ArialMT-6d"/>
      <use x="227.83203125" xlink:href="#ArialMT-61"/>
      <use x="283.447265625" xlink:href="#ArialMT-73"/>
      <use x="333.447265625" xlink:href="#ArialMT-73"/>
     </g>
    </g>
   </g>
  </g>
  <g id="axes_2">
   <g id="matplotlib.axis_3">
    <g id="ytick_7">
     <g id="line2d_22">
      <defs>
       <path d="M 0 0 
L 6 0 
" id="mfeac895ae0" style="stroke:#262626;"/>
      </defs>
      <g>
       <use style="fill:#262626;stroke:#262626;" x="518.4" xlink:href="#mfeac895ae0" y="109.963636364"/>
      </g>
     </g>
     <g id="text_18">
      <!-- 0 -->
      <g style="fill:#262626;" transform="translate(531.4 112.548792614)scale(0.1 -0.1)">
       <use xlink:href="#ArialMT-30"/>
      </g>
     </g>
    </g>
    <g id="ytick_8">
     <g id="line2d_23">
      <g>
       <use style="fill:#262626;stroke:#262626;" x="518.4" xlink:href="#mfeac895ae0" y="93.7309090909"/>
      </g>
     </g>
     <g id="text_19">
      <!-- 1 -->
      <g style="fill:#262626;" transform="translate(531.4 96.3160653409)scale(0.1 -0.1)">
       <use xlink:href="#ArialMT-31"/>
      </g>
     </g>
    </g>
    <g id="ytick_9">
     <g id="line2d_24">
      <g>
       <use style="fill:#262626;stroke:#262626;" x="518.4" xlink:href="#mfeac895ae0" y="77.4981818182"/>
      </g>
     </g>
     <g id="text_20">
      <!-- 2 -->
      <g style="fill:#262626;" transform="translate(531.4 80.0833380682)scale(0.1 -0.1)">
       <use xlink:href="#ArialMT-32"/>
      </g>
     </g>
    </g>
    <g id="ytick_10">
     <g id="line2d_25">
      <g>
       <use style="fill:#262626;stroke:#262626;" x="518.4" xlink:href="#mfeac895ae0" y="61.2654545455"/>
      </g>
     </g>
     <g id="text_21">
      <!-- 3 -->
      <defs>
       <path d="M 4.203125 18.890625 
L 12.984375 20.0625 
Q 14.5 12.59375 18.140625 9.296875 
Q 21.78125 6 27 6 
Q 33.203125 6 37.46875 10.296875 
Q 41.75 14.59375 41.75 20.953125 
Q 41.75 27 37.796875 30.921875 
Q 33.84375 34.859375 27.734375 34.859375 
Q 25.25 34.859375 21.53125 33.890625 
L 22.515625 41.609375 
Q 23.390625 41.5 23.921875 41.5 
Q 29.546875 41.5 34.03125 44.421875 
Q 38.53125 47.359375 38.53125 53.46875 
Q 38.53125 58.296875 35.25 61.46875 
Q 31.984375 64.65625 26.8125 64.65625 
Q 21.6875 64.65625 18.265625 61.421875 
Q 14.84375 58.203125 13.875 51.765625 
L 5.078125 53.328125 
Q 6.6875 62.15625 12.390625 67.015625 
Q 18.109375 71.875 26.609375 71.875 
Q 32.46875 71.875 37.390625 69.359375 
Q 42.328125 66.84375 44.9375 62.5 
Q 47.5625 58.15625 47.5625 53.265625 
Q 47.5625 48.640625 45.0625 44.828125 
Q 42.578125 41.015625 37.703125 38.765625 
Q 44.046875 37.3125 47.5625 32.6875 
Q 51.078125 28.078125 51.078125 21.140625 
Q 51.078125 11.765625 44.234375 5.25 
Q 37.40625 -1.265625 26.953125 -1.265625 
Q 17.53125 -1.265625 11.296875 4.34375 
Q 5.078125 9.96875 4.203125 18.890625 
" id="ArialMT-33"/>
      </defs>
      <g style="fill:#262626;" transform="translate(531.4 63.8506107955)scale(0.1 -0.1)">
       <use xlink:href="#ArialMT-33"/>
      </g>
     </g>
    </g>
    <g id="ytick_11">
     <g id="line2d_26">
      <g>
       <use style="fill:#262626;stroke:#262626;" x="518.4" xlink:href="#mfeac895ae0" y="45.0327272727"/>
      </g>
     </g>
     <g id="text_22">
      <!-- 4 -->
      <defs>
       <path d="M 32.328125 0 
L 32.328125 17.140625 
L 1.265625 17.140625 
L 1.265625 25.203125 
L 33.9375 71.578125 
L 41.109375 71.578125 
L 41.109375 25.203125 
L 50.78125 25.203125 
L 50.78125 17.140625 
L 41.109375 17.140625 
L 41.109375 0 
z
M 32.328125 25.203125 
L 32.328125 57.46875 
L 9.90625 25.203125 
z
" id="ArialMT-34"/>
      </defs>
      <g style="fill:#262626;" transform="translate(531.4 47.6178835227)scale(0.1 -0.1)">
       <use xlink:href="#ArialMT-34"/>
      </g>
     </g>
    </g>
    <g id="ytick_12">
     <g id="line2d_27">
      <g>
       <use style="fill:#262626;stroke:#262626;" x="518.4" xlink:href="#mfeac895ae0" y="28.8"/>
      </g>
     </g>
     <g id="text_23">
      <!-- 5 -->
      <g style="fill:#262626;" transform="translate(531.4 31.38515625)scale(0.1 -0.1)">
       <use xlink:href="#ArialMT-35"/>
      </g>
     </g>
    </g>
    <g id="text_24">
     <!-- Biomass (g DCW/L) -->
     <defs>
      <path d="M 0 -1.21875 
L 20.75 72.796875 
L 27.78125 72.796875 
L 7.078125 -1.21875 
z
" id="ArialMT-2f"/>
      <path d="M 20.21875 0 
L 1.21875 71.578125 
L 10.9375 71.578125 
L 21.828125 24.65625 
Q 23.578125 17.28125 24.859375 10.015625 
Q 27.59375 21.484375 28.078125 23.25 
L 41.703125 71.578125 
L 53.125 71.578125 
L 63.375 35.359375 
Q 67.234375 21.875 68.953125 10.015625 
Q 70.3125 16.796875 72.515625 25.59375 
L 83.734375 71.578125 
L 93.265625 71.578125 
L 73.640625 0 
L 64.5 0 
L 49.421875 54.546875 
Q 47.515625 61.375 47.171875 62.9375 
Q 46.046875 58.015625 45.0625 54.546875 
L 29.890625 0 
z
" id="ArialMT-57"/>
      <path d="M 7.328125 0 
L 7.328125 71.578125 
L 16.796875 71.578125 
L 16.796875 8.453125 
L 52.046875 8.453125 
L 52.046875 0 
z
" id="ArialMT-4c"/>
      <path d="M 7.71875 0 
L 7.71875 71.578125 
L 32.375 71.578125 
Q 40.71875 71.578125 45.125 70.5625 
Q 51.265625 69.140625 55.609375 65.4375 
Q 61.28125 60.640625 64.078125 53.1875 
Q 66.890625 45.75 66.890625 36.1875 
Q 66.890625 28.03125 64.984375 21.734375 
Q 63.09375 15.4375 60.109375 11.296875 
Q 57.125 7.171875 53.578125 4.796875 
Q 50.046875 2.4375 45.046875 1.21875 
Q 40.046875 0 33.546875 0 
z
M 17.1875 8.453125 
L 32.46875 8.453125 
Q 39.546875 8.453125 43.578125 9.765625 
Q 47.609375 11.078125 50 13.484375 
Q 53.375 16.84375 55.25 22.53125 
Q 57.125 28.21875 57.125 36.328125 
Q 57.125 47.5625 53.4375 53.59375 
Q 49.75 59.625 44.484375 61.671875 
Q 40.671875 63.140625 32.234375 63.140625 
L 17.1875 63.140625 
z
" id="ArialMT-44"/>
     </defs>
     <g style="fill:#262626;" transform="translate(549.96859375 117.970021307)rotate(-90.0)scale(0.11 -0.11)">
      <use xlink:href="#ArialMT-42"/>
      <use x="66.69921875" xlink:href="#ArialMT-69"/>
      <use x="88.916015625" xlink:href="#ArialMT-6f"/>
      <use x="144.53125" xlink:href="#ArialMT-6d"/>
      <use x="227.83203125" xlink:href="#ArialMT-61"/>
      <use x="283.447265625" xlink:href="#ArialMT-73"/>
      <use x="333.447265625" xlink:href="#ArialMT-73"/>
      <use x="383.447265625" xlink:href="#ArialMT-20"/>
      <use x="411.23046875" xlink:href="#ArialMT-28"/>
      <use x="444.53125" xlink:href="#ArialMT-67"/>
      <use x="500.146484375" xlink:href="#ArialMT-20"/>
      <use x="527.9296875" xlink:href="#ArialMT-44"/>
      <use x="600.146484375" xlink:href="#ArialMT-43"/>
      <use x="672.36328125" xlink:href="#ArialMT-57"/>
      <use x="766.748046875" xlink:href="#ArialMT-2f"/>
      <use x="794.53125" xlink:href="#ArialMT-4c"/>
      <use x="850.146484375" xlink:href="#ArialMT-29"/>
     </g>
    </g>
   </g>
   <g id="line2d_28">
    <path clip-path="url(#p42188b0a6e)" d="M 72 108.340364 
L 76.508294 108.269966 
L 81.016588 108.196572 
L 85.524883 108.120049 
L 90.033177 108.040268 
L 94.541471 107.957095 
L 99.049765 107.870393 
L 103.558059 107.780027 
L 108.066354 107.685839 
L 112.574648 107.587672 
L 117.082942 107.48537 
L 121.591236 107.378766 
L 126.09953 107.267698 
L 130.607825 107.151978 
L 135.116119 107.031421 
L 139.624413 106.905838 
L 144.132707 106.775035 
L 148.641001 106.638817 
L 153.149295 106.496963 
L 157.65759 106.349254 
L 162.165884 106.195469 
L 166.674178 106.035383 
L 171.182472 105.868761 
L 175.690766 105.695351 
L 180.199061 105.514897 
L 184.707355 105.327142 
L 189.215649 105.131826 
L 193.723943 104.928678 
L 198.232237 104.717408 
L 202.740532 104.497726 
L 207.248826 104.269338 
L 211.75712 104.031949 
L 216.265414 103.785251 
L 220.773708 103.52892 
L 225.282003 103.262632 
L 229.790297 102.986061 
L 234.298591 102.698879 
L 238.806885 102.400744 
L 243.315179 102.091306 
L 247.823474 101.770214 
L 252.331768 101.437118 
L 256.840062 101.091661 
L 261.348356 100.733481 
L 265.85665 100.362214 
L 270.364944 99.977495 
L 274.873239 99.578961 
L 279.381533 99.166244 
L 283.889827 98.738979 
L 288.398121 98.296808 
L 292.906415 97.839374 
L 297.41471 97.366327 
L 301.923004 96.877304 
L 306.431298 96.371969 
L 310.939592 95.850004 
L 315.447886 95.311087 
L 319.956181 94.754913 
L 324.464475 94.181161 
L 328.972769 93.589564 
L 333.481063 92.97988 
L 337.989357 92.351869 
L 342.497652 91.705316 
L 347.005946 91.03998 
L 351.51424 90.355716 
L 356.022534 89.652414 
L 360.530828 88.929961 
L 365.039123 88.188288 
L 369.547417 87.427288 
L 374.055711 86.646998 
L 378.564005 85.847493 
L 383.072299 85.028849 
L 387.580593 84.191197 
L 392.088888 83.334626 
L 396.597182 82.459414 
L 401.105476 81.565881 
L 405.61377 80.654344 
L 410.122064 79.725195 
L 414.630359 78.778775 
L 419.138653 77.815659 
L 423.646947 76.83646 
L 428.155241 75.841788 
L 432.663535 74.832343 
L 437.17183 73.808769 
L 441.680124 72.771981 
L 446.188418 71.722924 
L 450.696712 70.662542 
L 455.205006 69.591883 
L 459.713301 68.511931 
L 464.221595 67.423979 
L 468.729889 66.329345 
L 473.238183 65.229348 
L 477.746477 64.125434 
L 482.254772 63.018957 
L 486.763066 61.911664 
L 491.27136 60.805323 
L 495.779654 59.701704 
L 500.287948 58.602773 
L 504.796242 57.510312 
L 509.304537 56.42673 
L 513.812831 55.354452 
L 518.321125 54.295903 
" style="fill:none;stroke:#ccb974;stroke-linecap:round;stroke-width:1.75;"/>
   </g>
   <g id="patch_7">
    <path d="M 72 109.963636 
L 72 28.8 
" style="fill:none;stroke:#262626;stroke-linecap:square;stroke-linejoin:miter;stroke-width:1.25;"/>
   </g>
   <g id="patch_8">
    <path d="M 72 109.963636 
L 518.4 109.963636 
" style="fill:none;stroke:#262626;stroke-linecap:square;stroke-linejoin:miter;stroke-width:1.25;"/>
   </g>
   <g id="patch_9">
    <path d="M 518.4 109.963636 
L 518.4 28.8 
" style="fill:none;stroke:#262626;stroke-linecap:square;stroke-linejoin:miter;stroke-width:1.25;"/>
   </g>
  </g>
  <g id="axes_3">
   <g id="patch_10">
    <path d="M 72 252 
L 266.086957 252 
L 266.086957 170.836364 
L 72 170.836364 
z
" style="fill:#ffffff;"/>
   </g>
   <g id="matplotlib.axis_4">
    <g id="xtick_5">
     <g id="line2d_29">
      <g>
       <use style="fill:#262626;stroke:#262626;" x="72.0" xlink:href="#maabd49332d" y="252.0"/>
      </g>
     </g>
     <g id="text_25">
      <!-- 0 -->
      <g style="fill:#262626;" transform="translate(69.21953125 272.1578125)scale(0.1 -0.1)">
       <use xlink:href="#ArialMT-30"/>
      </g>
     </g>
    </g>
    <g id="xtick_6">
     <g id="line2d_30">
      <g>
       <use style="fill:#262626;stroke:#262626;" x="122.386021942" xlink:href="#maabd49332d" y="252.0"/>
      </g>
     </g>
     <g id="text_26">
      <!-- 5 -->
      <g style="fill:#262626;" transform="translate(119.605553192 272.1578125)scale(0.1 -0.1)">
       <use xlink:href="#ArialMT-35"/>
      </g>
     </g>
    </g>
    <g id="xtick_7">
     <g id="line2d_31">
      <g>
       <use style="fill:#262626;stroke:#262626;" x="172.772043885" xlink:href="#maabd49332d" y="252.0"/>
      </g>
     </g>
     <g id="text_27">
      <!-- 10 -->
      <g style="fill:#262626;" transform="translate(167.211106385 272.1578125)scale(0.1 -0.1)">
       <use xlink:href="#ArialMT-31"/>
       <use x="55.615234375" xlink:href="#ArialMT-30"/>
      </g>
     </g>
    </g>
    <g id="xtick_8">
     <g id="line2d_32">
      <g>
       <use style="fill:#262626;stroke:#262626;" x="223.158065827" xlink:href="#maabd49332d" y="252.0"/>
      </g>
     </g>
     <g id="text_28">
      <!-- 15 -->
      <g style="fill:#262626;" transform="translate(217.597128327 272.1578125)scale(0.1 -0.1)">
       <use xlink:href="#ArialMT-31"/>
       <use x="55.615234375" xlink:href="#ArialMT-35"/>
      </g>
     </g>
    </g>
    <g id="text_29">
     <!-- Time (hr) -->
     <g style="fill:#262626;" transform="translate(146.744415761 287.15296875)scale(0.11 -0.11)">
      <use xlink:href="#ArialMT-54"/>
      <use x="61.037109375" xlink:href="#ArialMT-69"/>
      <use x="83.25390625" xlink:href="#ArialMT-6d"/>
      <use x="166.5546875" xlink:href="#ArialMT-65"/>
      <use x="222.169921875" xlink:href="#ArialMT-20"/>
      <use x="249.953125" xlink:href="#ArialMT-28"/>
      <use x="283.25390625" xlink:href="#ArialMT-68"/>
      <use x="338.869140625" xlink:href="#ArialMT-72"/>
      <use x="372.169921875" xlink:href="#ArialMT-29"/>
     </g>
    </g>
   </g>
   <g id="matplotlib.axis_5">
    <g id="ytick_13">
     <g id="line2d_33">
      <g>
       <use style="fill:#262626;stroke:#262626;" x="72.0" xlink:href="#md6845f526c" y="252.0"/>
      </g>
     </g>
     <g id="text_30">
      <!-- 4 -->
      <g style="fill:#262626;" transform="translate(53.4390625 254.58515625)scale(0.1 -0.1)">
       <use xlink:href="#ArialMT-34"/>
      </g>
     </g>
    </g>
    <g id="ytick_14">
     <g id="line2d_34">
      <g>
       <use style="fill:#262626;stroke:#262626;" x="72.0" xlink:href="#md6845f526c" y="240.405194805"/>
      </g>
     </g>
     <g id="text_31">
      <!-- 5 -->
      <g style="fill:#262626;" transform="translate(53.4390625 242.990351055)scale(0.1 -0.1)">
       <use xlink:href="#ArialMT-35"/>
      </g>
     </g>
    </g>
    <g id="ytick_15">
     <g id="line2d_35">
      <g>
       <use style="fill:#262626;stroke:#262626;" x="72.0" xlink:href="#md6845f526c" y="228.81038961"/>
      </g>
     </g>
     <g id="text_32">
      <!-- 6 -->
      <defs>
       <path d="M 49.75 54.046875 
L 41.015625 53.375 
Q 39.84375 58.546875 37.703125 60.890625 
Q 34.125 64.65625 28.90625 64.65625 
Q 24.703125 64.65625 21.53125 62.3125 
Q 17.390625 59.28125 14.984375 53.46875 
Q 12.59375 47.65625 12.5 36.921875 
Q 15.671875 41.75 20.265625 44.09375 
Q 24.859375 46.4375 29.890625 46.4375 
Q 38.671875 46.4375 44.84375 39.96875 
Q 51.03125 33.5 51.03125 23.25 
Q 51.03125 16.5 48.125 10.71875 
Q 45.21875 4.9375 40.140625 1.859375 
Q 35.0625 -1.21875 28.609375 -1.21875 
Q 17.625 -1.21875 10.6875 6.859375 
Q 3.765625 14.9375 3.765625 33.5 
Q 3.765625 54.25 11.421875 63.671875 
Q 18.109375 71.875 29.4375 71.875 
Q 37.890625 71.875 43.28125 67.140625 
Q 48.6875 62.40625 49.75 54.046875 
M 13.875 23.1875 
Q 13.875 18.65625 15.796875 14.5 
Q 17.71875 10.359375 21.1875 8.171875 
Q 24.65625 6 28.46875 6 
Q 34.03125 6 38.03125 10.484375 
Q 42.046875 14.984375 42.046875 22.703125 
Q 42.046875 30.125 38.078125 34.390625 
Q 34.125 38.671875 28.125 38.671875 
Q 22.171875 38.671875 18.015625 34.390625 
Q 13.875 30.125 13.875 23.1875 
" id="ArialMT-36"/>
      </defs>
      <g style="fill:#262626;" transform="translate(53.4390625 231.39554586)scale(0.1 -0.1)">
       <use xlink:href="#ArialMT-36"/>
      </g>
     </g>
    </g>
    <g id="ytick_16">
     <g id="line2d_36">
      <g>
       <use style="fill:#262626;stroke:#262626;" x="72.0" xlink:href="#md6845f526c" y="217.215584416"/>
      </g>
     </g>
     <g id="text_33">
      <!-- 7 -->
      <defs>
       <path d="M 4.734375 62.203125 
L 4.734375 70.65625 
L 51.078125 70.65625 
L 51.078125 63.8125 
Q 44.234375 56.546875 37.515625 44.484375 
Q 30.8125 32.421875 27.15625 19.671875 
Q 24.515625 10.6875 23.78125 0 
L 14.75 0 
Q 14.890625 8.453125 18.0625 20.40625 
Q 21.234375 32.375 27.171875 43.484375 
Q 33.109375 54.59375 39.796875 62.203125 
z
" id="ArialMT-37"/>
      </defs>
      <g style="fill:#262626;" transform="translate(53.4390625 219.800740666)scale(0.1 -0.1)">
       <use xlink:href="#ArialMT-37"/>
      </g>
     </g>
    </g>
    <g id="ytick_17">
     <g id="line2d_37">
      <g>
       <use style="fill:#262626;stroke:#262626;" x="72.0" xlink:href="#md6845f526c" y="205.620779221"/>
      </g>
     </g>
     <g id="text_34">
      <!-- 8 -->
      <defs>
       <path d="M 17.671875 38.8125 
Q 12.203125 40.828125 9.5625 44.53125 
Q 6.9375 48.25 6.9375 53.421875 
Q 6.9375 61.234375 12.546875 66.546875 
Q 18.171875 71.875 27.484375 71.875 
Q 36.859375 71.875 42.578125 66.421875 
Q 48.296875 60.984375 48.296875 53.171875 
Q 48.296875 48.1875 45.671875 44.5 
Q 43.0625 40.828125 37.75 38.8125 
Q 44.34375 36.671875 47.78125 31.875 
Q 51.21875 27.09375 51.21875 20.453125 
Q 51.21875 11.28125 44.71875 5.03125 
Q 38.234375 -1.21875 27.640625 -1.21875 
Q 17.046875 -1.21875 10.546875 5.046875 
Q 4.046875 11.328125 4.046875 20.703125 
Q 4.046875 27.6875 7.59375 32.390625 
Q 11.140625 37.109375 17.671875 38.8125 
M 15.921875 53.71875 
Q 15.921875 48.640625 19.1875 45.40625 
Q 22.46875 42.1875 27.6875 42.1875 
Q 32.765625 42.1875 36.015625 45.375 
Q 39.265625 48.578125 39.265625 53.21875 
Q 39.265625 58.0625 35.90625 61.359375 
Q 32.5625 64.65625 27.59375 64.65625 
Q 22.5625 64.65625 19.234375 61.421875 
Q 15.921875 58.203125 15.921875 53.71875 
M 13.09375 20.65625 
Q 13.09375 16.890625 14.875 13.375 
Q 16.65625 9.859375 20.171875 7.921875 
Q 23.6875 6 27.734375 6 
Q 34.03125 6 38.125 10.046875 
Q 42.234375 14.109375 42.234375 20.359375 
Q 42.234375 26.703125 38.015625 30.859375 
Q 33.796875 35.015625 27.4375 35.015625 
Q 21.234375 35.015625 17.15625 30.90625 
Q 13.09375 26.8125 13.09375 20.65625 
" id="ArialMT-38"/>
      </defs>
      <g style="fill:#262626;" transform="translate(53.4390625 208.205935471)scale(0.1 -0.1)">
       <use xlink:href="#ArialMT-38"/>
      </g>
     </g>
    </g>
    <g id="ytick_18">
     <g id="line2d_38">
      <g>
       <use style="fill:#262626;stroke:#262626;" x="72.0" xlink:href="#md6845f526c" y="194.025974026"/>
      </g>
     </g>
     <g id="text_35">
      <!-- 9 -->
      <defs>
       <path d="M 5.46875 16.546875 
L 13.921875 17.328125 
Q 14.984375 11.375 18.015625 8.6875 
Q 21.046875 6 25.78125 6 
Q 29.828125 6 32.875 7.859375 
Q 35.9375 9.71875 37.890625 12.8125 
Q 39.84375 15.921875 41.15625 21.1875 
Q 42.484375 26.46875 42.484375 31.9375 
Q 42.484375 32.515625 42.4375 33.6875 
Q 39.796875 29.5 35.234375 26.875 
Q 30.671875 24.265625 25.34375 24.265625 
Q 16.453125 24.265625 10.296875 30.703125 
Q 4.15625 37.15625 4.15625 47.703125 
Q 4.15625 58.59375 10.578125 65.234375 
Q 17 71.875 26.65625 71.875 
Q 33.640625 71.875 39.421875 68.109375 
Q 45.21875 64.359375 48.21875 57.390625 
Q 51.21875 50.4375 51.21875 37.25 
Q 51.21875 23.53125 48.234375 15.40625 
Q 45.265625 7.28125 39.375 3.03125 
Q 33.5 -1.21875 25.59375 -1.21875 
Q 17.1875 -1.21875 11.859375 3.4375 
Q 6.546875 8.109375 5.46875 16.546875 
M 41.453125 48.140625 
Q 41.453125 55.71875 37.421875 60.15625 
Q 33.40625 64.59375 27.734375 64.59375 
Q 21.875 64.59375 17.53125 59.8125 
Q 13.1875 55.03125 13.1875 47.40625 
Q 13.1875 40.578125 17.3125 36.296875 
Q 21.4375 32.03125 27.484375 32.03125 
Q 33.59375 32.03125 37.515625 36.296875 
Q 41.453125 40.578125 41.453125 48.140625 
" id="ArialMT-39"/>
      </defs>
      <g style="fill:#262626;" transform="translate(53.4390625 196.611130276)scale(0.1 -0.1)">
       <use xlink:href="#ArialMT-39"/>
      </g>
     </g>
    </g>
    <g id="ytick_19">
     <g id="line2d_39">
      <g>
       <use style="fill:#262626;stroke:#262626;" x="72.0" xlink:href="#md6845f526c" y="182.431168831"/>
      </g>
     </g>
     <g id="text_36">
      <!-- 10 -->
      <g style="fill:#262626;" transform="translate(47.878125 185.016325081)scale(0.1 -0.1)">
       <use xlink:href="#ArialMT-31"/>
       <use x="55.615234375" xlink:href="#ArialMT-30"/>
      </g>
     </g>
    </g>
    <g id="ytick_20">
     <g id="line2d_40">
      <g>
       <use style="fill:#262626;stroke:#262626;" x="72.0" xlink:href="#md6845f526c" y="170.836363636"/>
      </g>
     </g>
     <g id="text_37">
      <!-- 11 -->
      <g style="fill:#262626;" transform="translate(47.8890625 173.421519886)scale(0.1 -0.1)">
       <use xlink:href="#ArialMT-31"/>
       <use x="55.505859375" xlink:href="#ArialMT-31"/>
      </g>
     </g>
    </g>
    <g id="text_38">
     <!-- mM / g DCW * hr -->
     <defs>
      <path d="M 3.125 58.453125 
L 5.375 65.375 
Q 13.140625 62.640625 16.65625 60.640625 
Q 15.71875 69.484375 15.671875 72.796875 
L 22.75 72.796875 
Q 22.609375 67.96875 21.625 60.6875 
Q 26.65625 63.234375 33.15625 65.375 
L 35.40625 58.453125 
Q 29.203125 56.390625 23.25 55.71875 
Q 26.21875 53.125 31.640625 46.484375 
L 25.78125 42.328125 
Q 22.953125 46.1875 19.09375 52.828125 
Q 15.484375 45.953125 12.75 42.328125 
L 6.984375 46.484375 
Q 12.640625 53.46875 15.09375 55.71875 
Q 8.796875 56.9375 3.125 58.453125 
" id="ArialMT-2a"/>
     </defs>
     <g style="fill:#262626;" transform="translate(40.56296875 252.973259943)rotate(-90.0)scale(0.11 -0.11)">
      <use xlink:href="#ArialMT-6d"/>
      <use x="83.30078125" xlink:href="#ArialMT-4d"/>
      <use x="166.6015625" xlink:href="#ArialMT-20"/>
      <use x="194.384765625" xlink:href="#ArialMT-2f"/>
      <use x="222.16796875" xlink:href="#ArialMT-20"/>
      <use x="249.951171875" xlink:href="#ArialMT-67"/>
      <use x="305.56640625" xlink:href="#ArialMT-20"/>
      <use x="333.349609375" xlink:href="#ArialMT-44"/>
      <use x="405.56640625" xlink:href="#ArialMT-43"/>
      <use x="477.783203125" xlink:href="#ArialMT-57"/>
      <use x="572.16796875" xlink:href="#ArialMT-20"/>
      <use x="599.951171875" xlink:href="#ArialMT-2a"/>
      <use x="638.8671875" xlink:href="#ArialMT-20"/>
      <use x="666.650390625" xlink:href="#ArialMT-68"/>
      <use x="722.265625" xlink:href="#ArialMT-72"/>
     </g>
    </g>
   </g>
   <g id="patch_11">
    <path clip-path="url(#pf10f19117c)" d="M 72 252 
L 72 170.836364 
L 266.052663 170.836364 
L 266.052663 252 
z
" style="fill:#e8f6f2;"/>
   </g>
   <g id="line2d_41">
    <path clip-path="url(#pf10f19117c)" d="M 72 175.73624 
L 73.960128 175.83499 
L 75.920256 175.9196 
L 77.880384 176.000043 
L 79.840512 176.084754 
L 81.80064 176.165356 
L 83.760767 176.279925 
L 85.720895 176.382753 
L 87.681023 176.483131 
L 89.641151 176.588905 
L 91.601279 176.693344 
L 93.561407 176.827757 
L 95.521535 176.953104 
L 97.481663 177.0779 
L 99.441791 177.209314 
L 101.401919 177.342132 
L 103.362047 177.501223 
L 105.322174 177.654246 
L 107.282302 177.808818 
L 109.24243 177.971328 
L 111.202558 178.13795 
L 113.162686 178.327501 
L 115.122814 178.514329 
L 117.082942 178.70502 
L 119.04307 178.905074 
L 121.003198 179.11191 
L 122.963326 179.33877 
L 124.923454 179.566609 
L 126.883581 179.800843 
L 128.843709 180.045963 
L 130.803837 180.300493 
L 132.763965 180.572675 
L 134.724093 180.849878 
L 136.684221 181.136215 
L 138.644349 181.435048 
L 140.604477 181.745864 
L 142.564605 182.07258 
L 144.524733 182.408659 
L 146.484861 182.756783 
L 148.444988 183.119073 
L 150.405116 183.495843 
L 152.365244 183.887466 
L 154.325372 184.293 
L 156.2855 184.713592 
L 158.245628 185.150043 
L 160.205756 185.603358 
L 162.165884 186.071238 
L 164.126012 186.557632 
L 166.08614 187.062099 
L 168.046268 187.58407 
L 170.006395 188.12513 
L 171.966523 188.681223 
L 173.926651 189.260269 
L 175.886779 189.860256 
L 177.846907 190.479261 
L 179.807035 191.119348 
L 181.767163 191.775608 
L 183.727291 192.458815 
L 185.687419 193.165493 
L 187.647547 193.892458 
L 189.607675 194.642181 
L 191.567803 195.409697 
L 193.52793 196.207386 
L 195.488058 197.030526 
L 197.448186 197.874858 
L 199.408314 198.743205 
L 201.368442 199.631144 
L 203.32857 200.551413 
L 205.288698 201.498362 
L 207.248826 202.466945 
L 209.208954 203.460286 
L 211.169082 204.474847 
L 213.12921 205.522636 
L 215.089337 206.597485 
L 217.049465 207.693918 
L 219.009593 208.815318 
L 220.969721 209.95911 
L 222.929849 211.135858 
L 224.889977 212.339321 
L 226.850105 213.563975 
L 228.810233 214.813462 
L 230.770361 216.086058 
L 232.730489 217.39079 
L 234.690617 218.721723 
L 236.650744 220.073628 
L 238.610872 221.45054 
L 240.571 222.85152 
L 242.531128 224.284799 
L 244.491256 225.744978 
L 246.451384 227.227331 
L 248.411512 228.73682 
L 250.37164 230.27365 
L 252.331768 231.847145 
L 254.291896 233.452413 
L 256.252024 235.085218 
L 258.212151 236.753018 
L 260.172279 238.458576 
L 262.132407 240.215685 
L 264.092535 242.01963 
L 266.052663 243.866429 
" style="fill:none;stroke:#4c72b0;stroke-linecap:round;stroke-width:1.75;"/>
   </g>
   <g id="line2d_42">
    <path clip-path="url(#pf10f19117c)" d="M 72 243.866429 
L 73.960128 243.866429 
L 75.920256 243.866429 
L 77.880384 243.866429 
L 79.840512 243.866429 
L 81.80064 243.866429 
L 83.760767 243.866429 
L 85.720895 243.866429 
L 87.681023 243.866429 
L 89.641151 243.866429 
L 91.601279 243.866429 
L 93.561407 243.866429 
L 95.521535 243.866429 
L 97.481663 243.866429 
L 99.441791 243.866429 
L 101.401919 243.866429 
L 103.362047 243.866429 
L 105.322174 243.866429 
L 107.282302 243.866429 
L 109.24243 243.866429 
L 111.202558 243.866429 
L 113.162686 243.866429 
L 115.122814 243.866429 
L 117.082942 243.866429 
L 119.04307 243.866429 
L 121.003198 243.866429 
L 122.963326 243.866429 
L 124.923454 243.866429 
L 126.883581 243.866429 
L 128.843709 243.866429 
L 130.803837 243.866429 
L 132.763965 243.866429 
L 134.724093 243.866429 
L 136.684221 243.866429 
L 138.644349 243.866429 
L 140.604477 243.866429 
L 142.564605 243.866429 
L 144.524733 243.866429 
L 146.484861 243.866429 
L 148.444988 243.866429 
L 150.405116 243.866429 
L 152.365244 243.866429 
L 154.325372 243.866429 
L 156.2855 243.866429 
L 158.245628 243.866429 
L 160.205756 243.866429 
L 162.165884 243.866429 
L 164.126012 243.866429 
L 166.08614 243.866429 
L 168.046268 243.866429 
L 170.006395 243.866429 
L 171.966523 243.866429 
L 173.926651 243.866429 
L 175.886779 243.866429 
L 177.846907 243.866429 
L 179.807035 243.866429 
L 181.767163 243.866429 
L 183.727291 243.866429 
L 185.687419 243.866429 
L 187.647547 243.866429 
L 189.607675 243.866429 
L 191.567803 243.866429 
L 193.52793 243.866429 
L 195.488058 243.866429 
L 197.448186 243.866429 
L 199.408314 243.866429 
L 201.368442 243.866429 
L 203.32857 243.866429 
L 205.288698 243.866429 
L 207.248826 243.866429 
L 209.208954 243.866429 
L 211.169082 243.866429 
L 213.12921 243.866429 
L 215.089337 243.866429 
L 217.049465 243.866429 
L 219.009593 243.866429 
L 220.969721 243.866429 
L 222.929849 243.866429 
L 224.889977 243.866429 
L 226.850105 243.866429 
L 228.810233 243.866429 
L 230.770361 243.866429 
L 232.730489 243.866429 
L 234.690617 243.866429 
L 236.650744 243.866429 
L 238.610872 243.866429 
L 240.571 243.866429 
L 242.531128 243.866429 
L 244.491256 243.866429 
L 246.451384 243.866429 
L 248.411512 243.866429 
L 250.37164 243.866429 
L 252.331768 243.866429 
L 254.291896 243.866429 
L 256.252024 243.866429 
L 258.212151 243.866429 
L 260.172279 243.866429 
L 262.132407 243.866429 
L 264.092535 243.866429 
L 266.052663 243.866429 
" style="fill:none;stroke:#c44e52;stroke-dasharray:6.000000,6.000000;stroke-dashoffset:0.0;stroke-width:1.75;"/>
   </g>
   <g id="patch_12">
    <path d="M 72 252 
L 72 170.836364 
" style="fill:none;stroke:#262626;stroke-linecap:square;stroke-linejoin:miter;stroke-width:1.25;"/>
   </g>
   <g id="patch_13">
    <path d="M 72 252 
L 266.086957 252 
" style="fill:none;stroke:#262626;stroke-linecap:square;stroke-linejoin:miter;stroke-width:1.25;"/>
   </g>
   <g id="text_39">
    <!-- ATP Maintenance -->
    <defs>
     <path d="M 7.71875 0 
L 7.71875 71.578125 
L 34.71875 71.578125 
Q 41.84375 71.578125 45.609375 70.90625 
Q 50.875 70.015625 54.4375 67.546875 
Q 58.015625 65.09375 60.1875 60.640625 
Q 62.359375 56.203125 62.359375 50.875 
Q 62.359375 41.75 56.546875 35.421875 
Q 50.734375 29.109375 35.546875 29.109375 
L 17.1875 29.109375 
L 17.1875 0 
z
M 17.1875 37.546875 
L 35.6875 37.546875 
Q 44.875 37.546875 48.734375 40.96875 
Q 52.59375 44.390625 52.59375 50.59375 
Q 52.59375 55.078125 50.3125 58.265625 
Q 48.046875 61.46875 44.34375 62.5 
Q 41.9375 63.140625 35.5 63.140625 
L 17.1875 63.140625 
z
" id="ArialMT-50"/>
    </defs>
    <g style="fill:#262626;" transform="translate(121.361290761 165.836363636)scale(0.12 -0.12)">
     <use xlink:href="#ArialMT-41"/>
     <use x="66.58984375" xlink:href="#ArialMT-54"/>
     <use x="127.673828125" xlink:href="#ArialMT-50"/>
     <use x="194.357421875" xlink:href="#ArialMT-20"/>
     <use x="222.140625" xlink:href="#ArialMT-4d"/>
     <use x="305.44140625" xlink:href="#ArialMT-61"/>
     <use x="361.056640625" xlink:href="#ArialMT-69"/>
     <use x="383.2734375" xlink:href="#ArialMT-6e"/>
     <use x="438.888671875" xlink:href="#ArialMT-74"/>
     <use x="466.671875" xlink:href="#ArialMT-65"/>
     <use x="522.287109375" xlink:href="#ArialMT-6e"/>
     <use x="577.90234375" xlink:href="#ArialMT-61"/>
     <use x="633.517578125" xlink:href="#ArialMT-6e"/>
     <use x="689.1328125" xlink:href="#ArialMT-63"/>
     <use x="739.1328125" xlink:href="#ArialMT-65"/>
    </g>
   </g>
  </g>
  <g id="axes_4">
   <g id="patch_14">
    <path d="M 324.313043 252 
L 518.4 252 
L 518.4 170.836364 
L 324.313043 170.836364 
z
" style="fill:#ffffff;"/>
   </g>
   <g id="matplotlib.axis_6">
    <g id="xtick_9">
     <g id="line2d_43">
      <g>
       <use style="fill:#262626;stroke:#262626;" x="324.313043478" xlink:href="#maabd49332d" y="252.0"/>
      </g>
     </g>
     <g id="text_40">
      <!-- 0 -->
      <g style="fill:#262626;" transform="translate(321.532574728 272.1578125)scale(0.1 -0.1)">
       <use xlink:href="#ArialMT-30"/>
      </g>
     </g>
    </g>
    <g id="xtick_10">
     <g id="line2d_44">
      <g>
       <use style="fill:#262626;stroke:#262626;" x="374.699065421" xlink:href="#maabd49332d" y="252.0"/>
      </g>
     </g>
     <g id="text_41">
      <!-- 5 -->
      <g style="fill:#262626;" transform="translate(371.918596671 272.1578125)scale(0.1 -0.1)">
       <use xlink:href="#ArialMT-35"/>
      </g>
     </g>
    </g>
    <g id="xtick_11">
     <g id="line2d_45">
      <g>
       <use style="fill:#262626;stroke:#262626;" x="425.085087363" xlink:href="#maabd49332d" y="252.0"/>
      </g>
     </g>
     <g id="text_42">
      <!-- 10 -->
      <g style="fill:#262626;" transform="translate(419.524149863 272.1578125)scale(0.1 -0.1)">
       <use xlink:href="#ArialMT-31"/>
       <use x="55.615234375" xlink:href="#ArialMT-30"/>
      </g>
     </g>
    </g>
    <g id="xtick_12">
     <g id="line2d_46">
      <g>
       <use style="fill:#262626;stroke:#262626;" x="475.471109305" xlink:href="#maabd49332d" y="252.0"/>
      </g>
     </g>
     <g id="text_43">
      <!-- 15 -->
      <g style="fill:#262626;" transform="translate(469.910171805 272.1578125)scale(0.1 -0.1)">
       <use xlink:href="#ArialMT-31"/>
       <use x="55.615234375" xlink:href="#ArialMT-35"/>
      </g>
     </g>
    </g>
    <g id="text_44">
     <!-- Time (hr) -->
     <g style="fill:#262626;" transform="translate(399.057459239 287.15296875)scale(0.11 -0.11)">
      <use xlink:href="#ArialMT-54"/>
      <use x="61.037109375" xlink:href="#ArialMT-69"/>
      <use x="83.25390625" xlink:href="#ArialMT-6d"/>
      <use x="166.5546875" xlink:href="#ArialMT-65"/>
      <use x="222.169921875" xlink:href="#ArialMT-20"/>
      <use x="249.953125" xlink:href="#ArialMT-28"/>
      <use x="283.25390625" xlink:href="#ArialMT-68"/>
      <use x="338.869140625" xlink:href="#ArialMT-72"/>
      <use x="372.169921875" xlink:href="#ArialMT-29"/>
     </g>
    </g>
   </g>
   <g id="matplotlib.axis_7">
    <g id="ytick_21">
     <g id="line2d_47">
      <g>
       <use style="fill:#262626;stroke:#262626;" x="324.313043478" xlink:href="#md6845f526c" y="252.0"/>
      </g>
     </g>
     <g id="text_45">
      <!-- 0 -->
      <g style="fill:#262626;" transform="translate(305.752105978 254.58515625)scale(0.1 -0.1)">
       <use xlink:href="#ArialMT-30"/>
      </g>
     </g>
    </g>
    <g id="ytick_22">
     <g id="line2d_48">
      <g>
       <use style="fill:#262626;stroke:#262626;" x="324.313043478" xlink:href="#md6845f526c" y="235.767272727"/>
      </g>
     </g>
     <g id="text_46">
      <!-- 2 -->
      <g style="fill:#262626;" transform="translate(305.752105978 238.352428977)scale(0.1 -0.1)">
       <use xlink:href="#ArialMT-32"/>
      </g>
     </g>
    </g>
    <g id="ytick_23">
     <g id="line2d_49">
      <g>
       <use style="fill:#262626;stroke:#262626;" x="324.313043478" xlink:href="#md6845f526c" y="219.534545455"/>
      </g>
     </g>
     <g id="text_47">
      <!-- 4 -->
      <g style="fill:#262626;" transform="translate(305.752105978 222.119701705)scale(0.1 -0.1)">
       <use xlink:href="#ArialMT-34"/>
      </g>
     </g>
    </g>
    <g id="ytick_24">
     <g id="line2d_50">
      <g>
       <use style="fill:#262626;stroke:#262626;" x="324.313043478" xlink:href="#md6845f526c" y="203.301818182"/>
      </g>
     </g>
     <g id="text_48">
      <!-- 6 -->
      <g style="fill:#262626;" transform="translate(305.752105978 205.886974432)scale(0.1 -0.1)">
       <use xlink:href="#ArialMT-36"/>
      </g>
     </g>
    </g>
    <g id="ytick_25">
     <g id="line2d_51">
      <g>
       <use style="fill:#262626;stroke:#262626;" x="324.313043478" xlink:href="#md6845f526c" y="187.069090909"/>
      </g>
     </g>
     <g id="text_49">
      <!-- 8 -->
      <g style="fill:#262626;" transform="translate(305.752105978 189.654247159)scale(0.1 -0.1)">
       <use xlink:href="#ArialMT-38"/>
      </g>
     </g>
    </g>
    <g id="ytick_26">
     <g id="line2d_52">
      <g>
       <use style="fill:#262626;stroke:#262626;" x="324.313043478" xlink:href="#md6845f526c" y="170.836363636"/>
      </g>
     </g>
     <g id="text_50">
      <!-- 10 -->
      <g style="fill:#262626;" transform="translate(300.191168478 173.421519886)scale(0.1 -0.1)">
       <use xlink:href="#ArialMT-31"/>
       <use x="55.615234375" xlink:href="#ArialMT-30"/>
      </g>
     </g>
    </g>
   </g>
   <g id="patch_15">
    <path clip-path="url(#p1ef5757a53)" d="M 324.313043 252 
L 324.313043 170.836364 
L 518.365707 170.836364 
L 518.365707 252 
z
" style="fill:#e8f6f2;"/>
   </g>
   <g id="line2d_53">
    <path clip-path="url(#p1ef5757a53)" d="M 324.313043 175.904214 
L 326.273171 175.965485 
L 328.233299 176.017983 
L 330.193427 176.067895 
L 332.153555 176.120455 
L 334.113683 176.170466 
L 336.073811 176.241552 
L 338.033939 176.305353 
L 339.994067 176.367634 
L 341.954195 176.433264 
L 343.914323 176.498064 
L 345.87445 176.581463 
L 347.834578 176.659237 
L 349.794706 176.736668 
L 351.754834 176.818206 
L 353.714962 176.900615 
L 355.67509 176.999325 
L 357.635218 177.094271 
L 359.595346 177.190178 
L 361.555474 177.29101 
L 363.515602 177.394393 
L 365.47573 177.512003 
L 367.435857 177.627924 
L 369.395985 177.746241 
L 371.356113 177.870367 
L 373.316241 177.998702 
L 375.276369 178.139461 
L 377.236497 178.280827 
L 379.196625 178.426162 
L 381.156753 178.57825 
L 383.116881 178.736177 
L 385.077009 178.905057 
L 387.037137 179.077052 
L 388.997265 179.254714 
L 390.957392 179.44013 
L 392.91752 179.632981 
L 394.877648 179.835697 
L 396.837776 180.044223 
L 398.797904 180.260221 
L 400.758032 180.48501 
L 402.71816 180.718783 
L 404.678288 180.961771 
L 406.638416 181.213392 
L 408.598544 181.474355 
L 410.558672 181.745158 
L 412.518799 182.026424 
L 414.478927 182.316728 
L 416.439055 182.618518 
L 418.399183 182.931523 
L 420.359311 183.255388 
L 422.319439 183.591098 
L 424.279567 183.936135 
L 426.239695 184.295413 
L 428.199823 184.667684 
L 430.159951 185.051755 
L 432.120079 185.448908 
L 434.080206 185.856095 
L 436.040334 186.280001 
L 438.000462 186.718471 
L 439.96059 187.169528 
L 441.920718 187.634706 
L 443.880846 188.110923 
L 445.840974 188.605862 
L 447.801102 189.116592 
L 449.76123 189.640471 
L 451.721358 190.179251 
L 453.681486 190.730187 
L 455.641613 191.301182 
L 457.601741 191.888732 
L 459.561869 192.489705 
L 461.521997 193.106039 
L 463.482125 193.73554 
L 465.442253 194.385656 
L 467.402381 195.052564 
L 469.362509 195.732863 
L 471.322637 196.428654 
L 473.282765 197.138337 
L 475.242893 197.86847 
L 477.20302 198.615177 
L 479.163148 199.375033 
L 481.123276 200.150297 
L 483.083404 200.9399 
L 485.043532 201.749441 
L 487.00366 202.57524 
L 488.963788 203.414051 
L 490.923916 204.268378 
L 492.884044 205.137638 
L 494.844172 206.026939 
L 496.8043 206.93293 
L 498.764427 207.852679 
L 500.724555 208.789266 
L 502.684683 209.742817 
L 504.644811 210.719117 
L 506.604939 211.71513 
L 508.565067 212.72823 
L 510.525195 213.763043 
L 512.485323 214.821284 
L 514.445451 215.91151 
L 516.405579 217.030796 
L 518.365707 218.176672 
" style="fill:none;stroke:#4c72b0;stroke-linecap:round;stroke-width:1.75;"/>
   </g>
   <g id="line2d_54">
    <path clip-path="url(#p1ef5757a53)" d="M 324.313043 175.915165 
L 326.273171 175.963746 
L 328.233299 176.014405 
L 330.193427 176.067233 
L 332.153555 176.122322 
L 334.113683 176.179763 
L 336.073811 176.239654 
L 338.033939 176.302089 
L 339.994067 176.36718 
L 341.954195 176.435037 
L 343.914323 176.505769 
L 345.87445 176.579494 
L 347.834578 176.656327 
L 349.794706 176.7364 
L 351.754834 176.819845 
L 353.714962 176.906794 
L 355.67509 176.997385 
L 357.635218 177.091758 
L 359.595346 177.190069 
L 361.555474 177.292473 
L 363.515602 177.399128 
L 365.47573 177.510197 
L 367.435857 177.625845 
L 369.395985 177.746256 
L 371.356113 177.871612 
L 373.316241 178.002097 
L 375.276369 178.1379 
L 377.236497 178.279217 
L 379.196625 178.426259 
L 381.156753 178.579236 
L 383.116881 178.738361 
L 385.077009 178.903851 
L 387.037137 179.075933 
L 388.997265 179.254844 
L 390.957392 179.440823 
L 392.91752 179.63411 
L 394.877648 179.834953 
L 396.837776 180.043604 
L 398.797904 180.260328 
L 400.758032 180.485387 
L 402.71816 180.719047 
L 404.678288 180.96158 
L 406.638416 181.213264 
L 408.598544 181.47438 
L 410.558672 181.74521 
L 412.518799 182.026037 
L 414.478927 182.317152 
L 416.439055 182.618847 
L 418.399183 182.93141 
L 420.359311 183.255129 
L 422.319439 183.590291 
L 424.279567 183.937199 
L 426.239695 184.296138 
L 428.199823 184.667386 
L 430.159951 185.051221 
L 432.120079 185.447918 
L 434.080206 185.857769 
L 436.040334 186.281034 
L 438.000462 186.717957 
L 439.96059 187.168783 
L 441.920718 187.633748 
L 443.880846 188.113116 
L 445.840974 188.607091 
L 447.801102 189.115858 
L 449.76123 189.639603 
L 451.721358 190.178496 
L 453.681486 190.732749 
L 455.641613 191.302485 
L 457.601741 191.887805 
L 459.561869 192.48881 
L 461.521997 193.105591 
L 463.482125 193.738283 
L 465.442253 194.386917 
L 467.402381 195.051499 
L 469.362509 195.732038 
L 471.322637 196.428541 
L 473.282765 197.141077 
L 475.242893 197.869599 
L 477.20302 198.614044 
L 479.163148 199.374348 
L 481.123276 200.15049 
L 483.083404 200.942521 
L 485.043532 201.750402 
L 487.00366 202.574089 
L 488.963788 203.413537 
L 490.923916 204.26884 
L 492.884044 205.140188 
L 494.844172 206.02776 
L 496.8043 206.931744 
L 498.764427 207.852328 
L 500.724555 208.790064 
L 502.684683 209.745636 
L 504.644811 210.719902 
L 506.604939 211.713738 
L 508.565067 212.728023 
L 510.525195 213.764517 
L 512.485323 214.825165 
L 514.445451 215.912421 
L 516.405579 217.028764 
L 518.365707 218.176672 
" style="fill:none;stroke:#c44e52;stroke-dasharray:6.000000,6.000000;stroke-dashoffset:0.0;stroke-width:1.75;"/>
   </g>
   <g id="patch_16">
    <path d="M 324.313043 252 
L 324.313043 170.836364 
" style="fill:none;stroke:#262626;stroke-linecap:square;stroke-linejoin:miter;stroke-width:1.25;"/>
   </g>
   <g id="patch_17">
    <path d="M 324.313043 252 
L 518.4 252 
" style="fill:none;stroke:#262626;stroke-linecap:square;stroke-linejoin:miter;stroke-width:1.25;"/>
   </g>
   <g id="text_51">
    <!-- Glucose Uptake -->
    <defs>
     <path d="M 54.6875 71.578125 
L 64.15625 71.578125 
L 64.15625 30.21875 
Q 64.15625 19.4375 61.71875 13.078125 
Q 59.28125 6.734375 52.90625 2.75 
Q 46.53125 -1.21875 36.1875 -1.21875 
Q 26.125 -1.21875 19.71875 2.25 
Q 13.328125 5.71875 10.59375 12.28125 
Q 7.859375 18.84375 7.859375 30.21875 
L 7.859375 71.578125 
L 17.328125 71.578125 
L 17.328125 30.28125 
Q 17.328125 20.953125 19.0625 16.53125 
Q 20.796875 12.109375 25.015625 9.71875 
Q 29.25 7.328125 35.359375 7.328125 
Q 45.796875 7.328125 50.234375 12.0625 
Q 54.6875 16.796875 54.6875 30.28125 
z
" id="ArialMT-55"/>
     <path d="M 6.640625 0 
L 6.640625 71.578125 
L 15.4375 71.578125 
L 15.4375 30.765625 
L 36.234375 51.859375 
L 47.609375 51.859375 
L 27.78125 32.625 
L 49.609375 0 
L 38.765625 0 
L 21.625 26.515625 
L 15.4375 20.5625 
L 15.4375 0 
z
" id="ArialMT-6b"/>
    </defs>
    <g style="fill:#262626;" transform="translate(378.670271739 165.836363636)scale(0.12 -0.12)">
     <use xlink:href="#ArialMT-47"/>
     <use x="77.783203125" xlink:href="#ArialMT-6c"/>
     <use x="100.0" xlink:href="#ArialMT-75"/>
     <use x="155.615234375" xlink:href="#ArialMT-63"/>
     <use x="205.615234375" xlink:href="#ArialMT-6f"/>
     <use x="261.23046875" xlink:href="#ArialMT-73"/>
     <use x="311.23046875" xlink:href="#ArialMT-65"/>
     <use x="366.845703125" xlink:href="#ArialMT-20"/>
     <use x="394.62890625" xlink:href="#ArialMT-55"/>
     <use x="466.845703125" xlink:href="#ArialMT-70"/>
     <use x="522.4609375" xlink:href="#ArialMT-74"/>
     <use x="550.244140625" xlink:href="#ArialMT-61"/>
     <use x="605.859375" xlink:href="#ArialMT-6b"/>
     <use x="655.859375" xlink:href="#ArialMT-65"/>
    </g>
   </g>
   <g id="legend_2">
    <g id="line2d_55">
     <path d="M 333.313043 223.367187 
L 353.313043 223.367187 
" style="fill:none;stroke:#4c72b0;stroke-linecap:round;stroke-width:1.75;"/>
    </g>
    <g id="line2d_56"/>
    <g id="text_52">
     <!-- Optimal flux -->
     <defs>
      <path d="M 4.828125 34.859375 
Q 4.828125 52.6875 14.390625 62.765625 
Q 23.96875 72.859375 39.109375 72.859375 
Q 49.03125 72.859375 56.984375 68.109375 
Q 64.9375 63.375 69.109375 54.90625 
Q 73.296875 46.4375 73.296875 35.6875 
Q 73.296875 24.8125 68.890625 16.21875 
Q 64.5 7.625 56.4375 3.203125 
Q 48.390625 -1.21875 39.0625 -1.21875 
Q 28.953125 -1.21875 20.984375 3.65625 
Q 13.03125 8.546875 8.921875 16.984375 
Q 4.828125 25.4375 4.828125 34.859375 
M 14.59375 34.71875 
Q 14.59375 21.78125 21.546875 14.328125 
Q 28.515625 6.890625 39.015625 6.890625 
Q 49.703125 6.890625 56.609375 14.40625 
Q 63.53125 21.921875 63.53125 35.75 
Q 63.53125 44.484375 60.578125 51 
Q 57.625 57.515625 51.921875 61.109375 
Q 46.234375 64.703125 39.15625 64.703125 
Q 29.109375 64.703125 21.84375 57.78125 
Q 14.59375 50.875 14.59375 34.71875 
" id="ArialMT-4f"/>
      <path d="M 8.6875 0 
L 8.6875 45.015625 
L 0.921875 45.015625 
L 0.921875 51.859375 
L 8.6875 51.859375 
L 8.6875 57.375 
Q 8.6875 62.59375 9.625 65.140625 
Q 10.890625 68.5625 14.078125 70.671875 
Q 17.28125 72.796875 23.046875 72.796875 
Q 26.765625 72.796875 31.25 71.921875 
L 29.9375 64.265625 
Q 27.203125 64.75 24.75 64.75 
Q 20.75 64.75 19.09375 63.03125 
Q 17.4375 61.328125 17.4375 56.640625 
L 17.4375 51.859375 
L 27.546875 51.859375 
L 27.546875 45.015625 
L 17.4375 45.015625 
L 17.4375 0 
z
" id="ArialMT-66"/>
     </defs>
     <g style="fill:#262626;" transform="translate(361.313043478 226.8671875)scale(0.1 -0.1)">
      <use xlink:href="#ArialMT-4f"/>
      <use x="77.783203125" xlink:href="#ArialMT-70"/>
      <use x="133.3984375" xlink:href="#ArialMT-74"/>
      <use x="161.181640625" xlink:href="#ArialMT-69"/>
      <use x="183.3984375" xlink:href="#ArialMT-6d"/>
      <use x="266.69921875" xlink:href="#ArialMT-61"/>
      <use x="322.314453125" xlink:href="#ArialMT-6c"/>
      <use x="344.53125" xlink:href="#ArialMT-20"/>
      <use x="372.314453125" xlink:href="#ArialMT-66"/>
      <use x="400.09765625" xlink:href="#ArialMT-6c"/>
      <use x="422.314453125" xlink:href="#ArialMT-75"/>
      <use x="477.9296875" xlink:href="#ArialMT-78"/>
     </g>
    </g>
    <g id="line2d_57">
     <path d="M 333.313043 237.5125 
L 353.313043 237.5125 
" style="fill:none;stroke:#c44e52;stroke-dasharray:6.000000,6.000000;stroke-dashoffset:0.0;stroke-width:1.75;"/>
    </g>
    <g id="line2d_58"/>
    <g id="text_53">
     <!-- Constraint -->
     <g style="fill:#262626;" transform="translate(361.313043478 241.0125)scale(0.1 -0.1)">
      <use xlink:href="#ArialMT-43"/>
      <use x="72.216796875" xlink:href="#ArialMT-6f"/>
      <use x="127.83203125" xlink:href="#ArialMT-6e"/>
      <use x="183.447265625" xlink:href="#ArialMT-73"/>
      <use x="233.447265625" xlink:href="#ArialMT-74"/>
      <use x="261.23046875" xlink:href="#ArialMT-72"/>
      <use x="294.53125" xlink:href="#ArialMT-61"/>
      <use x="350.146484375" xlink:href="#ArialMT-69"/>
      <use x="372.36328125" xlink:href="#ArialMT-6e"/>
      <use x="427.978515625" xlink:href="#ArialMT-74"/>
     </g>
    </g>
   </g>
  </g>
 </g>
 <defs>
  <clipPath id="p42188b0a6e">
   <rect height="81.1636363636" width="446.4" x="72.0" y="28.8"/>
  </clipPath>
  <clipPath id="pf10f19117c">
   <rect height="81.1636363636" width="194.086956522" x="72.0" y="170.836363636"/>
  </clipPath>
  <clipPath id="p1ef5757a53">
   <rect height="81.1636363636" width="194.086956522" x="324.313043478" y="170.836363636"/>
  </clipPath>
 </defs>
</svg>
